<svg width="21" height="20" viewBox="0 0 21 20" fill="none" xmlns="http://www.w3.org/2000/svg">
<path d="M5.14648 2.22105V17.779C5.1465 17.9878 5.32296 18.1779 5.51691 18.1779H16.6297C16.8237 18.1779 17.0001 17.9878 17.0001 17.779V5.41242C17.0001 5.3062 16.9603 5.20037 16.8902 5.12569L13.9267 1.93432C13.8578 1.86252 13.7622 1.82132 13.6663 1.82212H5.51691C5.31864 1.82352 5.14669 2.04447 5.14648 2.22105ZM5.88734 2.61997H13.2959V5.41242C13.2959 5.62127 13.4723 5.81132 13.6663 5.81134H16.2593V17.38H5.88734V2.61997ZM14.0367 3.18095L15.7384 5.01349H14.0367V3.18095Z" fill="#0051FF"/>
</svg>
