<svg width="20" height="20" viewBox="0 0 20 20" fill="none" xmlns="http://www.w3.org/2000/svg">
<path fill-rule="evenodd" clip-rule="evenodd" d="M2.37252 14.4888L0.436477 16.4249L1.32036 17.3087L3.249 15.3801C4.73523 16.684 6.68307 17.4744 8.81554 17.4744C11.0307 17.4744 13.0467 16.6215 14.5529 15.2261L18.7413 19.4145L19.6251 18.5306L15.4054 14.3108C16.5658 12.8647 17.26 11.0284 17.26 9.02997C17.26 6.89752 16.4696 4.94968 15.1657 3.46347L17.188 1.44114L16.3042 0.557251L14.2744 2.58698C12.8024 1.33853 10.8969 0.58553 8.81554 0.58553C4.1518 0.58553 0.371094 4.36624 0.371094 9.02997C0.371094 11.1113 1.12409 13.0168 2.37252 14.4888ZM4.13512 14.494C5.39327 15.5727 7.0283 16.2244 8.81554 16.2244C12.7889 16.2244 16.01 13.0034 16.01 9.02997C16.01 7.24274 15.3583 5.60772 14.2796 4.34958L4.13512 14.494ZM13.387 3.47438L3.25993 13.6014C2.23601 12.3585 1.62109 10.7661 1.62109 9.02997C1.62109 5.05659 4.84216 1.83553 8.81554 1.83553C10.5516 1.83553 12.1441 2.45046 13.387 3.47438Z" fill="black"/>
</svg>
