<svg width="40" height="22" viewBox="0 0 40 22" fill="none" xmlns="http://www.w3.org/2000/svg">
<path fill-rule="evenodd" clip-rule="evenodd" d="M19.9648 12.1453L37.2773 18.8645L38.7246 15.1355L25.4925 10L38.7246 4.8645L37.2773 1.1355L19.9648 7.85465L2.65234 1.1355L1.20508 4.8645L14.4372 10L1.20508 15.1355L2.65234 18.8645L19.9648 12.1453Z" fill="#FFE6DD"/>
<path d="M37.2773 18.8645L37.0964 19.3306L37.5626 19.5115L37.7435 19.0454L37.2773 18.8645ZM19.9648 12.1453L20.1457 11.6792L19.9648 11.609L19.7839 11.6792L19.9648 12.1453ZM38.7246 15.1355L39.1907 15.3164L39.3716 14.8503L38.9055 14.6694L38.7246 15.1355ZM25.4925 10L25.3116 9.53387L24.1106 10L25.3116 10.4661L25.4925 10ZM38.7246 4.8645L38.9055 5.33062L39.3716 5.14971L39.1907 4.68359L38.7246 4.8645ZM37.2773 1.1355L37.7435 0.95459L37.5626 0.488465L37.0964 0.669373L37.2773 1.1355ZM19.9648 7.85465L19.7839 8.32078L19.9648 8.39099L20.1457 8.32078L19.9648 7.85465ZM2.65234 1.1355L2.83325 0.669373L2.36712 0.488465L2.18621 0.95459L2.65234 1.1355ZM1.20508 4.8645L0.738953 4.68359L0.558046 5.14971L1.02417 5.33062L1.20508 4.8645ZM14.4372 10L14.6181 10.4661L15.8191 10L14.6181 9.53387L14.4372 10ZM1.20508 15.1355L1.02417 14.6694L0.558046 14.8503L0.738953 15.3164L1.20508 15.1355ZM2.65234 18.8645L2.18621 19.0454L2.36712 19.5115L2.83325 19.3306L2.65234 18.8645ZM37.4582 18.3984L20.1457 11.6792L19.7839 12.6115L37.0964 19.3306L37.4582 18.3984ZM38.2585 14.9546L36.8112 18.6836L37.7435 19.0454L39.1907 15.3164L38.2585 14.9546ZM25.3116 10.4661L38.5437 15.6016L38.9055 14.6694L25.6734 9.53387L25.3116 10.4661ZM38.5437 4.39837L25.3116 9.53387L25.6734 10.4661L38.9055 5.33062L38.5437 4.39837ZM36.8112 1.31641L38.2585 5.04541L39.1907 4.68359L37.7435 0.95459L36.8112 1.31641ZM20.1457 8.32078L37.4582 1.60162L37.0964 0.669373L19.7839 7.38853L20.1457 8.32078ZM2.47143 1.60162L19.7839 8.32078L20.1457 7.38853L2.83325 0.669373L2.47143 1.60162ZM1.6712 5.0454L3.11846 1.31641L2.18621 0.95459L0.738953 4.68359L1.6712 5.0454ZM14.6181 9.53387L1.38599 4.39837L1.02417 5.33062L14.2563 10.4661L14.6181 9.53387ZM1.38599 15.6016L14.6181 10.4661L14.2563 9.53387L1.02417 14.6694L1.38599 15.6016ZM3.11846 18.6836L1.6712 14.9546L0.738953 15.3164L2.18621 19.0454L3.11846 18.6836ZM19.7839 11.6792L2.47143 18.3984L2.83325 19.3306L20.1457 12.6115L19.7839 11.6792Z" fill="#FFE6DD"/>
</svg>
