<svg width="40" height="21" viewBox="0 0 40 21" fill="none" xmlns="http://www.w3.org/2000/svg">
<path d="M37.2783 19.3645L37.0974 19.8306L37.5635 20.0115L37.7444 19.5454L37.2783 19.3645ZM19.9658 12.6453L20.1467 12.1792L19.9658 12.109L19.7849 12.1792L19.9658 12.6453ZM38.7256 15.6355L39.1917 15.8164L39.3726 15.3503L38.9065 15.1694L38.7256 15.6355ZM25.4935 10.5L25.3126 10.0339L24.1116 10.5L25.3126 10.9661L25.4935 10.5ZM38.7256 5.3645L38.9065 5.83062L39.3726 5.64971L39.1917 5.18359L38.7256 5.3645ZM37.2783 1.6355L37.7444 1.45459L37.5635 0.988465L37.0974 1.16937L37.2783 1.6355ZM19.9658 8.35465L19.7849 8.82078L19.9658 8.89099L20.1467 8.82078L19.9658 8.35465ZM2.65332 1.6355L2.83422 1.16937L2.3681 0.988465L2.18719 1.45459L2.65332 1.6355ZM1.20605 5.3645L0.73993 5.18359L0.559022 5.64971L1.02515 5.83062L1.20605 5.3645ZM14.4381 10.5L14.619 10.9661L15.8201 10.5L14.619 10.0339L14.4381 10.5ZM1.20605 15.6355L1.02515 15.1694L0.559022 15.3503L0.73993 15.8164L1.20605 15.6355ZM2.65332 19.3645L2.18719 19.5454L2.3681 20.0115L2.83422 19.8306L2.65332 19.3645ZM37.4592 18.8984L20.1467 12.1792L19.7849 13.1115L37.0974 19.8306L37.4592 18.8984ZM38.2595 15.4546L36.8122 19.1836L37.7444 19.5454L39.1917 15.8164L38.2595 15.4546ZM25.3126 10.9661L38.5447 16.1016L38.9065 15.1694L25.6744 10.0339L25.3126 10.9661ZM38.5447 4.89837L25.3126 10.0339L25.6744 10.9661L38.9065 5.83062L38.5447 4.89837ZM36.8122 1.81641L38.2595 5.54541L39.1917 5.18359L37.7444 1.45459L36.8122 1.81641ZM20.1467 8.82078L37.4592 2.10162L37.0974 1.16937L19.7849 7.88853L20.1467 8.82078ZM2.47241 2.10162L19.7849 8.82078L20.1467 7.88853L2.83422 1.16937L2.47241 2.10162ZM1.67218 5.5454L3.11944 1.81641L2.18719 1.45459L0.73993 5.18359L1.67218 5.5454ZM14.619 10.0339L1.38696 4.89837L1.02515 5.83062L14.2572 10.9661L14.619 10.0339ZM1.38696 16.1016L14.619 10.9661L14.2572 10.0339L1.02515 15.1694L1.38696 16.1016ZM3.11944 19.1836L1.67218 15.4546L0.73993 15.8164L2.18719 19.5454L3.11944 19.1836ZM19.7849 12.1792L2.47241 18.8984L2.83422 19.8306L20.1467 13.1115L19.7849 12.1792Z" fill="#FFE6DD"/>
</svg>
