<svg width="40" height="23" viewBox="0 0 40 23" fill="none" xmlns="http://www.w3.org/2000/svg">
<path d="M37.2773 19.3645L37.0964 19.8306L37.5626 20.0115L37.7435 19.5454L37.2773 19.3645ZM19.9648 12.6453L20.1457 12.1792L19.9648 12.109L19.7839 12.1792L19.9648 12.6453ZM38.7246 15.6355L39.1907 15.8164L39.3716 15.3503L38.9055 15.1694L38.7246 15.6355ZM25.4925 10.5L25.3116 10.0339L24.1106 10.5L25.3116 10.9661L25.4925 10.5ZM38.7246 5.3645L38.9055 5.83062L39.3716 5.64971L39.1907 5.18359L38.7246 5.3645ZM37.2773 1.6355L37.7435 1.45459L37.5626 0.988465L37.0964 1.16937L37.2773 1.6355ZM19.9648 8.35465L19.7839 8.82078L19.9648 8.89099L20.1457 8.82078L19.9648 8.35465ZM2.65234 1.6355L2.83325 1.16937L2.36712 0.988465L2.18621 1.45459L2.65234 1.6355ZM1.20508 5.3645L0.738953 5.18359L0.558046 5.64971L1.02417 5.83062L1.20508 5.3645ZM14.4372 10.5L14.6181 10.9661L15.8191 10.5L14.6181 10.0339L14.4372 10.5ZM1.20508 15.6355L1.02417 15.1694L0.558046 15.3503L0.738953 15.8164L1.20508 15.6355ZM2.65234 19.3645L2.18621 19.5454L2.36712 20.0115L2.83325 19.8306L2.65234 19.3645ZM37.4582 18.8984L20.1457 12.1792L19.7839 13.1115L37.0964 19.8306L37.4582 18.8984ZM38.2585 15.4546L36.8112 19.1836L37.7435 19.5454L39.1907 15.8164L38.2585 15.4546ZM25.3116 10.9661L38.5437 16.1016L38.9055 15.1694L25.6734 10.0339L25.3116 10.9661ZM38.5437 4.89837L25.3116 10.0339L25.6734 10.9661L38.9055 5.83062L38.5437 4.89837ZM36.8112 1.81641L38.2585 5.54541L39.1907 5.18359L37.7435 1.45459L36.8112 1.81641ZM20.1457 8.82078L37.4582 2.10162L37.0964 1.16937L19.7839 7.88853L20.1457 8.82078ZM2.47143 2.10162L19.7839 8.82078L20.1457 7.88853L2.83325 1.16937L2.47143 2.10162ZM1.6712 5.5454L3.11846 1.81641L2.18621 1.45459L0.738953 5.18359L1.6712 5.5454ZM14.6181 10.0339L1.38599 4.89837L1.02417 5.83062L14.2563 10.9661L14.6181 10.0339ZM1.38599 16.1016L14.6181 10.9661L14.2563 10.0339L1.02417 15.1694L1.38599 16.1016ZM3.11846 19.1836L1.6712 15.4546L0.738953 15.8164L2.18621 19.5454L3.11846 19.1836ZM19.7839 12.1792L2.47143 18.8984L2.83325 19.8306L20.1457 13.1115L19.7839 12.1792Z" fill="#FFE6DD"/>
</svg>
