<svg width="364" height="169" viewBox="0 0 364 169" fill="none" xmlns="http://www.w3.org/2000/svg">
<path d="M350.045 168.582C357.604 168.582 360.511 167.746 360.511 167.746V155.203H356.441C353.534 155.203 352.952 154.366 352.952 152.694V126.687H364V113.308H352.952V90.8973H351.872L331.521 107.204V110.047C331.521 112.555 330.773 113.308 329.278 113.308H324.709V126.687H330.773V152.694C330.856 161.056 332.102 168.582 350.045 168.582ZM281.514 169C292.064 169 296.466 160.22 296.466 160.22H296.882L295.719 167.829H318.147V113.392H295.968V153.53C295.968 155.203 294.888 156.457 292.479 156.457C290.07 156.457 288.99 155.203 288.99 153.53V113.392H266.811V154.784C266.895 165.237 272.709 169 281.514 169ZM221.54 169C232.089 169 236.492 160.22 236.492 160.22H236.907L235.744 167.829H258.173V113.392H235.994V153.53C235.994 155.203 234.914 156.457 232.505 156.457C230.096 156.457 229.016 155.203 229.016 153.53V113.392H206.837V154.784C206.92 165.237 212.735 169 221.54 169ZM186.569 114.73C187.15 114.144 187.649 113.392 188.064 112.388C188.479 111.385 188.811 110.298 189.061 108.96C189.31 107.622 189.393 106.284 189.393 104.779C189.393 103.273 189.31 101.935 189.061 100.597C188.811 99.2595 188.479 98.1724 188.064 97.1689C187.649 96.2491 187.15 95.4129 186.569 94.9111C185.987 94.3258 185.406 94.0749 184.741 94.0749C184.077 94.0749 183.495 94.3258 182.914 94.9111C182.332 95.4965 181.834 96.2491 181.419 97.1689C181.003 98.0888 180.671 99.2595 180.422 100.597C180.173 101.935 180.089 103.273 180.089 104.779C180.089 106.284 180.173 107.622 180.422 108.96C180.671 110.298 181.003 111.385 181.419 112.388C181.834 113.392 182.332 114.144 182.914 114.73C183.495 115.315 184.077 115.566 184.741 115.566C185.406 115.566 185.987 115.315 186.569 114.73ZM186.569 161.223C187.15 160.053 187.649 158.464 188.064 156.457C188.479 154.45 188.811 152.025 189.061 149.349C189.31 146.59 189.393 143.746 189.393 140.652C189.393 137.558 189.31 134.632 189.061 131.956C188.811 129.196 188.479 126.855 188.064 124.848C187.649 122.841 187.15 121.252 186.569 120.081C185.987 118.911 185.406 118.325 184.741 118.325C184.077 118.325 183.495 118.911 182.914 120.081C182.332 121.252 181.834 122.841 181.419 124.848C181.003 126.855 180.671 129.28 180.422 131.956C180.173 134.715 180.089 137.558 180.089 140.652C180.089 143.746 180.173 146.673 180.422 149.349C180.671 152.109 181.003 154.45 181.419 156.457C181.834 158.464 182.332 160.053 182.914 161.223C183.495 162.394 184.077 162.979 184.741 162.979C185.406 162.979 185.987 162.394 186.569 161.223ZM186.652 166.408C186.984 166.91 187.482 167.328 188.147 167.746C188.728 168.08 189.476 168.415 190.307 168.582C191.137 168.749 191.968 168.833 192.882 168.833C193.796 168.833 194.626 168.666 195.457 168.331C196.288 168.08 196.952 167.746 197.534 167.328C198.115 166.91 198.53 166.408 198.946 165.906C199.278 165.321 199.444 164.819 199.444 164.234C199.444 163.648 199.195 163.063 198.863 162.561C198.447 162.06 197.949 161.641 197.367 161.307C196.703 160.972 196.038 160.638 195.208 160.471C194.377 160.304 193.546 160.22 192.633 160.22C191.719 160.22 190.888 160.387 190.058 160.722C189.227 160.972 188.562 161.307 187.981 161.725C187.399 162.143 186.984 162.645 186.652 163.147C186.319 163.732 186.153 164.234 186.236 164.819C186.07 165.404 186.236 165.906 186.652 166.408ZM187.732 118.158C187.981 118.576 188.396 118.994 188.895 119.329C189.393 119.663 189.974 119.914 190.639 120.165C191.304 120.332 192.051 120.416 192.799 120.416C193.546 120.416 194.294 120.332 194.958 120.165C195.623 119.998 196.204 119.747 196.703 119.329C197.201 118.994 197.617 118.576 197.866 118.158C198.115 117.74 198.281 117.238 198.281 116.736C198.281 115.733 197.7 114.897 196.62 114.228C195.54 113.559 194.211 113.141 192.633 113.141C191.054 113.141 189.725 113.475 188.645 114.228C187.565 114.897 186.984 115.817 186.984 116.736C187.316 117.322 187.399 117.74 187.732 118.158ZM174.607 119.329C175.438 120.081 176.518 120.416 177.764 120.416C179.01 120.416 180.006 120.081 180.92 119.329C181.751 118.576 182.249 117.74 182.249 116.736C182.249 115.733 181.834 114.897 180.92 114.228C180.089 113.559 179.01 113.141 177.764 113.141C176.518 113.141 175.521 113.475 174.607 114.228C173.776 114.897 173.278 115.817 173.278 116.736C173.361 117.74 173.776 118.66 174.607 119.329ZM164.556 148.764C164.307 147.091 163.974 145.67 163.559 144.415C163.144 143.161 162.645 142.241 162.064 141.489C161.482 140.736 160.901 140.401 160.236 140.401C159.572 140.401 158.99 140.736 158.409 141.489C157.827 142.241 157.329 143.161 156.914 144.415C156.498 145.67 156.166 147.091 155.917 148.764C155.668 150.436 155.585 152.192 155.585 154.115C155.585 156.039 155.668 157.795 155.917 159.467C156.166 161.14 156.498 162.561 156.914 163.816C157.329 165.07 157.827 165.99 158.409 166.742C158.99 167.495 159.572 167.829 160.236 167.829C160.901 167.829 161.482 167.495 162.064 166.742C162.645 165.99 163.144 165.07 163.559 163.816C163.974 162.561 164.307 161.14 164.556 159.467C164.805 157.795 164.888 156.039 164.888 154.115C164.888 152.192 164.805 150.436 164.556 148.764ZM164.556 121.085C164.307 119.496 163.974 118.074 163.559 116.904C163.144 115.733 162.645 114.73 162.064 114.061C161.482 113.392 160.901 113.057 160.236 113.057C159.572 113.057 158.99 113.392 158.409 114.061C157.827 114.73 157.329 115.649 156.914 116.904C156.498 118.074 156.166 119.496 155.917 121.085C155.668 122.674 155.585 124.346 155.585 126.186C155.585 128.025 155.668 129.698 155.917 131.287C156.166 132.876 156.498 134.297 156.914 135.468C157.329 136.639 157.827 137.558 158.409 138.227C158.99 138.896 159.572 139.231 160.236 139.231C160.901 139.231 161.482 138.896 162.064 138.227C162.645 137.558 163.144 136.639 163.559 135.468C163.974 134.297 164.307 132.876 164.556 131.287C164.805 129.698 164.888 127.942 164.888 126.186C164.888 124.43 164.805 122.757 164.556 121.085ZM164.556 95.4965C164.307 94.8275 163.974 94.2422 163.559 93.7404C163.144 93.2387 162.645 92.8206 162.064 92.5697C161.482 92.3189 160.901 92.1516 160.236 92.1516C159.572 92.1516 158.99 92.3189 158.409 92.5697C157.827 92.8206 157.329 93.2387 156.914 93.7404C156.498 94.2422 156.166 94.8275 155.917 95.4965C155.668 96.1655 155.585 96.8344 155.585 97.587C155.585 98.3396 155.668 99.0086 155.917 99.6776C156.166 100.347 156.498 100.932 156.914 101.434C157.329 101.935 157.827 102.353 158.409 102.604C158.99 102.855 159.572 103.022 160.236 103.022C160.901 103.022 161.482 102.855 162.064 102.604C162.645 102.353 163.144 101.935 163.559 101.434C163.974 100.932 164.307 100.347 164.556 99.6776C164.805 99.0086 164.888 98.3396 164.888 97.587C164.888 96.8344 164.805 96.1655 164.556 95.4965ZM134.403 114.73C134.984 114.144 135.482 113.392 135.898 112.388C136.313 111.385 136.645 110.298 136.895 108.96C137.144 107.622 137.227 106.284 137.227 104.779C137.227 103.273 137.144 101.935 136.895 100.597C136.645 99.2595 136.313 98.1724 135.898 97.1689C135.482 96.2491 134.984 95.4129 134.403 94.9111C133.821 94.3258 133.24 94.0749 132.575 94.0749C131.911 94.0749 131.329 94.3258 130.748 94.9111C130.166 95.4965 129.668 96.2491 129.252 97.1689C128.837 98.0888 128.505 99.2595 128.256 100.597C128.006 101.935 127.923 103.273 127.923 104.779C127.923 106.284 128.006 107.622 128.256 108.96C128.505 110.298 128.837 111.385 129.252 112.388C129.668 113.392 130.166 114.144 130.748 114.73C131.329 115.315 131.911 115.566 132.575 115.566C133.24 115.566 133.821 115.315 134.403 114.73ZM134.403 161.223C134.984 160.053 135.482 158.464 135.898 156.457C136.313 154.45 136.645 152.025 136.895 149.349C137.144 146.59 137.227 143.746 137.227 140.652C137.227 137.558 137.144 134.632 136.895 131.956C136.645 129.196 136.313 126.855 135.898 124.848C135.482 122.841 134.984 121.252 134.403 120.081C133.821 118.911 133.24 118.325 132.575 118.325C131.911 118.325 131.329 118.911 130.748 120.081C130.166 121.252 129.668 122.841 129.252 124.848C128.837 126.855 128.505 129.28 128.256 131.956C128.006 134.715 127.923 137.558 127.923 140.652C127.923 143.746 128.006 146.673 128.256 149.349C128.505 152.109 128.837 154.45 129.252 156.457C129.668 158.464 130.166 160.053 130.748 161.223C131.329 162.394 131.911 162.979 132.575 162.979C133.24 162.979 133.821 162.394 134.403 161.223ZM134.486 166.408C134.901 166.91 135.316 167.328 135.981 167.746C136.562 168.08 137.31 168.415 138.141 168.582C138.971 168.749 139.802 168.833 140.716 168.833C141.629 168.833 142.46 168.666 143.291 168.331C144.121 168.08 144.786 167.746 145.367 167.328C145.949 166.91 146.364 166.408 146.78 165.906C147.112 165.321 147.278 164.819 147.278 164.234C147.278 163.648 147.029 163.063 146.696 162.561C146.364 162.06 145.783 161.641 145.201 161.307C144.537 160.972 143.872 160.638 143.042 160.471C142.211 160.304 141.38 160.22 140.466 160.22C139.553 160.22 138.722 160.387 137.891 160.722C137.061 160.972 136.396 161.307 135.815 161.725C135.233 162.143 134.818 162.645 134.486 163.147C134.153 163.732 133.987 164.234 134.07 164.819C133.904 165.404 134.07 165.906 134.486 166.408ZM135.565 118.158C135.815 118.576 136.23 118.994 136.728 119.329C137.227 119.663 137.808 119.914 138.473 120.165C139.137 120.332 139.885 120.416 140.633 120.416C141.38 120.416 142.128 120.332 142.792 120.165C143.457 119.998 144.038 119.747 144.537 119.329C145.035 118.911 145.45 118.576 145.7 118.158C145.949 117.74 146.115 117.238 146.115 116.736C146.115 115.733 145.534 114.897 144.454 114.228C143.374 113.559 142.045 113.141 140.466 113.141C138.888 113.141 137.559 113.475 136.479 114.228C135.399 114.897 134.818 115.817 134.818 116.736C135.15 117.322 135.233 117.74 135.565 118.158ZM122.441 119.329C123.272 120.081 124.351 120.416 125.597 120.416C126.843 120.416 127.84 120.081 128.754 119.329C129.585 118.576 130.083 117.74 130.083 116.736C130.083 115.733 129.668 114.897 128.754 114.228C127.923 113.559 126.843 113.141 125.597 113.141C124.351 113.141 123.355 113.475 122.441 114.228C121.61 114.897 121.112 115.817 121.112 116.736C121.195 117.74 121.61 118.66 122.441 119.329ZM85.5591 165.237C84.9776 165.488 84.3131 165.572 83.6486 165.572C82.984 165.572 82.2364 165.488 81.4888 165.237C80.7412 164.986 79.9936 164.652 79.246 164.067C78.4984 163.565 77.9169 162.979 77.4185 162.394C76.9201 161.809 76.5048 161.14 76.2556 160.471C76.0064 159.802 75.8403 159.216 75.8403 158.547C75.8403 157.878 76.0064 157.377 76.3387 156.875C77.0032 155.872 78.0831 155.37 79.5783 155.453C81.0735 155.453 82.5687 156.039 84.0639 156.959C84.8115 157.46 85.393 158.046 85.8914 158.631C86.3898 159.216 86.8051 159.885 87.0543 160.554C87.3035 161.223 87.4696 161.809 87.3866 162.478C87.3866 163.063 87.2204 163.648 86.8882 164.15C86.5559 164.568 86.1406 164.986 85.5591 165.237ZM104.498 165.321C105.08 165.488 105.744 165.572 106.492 165.488C107.24 165.404 107.987 165.237 108.818 164.903C109.649 164.568 110.479 164.15 111.31 163.648C112.141 163.063 112.805 162.478 113.387 161.809C113.968 161.14 114.466 160.471 114.799 159.802C115.131 159.133 115.297 158.464 115.297 157.878C115.297 157.21 115.131 156.708 114.882 156.206C114.55 155.788 114.134 155.453 113.553 155.203C112.971 155.035 112.307 154.952 111.559 154.952C110.812 155.035 109.981 155.203 109.15 155.537C108.319 155.872 107.489 156.29 106.658 156.875C105.827 157.46 105.163 158.046 104.581 158.715C104 159.384 103.585 160.053 103.169 160.722C102.837 161.391 102.671 162.06 102.671 162.645C102.671 163.314 102.837 163.816 103.086 164.234C103.502 164.735 103.917 165.07 104.498 165.321ZM88.3834 166.492C88.7157 166.993 89.2971 167.328 89.8786 167.662C90.5431 167.997 91.2907 168.248 92.1214 168.498C92.9521 168.666 93.9489 168.833 94.8626 168.833C95.7764 168.833 96.6901 168.749 97.6038 168.498C98.4345 168.331 99.2652 167.997 99.8466 167.662C100.511 167.328 101.01 166.91 101.342 166.492C101.674 165.99 101.923 165.572 101.923 164.986C101.923 164.401 101.757 163.983 101.342 163.481C100.927 162.979 100.428 162.561 99.8466 162.227C99.1821 161.892 98.4345 161.641 97.6038 161.391C96.7732 161.223 95.8594 161.056 94.8626 161.056C93.8658 161.056 92.9521 161.14 92.1214 161.391C91.2907 161.558 90.5431 161.892 89.8786 162.227C89.2141 162.561 88.7157 162.979 88.3834 163.481C87.968 163.983 87.8019 164.485 87.8019 164.986C87.8019 165.488 87.968 166.073 88.3834 166.492ZM87.7188 116.904C88.0511 117.405 88.5495 117.74 89.131 118.074C89.7125 118.409 90.4601 118.66 91.2077 118.911C92.0383 119.078 92.869 119.245 93.7827 119.245C94.6965 119.245 95.5272 119.162 96.3578 118.911C97.1885 118.743 97.853 118.409 98.4345 118.074C99.016 117.74 99.5144 117.322 99.8466 116.904C100.179 116.402 100.345 115.984 100.345 115.399C100.345 114.813 100.179 114.395 99.8466 113.893C99.5144 113.392 99.016 112.973 98.4345 112.639C97.853 112.305 97.1054 112.054 96.3578 111.803C95.5272 111.636 94.6965 111.468 93.7827 111.468C92.869 111.468 92.0383 111.552 91.2077 111.803C90.377 111.97 89.7125 112.305 89.131 112.639C88.5495 112.973 88.0511 113.392 87.7188 113.893C87.3866 114.395 87.2204 114.897 87.2204 115.399C87.2204 115.9 87.3866 116.486 87.7188 116.904ZM76.0064 121.001C76.0064 120.416 76.1725 119.83 76.4217 119.245C76.6709 118.66 77.0032 118.074 77.5016 117.489C78 116.904 78.5815 116.402 79.246 115.984C79.9105 115.566 80.6581 115.231 81.3227 114.98C82.0703 114.73 82.7348 114.646 83.3994 114.646C84.0639 114.646 84.6454 114.73 85.1438 114.98C85.6422 115.231 86.0575 115.566 86.3898 115.984C86.722 116.486 86.8882 116.987 86.8882 117.573C86.8882 118.158 86.722 118.743 86.4728 119.329C86.2236 119.914 85.8083 120.583 85.3099 121.085C84.8115 121.67 84.23 122.172 83.5655 122.59C82.901 123.092 82.1534 123.426 81.4888 123.677C80.7412 123.928 80.0767 124.012 79.4121 124.012C78.7476 124.012 78.1661 123.844 77.6677 123.677C77.1693 123.426 76.754 123.092 76.4217 122.59C76.1725 122.088 76.0064 121.587 76.0064 121.001ZM110.479 119.83C110.562 119.245 110.479 118.66 110.313 118.074C110.147 117.489 109.898 116.904 109.482 116.402C109.067 115.9 108.652 115.399 108.07 115.064C106.907 114.311 105.661 113.977 104.415 114.144C103.169 114.311 102.173 114.897 101.508 115.9C101.176 116.402 100.927 116.987 100.927 117.573C100.843 118.158 100.927 118.743 101.093 119.329C101.259 119.914 101.508 120.499 101.923 121.001C102.339 121.503 102.837 122.005 103.419 122.339C104 122.757 104.581 123.008 105.246 123.175C105.911 123.343 106.492 123.343 107.073 123.343C107.655 123.259 108.236 123.092 108.735 122.841C109.233 122.59 109.649 122.172 109.981 121.67C110.23 120.918 110.479 120.416 110.479 119.83ZM106.243 139.482C105.744 138.813 104.997 138.144 104 137.558C103.003 136.973 101.84 136.388 100.428 135.886C99.016 135.384 97.5208 134.966 95.8594 134.632C94.1981 134.297 92.7029 134.13 91.2077 134.13C89.7125 134.13 88.4664 134.213 87.3035 134.464C86.1406 134.715 85.2268 135.05 84.4792 135.468C83.7316 135.886 83.3163 136.471 83.2332 137.14C83.1502 137.809 83.3163 138.478 83.8147 139.147C84.3131 139.816 85.0607 140.485 86.0575 141.07C87.0543 141.656 88.2172 142.241 89.6294 142.743C91.0415 143.245 92.5367 143.663 94.1981 143.997C95.8594 144.332 97.3546 144.499 98.8498 144.499C100.345 144.499 101.591 144.415 102.754 144.164C103.917 143.914 104.831 143.579 105.578 143.161C106.326 142.743 106.741 142.158 106.824 141.489C106.907 140.82 106.741 140.151 106.243 139.482ZM107.073 124.764C106.326 125.768 106.077 126.938 106.326 128.193C106.409 128.778 106.658 129.363 106.99 129.865C107.323 130.367 107.738 130.785 108.153 131.119C108.652 131.454 109.15 131.705 109.732 131.788C110.313 131.956 110.895 131.956 111.476 131.872C112.058 131.788 112.639 131.538 113.137 131.203C113.636 130.869 114.051 130.45 114.383 130.032C114.716 129.531 114.965 129.029 115.048 128.444C115.214 127.858 115.214 127.273 115.131 126.687C115.048 126.102 114.799 125.517 114.466 125.015C114.134 124.513 113.719 124.095 113.304 123.761C112.805 123.426 112.307 123.175 111.725 123.092C111.144 122.924 110.562 122.925 109.981 123.008C108.735 123.175 107.738 123.761 107.073 124.764ZM72.9329 148.095C72.1853 149.098 71.9361 150.269 72.1853 151.523C72.4345 152.778 73.016 153.697 74.0958 154.45C75.0926 155.203 76.2556 155.453 77.5016 155.203C78.7476 154.952 79.6613 154.366 80.4089 153.363C81.1565 152.359 81.4057 151.189 81.1565 149.934C80.9073 148.68 80.3259 147.76 79.246 147.008C78.2492 146.255 77.0863 146.004 75.8403 146.255C74.5942 146.422 73.5974 147.091 72.9329 148.095ZM116.045 152.109C116.377 151.523 116.709 150.938 116.792 150.185C116.958 149.433 116.958 148.68 116.875 147.844C116.792 147.008 116.543 146.171 116.128 145.335C115.712 144.499 115.214 143.83 114.633 143.245C114.051 142.659 113.47 142.158 112.805 141.823C112.141 141.489 111.476 141.321 110.811 141.238C110.147 141.154 109.482 141.321 108.901 141.656C108.319 141.99 107.821 142.408 107.406 142.994C106.99 143.579 106.741 144.248 106.575 144.917C106.409 145.67 106.409 146.422 106.575 147.258C106.658 148.095 106.99 148.931 107.406 149.684C107.821 150.52 108.319 151.189 108.901 151.858C109.482 152.443 110.064 152.945 110.728 153.279C111.393 153.614 112.058 153.781 112.722 153.865C113.387 153.948 114.051 153.781 114.633 153.447C115.214 153.112 115.712 152.61 116.045 152.109ZM83.8978 132.876C84.0639 131.37 83.7316 129.865 82.8179 128.36C82.4025 127.607 81.8211 126.938 81.2396 126.437C80.6581 125.935 79.9936 125.517 79.3291 125.266C78.6645 125.015 78 124.848 77.3355 124.848C76.6709 124.848 76.0895 125.015 75.591 125.35C75.0096 125.684 74.5942 126.186 74.262 126.687C73.9297 127.273 73.7636 127.858 73.6805 128.611C73.5974 129.363 73.6805 130.116 73.8466 130.869C74.0128 131.621 74.345 132.374 74.7604 133.126C75.1757 133.879 75.7572 134.548 76.3387 135.05C76.9201 135.551 77.5847 135.97 78.2492 136.22C78.9137 136.471 79.5783 136.638 80.2428 136.638C80.9073 136.638 81.4888 136.471 81.9872 136.137C83.1502 135.468 83.7316 134.381 83.8978 132.876ZM53.7444 118.994C53.3291 119.496 53.0799 119.998 52.9137 120.583C52.7476 121.168 52.6645 121.754 52.7476 122.423C52.8307 123.092 52.9968 123.677 53.246 124.262C53.4952 124.848 53.9105 125.35 54.4089 125.768C54.9073 126.186 55.4058 126.437 55.9872 126.604C56.5687 126.771 57.1502 126.855 57.8147 126.771C58.4792 126.687 59.0607 126.52 59.6422 126.269C60.2236 125.935 60.722 125.6 61.1374 125.099C61.5527 124.597 61.8019 124.095 61.968 123.51C62.1342 122.924 62.2173 122.339 62.1342 121.67C62.0511 121.001 61.885 120.416 61.6358 119.83C61.3035 119.245 60.9712 118.743 60.4728 118.325C59.9744 117.907 59.476 117.656 58.8946 117.489C58.3131 117.322 57.7316 117.238 57.0671 117.322C56.4025 117.405 55.8211 117.573 55.2396 117.824C54.6581 118.074 54.1597 118.493 53.7444 118.994ZM26.9137 127.106C27.4952 127.106 28.0767 126.938 28.8243 126.687C29.5719 126.437 30.3195 126.019 31.0671 125.517C31.8978 125.015 32.6454 124.346 33.476 123.677C34.2236 122.924 34.9712 122.256 35.5527 121.503C36.1342 120.75 36.6326 119.998 36.9649 119.329C37.2971 118.66 37.5463 117.991 37.5463 117.489C37.6294 116.904 37.4633 116.486 37.2141 116.235C36.9649 115.9 36.5495 115.733 35.968 115.733C35.3866 115.733 34.8051 115.9 34.0575 116.151C33.3099 116.402 32.5623 116.82 31.8147 117.322C30.984 117.824 30.2364 118.493 29.4058 119.162C28.6581 119.914 27.9105 120.583 27.3291 121.336C26.7476 122.088 26.2492 122.841 25.9169 123.51C25.5847 124.179 25.3355 124.848 25.3355 125.35C25.2524 125.935 25.3355 126.353 25.6677 126.604C25.9169 126.938 26.3323 127.106 26.9137 127.106ZM61.5527 166.241C62.1342 165.237 62.6326 163.732 63.0479 161.976C63.4633 160.136 63.7955 158.046 64.0447 155.621C64.2939 153.196 64.377 150.603 64.377 147.844C64.377 145.084 64.2939 142.492 64.0447 140.067C63.7955 137.642 63.4633 135.551 63.0479 133.712C62.6326 131.872 62.1342 130.45 61.5527 129.447C60.9712 128.444 60.3898 127.858 59.7252 127.858C59.0607 127.858 58.4792 128.36 57.8978 129.447C57.3163 130.45 56.8179 131.956 56.4026 133.712C55.9872 135.551 55.6549 137.642 55.4057 140.067C55.1565 142.492 55.0735 145.084 55.0735 147.844C55.0735 150.603 55.1565 153.196 55.4057 155.621C55.6549 158.046 55.9872 160.136 56.4026 161.976C56.8179 163.816 57.3163 165.237 57.8978 166.241C58.4792 167.244 59.0607 167.829 59.7252 167.829C60.3898 167.829 60.9712 167.328 61.5527 166.241ZM26.5815 166.241C27.1629 165.237 27.6613 163.732 28.0767 161.976C28.492 160.136 28.8243 158.046 29.0735 155.621C29.3227 153.196 29.4058 150.603 29.4058 147.844C29.4058 145.084 29.3227 142.492 29.0735 140.067C28.8243 137.642 28.492 135.551 28.0767 133.712C27.6613 131.872 27.1629 130.45 26.5815 129.447C26 128.444 25.4185 127.858 24.754 127.858C24.0895 127.858 23.508 128.36 22.9265 129.447C22.345 130.45 21.8466 131.956 21.4313 133.712C21.016 135.551 20.6837 137.642 20.4345 140.067C20.1853 142.492 20.1022 145.084 20.1022 147.844C20.1022 150.603 20.1853 153.196 20.4345 155.621C20.6837 158.046 21.016 160.136 21.4313 161.976C21.8466 163.816 22.345 165.237 22.9265 166.241C23.508 167.244 24.0895 167.829 24.754 167.829C25.4185 167.829 26 167.328 26.5815 166.241ZM27.9936 119.412C28.9073 118.493 29.3227 117.405 29.3227 116.067C29.3227 114.73 28.9073 113.642 27.9936 112.806C27.0799 111.886 26 111.468 24.754 111.468C23.508 111.468 22.345 111.886 21.4313 112.806C20.5176 113.726 20.1022 114.813 20.1022 116.067C20.1022 117.405 20.5176 118.493 21.4313 119.412C22.345 120.332 23.4249 120.75 24.754 120.75C26.0831 120.75 27.1629 120.249 27.9936 119.412ZM43.278 119.58C42.2811 119.412 41.4505 119.078 40.7859 118.743C40.0383 118.409 39.5399 117.907 39.0415 117.489C38.6262 116.987 38.377 116.486 38.377 115.9C38.377 115.315 38.6262 114.813 39.0415 114.311C39.4569 113.81 40.0383 113.392 40.7859 112.973C41.5335 112.639 42.3642 112.305 43.278 112.137C44.2748 111.97 45.2716 111.803 46.4345 111.803C47.5974 111.803 48.5942 111.886 49.5911 112.137C50.5879 112.305 51.4185 112.639 52.0831 112.973C52.8307 113.392 53.3291 113.81 53.8275 114.311C54.2428 114.813 54.492 115.315 54.492 115.9C54.492 116.486 54.2428 116.987 53.8275 117.489C53.4121 117.991 52.8307 118.409 52.0831 118.743C51.3355 119.162 50.5048 119.412 49.5911 119.58C48.5942 119.747 47.5974 119.914 46.4345 119.914C45.2716 119.914 44.1917 119.83 43.278 119.58ZM6.97764 166.241C7.5591 165.237 8.14057 163.899 8.55591 162.227C8.97125 160.554 9.38658 158.547 9.63578 156.206C9.88498 153.948 10.0511 151.44 10.0511 148.847C10.0511 146.255 9.88498 143.83 9.63578 141.489C9.38658 139.231 9.05431 137.224 8.55591 135.468C8.14057 133.795 7.5591 132.374 6.97764 131.37C6.39617 130.367 5.73163 129.865 5.06709 129.865C4.40256 129.865 3.73802 130.367 3.15655 131.37C2.57508 132.374 1.99361 133.712 1.57827 135.468C1.07987 137.14 0.747604 139.147 0.498403 141.489C0.166134 143.83 0 146.255 0 148.847C0 151.523 0.166134 153.948 0.415335 156.206C0.664537 158.464 0.996805 160.471 1.49521 162.227C1.99361 163.899 2.49201 165.237 3.07348 166.241C3.65495 167.244 4.31949 167.746 4.98403 167.746C5.64856 167.746 6.3131 167.244 6.97764 166.241ZM6.97764 127.607C7.5591 126.687 8.14057 125.35 8.55591 123.677C8.97125 122.005 9.38658 120.081 9.63578 117.907C9.88498 115.649 10.0511 113.308 10.0511 110.799C10.0511 108.291 9.88498 105.866 9.63578 103.691C9.38658 101.434 9.05431 99.5103 8.55591 97.9215C8.14057 96.2491 7.5591 94.9948 6.97764 93.9913C6.39617 93.0715 5.73163 92.5697 5.06709 92.5697C4.40256 92.5697 3.73802 93.0715 3.15655 93.9913C2.57508 94.9111 1.99361 96.2491 1.57827 97.9215C1.07987 99.594 0.747604 101.517 0.498403 103.691C0.249201 105.949 0.0830671 108.291 0.0830671 110.799C0.0830671 113.308 0.249201 115.733 0.498403 117.907C0.747604 120.165 1.07987 122.088 1.57827 123.677C2.07668 125.35 2.57508 126.604 3.15655 127.607C3.73802 128.527 4.40256 129.029 5.06709 129.029C5.64856 129.029 6.3131 128.527 6.97764 127.607Z" fill="black"/>
<path d="M310.087 42.3127V33.5324C310.087 32.1108 311.25 31.0237 313.576 31.0237C315.902 31.0237 317.148 32.1108 317.148 33.5324V42.3127H310.087ZM313.576 77.0158C332.765 77.0158 339.244 69.0717 339.244 57.7828V55.2741H317.148V63.6363C317.148 65.0579 315.902 66.145 313.576 66.145C311.25 66.145 310.087 65.0579 310.087 63.6363V49.8387H339.161V39.3859C339.161 28.097 332.682 20.1529 313.493 20.1529C294.305 20.1529 287.909 28.097 287.909 39.3859V57.7828C287.992 69.0717 294.388 77.0158 313.576 77.0158ZM209.992 75.7615H235.992L241.142 47.2464H242.388L247.538 75.7615H273.538L284.835 21.3236H262.739L259.832 56.5285H258.669L251.442 21.3236H232.254L224.944 56.5285H223.781L220.873 21.3236H198.778L209.992 75.7615ZM157.493 68.4864C157.909 67.9847 158.158 67.4829 158.407 66.8976C158.573 66.3122 158.656 65.7269 158.656 65.0579C158.573 64.3889 158.407 63.8036 158.075 63.2182C157.742 62.6329 157.327 62.1311 156.829 61.713C156.33 61.2949 155.749 61.044 155.167 60.8768C154.586 60.7095 153.921 60.6259 153.34 60.7095C152.675 60.7932 152.094 60.9604 151.512 61.2113C150.931 61.5458 150.432 61.9639 150.017 62.382C149.602 62.8837 149.353 63.3855 149.103 63.9708C148.937 64.5562 148.854 65.1415 148.854 65.8105C148.937 66.4795 149.103 67.0648 149.436 67.6502C149.768 68.2355 150.183 68.7373 150.682 69.1554C151.18 69.5735 151.762 69.8243 152.343 69.9916C152.924 70.1588 153.589 70.2425 154.171 70.1588C154.835 70.0752 155.417 69.908 155.998 69.6571C156.579 69.4062 157.078 68.9881 157.493 68.4864ZM185.238 60.3751C184.656 60.3751 183.992 60.5423 183.327 60.7932C182.579 61.044 181.832 61.4621 181.001 61.9639C180.17 62.4656 179.34 63.1346 178.509 63.8036C177.678 64.5562 176.931 65.3088 176.349 66.0614C175.768 66.8139 175.27 67.5666 174.937 68.2355C174.605 68.9045 174.356 69.5735 174.356 70.0752C174.273 70.6606 174.439 71.0787 174.688 71.3295C174.937 71.664 175.353 71.8313 175.934 71.8313C176.516 71.8313 177.18 71.664 177.845 71.4132C178.592 71.1623 179.34 70.7442 180.17 70.2425C181.001 69.7407 181.832 69.0717 182.662 68.4028C183.493 67.6502 184.241 66.8976 184.822 66.145C185.404 65.3924 185.902 64.6398 186.234 63.9708C186.567 63.3018 186.816 62.7165 186.816 62.1311C186.899 61.5458 186.733 61.1277 186.484 60.7932C186.234 60.5423 185.819 60.3751 185.238 60.3751ZM149.519 21.4908C148.937 22.4943 148.439 23.9159 148.024 25.7556C147.608 27.5116 147.276 29.6858 147.027 32.1108C146.778 34.5359 146.694 37.1282 146.694 39.8041C146.694 42.5636 146.778 45.0722 147.027 47.4973C147.276 49.9223 147.608 52.0129 148.024 53.7689C148.439 55.525 148.937 56.9466 149.519 58.0336C150.1 59.0371 150.682 59.6225 151.346 59.6225C152.011 59.6225 152.592 59.1207 153.174 58.0336C153.755 57.0302 154.254 55.6086 154.669 53.7689C155.084 52.0129 155.416 49.8387 155.666 47.4973C155.915 45.0722 155.998 42.5636 155.998 39.8041C155.998 37.0445 155.915 34.4523 155.666 32.1108C155.416 29.6858 155.084 27.5952 154.669 25.7556C154.254 23.9995 153.755 22.5779 153.174 21.4908C152.592 20.4874 152.011 19.902 151.346 19.902C150.765 19.902 150.1 20.4038 149.519 21.4908ZM185.57 21.4908C184.988 22.4943 184.49 23.9159 184.075 25.7556C183.659 27.5116 183.327 29.6858 183.078 32.1108C182.829 34.5359 182.746 37.1282 182.746 39.8041C182.746 42.5636 182.829 45.0722 183.078 47.4973C183.327 49.9223 183.659 52.0129 184.075 53.7689C184.49 55.525 184.988 56.9466 185.57 58.0336C186.151 59.0371 186.733 59.6225 187.397 59.6225C188.062 59.6225 188.643 59.1207 189.225 58.0336C189.806 57.0302 190.305 55.6086 190.72 53.7689C191.135 52.0129 191.468 49.8387 191.717 47.4973C191.966 45.0722 192.049 42.5636 192.049 39.8041C192.049 37.0445 191.966 34.4523 191.717 32.1108C191.468 29.6858 191.135 27.5952 190.72 25.7556C190.305 23.9995 189.806 22.5779 189.225 21.4908C188.643 20.4874 188.062 19.902 187.397 19.902C186.733 19.902 186.151 20.4038 185.57 21.4908ZM184.075 68.1519C183.161 69.0717 182.662 70.1588 182.662 71.4132C182.662 72.7511 183.161 73.8382 184.075 74.758C184.988 75.6779 186.151 76.096 187.48 76.096C188.809 76.096 189.972 75.6779 190.803 74.758C191.717 73.8382 192.132 72.7511 192.132 71.4132C192.132 70.0752 191.717 68.9881 190.803 68.1519C189.889 67.2321 188.809 66.8139 187.48 66.8139C186.068 66.8139 184.988 67.2321 184.075 68.1519ZM168.375 68.1519C169.372 68.3191 170.202 68.6536 170.95 68.9881C171.698 69.3226 172.279 69.7407 172.694 70.2425C173.11 70.7442 173.359 71.2459 173.359 71.7477C173.359 72.2494 173.11 72.8347 172.694 73.2528C172.279 73.7546 171.698 74.0891 170.95 74.5072C170.202 74.8417 169.372 75.1761 168.375 75.3434C167.378 75.5106 166.298 75.6779 165.135 75.6779C164.055 75.6779 162.976 75.5943 161.979 75.3434C160.982 75.1761 160.068 74.8417 159.321 74.5072C158.573 74.1727 157.992 73.7546 157.576 73.2528C157.161 72.7511 156.912 72.2494 156.912 71.7477C156.912 71.2459 157.161 70.6606 157.576 70.2425C157.992 69.7407 158.573 69.3226 159.321 68.9881C160.068 68.6536 160.982 68.3191 161.979 68.1519C162.976 67.9847 164.055 67.8174 165.135 67.8174C166.298 67.901 167.378 67.9847 168.375 68.1519ZM130.164 71.7477C130.663 71.1623 130.995 70.6606 131.244 69.9916C131.493 69.4062 131.576 68.8209 131.576 68.2355C131.576 67.6502 131.41 67.0648 131.078 66.5631C130.746 66.0614 130.33 65.6432 129.832 65.3924C129.25 65.1415 128.669 64.8906 128.004 64.807C127.34 64.7234 126.675 64.7234 125.928 64.8906C125.18 65.0579 124.516 65.3088 123.851 65.7269C123.186 66.145 122.522 66.6467 122.107 67.1484C121.608 67.6502 121.276 68.2355 121.027 68.8209C120.778 69.4062 120.694 69.9916 120.694 70.5769C120.694 71.1623 120.861 71.7477 121.193 72.2494C121.525 72.7511 121.94 73.1692 122.439 73.5037C122.937 73.8382 123.519 74.0054 124.266 74.0891C124.931 74.1727 125.595 74.0891 126.343 74.0054C127.091 73.8382 127.755 73.5873 128.503 73.1692C129.084 72.7511 129.666 72.2494 130.164 71.7477ZM137.391 58.0336C136.726 56.8629 135.73 56.194 134.401 55.8595C133.736 55.6922 133.155 55.6922 132.49 55.7758C131.825 55.8595 131.244 56.1103 130.746 56.3612C130.247 56.6957 129.749 57.0302 129.333 57.5319C128.918 58.0336 128.669 58.619 128.503 59.288C128.17 60.6259 128.337 61.7966 129.001 62.8837C129.666 63.9708 130.663 64.7234 131.992 65.0579C133.321 65.3924 134.567 65.2251 135.73 64.5562C136.893 63.8872 137.64 62.8837 137.972 61.6294C138.305 60.3751 138.055 59.1207 137.391 58.0336ZM101.174 73.5037C101.921 73.671 102.586 73.671 103.25 73.5873C103.915 73.5037 104.496 73.3365 105.078 73.002C105.576 72.6675 105.992 72.2494 106.324 71.7477C106.656 71.2459 106.822 70.6606 106.822 70.0752C106.822 69.4899 106.739 68.8209 106.49 68.2355C106.241 67.6502 105.909 67.0648 105.41 66.5631C104.912 66.0614 104.33 65.5596 103.666 65.1415C103.001 64.7234 102.254 64.4725 101.506 64.3053C100.758 64.138 100.094 64.1381 99.4293 64.2217C98.7647 64.3053 98.1833 64.4725 97.6018 64.807C97.0203 65.1415 96.605 65.5596 96.2727 66.0614C95.9405 66.5631 95.7743 67.1484 95.7743 67.7338C95.7743 68.3191 95.8574 68.9045 96.1066 69.4899C96.3558 70.0752 96.7711 70.6606 97.1865 71.2459C97.6849 71.8313 98.2663 72.2494 98.9309 72.6675C99.7616 73.0856 100.426 73.3365 101.174 73.5037ZM89.8766 61.044C90.375 61.9639 90.9564 62.7165 91.5379 63.3855C92.1194 63.9708 92.7839 64.4725 93.4485 64.7234C94.113 64.9743 94.7775 65.0579 95.4421 64.8906C96.1066 64.7234 96.605 64.3889 97.1034 63.8036C97.5187 63.2182 97.9341 62.5492 98.1833 61.713C98.4325 60.8768 98.5155 59.957 98.5155 58.8699C98.5155 57.8664 98.3494 56.7793 98.1002 55.6086C97.7679 54.4379 97.3526 53.4344 96.8542 52.5146C96.3558 51.5948 95.7743 50.8422 95.1929 50.1732C94.6114 49.5042 93.9469 49.0861 93.2823 48.8352C92.6178 48.5844 91.9533 48.5007 91.2887 48.668C90.6242 48.8352 90.0427 49.1697 89.6274 49.7551C89.212 50.3404 88.7967 51.0094 88.5475 51.8456C88.2983 52.6818 88.2152 53.6017 88.2152 54.6888C88.2152 55.6922 88.3814 56.7793 88.7136 57.95C88.9628 59.1207 89.3782 60.1242 89.8766 61.044ZM116.043 76.2632C116.79 76.096 117.538 75.7615 118.119 75.427C118.701 75.0925 119.199 74.6744 119.532 74.2563C119.864 73.7546 120.03 73.3365 120.03 72.7511C120.03 72.2494 119.864 71.7476 119.532 71.2459C119.199 70.7442 118.701 70.3261 118.119 69.9916C117.538 69.6571 116.873 69.4062 116.043 69.1554C115.295 68.9881 114.381 68.8209 113.551 68.8209C112.637 68.8209 111.806 68.9045 110.976 69.1554C110.228 69.3226 109.48 69.6571 108.899 69.9916C108.317 70.3261 107.819 70.7442 107.487 71.2459C107.155 71.7476 106.988 72.2494 106.988 72.7511C106.988 73.2528 107.155 73.7546 107.487 74.2563C107.819 74.758 108.317 75.0925 108.899 75.427C109.48 75.7615 110.145 76.0124 110.976 76.2632C111.723 76.4305 112.637 76.5977 113.551 76.5977C114.381 76.5977 115.212 76.4305 116.043 76.2632ZM125.845 22.5779C125.18 22.4107 124.432 22.4107 123.851 22.4107C123.186 22.4943 122.605 22.6616 122.107 22.9124C121.608 23.1633 121.193 23.5814 120.861 24.0831C120.611 24.5849 120.445 25.0866 120.445 25.6719C120.445 26.2573 120.611 26.8427 120.861 27.428C121.11 28.0134 121.525 28.5987 122.024 29.1004C122.522 29.6022 123.103 30.1039 123.851 30.522C124.516 30.9401 125.263 31.191 126.011 31.3582C126.758 31.5255 127.423 31.6091 128.004 31.5255C128.669 31.4419 129.25 31.2746 129.749 31.0237C130.247 30.7729 130.663 30.3548 130.995 29.9367C131.244 29.4349 131.41 28.9332 131.41 28.3478C131.41 27.7625 131.244 27.1771 130.995 26.5918C130.746 26.0064 130.33 25.5047 129.832 24.9193C129.333 24.4176 128.752 23.9159 128.087 23.4978C127.257 22.996 126.592 22.7452 125.845 22.5779ZM136.56 33.9505C136.145 33.1979 135.647 32.6126 135.065 32.1108C134.484 31.6091 133.902 31.2746 133.238 31.0237C132.573 30.8565 131.909 30.7729 131.327 30.9401C130.663 31.1074 130.164 31.4419 129.666 31.9436C129.167 32.4453 128.835 33.0307 128.586 33.6997C128.337 34.3686 128.171 35.2048 128.171 36.0411C128.171 36.8773 128.254 37.7971 128.503 38.717C128.752 39.6368 129.084 40.473 129.583 41.2256C129.998 41.9782 130.579 42.5636 131.161 43.0653C131.742 43.567 132.324 43.9015 132.988 44.1524C133.653 44.4033 134.317 44.4033 134.899 44.236C135.563 44.0688 136.062 43.7343 136.56 43.2326C136.976 42.7308 137.391 42.1455 137.64 41.4765C137.889 40.8075 138.055 39.9713 138.055 39.1351C138.055 38.2989 137.972 37.379 137.723 36.4592C137.308 35.4557 136.976 34.6195 136.56 33.9505ZM97.3526 24.8357C96.8542 25.3375 96.5219 25.9228 96.1897 26.5082C95.9405 27.0935 95.7743 27.6789 95.7743 28.2642C95.7743 28.8496 95.9405 29.4349 96.2727 29.9367C96.605 30.4384 97.0203 30.8565 97.5187 31.1074C98.0172 31.3582 98.5986 31.5255 99.2632 31.6091C99.9277 31.6927 100.592 31.6091 101.34 31.4419C102.087 31.2746 102.752 31.0237 103.5 30.6056C104.164 30.1875 104.746 29.6858 105.244 29.1841C105.742 28.6823 106.075 28.097 106.407 27.5116C106.656 26.9263 106.822 26.3409 106.822 25.7556C106.822 25.1702 106.656 24.5849 106.324 24.0831C105.742 23.1633 104.746 22.5779 103.333 22.4107C101.921 22.2434 100.592 22.5779 99.1801 23.3305C98.4325 23.8323 97.851 24.334 97.3526 24.8357ZM88.9628 39.2187C88.9628 40.0549 89.129 40.8911 89.3782 41.5601C89.6274 42.2291 89.9596 42.8981 90.458 43.3162C90.8734 43.8179 91.4548 44.1524 92.1194 44.236C92.7839 44.4033 93.3654 44.4033 94.0299 44.1524C94.6945 43.9015 95.2759 43.567 95.8574 43.0653C96.4389 42.5636 96.9373 41.9782 97.3526 41.2256C97.7679 40.473 98.1002 39.6368 98.3494 38.717C98.5986 37.7971 98.6817 36.8773 98.6817 36.0411C98.6817 35.2048 98.5155 34.3686 98.2663 33.6997C98.0172 33.0307 97.6849 32.4453 97.1865 31.9436C96.7711 31.4419 96.1897 31.1074 95.5251 30.9401C94.8606 30.7729 94.2791 30.8565 93.6146 31.0237C92.9501 31.191 92.3686 31.6091 91.7871 32.1108C91.2056 32.6126 90.7072 33.1979 90.2919 33.9505C89.8766 34.7031 89.4612 35.5393 89.212 36.4592C89.0459 37.4626 88.9628 38.2989 88.9628 39.2187ZM110.976 19.6512C110.228 19.8184 109.48 20.1529 108.899 20.4874C108.317 20.8219 107.819 21.24 107.487 21.7417C107.155 22.2434 106.988 22.7452 106.988 23.2469C106.988 23.7486 107.155 24.2504 107.487 24.7521C107.819 25.2538 108.317 25.5883 108.899 25.9228C109.48 26.2573 110.145 26.5082 110.976 26.759C111.723 26.9263 112.637 27.0935 113.551 27.0935C114.464 27.0935 115.295 27.0099 116.043 26.759C116.79 26.5918 117.538 26.2573 118.119 25.9228C118.701 25.5883 119.199 25.1702 119.532 24.7521C119.864 24.2504 120.03 23.8323 120.03 23.2469C120.03 22.6616 119.864 22.2434 119.532 21.7417C119.199 21.24 118.701 20.8219 118.119 20.4874C117.538 20.1529 116.873 19.902 116.043 19.6512C115.295 19.4839 114.381 19.3167 113.551 19.3167C112.637 19.3167 111.806 19.4003 110.976 19.6512ZM105.327 42.9817C102.752 43.1489 100.592 43.4834 98.6817 43.8179C96.7711 44.1524 95.2759 44.5705 94.1961 44.9886C93.1162 45.4903 92.5347 45.9085 92.5347 46.4938C92.5347 47.0792 93.1162 47.5809 94.1961 47.999C95.2759 48.5007 96.7711 48.8352 98.6817 49.1697C100.592 49.5042 102.752 49.7551 105.327 50.0059C107.902 50.1732 110.56 50.3404 113.468 50.3404C116.375 50.3404 119.033 50.2568 121.608 50.0059C124.183 49.8387 126.426 49.5042 128.254 49.1697C130.164 48.8352 131.659 48.4171 132.739 47.999C133.819 47.4973 134.401 46.9955 134.401 46.4938C134.401 45.9921 133.819 45.4903 132.739 44.9886C131.659 44.4869 130.164 44.1524 128.254 43.8179C126.343 43.4834 124.1 43.2326 121.608 42.9817C119.033 42.8144 116.375 42.6472 113.468 42.6472C110.643 42.6472 107.902 42.7308 105.327 42.9817ZM78.9948 56.7793C78.7456 55.1069 78.4133 53.6853 77.998 52.431C77.5826 51.1766 77.0842 50.2568 76.5028 49.5042C76.0044 48.8352 75.4229 48.5007 74.7584 48.5007C74.0938 48.5007 73.5124 48.8352 72.9309 49.5878C72.3494 50.3404 71.851 51.2603 71.4357 52.5146C71.0203 53.7689 70.6881 55.1905 70.4389 56.8629C70.1897 58.5354 70.1066 60.2914 70.1066 62.2147C70.1066 64.138 70.1897 65.8941 70.4389 67.5666C70.6881 69.239 71.0203 70.6606 71.4357 71.9149C71.851 73.1692 72.3494 74.0891 72.9309 74.8417C73.5124 75.5943 74.0938 75.9287 74.7584 75.9287C75.4229 75.9287 76.0044 75.5943 76.5858 74.8417C77.1673 74.0891 77.6657 73.1692 78.081 71.9149C78.4964 70.6606 78.8287 69.239 79.0779 67.5666C79.327 65.8941 79.4101 64.138 79.4101 62.2147C79.4101 60.2078 79.244 58.4518 78.9948 56.7793ZM78.9948 29.1004C78.7456 27.5116 78.4133 26.0901 77.998 24.9193C77.5826 23.7486 77.0842 22.7452 76.5028 22.0762C75.9213 21.4072 75.3398 21.0727 74.6753 21.0727C74.0108 21.0727 73.4293 21.4072 72.8478 22.0762C72.2663 22.7452 71.768 23.665 71.3526 24.9193C70.9373 26.1737 70.605 27.5116 70.3558 29.1004C70.1066 30.6893 70.0235 32.3617 70.0235 34.2014C70.0235 36.0411 70.1066 37.7135 70.3558 39.3023C70.605 40.8911 70.9373 42.3127 71.3526 43.4834C71.768 44.6541 72.2663 45.574 72.8478 46.2429C73.4293 46.9119 74.0108 47.2464 74.6753 47.2464C75.3398 47.2464 75.9213 46.9119 76.5028 46.2429C77.0842 45.574 77.5826 44.6541 77.998 43.4834C78.4133 42.3127 78.7456 40.8911 78.9948 39.3023C79.244 37.7135 79.3271 35.9574 79.3271 34.2014C79.3271 32.4453 79.244 30.7729 78.9948 29.1004ZM78.9948 3.51212C78.7456 2.84315 78.4133 2.25779 77.998 1.75606C77.5826 1.25433 77.0842 0.83622 76.5028 0.585354C75.9213 0.334488 75.3398 0.167244 74.6753 0.167244C74.0108 0.167244 73.4293 0.334488 72.8478 0.585354C72.2663 0.83622 71.768 1.25433 71.3526 1.75606C70.9373 2.25779 70.605 2.84315 70.3558 3.51212C70.1066 4.1811 70.0235 4.85007 70.0235 5.60267C70.0235 6.35527 70.1066 7.02425 70.3558 7.69322C70.605 8.3622 70.9373 8.94755 71.3526 9.44928C71.768 9.95101 72.2663 10.3691 72.8478 10.62C73.4293 10.8709 74.0108 11.0381 74.6753 11.0381C75.3398 11.0381 75.9213 10.8709 76.5028 10.62C77.0842 10.3691 77.5826 9.95101 77.998 9.44928C78.4133 8.94755 78.7456 8.3622 78.9948 7.69322C79.244 7.02425 79.3271 6.35527 79.3271 5.60267C79.4101 4.85007 79.244 4.1811 78.9948 3.51212ZM56.3175 74.2563C56.8989 73.2528 57.3973 71.9985 57.8127 70.3261C58.228 68.6536 58.5603 66.7303 58.8095 64.4725C59.0587 62.2147 59.2248 59.7897 59.2248 57.281C59.2248 54.6888 59.0587 52.3474 58.8095 50.0896C58.5603 47.8318 58.228 45.9085 57.8127 44.236C57.3973 42.5636 56.8989 41.2256 56.3175 40.3058C55.736 39.3023 55.0715 38.8006 54.49 38.8006C53.8255 38.8006 53.1609 39.3023 52.5795 40.3058C51.998 41.3093 51.4996 42.5636 51.0842 44.236C50.6689 45.9085 50.3366 47.8318 50.0874 50.0896C49.8382 52.3474 49.6721 54.7724 49.6721 57.281C49.6721 59.8733 49.8382 62.2147 50.0874 64.4725C50.3366 66.7303 50.6689 68.6536 51.0842 70.3261C51.4996 71.9985 51.998 73.3365 52.5795 74.2563C53.1609 75.2598 53.8255 75.7615 54.49 75.7615C55.1545 75.7615 55.736 75.2598 56.3175 74.2563ZM56.3175 36.3756C56.8989 35.3721 57.3973 34.0341 57.8127 32.2781C58.228 30.6056 58.5603 28.5987 58.8095 26.2573C59.0587 23.9995 59.2248 21.4908 59.2248 18.8986C59.2248 16.3063 59.0587 13.8812 58.8095 11.5398C58.5603 9.28204 58.228 7.27511 57.8127 5.51905C57.3973 3.76299 56.8989 2.42504 56.3175 1.42157C55.736 0.501732 55.1545 0 54.49 0C53.8255 0 53.1609 0.501732 52.5795 1.5052C51.998 2.50866 51.4996 3.84661 51.0842 5.60267C50.6689 7.35873 50.3366 9.36566 50.0874 11.6235C49.8382 13.8812 49.6721 16.3899 49.6721 18.9822C49.6721 21.6581 49.8382 24.0831 50.0874 26.3409C50.3366 28.5987 50.6689 30.6056 51.0842 32.3617C51.4996 34.0341 51.998 35.4557 52.5795 36.4592C53.1609 37.4626 53.8255 37.9644 54.49 37.9644C55.1545 37.8808 55.736 37.379 56.3175 36.3756ZM6.72642 74.2563C7.30789 73.2528 7.80629 71.9985 8.22163 70.3261C8.63696 68.6536 8.96923 66.7303 9.21843 64.4725C9.46764 62.2147 9.63377 59.7897 9.63377 57.281C9.63377 54.6888 9.46764 52.3474 9.21843 50.0896C8.96923 47.8318 8.63696 45.9085 8.22163 44.236C7.80629 42.5636 7.30789 41.2256 6.72642 40.3058C6.14495 39.3023 5.48042 38.8006 4.89895 38.8006C4.23441 38.8006 3.56987 39.3023 2.9884 40.3058C2.40693 41.3093 1.90853 42.5636 1.4932 44.236C1.07786 45.9085 0.745591 47.8318 0.49639 50.0896C0.247189 52.3474 0.0810547 54.7724 0.0810547 57.281C0.0810547 59.8733 0.247189 62.2147 0.49639 64.4725C0.745591 66.7303 1.07786 68.6536 1.4932 70.3261C1.90853 71.9985 2.40693 73.3365 2.9884 74.2563C3.56987 75.2598 4.23441 75.7615 4.89895 75.7615C5.56348 75.7615 6.14495 75.2598 6.72642 74.2563ZM6.72642 36.3756C7.30789 35.3721 7.80629 34.0341 8.22163 32.2781C8.63696 30.522 8.96923 28.5987 9.21843 26.2573C9.46764 23.9995 9.63377 21.4908 9.63377 18.8986C9.63377 16.3063 9.46764 13.8812 9.21843 11.5398C8.96923 9.28204 8.63696 7.27511 8.22163 5.51905C7.80629 3.76299 7.39096 2.50866 6.72642 1.5052C6.14495 0.501732 5.56348 0 4.89895 0C4.23441 0 3.56987 0.501732 2.9884 1.5052C2.40693 2.50866 1.90853 3.84661 1.4932 5.60267C1.07786 7.35873 0.745591 9.36566 0.49639 11.6235C0.247189 13.8812 0.0810547 16.3899 0.0810547 18.9822C0.0810547 21.6581 0.247189 24.0831 0.49639 26.3409C0.745591 28.5987 1.07786 30.6056 1.4932 32.3617C1.90853 34.0341 2.40693 35.4557 2.9884 36.4592C3.56987 37.4626 4.23441 37.9644 4.89895 37.9644C5.56348 37.8808 6.14495 37.379 6.72642 36.3756ZM49.9213 72.0821C49.9213 70.9114 49.6721 69.4062 49.1737 67.5666C48.6753 65.8105 48.0108 63.7199 47.097 61.5458C46.1833 59.288 45.0203 57.0302 43.6913 54.6051C42.3622 52.1801 41.0331 50.0059 39.621 47.999C38.2919 45.9921 36.9628 44.3196 35.7168 42.8981C34.4708 41.5601 33.391 40.5567 32.3111 39.8877C31.3143 39.2187 30.5667 39.0515 29.9852 39.3859C29.4037 39.7204 29.1545 40.473 29.1545 41.6437C29.1545 42.8144 29.4037 44.3196 29.9021 46.0757C30.4005 47.8318 31.0651 49.8387 31.9788 52.0965C32.8926 54.3543 34.0555 56.6957 35.3846 59.0371C36.7136 61.4621 38.0427 63.6363 39.4549 65.6432C40.7839 67.6502 42.113 69.3226 43.359 70.6606C44.605 72.0821 45.6849 73.0856 46.6817 73.671C47.6785 74.3399 48.4261 74.5072 49.0076 74.1727C49.6721 74.0054 49.9213 73.2528 49.9213 72.0821ZM30.2344 35.8738C30.2344 34.7031 29.9852 33.1979 29.4868 31.3582C28.9884 29.6022 28.3239 27.5116 27.4101 25.3375C26.4964 23.0797 25.3334 20.8219 24.0044 18.3132C22.6753 15.8882 21.3462 13.714 19.9341 11.7071C18.605 9.70015 17.2759 8.02771 16.0299 6.60614C14.7839 5.18456 13.7041 4.1811 12.6242 3.59574C11.6274 2.92677 10.7967 2.75952 10.2152 3.09401C9.63377 3.4285 9.38457 4.1811 9.38457 5.35181C9.38457 6.52251 9.63377 8.02771 10.1322 9.86739C10.6306 11.6235 11.2951 13.714 12.2088 15.8882C13.1226 18.0623 14.2855 20.4874 15.6146 22.8288C16.9437 25.2538 18.2727 27.5116 19.6849 29.5186C21.014 31.5255 22.343 33.1979 23.589 34.5359C24.835 35.8738 25.9149 36.8773 26.9948 37.5463C27.9916 38.2152 28.8223 38.3825 29.4037 38.048C29.9852 37.7971 30.2344 37.0445 30.2344 35.8738Z" fill="black"/>
</svg>
