<svg width="=19.25" height="19.25" viewBox="0 0 19.25 19.25" fill="currentColor" xmlns="http://www.w3.org/2000/svg">
<path fill-rule="evenodd" clip-rule="evenodd" d="M16.0139 9.02995C16.0139 13.0033 12.7928 16.2244 8.81944 16.2244C4.84606 16.2244 1.625 13.0033 1.625 9.02995C1.625 5.05657 4.84606 1.83551 8.81944 1.83551C12.7928 1.83551 16.0139 5.05657 16.0139 9.02995ZM14.5568 15.2261C13.0505 16.6215 11.0346 17.4744 8.81944 17.4744C4.15571 17.4744 0.375 13.6937 0.375 9.02995C0.375 4.36622 4.15571 0.58551 8.81944 0.58551C13.4832 0.58551 17.2639 4.36622 17.2639 9.02995C17.2639 11.0284 16.5697 12.8647 15.4093 14.3109L19.629 18.5306L18.7451 19.4145L14.5568 15.2261Z" fill="black"/>
</svg>
