<svg width="23" height="20" viewBox="0 0 23 20" fill="none" xmlns="http://www.w3.org/2000/svg">
<path fill-rule="evenodd" clip-rule="evenodd" d="M1.86035 9.40841C1.86035 4.76364 5.62524 0.998413 10.2693 0.998413C14.9134 0.998413 18.6783 4.76364 18.6783 9.40841C18.6783 14.0532 14.9134 17.8184 10.2693 17.8184C5.62524 17.8184 1.86035 14.0532 1.86035 9.40841ZM10.2693 -0.00158691C5.07284 -0.00158691 0.860352 4.21147 0.860352 9.40841C0.860352 14.6054 5.07284 18.8184 10.2693 18.8184C12.9838 18.8184 15.4298 17.6688 17.1471 15.8299L22.3752 20.0018L22.9989 19.2201L17.7902 15.0637C18.9756 13.4894 19.6783 11.531 19.6783 9.40841C19.6783 4.21147 15.4658 -0.00158691 10.2693 -0.00158691Z" fill="#FFE6DD"/>
</svg>
