<svg width="23" height="20" viewBox="0 0 23 20" fill="none" xmlns="http://www.w3.org/2000/svg">
<path fill-rule="evenodd" clip-rule="evenodd" d="M1.85938 9.40829C1.85938 4.76352 5.62426 0.998291 10.2684 0.998291C14.9125 0.998291 18.6773 4.76352 18.6773 9.40829C18.6773 14.0531 14.9125 17.8183 10.2684 17.8183C5.62426 17.8183 1.85938 14.0531 1.85938 9.40829ZM10.2684 -0.00170898C5.07187 -0.00170898 0.859375 4.21135 0.859375 9.40829C0.859375 14.6052 5.07187 18.8183 10.2684 18.8183C12.9828 18.8183 15.4288 17.6687 17.1461 15.8298L22.3742 20.0016L22.998 19.22L17.7892 15.0636C18.9747 13.4893 19.6773 11.5309 19.6773 9.40829C19.6773 4.21135 15.4649 -0.00170898 10.2684 -0.00170898Z" fill="#FFE6DD"/>
</svg>
