<svg width="18" height="18" viewBox="0 0 18 18" fill="none" xmlns="http://www.w3.org/2000/svg">
<path fill-rule="evenodd" clip-rule="evenodd" d="M16.1936 9.03917C16.1936 13.0126 12.9725 16.2336 8.99913 16.2336C5.02575 16.2336 1.80469 13.0126 1.80469 9.03917C1.80469 5.06579 5.02575 1.84473 8.99913 1.84473C12.9725 1.84473 16.1936 5.06579 16.1936 9.03917ZM17.4436 9.03917C17.4436 13.7029 13.6629 17.4836 8.99913 17.4836C4.33539 17.4836 0.554688 13.7029 0.554688 9.03917C0.554688 4.37543 4.33539 0.594727 8.99913 0.594727C13.6629 0.594727 17.4436 4.37543 17.4436 9.03917ZM8.33231 4.71326H9.67631L9.41231 11.3853H8.56031L8.33231 4.71326ZM9.59231 13.3653H8.32031V12.1653H9.59231V13.3653Z" fill="black"/>
</svg>
