<svg xmlns="http://www.w3.org/2000/svg" width="94" height="95" fill="none"><g fill="#0051FF" clip-path="url(#a)"><path d="M7.12 71.63a.29.29 0 1 0-.4-.4.29.29 0 0 0 .4.4ZM10.43 74.94a.3.3 0 1 0-.43-.43.3.3 0 0 0 .43.43ZM13.74 78.24a.32.32 0 1 0-.45-.44.32.32 0 0 0 .45.44ZM17.04 81.54a.32.32 0 1 0-.45-.45.32.32 0 0 0 .45.45ZM20.32 84.83a.3.3 0 1 0-.43-.43.3.3 0 0 0 .43.43ZM23.61 88.12a.29.29 0 1 0-.4-.41.29.29 0 0 0 .4.4ZM3.87 61.78a.35.35 0 1 0-.5-.5.35.35 0 0 0 .5.5ZM7.19 65.1a.38.38 0 1 0-.54-.54.38.38 0 0 0 .54.54ZM10.5 68.42a.4.4 0 1 0-.57-.58.4.4 0 0 0 .57.58ZM13.82 71.73a.44.44 0 1 0-.62-.61.44.44 0 0 0 .62.61ZM17.14 75.05a.47.47 0 1 0-.66-.66.47.47 0 0 0 .66.66ZM20.44 78.35a.47.47 0 1 0-.66-.66.47.47 0 0 0 .66.66ZM23.71 81.63a.44.44 0 1 0-.61-.62.44.44 0 0 0 .61.62ZM27 84.9a.4.4 0 1 0-.58-.57.4.4 0 0 0 .57.57ZM30.27 88.18a.38.38 0 1 0-.54-.53.38.38 0 0 0 .54.53ZM33.54 91.46a.35.35 0 1 0-.49-.5.35.35 0 0 0 .5.5ZM.57 51.89a.35.35 0 1 0-.5-.5.35.35 0 0 0 .5.5ZM3.9 55.22a.4.4 0 1 0-.56-.56.4.4 0 0 0 .56.56ZM7.23 58.54a.44.44 0 1 0-.62-.61.44.44 0 0 0 .62.61ZM10.55 61.87a.48.48 0 1 0-.67-.68.48.48 0 0 0 .67.68ZM13.89 65.2a.53.53 0 1 0-.75-.74.53.53 0 0 0 .75.74ZM17.22 68.53a.57.57 0 1 0-.81-.8.57.57 0 0 0 .8.8ZM20.54 71.86a.61.61 0 1 0-.87-.87.61.61 0 0 0 .87.87ZM23.84 75.16a.61.61 0 1 0-.87-.87.61.61 0 0 0 .87.87ZM27.1 78.42a.57.57 0 1 0-.8-.8.57.57 0 0 0 .8.8ZM30.37 81.69a.53.53 0 1 0-.74-.74.53.53 0 0 0 .74.74ZM33.64 84.95a.48.48 0 1 0-.68-.67.48.48 0 0 0 .68.67ZM36.9 88.22a.44.44 0 1 0-.61-.62.44.44 0 0 0 .61.62ZM40.17 91.49a.4.4 0 1 0-.56-.56.4.4 0 0 0 .56.56ZM43.44 94.75a.35.35 0 1 0-.5-.49.35.35 0 0 0 .5.5ZM.57 45.3a.35.35 0 1 0-.5-.5.35.35 0 0 0 .5.5ZM3.9 48.63a.4.4 0 1 0-.57-.57.4.4 0 0 0 .58.57ZM7.25 51.97a.47.47 0 1 0-.66-.66.47.47 0 0 0 .66.66ZM10.59 55.31a.53.53 0 1 0-.75-.74.53.53 0 0 0 .75.74ZM13.93 58.65a.58.58 0 1 0-.83-.83.58.58 0 0 0 .83.83ZM17.27 61.99a.64.64 0 1 0-.91-.91.64.64 0 0 0 .9.9ZM20.6 65.33a.7.7 0 1 0-.99-1 .7.7 0 0 0 1 1ZM23.95 68.67a.76.76 0 1 0-1.08-1.08.76.76 0 0 0 1.08 1.08ZM27.24 71.96a.76.76 0 1 0-1.08-1.07.76.76 0 0 0 1.08 1.07ZM30.5 75.22a.7.7 0 1 0-1-1 .7.7 0 0 0 1 1ZM33.75 78.48a.64.64 0 1 0-.9-.92.64.64 0 0 0 .9.92ZM37 81.73a.59.59 0 1 0-.82-.83.59.59 0 0 0 .83.83ZM40.26 84.99a.53.53 0 1 0-.74-.75.53.53 0 0 0 .74.75ZM43.52 88.24a.47.47 0 1 0-.66-.66.47.47 0 0 0 .66.66ZM46.77 91.5a.4.4 0 1 0-.57-.58.4.4 0 0 0 .57.58ZM50.03 94.75a.35.35 0 1 0-.5-.49.35.35 0 0 0 .5.5ZM3.9 42.03a.4.4 0 1 0-.56-.56.4.4 0 0 0 .56.56ZM7.25 45.38a.47.47 0 1 0-.66-.66.47.47 0 0 0 .66.66ZM10.6 48.72a.54.54 0 1 0-.76-.76.54.54 0 0 0 .76.76ZM13.95 52.08a.61.61 0 1 0-.87-.87.61.61 0 0 0 .87.87ZM17.3 55.43a.7.7 0 1 0-.98-.98.7.7 0 0 0 .98.98ZM20.65 58.78a.76.76 0 1 0-1.08-1.08.76.76 0 0 0 1.08 1.08ZM24 62.13a.84.84 0 1 0-1.19-1.19.84.84 0 0 0 1.19 1.19ZM27.35 65.48a.91.91 0 1 0-1.3-1.3.91.91 0 0 0 1.3 1.3ZM30.64 68.77a.91.91 0 1 0-1.28-1.29.91.91 0 0 0 1.28 1.3ZM33.9 72.02a.84.84 0 1 0-1.2-1.19.84.84 0 0 0 1.2 1.19ZM37.13 75.26a.76.76 0 1 0-1.07-1.08.76.76 0 0 0 1.07 1.08ZM40.38 78.5a.7.7 0 1 0-.98-.97.7.7 0 0 0 .98.98ZM43.62 81.75a.61.61 0 1 0-.86-.87.61.61 0 0 0 .86.87ZM46.87 85a.54.54 0 1 0-.76-.77.54.54 0 0 0 .76.77ZM50.11 88.24a.47.47 0 1 0-.66-.66.47.47 0 0 0 .66.66ZM53.36 91.49a.4.4 0 1 0-.56-.56.4.4 0 0 0 .56.56ZM3.87 35.4a.35.35 0 1 0-.5-.5.35.35 0 0 0 .5.5ZM7.23 38.76a.44.44 0 1 0-.62-.62.44.44 0 0 0 .62.62ZM10.59 42.12a.53.53 0 1 0-.75-.74.53.53 0 0 0 .75.74ZM13.95 45.48a.61.61 0 1 0-.87-.87.61.61 0 0 0 .87.87ZM17.3 48.84a.7.7 0 1 0-.99-1 .7.7 0 0 0 1 1ZM20.67 52.2a.8.8 0 1 0-1.12-1.12.8.8 0 0 0 1.12 1.12ZM24.03 55.56a.88.88 0 1 0-1.25-1.24.88.88 0 0 0 1.25 1.24ZM27.39 58.92a.97.97 0 1 0-1.37-1.37.97.97 0 0 0 1.37 1.37ZM30.75 62.28a1.06 1.06 0 1 0-1.5-1.5 1.06 1.06 0 0 0 1.5 1.5ZM34.05 65.58a1.06 1.06 0 1 0-1.5-1.5 1.06 1.06 0 0 0 1.5 1.5ZM37.28 68.81a.97.97 0 1 0-1.37-1.37.97.97 0 0 0 1.37 1.37ZM40.52 72.05a.88.88 0 1 0-1.25-1.25.88.88 0 0 0 1.25 1.25ZM43.75 75.28a.8.8 0 1 0-1.12-1.12.8.8 0 0 0 1.12 1.12ZM46.98 78.52a.7.7 0 1 0-.99-1 .7.7 0 0 0 1 1ZM50.22 81.75a.61.61 0 1 0-.87-.87.61.61 0 0 0 .87.87ZM53.45 84.99a.53.53 0 1 0-.74-.75.53.53 0 0 0 .74.75ZM56.69 88.22a.44.44 0 1 0-.62-.62.44.44 0 0 0 .62.62ZM59.92 91.46a.35.35 0 1 0-.49-.5.35.35 0 0 0 .5.5ZM7.19 32.12a.38.38 0 1 0-.54-.53.38.38 0 0 0 .54.53ZM10.55 35.5a.48.48 0 1 0-.67-.68.48.48 0 0 0 .67.67ZM13.93 38.87a.59.59 0 1 0-.83-.83.59.59 0 0 0 .83.83ZM17.3 42.24a.7.7 0 1 0-.98-.98.7.7 0 0 0 .98.98ZM20.67 45.6a.8.8 0 1 0-1.12-1.11.8.8 0 0 0 1.12 1.12ZM24.04 48.98a.9.9 0 1 0-1.27-1.27.9.9 0 0 0 1.27 1.27ZM27.41 52.35A1 1 0 1 0 26 50.93a1 1 0 0 0 1.41 1.42ZM30.78 55.72a1.1 1.1 0 1 0-1.56-1.56 1.1 1.1 0 0 0 1.56 1.56ZM34.15 59.09a1.2 1.2 0 1 0-1.7-1.7 1.2 1.2 0 0 0 1.7 1.7ZM37.45 62.39a1.2 1.2 0 1 0-1.7-1.71 1.2 1.2 0 0 0 1.7 1.7ZM40.67 65.61a1.1 1.1 0 1 0-1.56-1.56 1.1 1.1 0 0 0 1.56 1.56ZM43.9 68.84a1 1 0 1 0-1.42-1.42 1 1 0 0 0 1.42 1.42ZM47.12 72.06a.9.9 0 1 0-1.27-1.27.9.9 0 0 0 1.27 1.27ZM50.35 75.28a.8.8 0 1 0-1.13-1.12.8.8 0 0 0 1.13 1.12ZM53.57 78.5a.7.7 0 1 0-.98-.97.7.7 0 0 0 .98.98ZM56.8 81.73a.58.58 0 1 0-.83-.83.58.58 0 0 0 .82.83ZM60.02 84.95a.48.48 0 1 0-.68-.67.48.48 0 0 0 .68.67ZM63.24 88.18a.38.38 0 1 0-.53-.53.38.38 0 0 0 .53.53ZM7.12 25.47a.29.29 0 1 0-.4-.41.29.29 0 0 0 .4.4ZM10.5 28.85a.4.4 0 1 0-.57-.58.4.4 0 0 0 .57.58ZM13.89 32.23a.53.53 0 1 0-.75-.74.53.53 0 0 0 .75.74ZM17.27 35.61a.64.64 0 1 0-.91-.91.64.64 0 0 0 .9.91ZM20.65 39a.76.76 0 1 0-1.08-1.09.76.76 0 0 0 1.08 1.08ZM24.03 42.37a.88.88 0 1 0-1.25-1.24.88.88 0 0 0 1.25 1.24ZM27.41 45.75A1 1 0 1 0 26 44.34a1 1 0 0 0 1.41 1.41ZM30.8 49.14a1.12 1.12 0 1 0-1.6-1.59 1.12 1.12 0 0 0 1.6 1.59ZM34.17 52.52a1.24 1.24 0 1 0-1.75-1.75 1.24 1.24 0 0 0 1.75 1.75ZM37.55 55.9a1.36 1.36 0 1 0-1.91-1.92 1.36 1.36 0 0 0 1.91 1.92ZM40.85 59.2a1.36 1.36 0 1 0-1.92-1.92 1.36 1.36 0 0 0 1.92 1.92ZM44.07 62.4a1.24 1.24 0 1 0-1.76-1.74 1.24 1.24 0 0 0 1.76 1.75ZM47.28 65.62a1.12 1.12 0 1 0-1.58-1.58 1.12 1.12 0 0 0 1.58 1.58ZM50.5 68.84a1 1 0 1 0-1.42-1.42 1 1 0 0 0 1.41 1.42ZM53.7 72.05a.88.88 0 1 0-1.24-1.25.88.88 0 0 0 1.25 1.25ZM56.92 75.26a.76.76 0 1 0-1.08-1.08.76.76 0 0 0 1.08 1.08ZM60.13 78.48a.64.64 0 1 0-.9-.92.64.64 0 0 0 .9.92ZM63.35 81.69a.53.53 0 1 0-.75-.74.53.53 0 0 0 .75.74ZM66.56 84.9a.4.4 0 1 0-.58-.57.4.4 0 0 0 .58.57ZM69.77 88.12a.29.29 0 1 0-.4-.41.29.29 0 0 0 .4.4ZM10.43 22.18a.3.3 0 1 0-.43-.43.3.3 0 0 0 .43.43ZM13.82 25.57a.44.44 0 1 0-.62-.62.44.44 0 0 0 .62.62ZM17.22 28.96a.57.57 0 1 0-.81-.8.57.57 0 0 0 .8.8ZM20.6 32.35a.7.7 0 1 0-.99-.99.7.7 0 0 0 1 1ZM24 35.75a.84.84 0 1 0-1.19-1.19.84.84 0 0 0 1.19 1.19ZM27.39 39.14a.97.97 0 1 0-1.37-1.37.97.97 0 0 0 1.37 1.37ZM30.78 42.53a1.1 1.1 0 1 0-1.56-1.56 1.1 1.1 0 0 0 1.56 1.56ZM34.17 45.92a1.24 1.24 0 1 0-1.75-1.75 1.24 1.24 0 0 0 1.75 1.75ZM37.57 49.32a1.37 1.37 0 1 0-1.95-1.95 1.37 1.37 0 0 0 1.95 1.95ZM40.96 52.7a1.5 1.5 0 1 0-2.13-2.12 1.5 1.5 0 0 0 2.13 2.13ZM44.25 56a1.5 1.5 0 1 0-2.12-2.13A1.5 1.5 0 0 0 44.25 56ZM47.46 59.2a1.37 1.37 0 1 0-1.94-1.94 1.37 1.37 0 0 0 1.94 1.95ZM50.66 62.4a1.24 1.24 0 1 0-1.75-1.74 1.24 1.24 0 0 0 1.75 1.75ZM53.86 65.61a1.1 1.1 0 1 0-1.56-1.56 1.1 1.1 0 0 0 1.56 1.56ZM57.07 68.81a.97.97 0 1 0-1.38-1.37.97.97 0 0 0 1.38 1.37ZM60.27 72.02a.84.84 0 1 0-1.19-1.19.84.84 0 0 0 1.19 1.19ZM63.47 75.22a.7.7 0 1 0-1-1 .7.7 0 0 0 1 1ZM66.68 78.42a.57.57 0 1 0-.81-.8.57.57 0 0 0 .8.8ZM69.88 81.63a.44.44 0 1 0-.62-.62.44.44 0 0 0 .62.62ZM73.08 84.83a.3.3 0 1 0-.43-.43.3.3 0 0 0 .43.43ZM13.74 18.9a.32.32 0 1 0-.45-.46.32.32 0 0 0 .45.45ZM17.14 22.3a.47.47 0 1 0-.66-.66.47.47 0 0 0 .66.65ZM20.54 25.7a.61.61 0 1 0-.87-.87.61.61 0 0 0 .87.87ZM23.95 29.1a.76.76 0 1 0-1.08-1.08.76.76 0 0 0 1.08 1.08ZM27.35 32.5a.91.91 0 1 0-1.3-1.29.91.91 0 0 0 1.3 1.3ZM30.75 35.9a1.06 1.06 0 1 0-1.5-1.5 1.06 1.06 0 0 0 1.5 1.5ZM34.15 39.3a1.2 1.2 0 1 0-1.7-1.7 1.2 1.2 0 0 0 1.7 1.7ZM37.55 42.7a1.36 1.36 0 1 0-1.91-1.91 1.36 1.36 0 0 0 1.91 1.92ZM40.96 46.11a1.5 1.5 0 1 0-2.13-2.13 1.5 1.5 0 0 0 2.13 2.13ZM44.36 49.51a1.65 1.65 0 1 0-2.34-2.34 1.65 1.65 0 0 0 2.34 2.34ZM47.66 52.81a1.65 1.65 0 1 0-2.34-2.34 1.65 1.65 0 0 0 2.34 2.34ZM50.85 56a1.5 1.5 0 1 0-2.13-2.13A1.5 1.5 0 0 0 50.85 56ZM54.04 59.2a1.36 1.36 0 1 0-1.92-1.92 1.36 1.36 0 0 0 1.92 1.92ZM57.23 62.39a1.2 1.2 0 1 0-1.7-1.71 1.2 1.2 0 0 0 1.7 1.7ZM60.43 65.58a1.06 1.06 0 1 0-1.5-1.5 1.06 1.06 0 0 0 1.5 1.5ZM63.62 68.77a.91.91 0 1 0-1.29-1.29.91.91 0 0 0 1.29 1.3ZM66.81 71.96a.76.76 0 1 0-1.08-1.07.76.76 0 0 0 1.08 1.07ZM70 75.16a.61.61 0 1 0-.87-.87.61.61 0 0 0 .87.87ZM73.2 78.35a.47.47 0 1 0-.66-.66.47.47 0 0 0 .66.66ZM76.39 81.54a.32.32 0 1 0-.45-.45.32.32 0 0 0 .45.45ZM17.04 15.6a.32.32 0 1 0-.45-.45.32.32 0 0 0 .45.45ZM20.44 19a.47.47 0 1 0-.66-.66.47.47 0 0 0 .66.66ZM23.84 22.4a.61.61 0 1 0-.87-.87.61.61 0 0 0 .87.87ZM27.24 25.8a.76.76 0 1 0-1.08-1.08.76.76 0 0 0 1.08 1.08ZM30.64 29.2a.91.91 0 1 0-1.28-1.28.91.91 0 0 0 1.28 1.28ZM34.05 32.6a1.06 1.06 0 1 0-1.5-1.5 1.06 1.06 0 0 0 1.5 1.5ZM37.45 36a1.2 1.2 0 1 0-1.7-1.7 1.2 1.2 0 0 0 1.7 1.7ZM40.85 39.41a1.36 1.36 0 1 0-1.92-1.92 1.36 1.36 0 0 0 1.92 1.92ZM44.25 42.81a1.5 1.5 0 1 0-2.12-2.12 1.5 1.5 0 0 0 2.12 2.12ZM47.66 46.22a1.65 1.65 0 1 0-2.34-2.34 1.65 1.65 0 0 0 2.34 2.34ZM50.95 49.51a1.65 1.65 0 1 0-2.33-2.34 1.65 1.65 0 0 0 2.33 2.34ZM54.15 52.7a1.5 1.5 0 1 0-2.13-2.12 1.5 1.5 0 0 0 2.13 2.13ZM57.34 55.9a1.36 1.36 0 1 0-1.92-1.92 1.36 1.36 0 0 0 1.92 1.92ZM60.53 59.09a1.2 1.2 0 1 0-1.7-1.7 1.2 1.2 0 0 0 1.7 1.7ZM63.72 62.28a1.06 1.06 0 1 0-1.5-1.5 1.06 1.06 0 0 0 1.5 1.5ZM66.92 65.48a.91.91 0 1 0-1.3-1.3.91.91 0 0 0 1.3 1.3ZM70.1 68.67a.76.76 0 1 0-1.07-1.08.76.76 0 0 0 1.08 1.08ZM73.3 71.86a.61.61 0 1 0-.87-.87.61.61 0 0 0 .87.87ZM76.5 75.05a.47.47 0 1 0-.67-.66.47.47 0 0 0 .66.66ZM79.69 78.24a.32.32 0 1 0-.45-.44.32.32 0 0 0 .45.44ZM20.32 12.29a.3.3 0 1 0-.43-.43.3.3 0 0 0 .43.43ZM23.71 15.68a.44.44 0 1 0-.61-.62.44.44 0 0 0 .61.62ZM27.1 19.07a.57.57 0 1 0-.8-.8.57.57 0 0 0 .8.8ZM30.5 22.46a.7.7 0 1 0-1-1 .7.7 0 0 0 1 1ZM33.9 25.86a.84.84 0 1 0-1.2-1.2.84.84 0 0 0 1.2 1.2ZM37.28 29.25a.97.97 0 1 0-1.37-1.38.97.97 0 0 0 1.37 1.38ZM40.67 32.64a1.1 1.1 0 1 0-1.56-1.56 1.1 1.1 0 0 0 1.56 1.56ZM44.07 36.03a1.24 1.24 0 1 0-1.76-1.75 1.24 1.24 0 0 0 1.76 1.75ZM47.46 39.42a1.37 1.37 0 1 0-1.94-1.94 1.37 1.37 0 0 0 1.94 1.94ZM50.85 42.81a1.5 1.5 0 1 0-2.13-2.12 1.5 1.5 0 0 0 2.13 2.12ZM54.15 46.11a1.5 1.5 0 1 0-2.13-2.13 1.5 1.5 0 0 0 2.13 2.13ZM57.35 49.32a1.37 1.37 0 1 0-1.94-1.95 1.37 1.37 0 0 0 1.94 1.95ZM60.55 52.52a1.24 1.24 0 1 0-1.75-1.75 1.24 1.24 0 0 0 1.75 1.75ZM63.75 55.72a1.1 1.1 0 1 0-1.56-1.56 1.1 1.1 0 0 0 1.56 1.56ZM66.96 58.92a.97.97 0 1 0-1.38-1.37.97.97 0 0 0 1.38 1.37ZM70.16 62.13a.84.84 0 1 0-1.18-1.19.84.84 0 0 0 1.18 1.19ZM73.36 65.33a.7.7 0 1 0-1-1 .7.7 0 0 0 1 1ZM76.57 68.53a.57.57 0 1 0-.81-.8.57.57 0 0 0 .8.8ZM79.77 71.73a.44.44 0 1 0-.62-.61.44.44 0 0 0 .62.61ZM82.97 74.94a.3.3 0 1 0-.43-.43.3.3 0 0 0 .43.43ZM23.61 8.98a.29.29 0 1 0-.4-.4.29.29 0 0 0 .4.4ZM27 12.36a.4.4 0 1 0-.58-.57.4.4 0 0 0 .57.57ZM30.37 15.74a.53.53 0 1 0-.74-.74.53.53 0 0 0 .74.74ZM33.75 19.12a.64.64 0 1 0-.9-.9.64.64 0 0 0 .9.9ZM37.13 22.5a.76.76 0 1 0-1.07-1.07.76.76 0 0 0 1.07 1.07ZM40.52 25.89a.88.88 0 1 0-1.25-1.25.88.88 0 0 0 1.25 1.25ZM43.9 29.27a1 1 0 1 0-1.42-1.42 1 1 0 0 0 1.42 1.42ZM47.28 32.65a1.12 1.12 0 1 0-1.58-1.58 1.12 1.12 0 0 0 1.58 1.58ZM50.66 36.03a1.24 1.24 0 1 0-1.75-1.75 1.24 1.24 0 0 0 1.75 1.75ZM54.04 39.41a1.36 1.36 0 1 0-1.92-1.92 1.36 1.36 0 0 0 1.92 1.92ZM57.34 42.7a1.36 1.36 0 1 0-1.92-1.91 1.36 1.36 0 0 0 1.92 1.92ZM60.55 45.92a1.24 1.24 0 1 0-1.75-1.75 1.24 1.24 0 0 0 1.75 1.75ZM63.77 49.14a1.12 1.12 0 1 0-1.59-1.59 1.12 1.12 0 0 0 1.59 1.59ZM66.98 52.35a1 1 0 1 0-1.42-1.42 1 1 0 0 0 1.42 1.42ZM70.2 55.56a.88.88 0 1 0-1.25-1.24.88.88 0 0 0 1.24 1.24ZM73.4 58.78a.76.76 0 1 0-1.07-1.08.76.76 0 0 0 1.08 1.08ZM76.62 61.99a.64.64 0 1 0-.91-.91.64.64 0 0 0 .9.9ZM79.83 65.2a.53.53 0 1 0-.74-.74.53.53 0 0 0 .74.74ZM83.05 68.42a.4.4 0 1 0-.58-.58.4.4 0 0 0 .58.58ZM86.26 71.63a.29.29 0 1 0-.4-.4.29.29 0 0 0 .4.4ZM30.27 9.04a.38.38 0 1 0-.54-.53.38.38 0 0 0 .54.53ZM33.64 12.41a.48.48 0 1 0-.68-.68.48.48 0 0 0 .68.68ZM37 15.78a.59.59 0 1 0-.82-.82.59.59 0 0 0 .83.82ZM40.38 19.16a.7.7 0 1 0-.98-.98.7.7 0 0 0 .98.98ZM43.75 22.53a.8.8 0 1 0-1.12-1.13.8.8 0 0 0 1.12 1.13ZM47.12 25.9a.9.9 0 1 0-1.27-1.27.9.9 0 0 0 1.27 1.27ZM50.5 29.27a1 1 0 1 0-1.42-1.42 1 1 0 0 0 1.41 1.42ZM53.86 32.64a1.1 1.1 0 1 0-1.56-1.57 1.1 1.1 0 0 0 1.56 1.57ZM57.23 36a1.2 1.2 0 1 0-1.7-1.7 1.2 1.2 0 0 0 1.7 1.7ZM60.53 39.3a1.2 1.2 0 1 0-1.7-1.7 1.2 1.2 0 0 0 1.7 1.7ZM63.76 42.53a1.1 1.1 0 1 0-1.57-1.56 1.1 1.1 0 0 0 1.57 1.56ZM66.98 45.75a1 1 0 1 0-1.42-1.41 1 1 0 0 0 1.42 1.41ZM70.2 48.98a.9.9 0 1 0-1.26-1.27.9.9 0 0 0 1.26 1.27ZM73.43 52.2a.8.8 0 1 0-1.12-1.12.8.8 0 0 0 1.12 1.12ZM76.65 55.43a.7.7 0 1 0-.98-.98.7.7 0 0 0 .98.98ZM79.87 58.65a.59.59 0 1 0-.82-.83.59.59 0 0 0 .82.83ZM83.1 61.87a.48.48 0 1 0-.68-.68.48.48 0 0 0 .68.68ZM86.32 65.1a.38.38 0 1 0-.53-.54.38.38 0 0 0 .53.54ZM33.54 5.72a.35.35 0 1 0-.49-.49.35.35 0 0 0 .5.5ZM36.9 9.08a.44.44 0 1 0-.61-.61.44.44 0 0 0 .61.61ZM40.26 12.44a.53.53 0 1 0-.74-.74.53.53 0 0 0 .74.74ZM43.62 15.8a.61.61 0 1 0-.86-.86.61.61 0 0 0 .86.87ZM46.98 19.17a.7.7 0 1 0-.99-1 .7.7 0 0 0 1 1ZM50.35 22.53a.8.8 0 1 0-1.13-1.13.8.8 0 0 0 1.13 1.13ZM53.7 25.89a.88.88 0 1 0-1.24-1.25.88.88 0 0 0 1.25 1.25ZM57.07 29.25a.97.97 0 1 0-1.38-1.38.97.97 0 0 0 1.38 1.38ZM60.43 32.6a1.06 1.06 0 1 0-1.5-1.5 1.06 1.06 0 0 0 1.5 1.5ZM63.72 35.9a1.06 1.06 0 1 0-1.5-1.5 1.06 1.06 0 0 0 1.5 1.5ZM66.96 39.14a.97.97 0 1 0-1.38-1.37.97.97 0 0 0 1.38 1.37ZM70.2 42.37a.88.88 0 1 0-1.25-1.24.88.88 0 0 0 1.24 1.24ZM73.43 45.6a.8.8 0 1 0-1.12-1.11.8.8 0 0 0 1.12 1.12ZM76.66 48.84a.7.7 0 1 0-1-1 .7.7 0 0 0 1 1ZM79.9 52.08a.61.61 0 1 0-.87-.87.61.61 0 0 0 .87.87ZM83.13 55.31a.53.53 0 1 0-.74-.74.53.53 0 0 0 .74.74ZM86.36 58.54a.44.44 0 1 0-.61-.61.44.44 0 0 0 .61.61ZM89.6 61.78a.35.35 0 1 0-.5-.5.35.35 0 0 0 .5.5ZM40.17 5.76a.4.4 0 1 0-.56-.56.4.4 0 0 0 .56.56ZM43.52 9.1a.47.47 0 1 0-.66-.65.47.47 0 0 0 .66.66ZM46.87 12.45a.54.54 0 1 0-.76-.76.54.54 0 0 0 .76.76ZM50.22 15.8a.61.61 0 1 0-.87-.86.61.61 0 0 0 .87.87ZM53.57 19.16a.7.7 0 1 0-.98-.98.7.7 0 0 0 .98.98ZM56.92 22.5a.76.76 0 1 0-1.08-1.07.76.76 0 0 0 1.08 1.07ZM60.27 25.86a.84.84 0 1 0-1.19-1.2.84.84 0 0 0 1.19 1.2ZM63.62 29.2a.91.91 0 1 0-1.29-1.28.91.91 0 0 0 1.29 1.28ZM66.92 32.5a.91.91 0 1 0-1.3-1.29.91.91 0 0 0 1.3 1.3ZM70.16 35.75a.84.84 0 1 0-1.18-1.19.84.84 0 0 0 1.18 1.19ZM73.4 39a.76.76 0 1 0-1.07-1.09A.76.76 0 0 0 73.4 39ZM76.65 42.24a.7.7 0 1 0-.98-.98.7.7 0 0 0 .98.98ZM79.9 45.48a.61.61 0 1 0-.87-.87.61.61 0 0 0 .87.87ZM83.14 48.72a.54.54 0 1 0-.76-.76.54.54 0 0 0 .76.76ZM86.39 51.97a.47.47 0 1 0-.66-.66.47.47 0 0 0 .66.66ZM89.63 55.22a.4.4 0 1 0-.56-.56.4.4 0 0 0 .56.56ZM43.44 2.43a.35.35 0 1 0-.5-.5.35.35 0 0 0 .5.5ZM46.77 5.77a.4.4 0 1 0-.57-.58.4.4 0 0 0 .57.58ZM50.11 9.1a.47.47 0 1 0-.66-.65.47.47 0 0 0 .66.66ZM53.45 12.44a.53.53 0 1 0-.74-.74.53.53 0 0 0 .74.74ZM56.8 15.78a.59.59 0 1 0-.83-.82.59.59 0 0 0 .82.82ZM60.13 19.12a.64.64 0 1 0-.9-.9.64.64 0 0 0 .9.9ZM63.47 22.46a.7.7 0 1 0-1-1 .7.7 0 0 0 1 1ZM66.81 25.8a.76.76 0 1 0-1.08-1.08.76.76 0 0 0 1.08 1.08ZM70.1 29.1a.76.76 0 1 0-1.07-1.08.76.76 0 0 0 1.08 1.08ZM73.36 32.35a.7.7 0 1 0-1-.99.7.7 0 0 0 1 1ZM76.62 35.61a.64.64 0 1 0-.91-.91.64.64 0 0 0 .9.91ZM79.87 38.87a.59.59 0 1 0-.82-.83.59.59 0 0 0 .82.83ZM83.13 42.12a.53.53 0 1 0-.74-.74.53.53 0 0 0 .74.74ZM86.39 45.38a.47.47 0 1 0-.66-.66.47.47 0 0 0 .66.66ZM89.64 48.63a.4.4 0 1 0-.58-.57.4.4 0 0 0 .58.57ZM92.9 51.89a.35.35 0 1 0-.5-.5.35.35 0 0 0 .5.5ZM50.03 2.43a.35.35 0 1 0-.5-.5.35.35 0 0 0 .5.5ZM53.36 5.76a.4.4 0 1 0-.56-.56.4.4 0 0 0 .56.56ZM56.69 9.08a.44.44 0 1 0-.62-.61.44.44 0 0 0 .62.61ZM60.02 12.41a.48.48 0 1 0-.68-.68.48.48 0 0 0 .68.68ZM63.35 15.74a.53.53 0 1 0-.75-.74.53.53 0 0 0 .75.74ZM66.68 19.07a.57.57 0 1 0-.81-.8.57.57 0 0 0 .8.8ZM70 22.4a.61.61 0 1 0-.87-.87.61.61 0 0 0 .87.87ZM73.3 25.7a.61.61 0 1 0-.87-.87.61.61 0 0 0 .87.87ZM76.57 28.96a.57.57 0 1 0-.81-.8.57.57 0 0 0 .8.8ZM79.83 32.23a.53.53 0 1 0-.74-.74.53.53 0 0 0 .74.74ZM83.1 35.5a.48.48 0 1 0-.68-.68.48.48 0 0 0 .68.67ZM86.36 38.76a.44.44 0 1 0-.61-.62.44.44 0 0 0 .61.62ZM89.63 42.03a.4.4 0 1 0-.56-.56.4.4 0 0 0 .56.56ZM92.9 45.3a.35.35 0 1 0-.5-.5.35.35 0 0 0 .5.5ZM59.92 5.72a.35.35 0 1 0-.49-.49.35.35 0 0 0 .5.5ZM63.24 9.04a.38.38 0 1 0-.53-.53.38.38 0 0 0 .53.53ZM66.56 12.36a.4.4 0 1 0-.58-.57.4.4 0 0 0 .58.57ZM69.88 15.68a.44.44 0 1 0-.62-.62.44.44 0 0 0 .62.62ZM73.2 19a.47.47 0 1 0-.66-.66.47.47 0 0 0 .66.66ZM76.5 22.3a.47.47 0 1 0-.67-.66.47.47 0 0 0 .66.65ZM79.77 25.57a.44.44 0 1 0-.62-.62.44.44 0 0 0 .62.62ZM83.05 28.85a.4.4 0 1 0-.58-.58.4.4 0 0 0 .58.58ZM86.32 32.12a.38.38 0 1 0-.53-.53.38.38 0 0 0 .53.53ZM89.6 35.4a.35.35 0 1 0-.5-.5.35.35 0 0 0 .5.5ZM69.77 8.98a.29.29 0 1 0-.4-.4.29.29 0 0 0 .4.4ZM73.08 12.29a.3.3 0 1 0-.43-.43.3.3 0 0 0 .43.43ZM76.39 15.6a.32.32 0 1 0-.45-.45.32.32 0 0 0 .45.45ZM79.69 18.9a.32.32 0 1 0-.45-.46.32.32 0 0 0 .45.45ZM82.97 22.18a.3.3 0 1 0-.43-.43.3.3 0 0 0 .43.43ZM86.26 25.47a.29.29 0 1 0-.4-.41.29.29 0 0 0 .4.4ZM5.43 68.5a.29.29 0 1 0-.38-.45.29.29 0 0 0 .38.44ZM8.47 72.05a.3.3 0 1 0-.4-.47.3.3 0 0 0 .4.47ZM11.5 75.6a.32.32 0 1 0-.4-.48.32.32 0 0 0 .4.48ZM14.54 79.15a.32.32 0 1 0-.41-.49.32.32 0 0 0 .4.49ZM17.56 82.68a.3.3 0 1 0-.4-.46.3.3 0 0 0 .4.46ZM20.58 86.21a.29.29 0 1 0-.37-.44.29.29 0 0 0 .37.44ZM2.95 58.42a.35.35 0 1 0-.45-.53.35.35 0 0 0 .45.53ZM6 61.98a.38.38 0 1 0-.5-.57.38.38 0 0 0 .5.57ZM9.05 65.55a.4.4 0 1 0-.53-.62.4.4 0 0 0 .53.62ZM12.1 69.12a.44.44 0 1 0-.57-.67.44.44 0 0 0 .57.67ZM15.15 72.68a.47.47 0 1 0-.6-.7.47.47 0 0 0 .6.7ZM18.18 76.23a.47.47 0 1 0-.6-.71.47.47 0 0 0 .6.7ZM21.19 79.75a.44.44 0 1 0-.57-.66.44.44 0 0 0 .57.66ZM24.2 83.27a.4.4 0 1 0-.53-.62.4.4 0 0 0 .53.62ZM27.21 86.8a.38.38 0 1 0-.49-.58.38.38 0 0 0 .5.57ZM30.22 90.32a.35.35 0 1 0-.45-.53.35.35 0 0 0 .45.53ZM.43 48.3a.35.35 0 1 0-.45-.53.35.35 0 0 0 .45.53ZM3.5 51.88a.4.4 0 1 0-.52-.6.4.4 0 0 0 .51.6ZM6.55 55.45a.44.44 0 1 0-.57-.66.44.44 0 0 0 .57.66ZM9.61 59.03a.48.48 0 1 0-.62-.73.48.48 0 0 0 .62.73ZM12.67 62.61a.53.53 0 1 0-.68-.8.53.53 0 0 0 .68.8ZM15.73 66.2a.57.57 0 1 0-.74-.88.57.57 0 0 0 .74.87ZM18.79 69.77a.61.61 0 1 0-.8-.94.61.61 0 0 0 .8.94ZM21.82 73.31a.61.61 0 1 0-.8-.93.61.61 0 0 0 .8.93ZM24.82 76.82a.57.57 0 1 0-.74-.87.57.57 0 0 0 .74.87ZM27.82 80.33a.53.53 0 1 0-.68-.8.53.53 0 0 0 .68.8ZM30.82 83.84a.48.48 0 1 0-.62-.73.48.48 0 0 0 .62.73ZM33.83 87.35a.44.44 0 1 0-.57-.66.44.44 0 0 0 .57.66ZM36.83 90.86a.4.4 0 1 0-.51-.6.4.4 0 0 0 .5.6ZM39.83 94.37a.35.35 0 1 0-.45-.52.35.35 0 0 0 .45.52ZM.95 41.72a.35.35 0 1 0-.45-.52.35.35 0 0 0 .45.52ZM4.02 45.31a.4.4 0 1 0-.53-.62.4.4 0 0 0 .53.62ZM7.09 48.9a.47.47 0 1 0-.61-.7.47.47 0 0 0 .6.7ZM10.15 52.5a.53.53 0 1 0-.68-.8.53.53 0 0 0 .68.8ZM13.22 56.08a.59.59 0 1 0-.76-.89.59.59 0 0 0 .76.9ZM16.3 59.67a.64.64 0 1 0-.85-.98.64.64 0 0 0 .84.98ZM19.36 63.26a.7.7 0 1 0-.91-1.07.7.7 0 0 0 .91 1.07ZM22.43 66.85a.76.76 0 1 0-1-1.16.76.76 0 0 0 1 1.16ZM25.46 70.4a.76.76 0 1 0-1-1.17.76.76 0 0 0 1 1.16ZM28.45 73.9a.7.7 0 1 0-.91-1.08.7.7 0 0 0 .91 1.07ZM31.44 77.4a.64.64 0 1 0-.83-.99.64.64 0 0 0 .83.98ZM34.44 80.9a.58.58 0 1 0-.76-.9.58.58 0 0 0 .76.9ZM37.43 84.39a.53.53 0 1 0-.69-.8.53.53 0 0 0 .69.8ZM40.42 87.89a.47.47 0 1 0-.6-.7.47.47 0 0 0 .6.7ZM43.41 91.39a.4.4 0 1 0-.53-.62.4.4 0 0 0 .53.62ZM46.4 94.89a.35.35 0 1 0-.45-.53.35.35 0 0 0 .45.53ZM4.52 38.73a.4.4 0 1 0-.51-.6.4.4 0 0 0 .51.6ZM7.6 42.33a.47.47 0 1 0-.6-.71.47.47 0 0 0 .6.7ZM10.68 45.93a.54.54 0 1 0-.7-.82.54.54 0 0 0 .7.82ZM13.76 49.53a.61.61 0 1 0-.8-.93.61.61 0 0 0 .8.93ZM16.84 53.13a.7.7 0 1 0-.9-1.05.7.7 0 0 0 .9 1.05ZM19.91 56.73a.76.76 0 1 0-.99-1.16.76.76 0 0 0 1 1.16ZM23 60.33a.84.84 0 1 0-1.1-1.27.84.84 0 0 0 1.1 1.27ZM26.07 63.93a.91.91 0 1 0-1.18-1.38.91.91 0 0 0 1.18 1.38ZM29.1 67.48a.91.91 0 1 0-1.18-1.39.91.91 0 0 0 1.18 1.39ZM32.08 70.97A.84.84 0 1 0 31 69.69a.84.84 0 0 0 1.1 1.28ZM35.07 74.45a.76.76 0 1 0-1-1.16.76.76 0 0 0 1 1.16ZM38.05 77.94a.7.7 0 1 0-.9-1.05.7.7 0 0 0 .9 1.05ZM41.03 81.43a.61.61 0 1 0-.8-.94.61.61 0 0 0 .8.94ZM44.01 84.91a.54.54 0 1 0-.7-.81.54.54 0 0 0 .7.81ZM47 88.4a.47.47 0 1 0-.61-.7.47.47 0 0 0 .6.7ZM49.98 91.9a.4.4 0 1 0-.51-.6.4.4 0 0 0 .5.6ZM5 32.12a.35.35 0 1 0-.45-.53.35.35 0 0 0 .46.53ZM8.1 35.73a.44.44 0 1 0-.57-.66.44.44 0 0 0 .56.66ZM11.18 39.34a.53.53 0 1 0-.68-.8.53.53 0 0 0 .68.8ZM14.27 42.95a.61.61 0 1 0-.8-.93.61.61 0 0 0 .8.93ZM17.36 46.57a.7.7 0 1 0-.92-1.07.7.7 0 0 0 .92 1.07ZM20.45 50.18a.8.8 0 1 0-1.03-1.2.8.8 0 0 0 1.03 1.2ZM23.53 53.79a.88.88 0 1 0-1.14-1.34.88.88 0 0 0 1.14 1.34Z"/><path d="M26.62 57.4a.97.97 0 1 0-1.26-1.47.97.97 0 0 0 1.26 1.47ZM29.71 61.01a1.06 1.06 0 1 0-1.38-1.6 1.06 1.06 0 0 0 1.38 1.6ZM32.74 64.56a1.06 1.06 0 1 0-1.38-1.61 1.06 1.06 0 0 0 1.38 1.6ZM35.71 68.03a.97.97 0 1 0-1.26-1.47.97.97 0 0 0 1.26 1.47ZM38.69 71.51a.88.88 0 1 0-1.15-1.34.88.88 0 0 0 1.15 1.34ZM41.66 74.99a.8.8 0 1 0-1.03-1.2.8.8 0 0 0 1.03 1.2ZM44.63 78.46a.7.7 0 1 0-.91-1.07.7.7 0 0 0 .91 1.07ZM47.6 81.94a.61.61 0 1 0-.8-.93.61.61 0 0 0 .8.93ZM50.58 85.42a.53.53 0 1 0-.69-.8.53.53 0 0 0 .69.8ZM53.55 88.9a.44.44 0 1 0-.57-.67.44.44 0 0 0 .57.66ZM56.52 92.37a.35.35 0 1 0-.45-.53.35.35 0 0 0 .45.53ZM8.57 29.11a.38.38 0 1 0-.5-.57.38.38 0 0 0 .5.57ZM11.67 32.73a.48.48 0 1 0-.63-.73.48.48 0 0 0 .63.73ZM14.76 36.36a.59.59 0 1 0-.76-.9.59.59 0 0 0 .76.9ZM17.86 39.98a.7.7 0 1 0-.9-1.05.7.7 0 0 0 .9 1.05ZM20.96 43.6a.8.8 0 1 0-1.03-1.2.8.8 0 0 0 1.03 1.2ZM24.06 47.23a.9.9 0 1 0-1.17-1.36.9.9 0 0 0 1.17 1.36ZM27.16 50.85a1 1 0 1 0-1.3-1.52 1 1 0 0 0 1.3 1.52ZM30.26 54.48a1.1 1.1 0 1 0-1.44-1.69 1.1 1.1 0 0 0 1.44 1.69ZM33.35 58.1a1.2 1.2 0 1 0-1.57-1.84 1.2 1.2 0 0 0 1.57 1.84ZM36.38 61.64a1.2 1.2 0 1 0-1.57-1.84 1.2 1.2 0 0 0 1.57 1.84ZM39.35 65.1a1.1 1.1 0 1 0-1.44-1.67 1.1 1.1 0 0 0 1.44 1.68ZM42.3 68.57a1 1 0 1 0-1.3-1.52 1 1 0 0 0 1.3 1.52ZM45.27 72.04a.9.9 0 1 0-1.16-1.36.9.9 0 0 0 1.16 1.36ZM48.23 75.5a.8.8 0 1 0-1.03-1.2.8.8 0 0 0 1.03 1.2ZM51.2 78.97a.7.7 0 1 0-.9-1.05.7.7 0 0 0 .9 1.05ZM54.16 82.43a.59.59 0 1 0-.76-.89.59.59 0 0 0 .76.9ZM57.12 85.9a.48.48 0 1 0-.62-.73.48.48 0 0 0 .62.73ZM60.09 89.36a.38.38 0 1 0-.5-.57.38.38 0 0 0 .5.57ZM9.02 22.47a.29.29 0 1 0-.37-.44.29.29 0 0 0 .37.44ZM12.13 26.1a.4.4 0 1 0-.53-.62.4.4 0 0 0 .53.62ZM15.24 29.74a.53.53 0 1 0-.68-.8.53.53 0 0 0 .68.8ZM18.35 33.37a.64.64 0 1 0-.84-.98.64.64 0 0 0 .84.98ZM21.45 37a.76.76 0 1 0-.99-1.15.76.76 0 0 0 1 1.16ZM24.56 40.64a.88.88 0 1 0-1.14-1.34.88.88 0 0 0 1.14 1.34ZM27.67 44.28a1 1 0 1 0-1.3-1.53 1 1 0 0 0 1.3 1.53ZM30.78 47.91a1.12 1.12 0 1 0-1.46-1.7 1.12 1.12 0 0 0 1.46 1.7ZM33.89 51.54a1.24 1.24 0 1 0-1.61-1.88 1.24 1.24 0 0 0 1.6 1.88ZM37 55.18a1.36 1.36 0 1 0-1.77-2.06 1.36 1.36 0 0 0 1.76 2.06ZM40.02 58.72a1.36 1.36 0 1 0-1.76-2.06 1.36 1.36 0 0 0 1.76 2.06ZM42.98 62.18a1.24 1.24 0 1 0-1.61-1.88 1.24 1.24 0 0 0 1.6 1.88ZM45.93 65.63a1.12 1.12 0 1 0-1.45-1.7 1.12 1.12 0 0 0 1.45 1.7ZM48.88 69.09a1 1 0 1 0-1.3-1.53 1 1 0 0 0 1.3 1.53ZM51.84 72.54a.88.88 0 1 0-1.15-1.34.88.88 0 0 0 1.15 1.34ZM54.79 76a.76.76 0 1 0-1-1.17.76.76 0 0 0 1 1.16ZM57.74 79.45a.64.64 0 1 0-.83-.98.64.64 0 0 0 .83.98ZM60.7 82.9a.53.53 0 1 0-.69-.8.53.53 0 0 0 .69.8ZM63.65 86.36a.4.4 0 1 0-.53-.62.4.4 0 0 0 .53.62ZM66.6 89.8a.29.29 0 1 0-.37-.43.29.29 0 0 0 .37.44ZM12.58 19.45a.3.3 0 1 0-.4-.46.3.3 0 0 0 .4.46ZM15.7 23.1a.44.44 0 1 0-.57-.67.44.44 0 0 0 .57.67ZM18.81 26.74a.57.57 0 1 0-.74-.87.57.57 0 0 0 .74.87ZM21.93 30.39a.7.7 0 1 0-.91-1.07.7.7 0 0 0 .91 1.07ZM25.05 34.03a.84.84 0 1 0-1.1-1.27.84.84 0 0 0 1.1 1.27ZM28.16 37.68a.97.97 0 1 0-1.26-1.48.97.97 0 0 0 1.26 1.48ZM31.28 41.32a1.1 1.1 0 1 0-1.43-1.67 1.1 1.1 0 0 0 1.43 1.67ZM34.4 44.97a1.24 1.24 0 1 0-1.61-1.88 1.24 1.24 0 0 0 1.6 1.88ZM37.52 48.62a1.37 1.37 0 1 0-1.79-2.1 1.37 1.37 0 0 0 1.79 2.1ZM40.63 52.26a1.5 1.5 0 1 0-1.95-2.29 1.5 1.5 0 0 0 1.95 2.3ZM43.66 55.8a1.5 1.5 0 1 0-1.95-2.28 1.5 1.5 0 0 0 1.95 2.29ZM46.6 59.25a1.37 1.37 0 1 0-1.78-2.09 1.37 1.37 0 0 0 1.79 2.09ZM49.55 62.7a1.24 1.24 0 1 0-1.6-1.9 1.24 1.24 0 0 0 1.6 1.9ZM52.5 66.13a1.1 1.1 0 1 0-1.44-1.67 1.1 1.1 0 0 0 1.43 1.67ZM55.44 69.58a.97.97 0 1 0-1.26-1.48.97.97 0 0 0 1.26 1.48ZM58.38 73.02a.84.84 0 1 0-1.09-1.28.84.84 0 0 0 1.1 1.28ZM61.33 76.46a.7.7 0 1 0-.92-1.07.7.7 0 0 0 .92 1.07ZM64.27 79.9a.57.57 0 1 0-.74-.86.57.57 0 0 0 .74.87ZM67.21 83.35a.44.44 0 1 0-.56-.67.44.44 0 0 0 .56.67ZM70.16 86.8a.3.3 0 1 0-.4-.47.3.3 0 0 0 .4.46ZM16.13 16.43a.32.32 0 1 0-.41-.48.32.32 0 0 0 .41.48ZM19.26 20.09a.47.47 0 1 0-.6-.71.47.47 0 0 0 .6.7ZM22.39 23.74a.61.61 0 1 0-.8-.93.61.61 0 0 0 .8.93ZM25.51 27.4a.76.76 0 1 0-.99-1.16.76.76 0 0 0 1 1.16ZM28.64 31.06a.91.91 0 1 0-1.18-1.39.91.91 0 0 0 1.18 1.39ZM31.77 34.72a1.06 1.06 0 1 0-1.38-1.62 1.06 1.06 0 0 0 1.38 1.62ZM34.9 38.37a1.2 1.2 0 1 0-1.58-1.83 1.2 1.2 0 0 0 1.57 1.83ZM38.02 42.03a1.36 1.36 0 1 0-1.76-2.06 1.36 1.36 0 0 0 1.76 2.06ZM41.15 45.69a1.5 1.5 0 1 0-1.96-2.3 1.5 1.5 0 0 0 1.96 2.3ZM44.27 49.34a1.65 1.65 0 1 0-2.14-2.5 1.65 1.65 0 0 0 2.14 2.5ZM47.3 52.89a1.65 1.65 0 1 0-2.14-2.52 1.65 1.65 0 0 0 2.14 2.52ZM50.24 56.32a1.5 1.5 0 1 0-1.96-2.29 1.5 1.5 0 0 0 1.96 2.29ZM53.17 59.75a1.36 1.36 0 1 0-1.76-2.06 1.36 1.36 0 0 0 1.76 2.06ZM56.1 63.18a1.2 1.2 0 1 0-1.56-1.83 1.2 1.2 0 0 0 1.57 1.83ZM59.04 66.61a1.06 1.06 0 1 0-1.38-1.6 1.06 1.06 0 0 0 1.38 1.6ZM61.97 70.05a.91.91 0 1 0-1.18-1.39.91.91 0 0 0 1.18 1.39ZM64.9 73.48a.76.76 0 1 0-.98-1.16.76.76 0 0 0 .99 1.16ZM67.84 76.9a.61.61 0 1 0-.8-.93.61.61 0 0 0 .8.94ZM70.78 80.34a.47.47 0 1 0-.6-.7.47.47 0 0 0 .6.7ZM73.71 83.77a.32.32 0 1 0-.41-.48.32.32 0 0 0 .41.48ZM19.68 13.4a.32.32 0 1 0-.42-.48.32.32 0 0 0 .42.48ZM22.8 17.06a.47.47 0 1 0-.6-.71.47.47 0 0 0 .6.7ZM25.93 20.71a.61.61 0 1 0-.8-.93.61.61 0 0 0 .8.93ZM29.06 24.37a.76.76 0 1 0-1-1.16.76.76 0 0 0 1 1.16ZM32.18 28.03A.91.91 0 1 0 31 26.64a.91.91 0 0 0 1.18 1.39ZM35.31 31.69a1.06 1.06 0 1 0-1.38-1.62 1.06 1.06 0 0 0 1.38 1.62ZM38.44 35.34a1.2 1.2 0 1 0-1.57-1.83 1.2 1.2 0 0 0 1.57 1.83ZM41.56 39a1.36 1.36 0 1 0-1.76-2.06A1.36 1.36 0 0 0 41.56 39ZM44.7 42.66a1.5 1.5 0 1 0-1.96-2.3 1.5 1.5 0 0 0 1.95 2.3ZM47.82 46.31a1.65 1.65 0 1 0-2.15-2.51 1.65 1.65 0 0 0 2.15 2.51ZM50.85 49.86a1.65 1.65 0 1 0-2.15-2.52 1.65 1.65 0 0 0 2.15 2.52ZM53.78 53.29A1.5 1.5 0 1 0 51.83 51a1.5 1.5 0 0 0 1.95 2.29ZM56.72 56.72a1.36 1.36 0 1 0-1.77-2.06 1.36 1.36 0 0 0 1.77 2.06ZM59.65 60.15a1.2 1.2 0 1 0-1.57-1.83 1.2 1.2 0 0 0 1.57 1.83ZM62.58 63.58a1.06 1.06 0 1 0-1.37-1.6 1.06 1.06 0 0 0 1.37 1.6ZM65.52 67.01a.91.91 0 1 0-1.19-1.38.91.91 0 0 0 1.19 1.38ZM68.45 70.45a.76.76 0 1 0-.99-1.16.76.76 0 0 0 1 1.16ZM71.39 73.88a.61.61 0 1 0-.8-.94.61.61 0 0 0 .8.94ZM74.32 77.3a.47.47 0 1 0-.6-.7.47.47 0 0 0 .6.7ZM77.25 80.74a.32.32 0 1 0-.4-.48.32.32 0 0 0 .4.48ZM23.21 10.36a.3.3 0 1 0-.4-.46.3.3 0 0 0 .4.46ZM26.33 14a.44.44 0 1 0-.57-.66.44.44 0 0 0 .57.66ZM29.45 17.65a.57.57 0 1 0-.75-.87.57.57 0 0 0 .75.87ZM32.56 21.3a.7.7 0 1 0-.91-1.07.7.7 0 0 0 .91 1.07ZM35.68 24.94a.84.84 0 1 0-1.09-1.27.84.84 0 0 0 1.1 1.27ZM38.8 28.59a.97.97 0 1 0-1.26-1.48.97.97 0 0 0 1.26 1.48ZM41.91 32.23a1.1 1.1 0 1 0-1.43-1.67 1.1 1.1 0 0 0 1.43 1.67ZM45.03 35.88a1.24 1.24 0 1 0-1.6-1.88 1.24 1.24 0 0 0 1.6 1.88ZM48.15 39.53a1.37 1.37 0 1 0-1.78-2.1 1.37 1.37 0 0 0 1.78 2.1ZM51.27 43.17a1.5 1.5 0 1 0-1.96-2.29 1.5 1.5 0 0 0 1.96 2.29ZM54.3 46.71a1.5 1.5 0 1 0-1.96-2.28 1.5 1.5 0 0 0 1.96 2.28ZM57.24 50.16a1.37 1.37 0 1 0-1.78-2.09 1.37 1.37 0 0 0 1.78 2.09ZM60.18 53.6a1.24 1.24 0 1 0-1.6-1.88 1.24 1.24 0 0 0 1.6 1.88ZM63.13 57.04a1.1 1.1 0 1 0-1.44-1.67 1.1 1.1 0 0 0 1.44 1.67ZM66.07 60.49A.97.97 0 1 0 64.81 59a.97.97 0 0 0 1.26 1.48ZM69.02 63.93a.84.84 0 1 0-1.1-1.28.84.84 0 0 0 1.1 1.28ZM71.96 67.37a.7.7 0 1 0-.92-1.07.7.7 0 0 0 .92 1.07ZM74.9 70.82a.57.57 0 1 0-.74-.87.57.57 0 0 0 .74.87ZM77.85 74.26a.44.44 0 1 0-.57-.67.44.44 0 0 0 .57.67ZM80.8 77.7a.3.3 0 1 0-.4-.46.3.3 0 0 0 .4.46ZM26.75 7.32a.29.29 0 1 0-.38-.44.29.29 0 0 0 .38.44ZM29.85 10.95a.4.4 0 1 0-.53-.62.4.4 0 0 0 .53.62ZM32.96 14.59a.53.53 0 1 0-.68-.8.53.53 0 0 0 .68.8ZM36.07 18.22a.64.64 0 1 0-.84-.98.64.64 0 0 0 .84.98ZM39.18 21.85a.76.76 0 1 0-1-1.16.76.76 0 0 0 1 1.16ZM42.28 25.49a.88.88 0 1 0-1.14-1.34.88.88 0 0 0 1.14 1.34ZM45.4 29.12a1 1 0 1 0-1.3-1.52 1 1 0 0 0 1.3 1.52ZM48.5 32.76a1.12 1.12 0 1 0-1.46-1.7 1.12 1.12 0 0 0 1.46 1.7ZM51.6 36.4A1.24 1.24 0 1 0 50 34.5a1.24 1.24 0 0 0 1.6 1.88ZM54.71 40.03a1.36 1.36 0 1 0-1.76-2.07 1.36 1.36 0 0 0 1.76 2.07ZM57.74 43.57a1.36 1.36 0 1 0-1.76-2.06 1.36 1.36 0 0 0 1.76 2.06ZM60.7 47.03a1.24 1.24 0 1 0-1.61-1.89 1.24 1.24 0 0 0 1.6 1.89ZM63.65 50.48a1.12 1.12 0 1 0-1.45-1.7 1.12 1.12 0 0 0 1.45 1.7ZM66.6 53.93a1 1 0 1 0-1.3-1.52 1 1 0 0 0 1.3 1.52ZM69.56 57.39a.88.88 0 1 0-1.15-1.34.88.88 0 0 0 1.15 1.34ZM72.51 60.84a.76.76 0 1 0-1-1.16.76.76 0 0 0 1 1.16ZM75.46 64.3a.64.64 0 1 0-.83-.98.64.64 0 0 0 .83.98ZM78.42 67.75a.53.53 0 1 0-.69-.8.53.53 0 0 0 .69.8ZM81.37 71.2a.4.4 0 1 0-.53-.62.4.4 0 0 0 .53.62ZM84.32 74.66a.29.29 0 1 0-.37-.44.29.29 0 0 0 .37.44ZM33.38 7.9a.38.38 0 1 0-.5-.58.38.38 0 0 0 .5.58ZM36.48 11.52a.48.48 0 1 0-.63-.73.48.48 0 0 0 .63.73ZM39.57 15.14a.59.59 0 1 0-.76-.88.59.59 0 0 0 .76.88ZM42.67 18.77a.7.7 0 1 0-.9-1.05.7.7 0 0 0 .9 1.05ZM45.77 22.4a.8.8 0 1 0-1.03-1.21.8.8 0 0 0 1.03 1.2ZM48.87 26.01a.9.9 0 1 0-1.17-1.36.9.9 0 0 0 1.17 1.36ZM51.97 29.64a1 1 0 1 0-1.3-1.52 1 1 0 0 0 1.3 1.52ZM55.07 33.26a1.1 1.1 0 1 0-1.44-1.68 1.1 1.1 0 0 0 1.44 1.68ZM58.16 36.88a1.2 1.2 0 1 0-1.57-1.83 1.2 1.2 0 0 0 1.57 1.83ZM61.2 40.43a1.2 1.2 0 1 0-1.58-1.84 1.2 1.2 0 0 0 1.57 1.84ZM64.16 43.9a1.1 1.1 0 1 0-1.44-1.69 1.1 1.1 0 0 0 1.44 1.68ZM67.12 47.36a1 1 0 1 0-1.3-1.52 1 1 0 0 0 1.3 1.52ZM70.08 50.82a.9.9 0 1 0-1.16-1.36.9.9 0 0 0 1.16 1.36ZM73.04 54.29a.8.8 0 1 0-1.03-1.2.8.8 0 0 0 1.03 1.2ZM76 57.76a.7.7 0 1 0-.89-1.05.7.7 0 0 0 .9 1.05ZM78.97 61.22a.59.59 0 1 0-.76-.89.59.59 0 0 0 .76.89ZM81.93 64.68a.48.48 0 1 0-.62-.72.48.48 0 0 0 .62.72ZM84.9 68.15a.38.38 0 1 0-.5-.57.38.38 0 0 0 .5.57ZM36.9 4.85a.35.35 0 1 0-.45-.53.35.35 0 0 0 .45.53ZM40 8.46a.44.44 0 1 0-.58-.67.44.44 0 0 0 .57.67ZM43.08 12.07a.53.53 0 1 0-.68-.8.53.53 0 0 0 .68.8ZM46.17 15.68a.61.61 0 1 0-.8-.93.61.61 0 0 0 .8.93ZM49.26 19.3a.7.7 0 1 0-.92-1.08.7.7 0 0 0 .92 1.07ZM52.34 22.9a.8.8 0 1 0-1.03-1.2.8.8 0 0 0 1.03 1.2ZM55.43 26.52a.88.88 0 1 0-1.14-1.34.88.88 0 0 0 1.14 1.34ZM58.52 30.13a.97.97 0 1 0-1.26-1.48.97.97 0 0 0 1.26 1.48ZM61.61 33.74a1.06 1.06 0 1 0-1.38-1.61 1.06 1.06 0 0 0 1.38 1.61ZM64.64 37.28a1.06 1.06 0 1 0-1.38-1.6 1.06 1.06 0 0 0 1.38 1.6ZM67.61 40.76a.97.97 0 1 0-1.26-1.47.97.97 0 0 0 1.26 1.47ZM70.59 44.24a.88.88 0 1 0-1.15-1.34.88.88 0 0 0 1.15 1.34ZM73.56 47.71a.8.8 0 1 0-1.03-1.2.8.8 0 0 0 1.03 1.2ZM76.53 51.2a.7.7 0 1 0-.91-1.08.7.7 0 0 0 .91 1.07ZM79.5 54.67a.61.61 0 1 0-.8-.94.61.61 0 0 0 .8.94ZM82.48 58.14a.53.53 0 1 0-.69-.8.53.53 0 0 0 .69.8ZM85.45 61.62a.44.44 0 1 0-.57-.66.44.44 0 0 0 .57.66ZM88.42 65.1a.35.35 0 1 0-.45-.53.35.35 0 0 0 .45.53ZM43.5 5.4a.4.4 0 1 0-.5-.6.4.4 0 0 0 .5.6ZM46.59 9a.47.47 0 1 0-.61-.72.47.47 0 0 0 .6.71ZM49.66 12.6a.54.54 0 1 0-.7-.83.54.54 0 0 0 .7.82ZM52.74 16.2a.61.61 0 1 0-.8-.94.61.61 0 0 0 .8.93ZM55.82 19.8a.7.7 0 1 0-.9-1.05.7.7 0 0 0 .9 1.05ZM58.9 23.4a.76.76 0 1 0-1-1.16.76.76 0 0 0 1 1.16ZM61.98 27a.84.84 0 1 0-1.09-1.28.84.84 0 0 0 1.09 1.28ZM65.06 30.6a.91.91 0 1 0-1.19-1.39.91.91 0 0 0 1.19 1.39ZM68.09 34.14a.91.91 0 1 0-1.19-1.38.91.91 0 0 0 1.19 1.38ZM71.07 37.63a.84.84 0 1 0-1.09-1.27.84.84 0 0 0 1.1 1.27ZM74.05 41.12a.76.76 0 1 0-.99-1.16.76.76 0 0 0 1 1.16ZM77.04 44.6a.7.7 0 1 0-.9-1.04.7.7 0 0 0 .9 1.05ZM80.02 48.1a.61.61 0 1 0-.8-.94.61.61 0 0 0 .8.93ZM83 51.58a.54.54 0 1 0-.7-.82.54.54 0 0 0 .7.82ZM85.98 55.07a.47.47 0 1 0-.6-.71.47.47 0 0 0 .6.7ZM88.96 58.56a.4.4 0 1 0-.5-.6.4.4 0 0 0 .5.6ZM47.02 2.33a.35.35 0 1 0-.45-.53.35.35 0 0 0 .45.53ZM50.1 5.92a.4.4 0 1 0-.54-.62.4.4 0 0 0 .53.62ZM53.16 9.5a.47.47 0 1 0-.6-.7.47.47 0 0 0 .6.7ZM56.23 13.1a.53.53 0 1 0-.68-.8.53.53 0 0 0 .68.8ZM59.3 16.69a.58.58 0 1 0-.76-.9.58.58 0 0 0 .76.9ZM62.37 20.28a.64.64 0 1 0-.84-.98.64.64 0 0 0 .84.98ZM65.44 23.86a.7.7 0 1 0-.92-1.06.7.7 0 0 0 .92 1.06ZM68.5 27.45a.76.76 0 1 0-.99-1.16.76.76 0 0 0 1 1.16ZM71.54 31a.76.76 0 1 0-1-1.16.76.76 0 0 0 1 1.16ZM74.53 34.5a.7.7 0 1 0-.92-1.07.7.7 0 0 0 .92 1.07ZM77.52 38a.64.64 0 1 0-.84-.98.64.64 0 0 0 .84.98ZM80.51 41.5a.59.59 0 1 0-.76-.9.59.59 0 0 0 .76.9ZM83.5 45a.53.53 0 1 0-.68-.8.53.53 0 0 0 .68.8ZM86.5 48.5a.47.47 0 1 0-.61-.71.47.47 0 0 0 .6.7ZM89.49 52a.4.4 0 1 0-.53-.63.4.4 0 0 0 .53.62ZM92.48 55.5a.35.35 0 1 0-.45-.54.35.35 0 0 0 .45.53ZM53.6 2.84a.35.35 0 1 0-.45-.53.35.35 0 0 0 .45.53ZM56.66 6.42a.4.4 0 1 0-.51-.6.4.4 0 0 0 .5.6ZM59.72 10a.44.44 0 1 0-.57-.66.44.44 0 0 0 .57.66ZM62.77 13.58a.48.48 0 1 0-.62-.73.48.48 0 0 0 .62.73ZM65.83 17.16a.53.53 0 1 0-.68-.8.53.53 0 0 0 .68.8ZM68.9 20.73a.57.57 0 1 0-.75-.87.57.57 0 0 0 .75.87ZM71.95 24.31a.61.61 0 1 0-.8-.93.61.61 0 0 0 .8.93ZM74.98 27.86a.61.61 0 1 0-.8-.94.61.61 0 0 0 .8.94ZM77.99 31.37a.57.57 0 1 0-.75-.87.57.57 0 0 0 .75.87ZM80.99 34.88a.53.53 0 1 0-.69-.8.53.53 0 0 0 .69.8ZM83.99 38.38a.48.48 0 1 0-.63-.72.48.48 0 0 0 .63.72ZM86.99 41.9a.44.44 0 1 0-.57-.67.44.44 0 0 0 .57.67ZM90 45.4a.4.4 0 1 0-.52-.59.4.4 0 0 0 .51.6ZM93 48.92a.35.35 0 1 0-.46-.53.35.35 0 0 0 .45.53ZM63.2 6.9a.35.35 0 1 0-.45-.53.35.35 0 0 0 .45.53ZM66.25 10.47a.38.38 0 1 0-.49-.58.38.38 0 0 0 .5.58ZM69.3 14.03a.4.4 0 1 0-.53-.61.4.4 0 0 0 .53.61ZM72.35 17.6a.44.44 0 1 0-.57-.66.44.44 0 0 0 .57.66ZM75.4 21.17a.47.47 0 1 0-.6-.71.47.47 0 0 0 .6.7ZM78.43 24.71a.47.47 0 1 0-.6-.7.47.47 0 0 0 .6.7ZM81.44 28.23a.44.44 0 1 0-.56-.66.44.44 0 0 0 .56.66ZM84.45 31.76a.4.4 0 1 0-.53-.62.4.4 0 0 0 .53.62ZM87.46 35.28a.38.38 0 1 0-.49-.58.38.38 0 0 0 .5.58ZM90.48 38.8a.35.35 0 1 0-.46-.53.35.35 0 0 0 .46.53ZM72.77 10.91a.29.29 0 1 0-.38-.43.29.29 0 0 0 .38.43ZM75.81 14.47a.3.3 0 1 0-.4-.46.3.3 0 0 0 .4.46ZM78.85 18.02a.32.32 0 1 0-.41-.48.32.32 0 0 0 .4.48ZM81.88 21.57a.32.32 0 1 0-.41-.48.32.32 0 0 0 .4.48ZM84.9 25.1a.3.3 0 1 0-.4-.46.3.3 0 0 0 .4.46ZM87.92 28.63a.29.29 0 1 0-.37-.43.29.29 0 0 0 .37.43Z"/></g><defs><clipPath id="a"><path fill="#fff" d="M0 0h93.02v95H0z"/></clipPath></defs></svg>