<svg xmlns="http://www.w3.org/2000/svg" width="94" height="95" fill="none"><g fill="#0051FF" clip-path="url(#a)"><path d="M7.23 71.63a.29.29 0 1 0-.4-.4.29.29 0 0 0 .4.4ZM10.54 74.94a.3.3 0 1 0-.43-.43.3.3 0 0 0 .43.43ZM13.85 78.24a.32.32 0 1 0-.45-.44.32.32 0 0 0 .45.44ZM17.14 81.54a.32.32 0 1 0-.45-.45.32.32 0 0 0 .45.45ZM20.43 84.83a.3.3 0 1 0-.43-.43.3.3 0 0 0 .43.43ZM23.72 88.12a.29.29 0 1 0-.41-.41.29.29 0 0 0 .4.4ZM3.98 61.78a.35.35 0 1 0-.5-.5.35.35 0 0 0 .5.5ZM7.3 65.1a.38.38 0 1 0-.54-.54.38.38 0 0 0 .53.54ZM10.61 68.42a.4.4 0 1 0-.57-.58.4.4 0 0 0 .57.58ZM13.93 71.73a.44.44 0 1 0-.62-.61.44.44 0 0 0 .62.61ZM17.25 75.05a.47.47 0 1 0-.66-.66.47.47 0 0 0 .66.66ZM20.55 78.35a.47.47 0 1 0-.66-.66.47.47 0 0 0 .66.66ZM23.82 81.63a.44.44 0 1 0-.62-.62.44.44 0 0 0 .62.62ZM27.1 84.9a.4.4 0 1 0-.58-.57.4.4 0 0 0 .58.57ZM30.38 88.18a.38.38 0 1 0-.54-.53.38.38 0 0 0 .54.53ZM33.65 91.46a.35.35 0 1 0-.49-.5.35.35 0 0 0 .5.5ZM.68 51.89a.35.35 0 1 0-.5-.5.35.35 0 0 0 .5.5ZM4 55.22a.4.4 0 1 0-.55-.56.4.4 0 0 0 .56.56ZM7.34 58.54a.44.44 0 1 0-.62-.61.44.44 0 0 0 .62.61ZM10.66 61.87a.48.48 0 1 0-.67-.68.48.48 0 0 0 .67.68ZM14 65.2a.53.53 0 1 0-.75-.74.53.53 0 0 0 .74.74ZM17.32 68.53a.57.57 0 1 0-.8-.8.57.57 0 0 0 .8.8ZM20.65 71.86a.61.61 0 1 0-.87-.87.61.61 0 0 0 .87.87ZM23.95 75.16a.61.61 0 1 0-.87-.87.61.61 0 0 0 .87.87ZM27.22 78.42a.57.57 0 1 0-.81-.8.57.57 0 0 0 .8.8ZM30.48 81.69a.53.53 0 1 0-.74-.74.53.53 0 0 0 .74.74ZM33.74 84.95a.48.48 0 1 0-.67-.67.48.48 0 0 0 .67.67ZM37.01 88.22a.44.44 0 1 0-.62-.62.44.44 0 0 0 .62.62ZM40.28 91.49a.4.4 0 1 0-.56-.56.4.4 0 0 0 .56.56ZM43.54 94.75a.35.35 0 1 0-.49-.49.35.35 0 0 0 .5.5ZM.68 45.3a.35.35 0 1 0-.5-.5.35.35 0 0 0 .5.5ZM4.02 48.63a.4.4 0 1 0-.58-.57.4.4 0 0 0 .58.57ZM7.36 51.97a.47.47 0 1 0-.66-.66.47.47 0 0 0 .66.66ZM10.7 55.31a.53.53 0 1 0-.75-.74.53.53 0 0 0 .75.74ZM14.04 58.65a.58.58 0 1 0-.83-.83.58.58 0 0 0 .83.83ZM17.37 61.99a.64.64 0 1 0-.9-.91.64.64 0 0 0 .9.9ZM20.71 65.33a.7.7 0 1 0-1-1 .7.7 0 0 0 1 1ZM24.05 68.67a.76.76 0 1 0-1.08-1.08.76.76 0 0 0 1.08 1.08ZM27.35 71.96a.76.76 0 1 0-1.08-1.07.76.76 0 0 0 1.08 1.07ZM30.6 75.22a.7.7 0 1 0-.99-1 .7.7 0 0 0 1 1ZM33.86 78.48a.64.64 0 1 0-.91-.92.64.64 0 0 0 .91.92ZM37.12 81.73a.59.59 0 1 0-.83-.83.59.59 0 0 0 .83.83ZM40.37 84.99a.53.53 0 1 0-.74-.75.53.53 0 0 0 .74.75ZM43.63 88.24a.47.47 0 1 0-.66-.66.47.47 0 0 0 .66.66ZM46.88 91.5a.4.4 0 1 0-.57-.58.4.4 0 0 0 .57.58ZM50.14 94.75a.35.35 0 1 0-.5-.49.35.35 0 0 0 .5.5ZM4 42.03a.4.4 0 1 0-.55-.56.4.4 0 0 0 .56.56ZM7.36 45.38a.47.47 0 1 0-.66-.66.47.47 0 0 0 .66.66ZM10.7 48.72a.54.54 0 1 0-.76-.76.54.54 0 0 0 .76.76ZM14.06 52.08a.61.61 0 1 0-.87-.87.61.61 0 0 0 .87.87ZM17.4 55.43a.7.7 0 1 0-.97-.98.7.7 0 0 0 .98.98ZM20.76 58.78a.76.76 0 1 0-1.08-1.08.76.76 0 0 0 1.08 1.08ZM24.1 62.13a.84.84 0 1 0-1.18-1.19.84.84 0 0 0 1.19 1.19ZM27.46 65.48a.91.91 0 1 0-1.3-1.3.91.91 0 0 0 1.3 1.3ZM30.75 68.77a.91.91 0 1 0-1.29-1.29.91.91 0 0 0 1.3 1.3ZM34 72.02a.84.84 0 1 0-1.19-1.19.84.84 0 0 0 1.19 1.19ZM37.24 75.26a.76.76 0 1 0-1.08-1.08.76.76 0 0 0 1.08 1.08ZM40.49 78.5a.7.7 0 1 0-.98-.97.7.7 0 0 0 .98.98ZM43.73 81.75a.61.61 0 1 0-.87-.87.61.61 0 0 0 .87.87ZM46.98 85a.54.54 0 1 0-.77-.77.54.54 0 0 0 .77.77ZM50.22 88.24a.47.47 0 1 0-.66-.66.47.47 0 0 0 .66.66ZM53.47 91.49a.4.4 0 1 0-.56-.56.4.4 0 0 0 .56.56ZM3.98 35.4a.35.35 0 1 0-.5-.5.35.35 0 0 0 .5.5ZM7.34 38.76a.44.44 0 1 0-.62-.62.44.44 0 0 0 .62.62ZM10.7 42.12a.53.53 0 1 0-.75-.74.53.53 0 0 0 .75.74ZM14.06 45.48a.61.61 0 1 0-.87-.87.61.61 0 0 0 .87.87ZM17.42 48.84a.7.7 0 1 0-1-1 .7.7 0 0 0 1 1ZM20.78 52.2a.8.8 0 1 0-1.12-1.12.8.8 0 0 0 1.12 1.12ZM24.14 55.56a.88.88 0 1 0-1.25-1.24.88.88 0 0 0 1.25 1.24ZM27.5 58.92a.97.97 0 1 0-1.38-1.37.97.97 0 0 0 1.38 1.37ZM30.86 62.28a1.06 1.06 0 1 0-1.5-1.5 1.06 1.06 0 0 0 1.5 1.5ZM34.16 65.58a1.06 1.06 0 1 0-1.5-1.5 1.06 1.06 0 0 0 1.5 1.5ZM37.39 68.81a.97.97 0 1 0-1.37-1.37.97.97 0 0 0 1.37 1.37ZM40.62 72.05a.88.88 0 1 0-1.24-1.25.88.88 0 0 0 1.24 1.25ZM43.86 75.28a.8.8 0 1 0-1.12-1.12.8.8 0 0 0 1.12 1.12ZM47.1 78.52a.7.7 0 1 0-1-1 .7.7 0 0 0 1 1ZM50.33 81.75a.61.61 0 1 0-.87-.87.61.61 0 0 0 .87.87ZM53.56 84.99a.53.53 0 1 0-.74-.75.53.53 0 0 0 .74.75ZM56.8 88.22a.44.44 0 1 0-.62-.62.44.44 0 0 0 .62.62ZM60.03 91.46a.35.35 0 1 0-.5-.5.35.35 0 0 0 .5.5ZM7.3 32.12a.38.38 0 1 0-.54-.53.38.38 0 0 0 .53.53ZM10.66 35.5a.48.48 0 1 0-.67-.68.48.48 0 0 0 .67.67ZM14.04 38.87a.59.59 0 1 0-.83-.83.59.59 0 0 0 .83.83ZM17.4 42.24a.7.7 0 1 0-.97-.98.7.7 0 0 0 .98.98ZM20.78 45.6a.8.8 0 1 0-1.12-1.11.8.8 0 0 0 1.12 1.12ZM24.15 48.98a.9.9 0 1 0-1.27-1.27.9.9 0 0 0 1.27 1.27ZM27.52 52.35a1 1 0 1 0-1.42-1.42 1 1 0 0 0 1.42 1.42ZM30.9 55.72a1.1 1.1 0 1 0-1.57-1.56 1.1 1.1 0 0 0 1.56 1.56ZM34.26 59.09a1.2 1.2 0 1 0-1.7-1.7 1.2 1.2 0 0 0 1.7 1.7ZM37.56 62.39a1.2 1.2 0 1 0-1.71-1.71 1.2 1.2 0 0 0 1.7 1.7ZM40.78 65.61a1.1 1.1 0 1 0-1.56-1.56 1.1 1.1 0 0 0 1.56 1.56ZM44 68.84a1 1 0 1 0-1.4-1.42 1 1 0 0 0 1.4 1.42ZM47.23 72.06a.9.9 0 1 0-1.27-1.27.9.9 0 0 0 1.27 1.27ZM50.45 75.28a.8.8 0 1 0-1.12-1.12.8.8 0 0 0 1.12 1.12ZM53.68 78.5a.7.7 0 1 0-.98-.97.7.7 0 0 0 .98.98ZM56.9 81.73a.58.58 0 1 0-.83-.83.58.58 0 0 0 .83.83ZM60.12 84.95a.48.48 0 1 0-.67-.67.48.48 0 0 0 .67.67ZM63.35 88.18a.38.38 0 1 0-.54-.53.38.38 0 0 0 .54.53ZM7.23 25.47a.29.29 0 1 0-.4-.41.29.29 0 0 0 .4.4ZM10.61 28.85a.4.4 0 1 0-.57-.58.4.4 0 0 0 .57.58ZM14 32.23a.53.53 0 1 0-.75-.74.53.53 0 0 0 .74.74ZM17.37 35.61a.64.64 0 1 0-.9-.91.64.64 0 0 0 .9.91ZM20.76 39a.76.76 0 1 0-1.08-1.09.76.76 0 0 0 1.08 1.08ZM24.14 42.37a.88.88 0 1 0-1.25-1.24.88.88 0 0 0 1.25 1.24ZM27.52 45.75a1 1 0 1 0-1.42-1.41 1 1 0 0 0 1.42 1.41ZM30.9 49.14a1.12 1.12 0 1 0-1.58-1.59 1.12 1.12 0 0 0 1.58 1.59ZM34.28 52.52a1.24 1.24 0 1 0-1.75-1.75 1.24 1.24 0 0 0 1.75 1.75ZM37.66 55.9a1.36 1.36 0 1 0-1.92-1.92 1.36 1.36 0 0 0 1.92 1.92ZM40.96 59.2a1.36 1.36 0 1 0-1.92-1.92 1.36 1.36 0 0 0 1.92 1.92ZM44.17 62.4a1.24 1.24 0 1 0-1.75-1.74 1.24 1.24 0 0 0 1.75 1.75ZM47.39 65.62a1.12 1.12 0 1 0-1.59-1.58 1.12 1.12 0 0 0 1.59 1.58ZM50.6 68.84a1 1 0 1 0-1.41-1.42 1 1 0 0 0 1.41 1.42ZM53.81 72.05a.88.88 0 1 0-1.24-1.25.88.88 0 0 0 1.24 1.25ZM57.03 75.26a.76.76 0 1 0-1.08-1.08.76.76 0 0 0 1.08 1.08ZM60.24 78.48a.64.64 0 1 0-.91-.92.64.64 0 0 0 .91.92ZM63.45 81.69a.53.53 0 1 0-.74-.74.53.53 0 0 0 .74.74ZM66.67 84.9a.4.4 0 1 0-.58-.57.4.4 0 0 0 .58.57ZM69.88 88.12a.29.29 0 1 0-.4-.41.29.29 0 0 0 .4.4ZM10.54 22.18a.3.3 0 1 0-.43-.43.3.3 0 0 0 .43.43ZM13.93 25.57a.44.44 0 1 0-.62-.62.44.44 0 0 0 .62.62ZM17.32 28.96a.57.57 0 1 0-.8-.8.57.57 0 0 0 .8.8ZM20.71 32.35a.7.7 0 1 0-1-.99.7.7 0 0 0 1 1ZM24.1 35.75a.84.84 0 1 0-1.18-1.19.84.84 0 0 0 1.19 1.19ZM27.5 39.14a.97.97 0 1 0-1.38-1.37.97.97 0 0 0 1.38 1.37ZM30.89 42.53a1.1 1.1 0 1 0-1.56-1.56 1.1 1.1 0 0 0 1.56 1.56ZM34.28 45.92a1.24 1.24 0 1 0-1.75-1.75 1.24 1.24 0 0 0 1.75 1.75ZM37.67 49.32a1.37 1.37 0 1 0-1.94-1.95 1.37 1.37 0 0 0 1.94 1.95ZM41.06 52.7a1.5 1.5 0 1 0-2.12-2.12 1.5 1.5 0 0 0 2.12 2.13ZM44.36 56a1.5 1.5 0 1 0-2.13-2.13A1.5 1.5 0 0 0 44.36 56ZM47.57 59.2a1.37 1.37 0 1 0-1.95-1.94 1.37 1.37 0 0 0 1.95 1.95ZM50.77 62.4a1.24 1.24 0 1 0-1.75-1.74 1.24 1.24 0 0 0 1.75 1.75ZM53.97 65.61a1.1 1.1 0 1 0-1.56-1.56 1.1 1.1 0 0 0 1.56 1.56ZM57.17 68.81a.97.97 0 1 0-1.37-1.37.97.97 0 0 0 1.37 1.37ZM60.38 72.02a.84.84 0 1 0-1.19-1.19.84.84 0 0 0 1.19 1.19ZM63.58 75.22a.7.7 0 1 0-1-1 .7.7 0 0 0 1 1ZM66.78 78.42a.57.57 0 1 0-.8-.8.57.57 0 0 0 .8.8ZM69.99 81.63a.44.44 0 1 0-.62-.62.44.44 0 0 0 .62.62ZM73.19 84.83a.3.3 0 1 0-.43-.43.3.3 0 0 0 .43.43ZM13.85 18.9a.32.32 0 1 0-.45-.46.32.32 0 0 0 .45.45ZM17.25 22.3a.47.47 0 1 0-.66-.66.47.47 0 0 0 .66.65ZM20.65 25.7a.61.61 0 1 0-.87-.87.61.61 0 0 0 .87.87ZM24.05 29.1a.76.76 0 1 0-1.08-1.08.76.76 0 0 0 1.08 1.08ZM27.46 32.5a.91.91 0 1 0-1.3-1.29.91.91 0 0 0 1.3 1.3ZM30.86 35.9a1.06 1.06 0 1 0-1.5-1.5 1.06 1.06 0 0 0 1.5 1.5ZM34.26 39.3a1.2 1.2 0 1 0-1.7-1.7 1.2 1.2 0 0 0 1.7 1.7ZM37.66 42.7a1.36 1.36 0 1 0-1.92-1.91 1.36 1.36 0 0 0 1.92 1.92ZM41.06 46.11a1.5 1.5 0 1 0-2.12-2.13 1.5 1.5 0 0 0 2.12 2.13ZM44.47 49.51a1.65 1.65 0 1 0-2.34-2.34 1.65 1.65 0 0 0 2.34 2.34ZM47.76 52.81a1.65 1.65 0 1 0-2.33-2.34 1.65 1.65 0 0 0 2.33 2.34ZM50.96 56a1.5 1.5 0 1 0-2.13-2.13A1.5 1.5 0 0 0 50.96 56ZM54.15 59.2a1.36 1.36 0 1 0-1.92-1.92 1.36 1.36 0 0 0 1.92 1.92ZM57.34 62.39a1.2 1.2 0 1 0-1.7-1.71 1.2 1.2 0 0 0 1.7 1.7ZM60.53 65.58a1.06 1.06 0 1 0-1.5-1.5 1.06 1.06 0 0 0 1.5 1.5ZM63.73 68.77a.91.91 0 1 0-1.3-1.29.91.91 0 0 0 1.3 1.3ZM66.92 71.96a.76.76 0 1 0-1.08-1.07.76.76 0 0 0 1.08 1.07ZM70.11 75.16a.61.61 0 1 0-.87-.87.61.61 0 0 0 .87.87ZM73.3 78.35a.47.47 0 1 0-.66-.66.47.47 0 0 0 .66.66ZM76.5 81.54a.32.32 0 1 0-.45-.45.32.32 0 0 0 .45.45ZM17.14 15.6a.32.32 0 1 0-.45-.45.32.32 0 0 0 .45.45ZM20.55 19a.47.47 0 1 0-.66-.66.47.47 0 0 0 .66.66ZM23.95 22.4a.61.61 0 1 0-.87-.87.61.61 0 0 0 .87.87ZM27.35 25.8a.76.76 0 1 0-1.08-1.08.76.76 0 0 0 1.08 1.08ZM30.75 29.2a.91.91 0 1 0-1.29-1.28.91.91 0 0 0 1.3 1.28ZM34.16 32.6a1.06 1.06 0 1 0-1.5-1.5 1.06 1.06 0 0 0 1.5 1.5ZM37.56 36a1.2 1.2 0 1 0-1.71-1.7 1.2 1.2 0 0 0 1.7 1.7ZM40.96 39.41a1.36 1.36 0 1 0-1.92-1.92 1.36 1.36 0 0 0 1.92 1.92ZM44.36 42.81a1.5 1.5 0 1 0-2.13-2.12 1.5 1.5 0 0 0 2.13 2.12ZM47.76 46.22a1.65 1.65 0 1 0-2.33-2.34 1.65 1.65 0 0 0 2.33 2.34ZM51.06 49.51a1.65 1.65 0 1 0-2.34-2.34 1.65 1.65 0 0 0 2.34 2.34ZM54.25 52.7a1.5 1.5 0 1 0-2.12-2.12 1.5 1.5 0 0 0 2.12 2.13ZM57.45 55.9a1.36 1.36 0 1 0-1.92-1.92 1.36 1.36 0 0 0 1.92 1.92ZM60.64 59.09a1.2 1.2 0 1 0-1.71-1.7 1.2 1.2 0 0 0 1.7 1.7ZM63.83 62.28a1.06 1.06 0 1 0-1.5-1.5 1.06 1.06 0 0 0 1.5 1.5ZM67.02 65.48a.91.91 0 1 0-1.28-1.3.91.91 0 0 0 1.28 1.3ZM70.22 68.67a.76.76 0 1 0-1.08-1.08.76.76 0 0 0 1.08 1.08ZM73.4 71.86a.61.61 0 1 0-.86-.87.61.61 0 0 0 .87.87ZM76.6 75.05a.47.47 0 1 0-.66-.66.47.47 0 0 0 .66.66ZM79.8 78.24a.32.32 0 1 0-.46-.44.32.32 0 0 0 .45.44ZM20.43 12.29a.3.3 0 1 0-.43-.43.3.3 0 0 0 .43.43ZM23.82 15.68a.44.44 0 1 0-.62-.62.44.44 0 0 0 .62.62ZM27.22 19.07a.57.57 0 1 0-.81-.8.57.57 0 0 0 .8.8ZM30.6 22.46a.7.7 0 1 0-.99-1 .7.7 0 0 0 1 1ZM34 25.86a.84.84 0 1 0-1.19-1.2.84.84 0 0 0 1.19 1.2ZM37.39 29.25a.97.97 0 1 0-1.37-1.38.97.97 0 0 0 1.37 1.38ZM40.78 32.64a1.1 1.1 0 1 0-1.56-1.56 1.1 1.1 0 0 0 1.56 1.56ZM44.17 36.03a1.24 1.24 0 1 0-1.75-1.75 1.24 1.24 0 0 0 1.75 1.75ZM47.57 39.42a1.37 1.37 0 1 0-1.95-1.94 1.37 1.37 0 0 0 1.95 1.94ZM50.96 42.81a1.5 1.5 0 1 0-2.13-2.12 1.5 1.5 0 0 0 2.13 2.12ZM54.25 46.11a1.5 1.5 0 1 0-2.12-2.13 1.5 1.5 0 0 0 2.12 2.13ZM57.46 49.32a1.37 1.37 0 1 0-1.94-1.95 1.37 1.37 0 0 0 1.94 1.95ZM60.66 52.52a1.24 1.24 0 1 0-1.75-1.75 1.24 1.24 0 0 0 1.75 1.75ZM63.86 55.72a1.1 1.1 0 1 0-1.56-1.56 1.1 1.1 0 0 0 1.56 1.56ZM67.07 58.92a.97.97 0 1 0-1.38-1.37.97.97 0 0 0 1.38 1.37ZM70.27 62.13a.84.84 0 1 0-1.19-1.19.84.84 0 0 0 1.19 1.19ZM73.47 65.33a.7.7 0 1 0-1-1 .7.7 0 0 0 1 1ZM76.68 68.53a.57.57 0 1 0-.81-.8.57.57 0 0 0 .8.8ZM79.88 71.73a.44.44 0 1 0-.62-.61.44.44 0 0 0 .62.61ZM83.08 74.94a.3.3 0 1 0-.43-.43.3.3 0 0 0 .43.43ZM23.72 8.98a.29.29 0 1 0-.41-.4.29.29 0 0 0 .4.4ZM27.1 12.36a.4.4 0 1 0-.58-.57.4.4 0 0 0 .58.57ZM30.48 15.74a.53.53 0 1 0-.74-.74.53.53 0 0 0 .74.74ZM33.86 19.12a.64.64 0 1 0-.91-.9.64.64 0 0 0 .91.9ZM37.24 22.5a.76.76 0 1 0-1.08-1.07.76.76 0 0 0 1.08 1.07ZM40.62 25.89a.88.88 0 1 0-1.24-1.25.88.88 0 0 0 1.24 1.25ZM44 29.27a1 1 0 1 0-1.4-1.42 1 1 0 0 0 1.4 1.42ZM47.39 32.65a1.12 1.12 0 1 0-1.59-1.58 1.12 1.12 0 0 0 1.59 1.58ZM50.77 36.03a1.24 1.24 0 1 0-1.75-1.75 1.24 1.24 0 0 0 1.75 1.75ZM54.15 39.41a1.36 1.36 0 1 0-1.92-1.92 1.36 1.36 0 0 0 1.92 1.92ZM57.45 42.7a1.36 1.36 0 1 0-1.92-1.91 1.36 1.36 0 0 0 1.92 1.92ZM60.66 45.92a1.24 1.24 0 1 0-1.75-1.75 1.24 1.24 0 0 0 1.75 1.75ZM63.87 49.14a1.12 1.12 0 1 0-1.58-1.59 1.12 1.12 0 0 0 1.58 1.59ZM67.09 52.35a1 1 0 1 0-1.42-1.42 1 1 0 0 0 1.42 1.42ZM70.3 55.56a.88.88 0 1 0-1.25-1.24.88.88 0 0 0 1.25 1.24ZM73.51 58.78a.76.76 0 1 0-1.08-1.08.76.76 0 0 0 1.08 1.08ZM76.73 61.99a.64.64 0 1 0-.91-.91.64.64 0 0 0 .9.9ZM79.94 65.2a.53.53 0 1 0-.74-.74.53.53 0 0 0 .74.74ZM83.15 68.42a.4.4 0 1 0-.57-.58.4.4 0 0 0 .57.58ZM86.37 71.63a.29.29 0 1 0-.41-.4.29.29 0 0 0 .4.4ZM30.38 9.04a.38.38 0 1 0-.54-.53.38.38 0 0 0 .54.53ZM33.74 12.41a.48.48 0 1 0-.67-.68.48.48 0 0 0 .67.68ZM37.12 15.78a.59.59 0 1 0-.83-.82.59.59 0 0 0 .83.82ZM40.49 19.16a.7.7 0 1 0-.98-.98.7.7 0 0 0 .98.98ZM43.86 22.53a.8.8 0 1 0-1.12-1.13.8.8 0 0 0 1.12 1.13ZM47.23 25.9a.9.9 0 1 0-1.27-1.27.9.9 0 0 0 1.27 1.27ZM50.6 29.27a1 1 0 1 0-1.41-1.42 1 1 0 0 0 1.41 1.42ZM53.97 32.64a1.1 1.1 0 1 0-1.56-1.57 1.1 1.1 0 0 0 1.56 1.57ZM57.34 36a1.2 1.2 0 1 0-1.7-1.7 1.2 1.2 0 0 0 1.7 1.7ZM60.64 39.3a1.2 1.2 0 1 0-1.71-1.7 1.2 1.2 0 0 0 1.7 1.7ZM63.86 42.53a1.1 1.1 0 1 0-1.56-1.56 1.1 1.1 0 0 0 1.56 1.56ZM67.09 45.75a1 1 0 1 0-1.42-1.41 1 1 0 0 0 1.42 1.41ZM70.3 48.98a.9.9 0 1 0-1.26-1.27.9.9 0 0 0 1.27 1.27ZM73.53 52.2a.8.8 0 1 0-1.12-1.12.8.8 0 0 0 1.12 1.12ZM76.76 55.43a.7.7 0 1 0-.98-.98.7.7 0 0 0 .98.98ZM79.98 58.65a.59.59 0 1 0-.83-.83.59.59 0 0 0 .83.83ZM83.2 61.87a.48.48 0 1 0-.67-.68.48.48 0 0 0 .67.68ZM86.43 65.1a.38.38 0 1 0-.53-.54.38.38 0 0 0 .53.54ZM33.65 5.72a.35.35 0 1 0-.49-.49.35.35 0 0 0 .5.5ZM37.01 9.08a.44.44 0 1 0-.62-.61.44.44 0 0 0 .62.61ZM40.37 12.44a.53.53 0 1 0-.74-.74.53.53 0 0 0 .74.74ZM43.73 15.8a.61.61 0 1 0-.87-.86.61.61 0 0 0 .87.87ZM47.1 19.17a.7.7 0 1 0-1-1 .7.7 0 0 0 1 1ZM50.45 22.53a.8.8 0 1 0-1.12-1.13.8.8 0 0 0 1.12 1.13ZM53.81 25.89a.88.88 0 1 0-1.24-1.25.88.88 0 0 0 1.24 1.25ZM57.17 29.25a.97.97 0 1 0-1.37-1.38.97.97 0 0 0 1.37 1.38ZM60.53 32.6a1.06 1.06 0 1 0-1.5-1.5 1.06 1.06 0 0 0 1.5 1.5ZM63.83 35.9a1.06 1.06 0 1 0-1.5-1.5 1.06 1.06 0 0 0 1.5 1.5ZM67.07 39.14a.97.97 0 1 0-1.38-1.37.97.97 0 0 0 1.38 1.37ZM70.3 42.37a.88.88 0 1 0-1.25-1.24.88.88 0 0 0 1.25 1.24ZM73.53 45.6a.8.8 0 1 0-1.12-1.11.8.8 0 0 0 1.12 1.12ZM76.77 48.84a.7.7 0 1 0-1-1 .7.7 0 0 0 1 1ZM80 52.08a.61.61 0 1 0-.87-.87.61.61 0 0 0 .87.87ZM83.24 55.31a.53.53 0 1 0-.75-.74.53.53 0 0 0 .75.74ZM86.47 58.54a.44.44 0 1 0-.62-.61.44.44 0 0 0 .62.61ZM89.7 61.78a.35.35 0 1 0-.48-.5.35.35 0 0 0 .49.5ZM40.28 5.76a.4.4 0 1 0-.56-.56.4.4 0 0 0 .56.56ZM43.63 9.1a.47.47 0 1 0-.66-.65.47.47 0 0 0 .66.66ZM46.98 12.45a.54.54 0 1 0-.77-.76.54.54 0 0 0 .77.76ZM50.33 15.8a.61.61 0 1 0-.87-.86.61.61 0 0 0 .87.87ZM53.68 19.16a.7.7 0 1 0-.98-.98.7.7 0 0 0 .98.98ZM57.03 22.5a.76.76 0 1 0-1.08-1.07.76.76 0 0 0 1.08 1.07ZM60.38 25.86a.84.84 0 1 0-1.19-1.2.84.84 0 0 0 1.19 1.2ZM63.73 29.2a.91.91 0 1 0-1.3-1.28.91.91 0 0 0 1.3 1.28ZM67.02 32.5a.91.91 0 1 0-1.28-1.29.91.91 0 0 0 1.28 1.3ZM70.27 35.75a.84.84 0 1 0-1.19-1.19.84.84 0 0 0 1.19 1.19ZM73.51 39a.76.76 0 1 0-1.08-1.09.76.76 0 0 0 1.08 1.08ZM76.76 42.24a.7.7 0 1 0-.98-.98.7.7 0 0 0 .98.98ZM80 45.48a.61.61 0 1 0-.87-.87.61.61 0 0 0 .87.87ZM83.25 48.72a.54.54 0 1 0-.76-.76.54.54 0 0 0 .76.76ZM86.5 51.97a.47.47 0 1 0-.67-.66.47.47 0 0 0 .66.66ZM89.74 55.22a.4.4 0 1 0-.56-.56.4.4 0 0 0 .56.56ZM43.54 2.43a.35.35 0 1 0-.49-.5.35.35 0 0 0 .5.5ZM46.88 5.77a.4.4 0 1 0-.57-.58.4.4 0 0 0 .57.58ZM50.22 9.1a.47.47 0 1 0-.66-.65.47.47 0 0 0 .66.66ZM53.56 12.44a.53.53 0 1 0-.74-.74.53.53 0 0 0 .74.74ZM56.9 15.78a.59.59 0 1 0-.83-.82.59.59 0 0 0 .83.82ZM60.24 19.12a.64.64 0 1 0-.91-.9.64.64 0 0 0 .91.9ZM63.58 22.46a.7.7 0 1 0-1-1 .7.7 0 0 0 1 1ZM66.92 25.8a.76.76 0 1 0-1.08-1.08.76.76 0 0 0 1.08 1.08ZM70.22 29.1a.76.76 0 1 0-1.08-1.08.76.76 0 0 0 1.08 1.08ZM73.47 32.35a.7.7 0 1 0-1-.99.7.7 0 0 0 1 1ZM76.73 35.61a.64.64 0 1 0-.91-.91.64.64 0 0 0 .9.91ZM79.98 38.87a.59.59 0 1 0-.83-.83.59.59 0 0 0 .83.83ZM83.24 42.12a.53.53 0 1 0-.75-.74.53.53 0 0 0 .75.74ZM86.5 45.38a.47.47 0 1 0-.67-.66.47.47 0 0 0 .66.66ZM89.75 48.63a.4.4 0 1 0-.58-.57.4.4 0 0 0 .58.57ZM93 51.89a.35.35 0 1 0-.49-.5.35.35 0 0 0 .5.5ZM50.14 2.43a.35.35 0 1 0-.5-.5.35.35 0 0 0 .5.5ZM53.47 5.76a.4.4 0 1 0-.56-.56.4.4 0 0 0 .56.56ZM56.8 9.08a.44.44 0 1 0-.62-.61.44.44 0 0 0 .62.61ZM60.12 12.41a.48.48 0 1 0-.67-.68.48.48 0 0 0 .67.68ZM63.45 15.74a.53.53 0 1 0-.74-.74.53.53 0 0 0 .74.74ZM66.78 19.07a.57.57 0 1 0-.8-.8.57.57 0 0 0 .8.8ZM70.11 22.4a.61.61 0 1 0-.87-.87.61.61 0 0 0 .87.87ZM73.4 25.7a.61.61 0 1 0-.86-.87.61.61 0 0 0 .87.87ZM76.68 28.96a.57.57 0 1 0-.81-.8.57.57 0 0 0 .8.8ZM79.94 32.23a.53.53 0 1 0-.74-.74.53.53 0 0 0 .74.74ZM83.2 35.5a.48.48 0 1 0-.67-.68.48.48 0 0 0 .67.67ZM86.47 38.76a.44.44 0 1 0-.62-.62.44.44 0 0 0 .62.62ZM89.74 42.03a.4.4 0 1 0-.56-.56.4.4 0 0 0 .56.56ZM93 45.3a.35.35 0 1 0-.49-.5.35.35 0 0 0 .5.5ZM60.03 5.72a.35.35 0 1 0-.5-.49.35.35 0 0 0 .5.5ZM63.35 9.04a.38.38 0 1 0-.53-.53.38.38 0 0 0 .53.53ZM66.67 12.36a.4.4 0 1 0-.58-.57.4.4 0 0 0 .58.57ZM69.99 15.68a.44.44 0 1 0-.62-.62.44.44 0 0 0 .62.62ZM73.3 19a.47.47 0 1 0-.66-.66.47.47 0 0 0 .66.66ZM76.6 22.3a.47.47 0 1 0-.66-.66.47.47 0 0 0 .66.65ZM79.88 25.57a.44.44 0 1 0-.62-.62.44.44 0 0 0 .62.62ZM83.15 28.85a.4.4 0 1 0-.57-.58.4.4 0 0 0 .57.58ZM86.43 32.12a.38.38 0 1 0-.53-.53.38.38 0 0 0 .53.53ZM89.7 35.4a.35.35 0 1 0-.48-.5.35.35 0 0 0 .49.5ZM69.88 8.98a.29.29 0 1 0-.4-.4.29.29 0 0 0 .4.4ZM73.19 12.29a.3.3 0 1 0-.43-.43.3.3 0 0 0 .43.43ZM76.5 15.6a.32.32 0 1 0-.45-.45.32.32 0 0 0 .45.45ZM79.8 18.9a.32.32 0 1 0-.46-.46.32.32 0 0 0 .45.45ZM83.08 22.18a.3.3 0 1 0-.43-.43.3.3 0 0 0 .43.43ZM86.37 25.47a.29.29 0 1 0-.41-.41.29.29 0 0 0 .4.4ZM6.61 26.14a.29.29 0 1 0 .15-.56.29.29 0 0 0-.15.56ZM5.43 30.67a.3.3 0 1 0 .15-.6.3.3 0 0 0-.15.6Z"/><path d="M4.24 35.2a.32.32 0 1 0 .16-.62.32.32 0 0 0-.16.61ZM3.06 39.7a.32.32 0 1 0 .17-.61.32.32 0 0 0-.17.61ZM1.89 44.2a.3.3 0 1 0 .15-.59.3.3 0 0 0-.15.6ZM.71 48.7a.29.29 0 1 0 .15-.56.29.29 0 0 0-.15.56ZM13.46 18.35a.35.35 0 1 0 .18-.67.35.35 0 0 0-.18.67ZM12.28 22.9a.38.38 0 1 0 .19-.74.38.38 0 0 0-.2.73ZM11.1 27.43a.4.4 0 1 0 .2-.78.4.4 0 0 0-.2.78ZM9.9 31.98a.44.44 0 1 0 .23-.85.44.44 0 0 0-.23.85ZM8.72 36.52a.47.47 0 1 0 .23-.9.47.47 0 0 0-.23.9ZM7.54 41.03a.47.47 0 1 0 .23-.9.47.47 0 0 0-.23.9ZM6.37 45.51a.44.44 0 1 0 .22-.85.44.44 0 0 0-.22.85ZM5.2 50a.4.4 0 1 0 .2-.8.4.4 0 0 0-.2.8ZM4.02 54.48a.38.38 0 1 0 .2-.73.38.38 0 0 0-.2.73ZM2.85 58.96a.35.35 0 1 0 .18-.67.35.35 0 0 0-.18.67ZM20.34 10.51a.35.35 0 1 0 .17-.67.35.35 0 0 0-.17.67ZM19.14 15.07a.4.4 0 1 0 .2-.77.4.4 0 0 0-.2.77ZM17.95 19.62a.44.44 0 1 0 .22-.85.44.44 0 0 0-.22.85ZM16.76 24.17a.48.48 0 1 0 .25-.92.48.48 0 0 0-.25.92ZM15.57 28.73a.53.53 0 1 0 .27-1.02.53.53 0 0 0-.27 1.02ZM14.38 33.29a.57.57 0 1 0 .3-1.11.57.57 0 0 0-.3 1.1ZM13.2 37.84a.61.61 0 1 0 .3-1.2.61.61 0 0 0-.3 1.2ZM12.01 42.35a.61.61 0 1 0 .31-1.19.61.61 0 0 0-.3 1.19ZM10.84 46.82a.57.57 0 1 0 .3-1.1.57.57 0 0 0-.3 1.1ZM9.68 51.29a.53.53 0 1 0 .26-1.02.53.53 0 0 0-.26 1.02ZM8.5 55.75a.48.48 0 1 0 .25-.92.48.48 0 0 0-.24.92ZM7.34 60.22a.44.44 0 1 0 .22-.84.44.44 0 0 0-.22.84ZM6.17 64.7a.4.4 0 1 0 .2-.77.4.4 0 0 0-.2.76ZM5 69.16a.35.35 0 1 0 .18-.67.35.35 0 0 0-.18.67ZM26.03 7.18a.35.35 0 1 0 .17-.67.35.35 0 0 0-.17.67ZM24.83 11.75a.4.4 0 1 0 .2-.79.4.4 0 0 0-.2.79ZM23.64 16.32a.47.47 0 1 0 .23-.9.47.47 0 0 0-.23.9ZM22.44 20.89a.53.53 0 1 0 .27-1.02.53.53 0 0 0-.27 1.02ZM21.25 25.45a.59.59 0 1 0 .3-1.13.59.59 0 0 0-.3 1.13ZM20.05 30.02a.64.64 0 1 0 .33-1.24.64.64 0 0 0-.33 1.24ZM18.86 34.6a.7.7 0 1 0 .36-1.37.7.7 0 0 0-.36 1.36ZM17.67 39.16a.76.76 0 1 0 .38-1.48.76.76 0 0 0-.38 1.48ZM16.49 43.67a.76.76 0 1 0 .38-1.47.76.76 0 0 0-.38 1.47ZM15.32 48.13a.7.7 0 1 0 .36-1.36.7.7 0 0 0-.36 1.36ZM14.16 52.58a.64.64 0 1 0 .32-1.25.64.64 0 0 0-.32 1.25ZM13 57.04a.59.59 0 1 0 .29-1.14.59.59 0 0 0-.3 1.14ZM11.83 61.49a.53.53 0 1 0 .27-1.02.53.53 0 0 0-.27 1.02ZM10.67 65.94a.47.47 0 1 0 .23-.9.47.47 0 0 0-.23.9ZM9.5 70.4a.4.4 0 1 0 .2-.79.4.4 0 0 0-.2.79ZM8.34 74.85a.35.35 0 1 0 .17-.67.35.35 0 0 0-.17.67ZM30.53 8.4a.4.4 0 1 0 .2-.76.4.4 0 0 0-.2.76ZM29.33 12.98a.47.47 0 1 0 .23-.9.47.47 0 0 0-.23.9ZM28.13 17.57a.54.54 0 1 0 .27-1.05.54.54 0 0 0-.27 1.05ZM26.93 22.15a.61.61 0 1 0 .31-1.19.61.61 0 0 0-.3 1.2ZM25.73 26.74a.7.7 0 1 0 .35-1.34.7.7 0 0 0-.35 1.34ZM24.54 31.32a.76.76 0 1 0 .38-1.48.76.76 0 0 0-.38 1.48ZM23.34 35.9a.84.84 0 1 0 .42-1.62.84.84 0 0 0-.42 1.62ZM22.14 40.48a.91.91 0 1 0 .46-1.76.91.91 0 0 0-.46 1.76ZM20.96 45a.91.91 0 1 0 .46-1.77.91.91 0 0 0-.46 1.77ZM19.8 49.44a.84.84 0 1 0 .42-1.63.84.84 0 0 0-.42 1.63ZM18.64 53.88a.76.76 0 1 0 .39-1.48.76.76 0 0 0-.39 1.48ZM17.48 58.32a.7.7 0 1 0 .35-1.34.7.7 0 0 0-.35 1.34ZM16.32 62.75a.61.61 0 1 0 .3-1.18.61.61 0 0 0-.3 1.18ZM15.16 67.2a.54.54 0 1 0 .27-1.05.54.54 0 0 0-.27 1.04ZM14 71.63a.47.47 0 1 0 .23-.9.47.47 0 0 0-.23.9ZM12.84 76.08a.4.4 0 1 0 .2-.77.4.4 0 0 0-.2.77ZM36.23 5.03a.35.35 0 1 0 .17-.68.35.35 0 0 0-.17.68ZM35.03 9.62a.44.44 0 1 0 .22-.84.44.44 0 0 0-.22.84ZM33.82 14.22a.53.53 0 1 0 .27-1.02.53.53 0 0 0-.27 1.02ZM32.62 18.82a.61.61 0 1 0 .31-1.2.61.61 0 0 0-.3 1.2ZM31.42 23.42a.7.7 0 1 0 .36-1.37.7.7 0 0 0-.36 1.37ZM30.22 28.01a.8.8 0 1 0 .4-1.53.8.8 0 0 0-.4 1.53ZM29.02 32.61a.88.88 0 1 0 .44-1.7.88.88 0 0 0-.44 1.7ZM27.82 37.2a.97.97 0 1 0 .49-1.87.97.97 0 0 0-.5 1.88ZM26.61 41.8a1.06 1.06 0 1 0 .54-2.04 1.06 1.06 0 0 0-.54 2.05ZM25.43 46.32a1.06 1.06 0 1 0 .54-2.05 1.06 1.06 0 0 0-.54 2.05ZM24.28 50.74a.97.97 0 1 0 .49-1.87.97.97 0 0 0-.5 1.87ZM23.12 55.17a.88.88 0 1 0 .45-1.7.88.88 0 0 0-.45 1.7ZM21.96 59.6a.8.8 0 1 0 .4-1.54.8.8 0 0 0-.4 1.53ZM20.8 64.02a.7.7 0 1 0 .36-1.36.7.7 0 0 0-.35 1.36ZM19.65 68.45a.61.61 0 1 0 .31-1.2.61.61 0 0 0-.3 1.2ZM18.5 72.87a.53.53 0 1 0 .26-1.02.53.53 0 0 0-.27 1.02ZM17.34 77.3a.44.44 0 1 0 .22-.85.44.44 0 0 0-.22.85ZM16.18 81.72a.35.35 0 1 0 .18-.67.35.35 0 0 0-.18.67ZM40.73 6.23a.38.38 0 1 0 .2-.73.38.38 0 0 0-.2.73ZM39.53 10.84a.48.48 0 1 0 .24-.92.48.48 0 0 0-.24.92ZM38.32 15.46a.58.58 0 1 0 .3-1.13.58.58 0 0 0-.3 1.13ZM37.12 20.07a.7.7 0 1 0 .34-1.34.7.7 0 0 0-.34 1.34ZM35.91 24.68a.8.8 0 1 0 .4-1.53.8.8 0 0 0-.4 1.53ZM34.7 29.3a.9.9 0 1 0 .46-1.74.9.9 0 0 0-.45 1.73ZM33.5 33.9a1 1 0 1 0 .5-1.93 1 1 0 0 0-.5 1.94ZM32.3 38.52a1.1 1.1 0 1 0 .55-2.14 1.1 1.1 0 0 0-.56 2.14ZM31.09 43.13a1.2 1.2 0 1 0 .6-2.34 1.2 1.2 0 0 0-.6 2.34ZM29.9 47.64a1.2 1.2 0 1 0 .62-2.34 1.2 1.2 0 0 0-.61 2.34ZM28.76 52.05a1.1 1.1 0 1 0 .55-2.14 1.1 1.1 0 0 0-.55 2.14ZM27.6 56.46a1 1 0 1 0 .5-1.93 1 1 0 0 0-.5 1.93ZM26.45 60.87a.9.9 0 1 0 .45-1.73.9.9 0 0 0-.45 1.73ZM25.3 65.29a.8.8 0 1 0 .4-1.54.8.8 0 0 0-.4 1.54ZM24.14 69.7a.7.7 0 1 0 .35-1.34.7.7 0 0 0-.35 1.34ZM23 74.1a.59.59 0 1 0 .29-1.12.59.59 0 0 0-.3 1.13ZM21.84 78.52a.48.48 0 1 0 .24-.93.48.48 0 0 0-.24.93ZM20.68 82.93a.38.38 0 1 0 .2-.73.38.38 0 0 0-.2.73ZM46.45 2.81a.29.29 0 1 0 .14-.55.29.29 0 0 0-.14.55ZM45.24 7.44a.4.4 0 1 0 .2-.79.4.4 0 0 0-.2.8ZM44.03 12.07a.53.53 0 1 0 .26-1.02.53.53 0 0 0-.26 1.02ZM42.82 16.7a.64.64 0 1 0 .32-1.25.64.64 0 0 0-.32 1.24ZM41.6 21.32a.76.76 0 1 0 .4-1.48.76.76 0 0 0-.4 1.48ZM40.4 25.95a.88.88 0 1 0 .45-1.71.88.88 0 0 0-.45 1.7ZM39.19 30.57a1 1 0 1 0 .5-1.93 1 1 0 0 0-.5 1.93ZM37.98 35.2a1.12 1.12 0 1 0 .57-2.17 1.12 1.12 0 0 0-.57 2.17ZM36.77 39.83a1.24 1.24 0 1 0 .63-2.4 1.24 1.24 0 0 0-.63 2.4ZM35.56 44.45a1.36 1.36 0 1 0 .69-2.62 1.36 1.36 0 0 0-.69 2.62ZM34.38 48.96a1.36 1.36 0 1 0 .69-2.62 1.36 1.36 0 0 0-.69 2.62ZM33.23 53.36a1.24 1.24 0 1 0 .63-2.4 1.24 1.24 0 0 0-.63 2.4ZM32.08 57.76a1.12 1.12 0 1 0 .57-2.17 1.12 1.12 0 0 0-.57 2.17ZM30.93 62.15a1 1 0 1 0 .51-1.93 1 1 0 0 0-.5 1.93ZM29.79 66.55a.88.88 0 1 0 .44-1.7.88.88 0 0 0-.44 1.7ZM28.64 70.95a.76.76 0 1 0 .38-1.48.76.76 0 0 0-.38 1.48ZM27.49 75.34a.64.64 0 1 0 .32-1.24.64.64 0 0 0-.32 1.24ZM26.34 79.74a.53.53 0 1 0 .26-1.02.53.53 0 0 0-.26 1.02ZM25.19 84.14a.4.4 0 1 0 .2-.79.4.4 0 0 0-.2.79ZM24.04 88.53a.29.29 0 1 0 .15-.55.29.29 0 0 0-.15.55ZM50.95 4.01a.3.3 0 1 0 .16-.59.3.3 0 0 0-.16.6ZM49.74 8.65a.44.44 0 1 0 .22-.85.44.44 0 0 0-.22.85ZM48.53 13.3a.57.57 0 1 0 .29-1.12.57.57 0 0 0-.3 1.11ZM47.31 17.93a.7.7 0 1 0 .36-1.36.7.7 0 0 0-.36 1.36ZM46.1 22.57a.84.84 0 1 0 .43-1.62.84.84 0 0 0-.43 1.62ZM44.89 27.21a.97.97 0 1 0 .49-1.88.97.97 0 0 0-.5 1.88ZM43.68 31.85a1.1 1.1 0 1 0 .55-2.13 1.1 1.1 0 0 0-.55 2.13ZM42.46 36.5a1.24 1.24 0 1 0 .63-2.4 1.24 1.24 0 0 0-.63 2.4ZM41.25 41.14a1.37 1.37 0 1 0 .7-2.66 1.37 1.37 0 0 0-.7 2.66ZM40.04 45.78a1.5 1.5 0 1 0 .76-2.92 1.5 1.5 0 0 0-.76 2.92ZM38.86 50.29a1.5 1.5 0 1 0 .76-2.91 1.5 1.5 0 0 0-.76 2.9ZM37.71 54.67a1.37 1.37 0 1 0 .7-2.66 1.37 1.37 0 0 0-.7 2.66ZM36.57 59.05a1.24 1.24 0 1 0 .62-2.4 1.24 1.24 0 0 0-.62 2.4ZM35.42 63.43a1.1 1.1 0 1 0 .56-2.13 1.1 1.1 0 0 0-.56 2.13ZM34.27 67.82a.97.97 0 1 0 .5-1.88.97.97 0 0 0-.5 1.88ZM33.13 72.2a.84.84 0 1 0 .42-1.62.84.84 0 0 0-.42 1.62ZM31.98 76.58a.7.7 0 1 0 .36-1.36.7.7 0 0 0-.36 1.36ZM30.84 80.97a.57.57 0 1 0 .29-1.11.57.57 0 0 0-.3 1.1ZM29.7 85.35a.44.44 0 1 0 .21-.85.44.44 0 0 0-.22.85ZM28.55 89.73a.3.3 0 1 0 .15-.59.3.3 0 0 0-.15.6ZM55.46 5.2a.32.32 0 1 0 .16-.61.32.32 0 0 0-.16.61ZM54.24 9.86a.47.47 0 1 0 .24-.9.47.47 0 0 0-.24.9ZM53.03 14.51a.61.61 0 1 0 .3-1.19.61.61 0 0 0-.3 1.2ZM51.81 19.17a.76.76 0 1 0 .39-1.48.76.76 0 0 0-.39 1.48ZM50.6 23.82a.91.91 0 1 0 .46-1.76.91.91 0 0 0-.47 1.76ZM49.38 28.48a1.06 1.06 0 1 0 .53-2.05 1.06 1.06 0 0 0-.53 2.05ZM48.16 33.13a1.2 1.2 0 1 0 .61-2.33 1.2 1.2 0 0 0-.6 2.33ZM46.94 37.79a1.36 1.36 0 1 0 .69-2.63 1.36 1.36 0 0 0-.69 2.63ZM45.73 42.44a1.5 1.5 0 1 0 .76-2.9 1.5 1.5 0 0 0-.76 2.9ZM44.51 47.1a1.65 1.65 0 1 0 .84-3.2 1.65 1.65 0 0 0-.84 3.2ZM43.33 51.61a1.65 1.65 0 1 0 .84-3.2 1.65 1.65 0 0 0-.84 3.2ZM42.19 55.98a1.5 1.5 0 1 0 .76-2.91 1.5 1.5 0 0 0-.76 2.9ZM41.05 60.35a1.36 1.36 0 1 0 .68-2.63 1.36 1.36 0 0 0-.68 2.63ZM39.9 64.71a1.2 1.2 0 1 0 .62-2.33 1.2 1.2 0 0 0-.61 2.33ZM38.76 69.08a1.06 1.06 0 1 0 .54-2.05 1.06 1.06 0 0 0-.54 2.05ZM37.62 73.45a.91.91 0 1 0 .46-1.76.91.91 0 0 0-.46 1.76ZM36.48 77.82a.76.76 0 1 0 .39-1.48.76.76 0 0 0-.39 1.48ZM35.34 82.19a.61.61 0 1 0 .3-1.2.61.61 0 0 0-.3 1.2ZM34.2 86.55a.47.47 0 1 0 .23-.9.47.47 0 0 0-.23.9ZM33.05 90.92a.32.32 0 1 0 .17-.61.32.32 0 0 0-.17.61ZM59.97 6.38a.32.32 0 1 0 .16-.61.32.32 0 0 0-.16.61ZM58.76 11.04a.47.47 0 1 0 .23-.9.47.47 0 0 0-.23.9ZM57.54 15.7a.61.61 0 1 0 .31-1.2.61.61 0 0 0-.31 1.2ZM56.32 20.35a.76.76 0 1 0 .39-1.48.76.76 0 0 0-.39 1.48ZM55.1 25a.91.91 0 1 0 .47-1.76.91.91 0 0 0-.46 1.76ZM53.89 29.66a1.06 1.06 0 1 0 .54-2.05 1.06 1.06 0 0 0-.54 2.05ZM52.67 34.31a1.2 1.2 0 1 0 .61-2.34 1.2 1.2 0 0 0-.6 2.34ZM51.46 38.97a1.36 1.36 0 1 0 .68-2.63 1.36 1.36 0 0 0-.68 2.63ZM50.24 43.62a1.5 1.5 0 1 0 .76-2.91 1.5 1.5 0 0 0-.76 2.91ZM49.02 48.28a1.65 1.65 0 1 0 .84-3.2 1.65 1.65 0 0 0-.84 3.2ZM47.84 52.79a1.65 1.65 0 1 0 .84-3.2 1.65 1.65 0 0 0-.84 3.2ZM46.7 57.16a1.5 1.5 0 1 0 .76-2.91 1.5 1.5 0 0 0-.76 2.9ZM45.56 61.53a1.36 1.36 0 1 0 .68-2.63 1.36 1.36 0 0 0-.68 2.63ZM44.42 65.9a1.2 1.2 0 1 0 .6-2.34 1.2 1.2 0 0 0-.6 2.33ZM43.28 70.26a1.06 1.06 0 1 0 .53-2.05 1.06 1.06 0 0 0-.53 2.05ZM42.13 74.63a.91.91 0 1 0 .46-1.76.91.91 0 0 0-.46 1.76ZM41 79a.76.76 0 1 0 .38-1.48.76.76 0 0 0-.39 1.48ZM39.85 83.37a.61.61 0 1 0 .31-1.2.61.61 0 0 0-.31 1.2ZM38.7 87.73a.47.47 0 1 0 .24-.9.47.47 0 0 0-.23.9ZM37.57 92.1a.32.32 0 1 0 .16-.61.32.32 0 0 0-.16.61ZM64.49 7.55a.3.3 0 1 0 .15-.6.3.3 0 0 0-.15.6ZM63.28 12.19a.44.44 0 1 0 .22-.85.44.44 0 0 0-.22.85ZM62.06 16.83a.57.57 0 1 0 .3-1.1.57.57 0 0 0-.3 1.1ZM60.85 21.47a.7.7 0 1 0 .36-1.36.7.7 0 0 0-.36 1.36ZM59.64 26.11a.84.84 0 1 0 .42-1.62.84.84 0 0 0-.42 1.62ZM58.42 30.75a.97.97 0 1 0 .5-1.88.97.97 0 0 0-.5 1.88ZM57.21 35.39a1.1 1.1 0 1 0 .56-2.13 1.1 1.1 0 0 0-.56 2.13ZM56 40.03a1.24 1.24 0 1 0 .62-2.4 1.24 1.24 0 0 0-.62 2.4ZM54.78 44.67a1.37 1.37 0 1 0 .7-2.65 1.37 1.37 0 0 0-.7 2.65ZM53.57 49.31a1.5 1.5 0 1 0 .76-2.9 1.5 1.5 0 0 0-.76 2.9ZM52.4 53.83a1.5 1.5 0 1 0 .75-2.92 1.5 1.5 0 0 0-.76 2.92ZM51.25 58.2a1.37 1.37 0 1 0 .69-2.65 1.37 1.37 0 0 0-.7 2.66ZM50.1 62.59a1.24 1.24 0 1 0 .63-2.4 1.24 1.24 0 0 0-.63 2.4ZM48.96 66.97a1.1 1.1 0 1 0 .55-2.13 1.1 1.1 0 0 0-.55 2.13ZM47.8 71.35a.97.97 0 1 0 .5-1.87.97.97 0 0 0-.5 1.87ZM46.66 75.74a.84.84 0 1 0 .43-1.62.84.84 0 0 0-.43 1.62ZM45.52 80.12a.7.7 0 1 0 .35-1.36.7.7 0 0 0-.35 1.36ZM44.37 84.5a.57.57 0 1 0 .3-1.1.57.57 0 0 0-.3 1.1ZM43.23 88.88a.44.44 0 1 0 .22-.84.44.44 0 0 0-.22.84ZM42.08 93.27a.3.3 0 1 0 .16-.6.3.3 0 0 0-.16.6ZM69 8.71a.29.29 0 1 0 .15-.56.29.29 0 0 0-.15.56ZM67.8 13.34a.4.4 0 1 0 .2-.79.4.4 0 0 0-.2.79ZM66.59 17.96a.53.53 0 1 0 .26-1.01.53.53 0 0 0-.26 1.01ZM65.38 22.6a.64.64 0 1 0 .32-1.26.64.64 0 0 0-.32 1.25ZM64.17 27.22a.76.76 0 1 0 .38-1.48.76.76 0 0 0-.38 1.48ZM62.96 31.84a.88.88 0 1 0 .44-1.7.88.88 0 0 0-.44 1.7ZM61.75 36.47a1 1 0 1 0 .5-1.94 1 1 0 0 0-.5 1.94ZM60.54 41.1a1.12 1.12 0 1 0 .56-2.17 1.12 1.12 0 0 0-.56 2.17ZM59.33 45.72a1.24 1.24 0 1 0 .63-2.4 1.24 1.24 0 0 0-.63 2.4ZM58.12 50.35a1.36 1.36 0 1 0 .69-2.63 1.36 1.36 0 0 0-.69 2.63ZM56.94 54.86a1.36 1.36 0 1 0 .69-2.62 1.36 1.36 0 0 0-.69 2.62ZM55.8 59.26a1.24 1.24 0 1 0 .62-2.4 1.24 1.24 0 0 0-.63 2.4ZM54.64 63.65a1.12 1.12 0 1 0 .57-2.16 1.12 1.12 0 0 0-.57 2.16ZM53.5 68.05a1 1 0 1 0 .5-1.93 1 1 0 0 0-.5 1.93ZM52.34 72.45a.88.88 0 1 0 .45-1.7.88.88 0 0 0-.45 1.7ZM51.2 76.84a.76.76 0 1 0 .38-1.47.76.76 0 0 0-.39 1.47ZM50.04 81.24a.64.64 0 1 0 .33-1.25.64.64 0 0 0-.33 1.25ZM48.9 85.64a.53.53 0 1 0 .26-1.02.53.53 0 0 0-.26 1.02ZM47.75 90.03a.4.4 0 1 0 .2-.78.4.4 0 0 0-.2.78ZM46.6 94.43a.29.29 0 1 0 .14-.56.29.29 0 0 0-.14.56ZM72.31 14.49a.38.38 0 1 0 .2-.73.38.38 0 0 0-.2.73ZM71.1 19.1a.48.48 0 1 0 .25-.93.48.48 0 0 0-.24.93ZM69.9 23.71a.58.58 0 1 0 .3-1.13.58.58 0 0 0-.3 1.13ZM68.7 28.33a.7.7 0 1 0 .35-1.34.7.7 0 0 0-.35 1.34ZM67.5 32.94a.8.8 0 1 0 .4-1.54.8.8 0 0 0-.4 1.54ZM66.29 37.55a.9.9 0 1 0 .45-1.73.9.9 0 0 0-.45 1.73ZM65.08 42.16a1 1 0 1 0 .5-1.93 1 1 0 0 0-.5 1.93ZM63.87 46.77a1.1 1.1 0 1 0 .56-2.14 1.1 1.1 0 0 0-.56 2.14ZM62.67 51.38a1.2 1.2 0 1 0 .61-2.33 1.2 1.2 0 0 0-.61 2.34ZM61.49 55.9a1.2 1.2 0 1 0 .61-2.34 1.2 1.2 0 0 0-.61 2.34ZM60.34 60.31a1.1 1.1 0 1 0 .56-2.14 1.1 1.1 0 0 0-.56 2.14ZM59.18 64.72a1 1 0 1 0 .51-1.94 1 1 0 0 0-.5 1.94ZM58.03 69.13a.9.9 0 1 0 .45-1.73.9.9 0 0 0-.45 1.73ZM56.88 73.54a.8.8 0 1 0 .4-1.53.8.8 0 0 0-.4 1.53ZM55.72 77.95a.7.7 0 1 0 .35-1.33.7.7 0 0 0-.35 1.33ZM54.57 82.36a.59.59 0 1 0 .3-1.13.59.59 0 0 0-.3 1.13ZM53.42 86.77a.48.48 0 1 0 .24-.92.48.48 0 0 0-.24.92ZM52.27 91.19a.38.38 0 1 0 .19-.73.38.38 0 0 0-.2.73ZM76.83 15.64a.35.35 0 1 0 .18-.67.35.35 0 0 0-.18.67ZM75.63 20.24a.44.44 0 1 0 .22-.85.44.44 0 0 0-.22.85ZM74.43 24.83a.53.53 0 1 0 .27-1.01.53.53 0 0 0-.27 1.01ZM73.23 29.43a.61.61 0 1 0 .3-1.19.61.61 0 0 0-.3 1.2ZM72.03 34.03a.7.7 0 1 0 .35-1.36.7.7 0 0 0-.35 1.36ZM70.82 38.63a.8.8 0 1 0 .4-1.54.8.8 0 0 0-.4 1.54ZM69.62 43.23a.88.88 0 1 0 .45-1.71.88.88 0 0 0-.45 1.7ZM68.42 47.82a.97.97 0 1 0 .5-1.88.97.97 0 0 0-.5 1.88ZM67.22 52.42a1.06 1.06 0 1 0 .53-2.05 1.06 1.06 0 0 0-.53 2.05ZM66.04 56.93a1.06 1.06 0 1 0 .54-2.05 1.06 1.06 0 0 0-.54 2.05ZM64.88 61.36a.97.97 0 1 0 .5-1.88.97.97 0 0 0-.5 1.88ZM63.73 65.78a.88.88 0 1 0 .44-1.7.88.88 0 0 0-.44 1.7ZM62.57 70.2a.8.8 0 1 0 .4-1.53.8.8 0 0 0-.4 1.54ZM61.41 74.63a.7.7 0 1 0 .36-1.36.7.7 0 0 0-.36 1.36ZM60.25 79.06a.61.61 0 1 0 .32-1.19.61.61 0 0 0-.32 1.19ZM59.1 83.48a.53.53 0 1 0 .26-1.01.53.53 0 0 0-.26 1.02ZM57.94 87.91a.44.44 0 1 0 .22-.84.44.44 0 0 0-.22.84ZM56.78 92.34a.35.35 0 1 0 .18-.68.35.35 0 0 0-.18.68ZM80.15 21.38a.4.4 0 1 0 .2-.77.4.4 0 0 0-.2.77ZM78.96 25.96a.47.47 0 1 0 .23-.9.47.47 0 0 0-.23.9ZM77.76 30.54a.54.54 0 1 0 .27-1.04.54.54 0 0 0-.27 1.04ZM76.56 35.12a.61.61 0 1 0 .31-1.19.61.61 0 0 0-.31 1.2ZM75.36 39.7a.7.7 0 1 0 .35-1.33.7.7 0 0 0-.35 1.34ZM74.16 44.29a.76.76 0 1 0 .39-1.48.76.76 0 0 0-.39 1.48ZM72.96 48.88a.84.84 0 1 0 .43-1.63.84.84 0 0 0-.43 1.63ZM71.77 53.46a.91.91 0 1 0 .46-1.77.91.91 0 0 0-.46 1.77ZM70.59 57.97a.91.91 0 1 0 .46-1.77.91.91 0 0 0-.46 1.77ZM69.43 62.41a.84.84 0 1 0 .42-1.62.84.84 0 0 0-.42 1.62ZM68.27 66.85a.76.76 0 1 0 .38-1.48.76.76 0 0 0-.38 1.48ZM67.1 71.29a.7.7 0 1 0 .36-1.34.7.7 0 0 0-.35 1.34ZM65.95 75.73a.61.61 0 1 0 .3-1.2.61.61 0 0 0-.3 1.2ZM64.79 80.17a.54.54 0 1 0 .27-1.05.54.54 0 0 0-.27 1.05ZM63.62 84.6a.47.47 0 1 0 .24-.9.47.47 0 0 0-.24.9ZM62.46 89.05a.4.4 0 1 0 .2-.76.4.4 0 0 0-.2.76ZM84.68 22.5a.35.35 0 1 0 .17-.66.35.35 0 0 0-.17.67ZM83.48 27.08a.4.4 0 1 0 .2-.79.4.4 0 0 0-.2.79ZM82.29 31.65a.47.47 0 1 0 .23-.9.47.47 0 0 0-.23.9ZM81.1 36.22a.53.53 0 1 0 .26-1.02.53.53 0 0 0-.27 1.02ZM79.9 40.79a.58.58 0 1 0 .3-1.14.58.58 0 0 0-.3 1.14ZM78.7 45.35a.64.64 0 1 0 .33-1.24.64.64 0 0 0-.33 1.24ZM77.51 49.92a.7.7 0 1 0 .36-1.36.7.7 0 0 0-.36 1.36ZM76.32 54.5a.76.76 0 1 0 .38-1.48.76.76 0 0 0-.38 1.47ZM75.14 59a.76.76 0 1 0 .38-1.47.76.76 0 0 0-.38 1.47ZM73.97 63.46a.7.7 0 1 0 .36-1.36.7.7 0 0 0-.36 1.36ZM72.8 67.91a.64.64 0 1 0 .33-1.24.64.64 0 0 0-.32 1.24ZM71.64 72.37a.59.59 0 1 0 .3-1.14.59.59 0 0 0-.3 1.14ZM70.48 76.82a.53.53 0 1 0 .27-1.02.53.53 0 0 0-.27 1.02ZM69.32 81.27a.47.47 0 1 0 .23-.9.47.47 0 0 0-.23.9ZM68.15 85.73a.4.4 0 1 0 .2-.79.4.4 0 0 0-.2.79ZM66.99 90.18a.35.35 0 1 0 .17-.67.35.35 0 0 0-.17.67ZM88 28.2a.35.35 0 1 0 .18-.67.35.35 0 0 0-.17.67ZM86.82 32.76a.4.4 0 1 0 .2-.77.4.4 0 0 0-.2.77ZM85.63 37.31a.44.44 0 1 0 .22-.85.44.44 0 0 0-.22.85ZM84.44 41.86a.48.48 0 1 0 .24-.92.48.48 0 0 0-.24.92ZM83.25 46.42a.53.53 0 1 0 .26-1.02.53.53 0 0 0-.26 1.02ZM82.06 50.98a.57.57 0 1 0 .29-1.11.57.57 0 0 0-.3 1.1ZM80.87 55.53a.61.61 0 1 0 .3-1.2.61.61 0 0 0-.3 1.2ZM79.69 60.04a.61.61 0 1 0 .3-1.19.61.61 0 0 0-.3 1.19ZM78.52 64.51a.57.57 0 1 0 .29-1.1.57.57 0 0 0-.3 1.1ZM77.35 68.98a.53.53 0 1 0 .27-1.02.53.53 0 0 0-.27 1.02ZM76.18 73.44a.48.48 0 1 0 .24-.92.48.48 0 0 0-.24.92ZM75.01 77.91a.44.44 0 1 0 .22-.84.44.44 0 0 0-.22.84ZM73.85 82.38a.4.4 0 1 0 .2-.76.4.4 0 0 0-.2.76ZM72.68 86.85a.35.35 0 1 0 .17-.67.35.35 0 0 0-.17.67ZM90.16 38.4a.35.35 0 1 0 .18-.67.35.35 0 0 0-.18.67ZM88.97 42.94a.38.38 0 1 0 .2-.73.38.38 0 0 0-.2.73ZM87.79 47.48a.4.4 0 1 0 .2-.78.4.4 0 0 0-.2.78ZM86.6 52.02a.44.44 0 1 0 .22-.84.44.44 0 0 0-.22.84ZM85.41 56.56a.47.47 0 1 0 .24-.9.47.47 0 0 0-.24.9ZM84.24 61.08a.47.47 0 1 0 .23-.9.47.47 0 0 0-.23.9ZM83.06 65.56a.44.44 0 1 0 .22-.85.44.44 0 0 0-.22.85ZM81.9 70.04a.4.4 0 1 0 .2-.79.4.4 0 0 0-.2.8ZM80.72 74.52a.38.38 0 1 0 .2-.73.38.38 0 0 0-.2.73ZM79.55 79a.35.35 0 1 0 .17-.67.35.35 0 0 0-.17.68ZM92.33 48.55a.29.29 0 1 0 .15-.56.29.29 0 0 0-.15.56ZM91.15 53.08a.3.3 0 1 0 .15-.6.3.3 0 0 0-.15.6ZM89.96 57.6a.32.32 0 1 0 .16-.62.32.32 0 0 0-.16.62ZM88.78 62.11a.32.32 0 1 0 .17-.61.32.32 0 0 0-.17.61ZM87.6 66.61a.3.3 0 1 0 .16-.59.3.3 0 0 0-.15.6ZM86.43 71.1a.29.29 0 1 0 .15-.55.29.29 0 0 0-.15.56Z"/></g><defs><clipPath id="a"><path fill="#fff" d="M.1 0h93.03v95H.1z"/></clipPath></defs></svg>