<svg xmlns="http://www.w3.org/2000/svg" width="94" height="95" fill="none"><g fill="#0051FF" clip-path="url(#a)"><path d="M7.14 71.63a.29.29 0 1 0-.4-.4.29.29 0 0 0 .4.4ZM10.45 74.94a.3.3 0 1 0-.43-.43.3.3 0 0 0 .43.43ZM13.76 78.24a.32.32 0 1 0-.45-.44.32.32 0 0 0 .45.44ZM17.06 81.54a.32.32 0 1 0-.45-.45.32.32 0 0 0 .45.45ZM20.35 84.83a.3.3 0 1 0-.44-.43.3.3 0 0 0 .44.43ZM23.63 88.12a.29.29 0 1 0-.4-.41.29.29 0 0 0 .4.4ZM3.89 61.78a.35.35 0 1 0-.5-.5.35.35 0 0 0 .5.5ZM7.2 65.1a.38.38 0 1 0-.53-.54.38.38 0 0 0 .54.54ZM10.53 68.42a.4.4 0 1 0-.58-.58.4.4 0 0 0 .58.58ZM13.84 71.73a.44.44 0 1 0-.61-.61.44.44 0 0 0 .61.61ZM17.16 75.05a.47.47 0 1 0-.66-.66.47.47 0 0 0 .66.66ZM20.46 78.35a.47.47 0 1 0-.66-.66.47.47 0 0 0 .66.66ZM23.74 81.63a.44.44 0 1 0-.62-.62.44.44 0 0 0 .62.62ZM27.01 84.9a.4.4 0 1 0-.57-.57.4.4 0 0 0 .57.57ZM30.29 88.18a.38.38 0 1 0-.53-.53.38.38 0 0 0 .53.53ZM33.57 91.46a.35.35 0 1 0-.5-.5.35.35 0 0 0 .5.5ZM.6 51.89a.35.35 0 1 0-.5-.5.35.35 0 0 0 .5.5ZM3.92 55.22a.4.4 0 1 0-.56-.56.4.4 0 0 0 .56.56ZM7.25 58.54a.44.44 0 1 0-.62-.61.44.44 0 0 0 .62.61ZM10.58 61.87a.48.48 0 1 0-.68-.68.48.48 0 0 0 .68.68ZM13.9 65.2a.53.53 0 1 0-.74-.74.53.53 0 0 0 .75.74ZM17.24 68.53a.57.57 0 1 0-.81-.8.57.57 0 0 0 .8.8ZM20.56 71.86a.61.61 0 1 0-.86-.87.61.61 0 0 0 .86.87ZM23.86 75.16a.61.61 0 1 0-.87-.87.61.61 0 0 0 .87.87ZM27.13 78.42a.57.57 0 1 0-.81-.8.57.57 0 0 0 .8.8ZM30.4 81.69a.53.53 0 1 0-.75-.74.53.53 0 0 0 .74.74ZM33.66 84.95a.48.48 0 1 0-.68-.67.48.48 0 0 0 .68.67ZM36.93 88.22a.44.44 0 1 0-.62-.62.44.44 0 0 0 .62.62ZM40.2 91.49a.4.4 0 1 0-.56-.56.4.4 0 0 0 .55.56ZM43.46 94.75a.35.35 0 1 0-.5-.49.35.35 0 0 0 .5.5ZM.6 45.3a.35.35 0 1 0-.5-.5.35.35 0 0 0 .5.5ZM3.93 48.63a.4.4 0 1 0-.57-.57.4.4 0 0 0 .57.57ZM7.27 51.97a.47.47 0 1 0-.66-.66.47.47 0 0 0 .66.66ZM10.61 55.31a.53.53 0 1 0-.74-.74.53.53 0 0 0 .74.74ZM13.95 58.65a.58.58 0 1 0-.83-.83.58.58 0 0 0 .83.83ZM17.29 61.99a.64.64 0 1 0-.91-.91.64.64 0 0 0 .9.9ZM20.63 65.33a.7.7 0 1 0-1-1 .7.7 0 0 0 1 1ZM23.97 68.67a.76.76 0 1 0-1.08-1.08.76.76 0 0 0 1.08 1.08ZM27.26 71.96a.76.76 0 1 0-1.08-1.07.76.76 0 0 0 1.08 1.07ZM30.52 75.22a.7.7 0 1 0-1-1 .7.7 0 0 0 1 1ZM33.77 78.48a.64.64 0 1 0-.9-.92.64.64 0 0 0 .9.92ZM37.03 81.73a.58.58 0 1 0-.83-.83.58.58 0 0 0 .83.83ZM40.29 84.99a.53.53 0 1 0-.75-.75.53.53 0 0 0 .75.75ZM43.54 88.24a.47.47 0 1 0-.66-.66.47.47 0 0 0 .66.66ZM46.8 91.5a.4.4 0 1 0-.58-.58.4.4 0 0 0 .58.58ZM50.05 94.75a.35.35 0 1 0-.49-.49.35.35 0 0 0 .5.5ZM3.92 42.03a.4.4 0 1 0-.56-.56.4.4 0 0 0 .56.56ZM7.27 45.38a.47.47 0 1 0-.66-.66.47.47 0 0 0 .66.66ZM10.62 48.72a.54.54 0 1 0-.76-.76.54.54 0 0 0 .76.76ZM13.97 52.08a.61.61 0 1 0-.87-.87.61.61 0 0 0 .87.87ZM17.32 55.43a.7.7 0 1 0-.98-.98.7.7 0 0 0 .98.98ZM20.67 58.78a.76.76 0 1 0-1.08-1.08.76.76 0 0 0 1.08 1.08ZM24.02 62.13a.84.84 0 1 0-1.19-1.19.84.84 0 0 0 1.2 1.19ZM27.37 65.48a.91.91 0 1 0-1.29-1.3.91.91 0 0 0 1.29 1.3ZM30.67 68.77a.91.91 0 1 0-1.3-1.29.91.91 0 0 0 1.3 1.3ZM33.91 72.02a.84.84 0 1 0-1.18-1.19.84.84 0 0 0 1.18 1.19ZM37.16 75.26a.76.76 0 1 0-1.08-1.08.76.76 0 0 0 1.08 1.08ZM40.4 78.5a.7.7 0 1 0-.97-.97.7.7 0 0 0 .97.98ZM43.65 81.75a.61.61 0 1 0-.87-.87.61.61 0 0 0 .87.87ZM46.89 85a.54.54 0 1 0-.76-.77.54.54 0 0 0 .76.77ZM50.14 88.24a.47.47 0 1 0-.66-.66.47.47 0 0 0 .66.66ZM53.38 91.49a.4.4 0 1 0-.56-.56.4.4 0 0 0 .56.56ZM3.89 35.4a.35.35 0 1 0-.5-.5.35.35 0 0 0 .5.5ZM7.25 38.76a.44.44 0 1 0-.62-.62.44.44 0 0 0 .62.62ZM10.61 42.12a.53.53 0 1 0-.74-.74.53.53 0 0 0 .74.74ZM13.97 45.48a.61.61 0 1 0-.87-.87.61.61 0 0 0 .87.87ZM17.33 48.84a.7.7 0 1 0-1-1 .7.7 0 0 0 1 1ZM20.69 52.2a.8.8 0 1 0-1.12-1.12.8.8 0 0 0 1.12 1.12ZM24.05 55.56a.88.88 0 1 0-1.25-1.24.88.88 0 0 0 1.25 1.24ZM27.41 58.92a.97.97 0 1 0-1.37-1.37.97.97 0 0 0 1.37 1.37ZM30.77 62.28a1.06 1.06 0 1 0-1.5-1.5 1.06 1.06 0 0 0 1.5 1.5ZM34.07 65.58a1.06 1.06 0 1 0-1.5-1.5 1.06 1.06 0 0 0 1.5 1.5ZM37.3 68.81a.97.97 0 1 0-1.37-1.37.97.97 0 0 0 1.37 1.37ZM40.54 72.05a.88.88 0 1 0-1.25-1.25.88.88 0 0 0 1.25 1.25ZM43.77 75.28a.8.8 0 1 0-1.12-1.12.8.8 0 0 0 1.12 1.12ZM47 78.52a.7.7 0 1 0-.99-1 .7.7 0 0 0 1 1ZM50.24 81.75a.61.61 0 1 0-.87-.87.61.61 0 0 0 .87.87ZM53.48 84.99a.53.53 0 1 0-.75-.75.53.53 0 0 0 .75.75ZM56.71 88.22a.44.44 0 1 0-.62-.62.44.44 0 0 0 .62.62ZM59.94 91.46a.35.35 0 1 0-.49-.5.35.35 0 0 0 .5.5ZM7.2 32.12a.38.38 0 1 0-.53-.53.38.38 0 0 0 .54.53ZM10.58 35.5a.48.48 0 1 0-.68-.68.48.48 0 0 0 .68.67ZM13.95 38.87a.59.59 0 1 0-.83-.83.59.59 0 0 0 .83.83ZM17.32 42.24a.7.7 0 1 0-.98-.98.7.7 0 0 0 .98.98ZM20.69 45.6a.8.8 0 1 0-1.12-1.11.8.8 0 0 0 1.12 1.12ZM24.06 48.98a.9.9 0 1 0-1.27-1.27.9.9 0 0 0 1.27 1.27ZM27.43 52.35a1 1 0 1 0-1.41-1.42 1 1 0 0 0 1.41 1.42ZM30.8 55.72a1.1 1.1 0 1 0-1.56-1.56 1.1 1.1 0 0 0 1.56 1.56ZM34.17 59.09a1.2 1.2 0 1 0-1.7-1.7 1.2 1.2 0 0 0 1.7 1.7ZM37.47 62.39a1.2 1.2 0 1 0-1.7-1.71 1.2 1.2 0 0 0 1.7 1.7ZM40.7 65.61a1.1 1.1 0 1 0-1.57-1.56 1.1 1.1 0 0 0 1.57 1.56ZM43.92 68.84a1 1 0 1 0-1.42-1.42 1 1 0 0 0 1.42 1.42ZM47.14 72.06a.9.9 0 1 0-1.26-1.27.9.9 0 0 0 1.26 1.27ZM50.37 75.28a.8.8 0 1 0-1.12-1.12.8.8 0 0 0 1.12 1.12ZM53.6 78.5a.7.7 0 1 0-.99-.97.7.7 0 0 0 .98.98ZM56.81 81.73a.58.58 0 1 0-.82-.83.58.58 0 0 0 .82.83ZM60.04 84.95a.48.48 0 1 0-.68-.67.48.48 0 0 0 .68.67ZM63.26 88.18a.38.38 0 1 0-.53-.53.38.38 0 0 0 .53.53ZM7.14 25.47a.29.29 0 1 0-.4-.41.29.29 0 0 0 .4.4ZM10.53 28.85a.4.4 0 1 0-.58-.58.4.4 0 0 0 .58.58ZM13.9 32.23a.53.53 0 1 0-.74-.74.53.53 0 0 0 .75.74ZM17.29 35.61a.64.64 0 1 0-.91-.91.64.64 0 0 0 .9.91ZM20.67 39a.76.76 0 1 0-1.08-1.09.76.76 0 0 0 1.08 1.08ZM24.05 42.37a.88.88 0 1 0-1.25-1.24.88.88 0 0 0 1.25 1.24ZM27.43 45.75a1 1 0 1 0-1.41-1.41 1 1 0 0 0 1.41 1.41ZM30.81 49.14a1.12 1.12 0 1 0-1.58-1.59 1.12 1.12 0 0 0 1.58 1.59ZM34.2 52.52a1.24 1.24 0 1 0-1.76-1.75 1.24 1.24 0 0 0 1.75 1.75ZM37.58 55.9a1.36 1.36 0 1 0-1.92-1.92 1.36 1.36 0 0 0 1.92 1.92ZM40.87 59.2a1.36 1.36 0 1 0-1.92-1.92 1.36 1.36 0 0 0 1.92 1.92ZM44.09 62.4a1.24 1.24 0 1 0-1.75-1.74 1.24 1.24 0 0 0 1.75 1.75ZM47.3 65.62a1.12 1.12 0 1 0-1.58-1.58 1.12 1.12 0 0 0 1.58 1.58ZM50.51 68.84a1 1 0 1 0-1.41-1.42 1 1 0 0 0 1.41 1.42ZM53.73 72.05a.88.88 0 1 0-1.25-1.25.88.88 0 0 0 1.25 1.25ZM56.94 75.26a.76.76 0 1 0-1.08-1.08.76.76 0 0 0 1.08 1.08ZM60.15 78.48a.64.64 0 1 0-.9-.92.64.64 0 0 0 .9.92ZM63.37 81.69a.53.53 0 1 0-.75-.74.53.53 0 0 0 .75.74ZM66.58 84.9a.4.4 0 1 0-.58-.57.4.4 0 0 0 .58.57ZM69.8 88.12a.29.29 0 1 0-.41-.41.29.29 0 0 0 .4.4ZM10.45 22.18a.3.3 0 1 0-.43-.43.3.3 0 0 0 .43.43ZM13.84 25.57a.44.44 0 1 0-.61-.62.44.44 0 0 0 .61.62ZM17.24 28.96a.57.57 0 1 0-.81-.8.57.57 0 0 0 .8.8ZM20.63 32.35a.7.7 0 1 0-1-.99.7.7 0 0 0 1 1ZM24.02 35.75a.84.84 0 1 0-1.19-1.19.84.84 0 0 0 1.2 1.19ZM27.41 39.14a.97.97 0 1 0-1.37-1.37.97.97 0 0 0 1.37 1.37ZM30.8 42.53a1.1 1.1 0 1 0-1.56-1.56 1.1 1.1 0 0 0 1.56 1.56ZM34.2 45.92a1.24 1.24 0 1 0-1.76-1.75 1.24 1.24 0 0 0 1.75 1.75ZM37.59 49.32a1.37 1.37 0 1 0-1.94-1.95 1.37 1.37 0 0 0 1.94 1.95ZM40.98 52.7a1.5 1.5 0 1 0-2.13-2.12 1.5 1.5 0 0 0 2.13 2.13ZM44.28 56a1.5 1.5 0 1 0-2.13-2.13A1.5 1.5 0 0 0 44.28 56ZM47.48 59.2a1.37 1.37 0 1 0-1.94-1.94 1.37 1.37 0 0 0 1.94 1.95ZM50.68 62.4a1.24 1.24 0 1 0-1.75-1.74 1.24 1.24 0 0 0 1.75 1.75ZM53.88 65.61a1.1 1.1 0 1 0-1.56-1.56 1.1 1.1 0 0 0 1.56 1.56ZM57.09 68.81a.97.97 0 1 0-1.38-1.37.97.97 0 0 0 1.38 1.37ZM60.3 72.02a.84.84 0 1 0-1.2-1.19.84.84 0 0 0 1.2 1.19ZM63.5 75.22a.7.7 0 1 0-1-1 .7.7 0 0 0 1 1ZM66.7 78.42a.57.57 0 1 0-.81-.8.57.57 0 0 0 .8.8ZM69.9 81.63a.44.44 0 1 0-.62-.62.44.44 0 0 0 .62.62ZM73.1 84.83a.3.3 0 1 0-.43-.43.3.3 0 0 0 .43.43ZM13.76 18.9a.32.32 0 1 0-.45-.46.32.32 0 0 0 .45.45ZM17.16 22.3a.47.47 0 1 0-.66-.66.47.47 0 0 0 .66.65ZM20.56 25.7a.61.61 0 1 0-.86-.87.61.61 0 0 0 .86.87ZM23.97 29.1a.76.76 0 1 0-1.08-1.08.76.76 0 0 0 1.08 1.08ZM27.37 32.5a.91.91 0 1 0-1.29-1.29.91.91 0 0 0 1.29 1.3ZM30.77 35.9a1.06 1.06 0 1 0-1.5-1.5 1.06 1.06 0 0 0 1.5 1.5ZM34.17 39.3a1.2 1.2 0 1 0-1.7-1.7 1.2 1.2 0 0 0 1.7 1.7ZM37.58 42.7a1.36 1.36 0 1 0-1.92-1.91 1.36 1.36 0 0 0 1.92 1.92ZM40.98 46.11a1.5 1.5 0 1 0-2.13-2.13 1.5 1.5 0 0 0 2.13 2.13ZM44.38 49.51a1.65 1.65 0 1 0-2.34-2.34 1.65 1.65 0 0 0 2.34 2.34ZM47.68 52.81a1.65 1.65 0 1 0-2.34-2.34 1.65 1.65 0 0 0 2.34 2.34ZM50.87 56a1.5 1.5 0 1 0-2.13-2.13A1.5 1.5 0 0 0 50.87 56ZM54.06 59.2a1.36 1.36 0 1 0-1.92-1.92 1.36 1.36 0 0 0 1.92 1.92ZM57.26 62.39a1.2 1.2 0 1 0-1.71-1.71 1.2 1.2 0 0 0 1.7 1.7ZM60.45 65.58a1.06 1.06 0 1 0-1.5-1.5 1.06 1.06 0 0 0 1.5 1.5ZM63.64 68.77a.91.91 0 1 0-1.29-1.29.91.91 0 0 0 1.29 1.3ZM66.83 71.96a.76.76 0 1 0-1.08-1.07.76.76 0 0 0 1.08 1.07ZM70.02 75.16a.61.61 0 1 0-.86-.87.61.61 0 0 0 .86.87ZM73.22 78.35a.47.47 0 1 0-.66-.66.47.47 0 0 0 .66.66ZM76.41 81.54a.32.32 0 1 0-.45-.45.32.32 0 0 0 .45.45ZM17.06 15.6a.32.32 0 1 0-.45-.45.32.32 0 0 0 .45.45ZM20.46 19a.47.47 0 1 0-.66-.66.47.47 0 0 0 .66.66ZM23.86 22.4a.61.61 0 1 0-.87-.87.61.61 0 0 0 .87.87ZM27.26 25.8a.76.76 0 1 0-1.08-1.08.76.76 0 0 0 1.08 1.08ZM30.67 29.2a.91.91 0 1 0-1.3-1.28.91.91 0 0 0 1.3 1.28ZM34.07 32.6a1.06 1.06 0 1 0-1.5-1.5 1.06 1.06 0 0 0 1.5 1.5ZM37.47 36a1.2 1.2 0 1 0-1.7-1.7 1.2 1.2 0 0 0 1.7 1.7ZM40.87 39.41a1.36 1.36 0 1 0-1.92-1.92 1.36 1.36 0 0 0 1.92 1.92ZM44.28 42.81a1.5 1.5 0 1 0-2.13-2.12 1.5 1.5 0 0 0 2.13 2.12ZM47.68 46.22a1.65 1.65 0 1 0-2.34-2.34 1.65 1.65 0 0 0 2.34 2.34ZM50.98 49.51a1.65 1.65 0 1 0-2.34-2.34 1.65 1.65 0 0 0 2.34 2.34ZM54.17 52.7a1.5 1.5 0 1 0-2.13-2.12 1.5 1.5 0 0 0 2.13 2.13ZM57.36 55.9a1.36 1.36 0 1 0-1.92-1.92 1.36 1.36 0 0 0 1.92 1.92ZM60.55 59.09a1.2 1.2 0 1 0-1.7-1.7 1.2 1.2 0 0 0 1.7 1.7ZM63.74 62.28a1.06 1.06 0 1 0-1.5-1.5 1.06 1.06 0 0 0 1.5 1.5ZM66.94 65.48a.91.91 0 1 0-1.3-1.3.91.91 0 0 0 1.3 1.3ZM70.13 68.67a.76.76 0 1 0-1.08-1.08.76.76 0 0 0 1.08 1.08ZM73.32 71.86a.61.61 0 1 0-.87-.87.61.61 0 0 0 .87.87ZM76.51 75.05a.47.47 0 1 0-.65-.66.47.47 0 0 0 .65.66ZM79.7 78.24a.32.32 0 1 0-.44-.44.32.32 0 0 0 .45.44ZM20.35 12.29a.3.3 0 1 0-.44-.43.3.3 0 0 0 .44.43ZM23.74 15.68a.44.44 0 1 0-.62-.62.44.44 0 0 0 .62.62ZM27.13 19.07a.57.57 0 1 0-.81-.8.57.57 0 0 0 .8.8ZM30.52 22.46a.7.7 0 1 0-1-1 .7.7 0 0 0 1 1ZM33.91 25.86a.84.84 0 1 0-1.18-1.2.84.84 0 0 0 1.18 1.2ZM37.3 29.25a.97.97 0 1 0-1.37-1.38.97.97 0 0 0 1.37 1.38ZM40.7 32.64a1.1 1.1 0 1 0-1.57-1.56 1.1 1.1 0 0 0 1.56 1.56ZM44.09 36.03a1.24 1.24 0 1 0-1.75-1.75 1.24 1.24 0 0 0 1.75 1.75ZM47.48 39.42a1.37 1.37 0 1 0-1.94-1.94 1.37 1.37 0 0 0 1.94 1.94ZM50.87 42.81a1.5 1.5 0 1 0-2.13-2.12 1.5 1.5 0 0 0 2.13 2.12ZM54.17 46.11a1.5 1.5 0 1 0-2.13-2.13 1.5 1.5 0 0 0 2.13 2.13ZM57.37 49.32a1.37 1.37 0 1 0-1.94-1.95 1.37 1.37 0 0 0 1.94 1.95ZM60.57 52.52a1.24 1.24 0 1 0-1.75-1.75 1.24 1.24 0 0 0 1.75 1.75ZM63.77 55.72a1.1 1.1 0 1 0-1.55-1.56 1.1 1.1 0 0 0 1.55 1.56ZM66.98 58.92a.97.97 0 1 0-1.37-1.37.97.97 0 0 0 1.37 1.37ZM70.18 62.13A.84.84 0 1 0 69 60.94a.84.84 0 0 0 1.18 1.19ZM73.39 65.33a.7.7 0 1 0-1-1 .7.7 0 0 0 1 1ZM76.59 68.53a.57.57 0 1 0-.81-.8.57.57 0 0 0 .81.8ZM79.8 71.73a.44.44 0 1 0-.63-.61.44.44 0 0 0 .62.61ZM83 74.94a.3.3 0 1 0-.44-.43.3.3 0 0 0 .44.43ZM23.63 8.98a.29.29 0 1 0-.4-.4.29.29 0 0 0 .4.4ZM27.01 12.36a.4.4 0 1 0-.57-.57.4.4 0 0 0 .57.57ZM30.4 15.74a.53.53 0 1 0-.75-.74.53.53 0 0 0 .74.74ZM33.77 19.12a.64.64 0 1 0-.9-.9.64.64 0 0 0 .9.9ZM37.16 22.5a.76.76 0 1 0-1.08-1.07.76.76 0 0 0 1.08 1.07ZM40.54 25.89a.88.88 0 1 0-1.25-1.25.88.88 0 0 0 1.25 1.25ZM43.92 29.27a1 1 0 1 0-1.42-1.42 1 1 0 0 0 1.42 1.42ZM47.3 32.65a1.12 1.12 0 1 0-1.58-1.58 1.12 1.12 0 0 0 1.58 1.58ZM50.68 36.03a1.24 1.24 0 1 0-1.75-1.75 1.24 1.24 0 0 0 1.75 1.75ZM54.06 39.41a1.36 1.36 0 1 0-1.92-1.92 1.36 1.36 0 0 0 1.92 1.92ZM57.36 42.7a1.36 1.36 0 1 0-1.92-1.91 1.36 1.36 0 0 0 1.92 1.92ZM60.57 45.92a1.24 1.24 0 1 0-1.75-1.75 1.24 1.24 0 0 0 1.75 1.75ZM63.79 49.14a1.12 1.12 0 1 0-1.59-1.59 1.12 1.12 0 0 0 1.59 1.59ZM67 52.35a1 1 0 1 0-1.41-1.42A1 1 0 0 0 67 52.35ZM70.21 55.56a.88.88 0 1 0-1.24-1.24.88.88 0 0 0 1.24 1.24ZM73.43 58.78a.76.76 0 1 0-1.08-1.08.76.76 0 0 0 1.08 1.08ZM76.64 61.99a.64.64 0 1 0-.91-.91.64.64 0 0 0 .91.9ZM79.85 65.2a.53.53 0 1 0-.74-.74.53.53 0 0 0 .74.74ZM83.07 68.42a.4.4 0 1 0-.58-.58.4.4 0 0 0 .58.58ZM86.28 71.63a.29.29 0 1 0-.4-.4.29.29 0 0 0 .4.4ZM30.29 9.04a.38.38 0 1 0-.53-.53.38.38 0 0 0 .53.53ZM33.66 12.41a.48.48 0 1 0-.68-.68.48.48 0 0 0 .68.68ZM37.03 15.78a.59.59 0 1 0-.83-.82.59.59 0 0 0 .83.82ZM40.4 19.16a.7.7 0 1 0-.97-.98.7.7 0 0 0 .97.98ZM43.77 22.53a.8.8 0 1 0-1.12-1.13.8.8 0 0 0 1.12 1.13ZM47.14 25.9a.9.9 0 1 0-1.26-1.27.9.9 0 0 0 1.26 1.27ZM50.51 29.27a1 1 0 1 0-1.41-1.42 1 1 0 0 0 1.41 1.42ZM53.89 32.64a1.1 1.1 0 1 0-1.57-1.57 1.1 1.1 0 0 0 1.57 1.57ZM57.26 36a1.2 1.2 0 1 0-1.71-1.7 1.2 1.2 0 0 0 1.7 1.7ZM60.55 39.3a1.2 1.2 0 1 0-1.7-1.7 1.2 1.2 0 0 0 1.7 1.7ZM63.78 42.53a1.1 1.1 0 1 0-1.57-1.56 1.1 1.1 0 0 0 1.57 1.56ZM67 45.75a1 1 0 1 0-1.41-1.41A1 1 0 0 0 67 45.75ZM70.22 48.98a.9.9 0 1 0-1.26-1.27.9.9 0 0 0 1.26 1.27ZM73.45 52.2a.8.8 0 1 0-1.12-1.12.8.8 0 0 0 1.12 1.12ZM76.67 55.43a.7.7 0 1 0-.97-.98.7.7 0 0 0 .97.98ZM79.9 58.65a.59.59 0 1 0-.83-.83.59.59 0 0 0 .83.83ZM83.12 61.87a.48.48 0 1 0-.68-.68.48.48 0 0 0 .68.68ZM86.34 65.1a.38.38 0 1 0-.53-.54.38.38 0 0 0 .53.54ZM33.57 5.72a.35.35 0 1 0-.5-.49.35.35 0 0 0 .5.5ZM36.93 9.08a.44.44 0 1 0-.62-.61.44.44 0 0 0 .62.61ZM40.29 12.44a.53.53 0 1 0-.75-.74.53.53 0 0 0 .75.74ZM43.65 15.8a.61.61 0 1 0-.87-.86.61.61 0 0 0 .87.87ZM47 19.17a.7.7 0 1 0-.99-1 .7.7 0 0 0 1 1ZM50.37 22.53a.8.8 0 1 0-1.12-1.13.8.8 0 0 0 1.12 1.13ZM53.73 25.89a.88.88 0 1 0-1.25-1.25.88.88 0 0 0 1.25 1.25ZM57.09 29.25a.97.97 0 1 0-1.38-1.38.97.97 0 0 0 1.38 1.38ZM60.45 32.6a1.06 1.06 0 1 0-1.5-1.5 1.06 1.06 0 0 0 1.5 1.5ZM63.74 35.9a1.06 1.06 0 1 0-1.5-1.5 1.06 1.06 0 0 0 1.5 1.5ZM66.98 39.14a.97.97 0 1 0-1.37-1.37.97.97 0 0 0 1.37 1.37ZM70.21 42.37a.88.88 0 1 0-1.24-1.24.88.88 0 0 0 1.24 1.24ZM73.45 45.6a.8.8 0 1 0-1.12-1.11.8.8 0 0 0 1.12 1.12ZM76.68 48.84a.7.7 0 1 0-1-1 .7.7 0 0 0 1 1ZM79.92 52.08a.61.61 0 1 0-.87-.87.61.61 0 0 0 .87.87ZM83.15 55.31a.53.53 0 1 0-.74-.74.53.53 0 0 0 .74.74ZM86.39 58.54a.44.44 0 1 0-.62-.61.44.44 0 0 0 .62.61ZM89.62 61.78a.35.35 0 1 0-.5-.5.35.35 0 0 0 .5.5ZM40.2 5.76a.4.4 0 1 0-.56-.56.4.4 0 0 0 .55.56ZM43.54 9.1a.47.47 0 1 0-.66-.65.47.47 0 0 0 .66.66ZM46.89 12.45a.54.54 0 1 0-.76-.76.54.54 0 0 0 .76.76ZM50.24 15.8a.61.61 0 1 0-.87-.86.61.61 0 0 0 .87.87ZM53.6 19.16a.7.7 0 1 0-.99-.98.7.7 0 0 0 .98.98ZM56.94 22.5a.76.76 0 1 0-1.08-1.07.76.76 0 0 0 1.08 1.07ZM60.3 25.86a.84.84 0 1 0-1.2-1.2.84.84 0 0 0 1.2 1.2ZM63.64 29.2a.91.91 0 1 0-1.29-1.28.91.91 0 0 0 1.29 1.28ZM66.94 32.5a.91.91 0 1 0-1.3-1.29.91.91 0 0 0 1.3 1.3ZM70.18 35.75A.84.84 0 1 0 69 34.56a.84.84 0 0 0 1.18 1.19ZM73.43 39a.76.76 0 1 0-1.08-1.09.76.76 0 0 0 1.08 1.08ZM76.67 42.24a.7.7 0 1 0-.97-.98.7.7 0 0 0 .97.98ZM79.92 45.48a.61.61 0 1 0-.87-.87.61.61 0 0 0 .87.87ZM83.16 48.72a.54.54 0 1 0-.76-.76.54.54 0 0 0 .76.76ZM86.4 51.97a.47.47 0 1 0-.65-.66.47.47 0 0 0 .66.66ZM89.65 55.22a.4.4 0 1 0-.55-.56.4.4 0 0 0 .55.56ZM43.46 2.43a.35.35 0 1 0-.5-.5.35.35 0 0 0 .5.5ZM46.8 5.77a.4.4 0 1 0-.58-.58.4.4 0 0 0 .58.58ZM50.14 9.1a.47.47 0 1 0-.66-.65.47.47 0 0 0 .66.66ZM53.48 12.44a.53.53 0 1 0-.75-.74.53.53 0 0 0 .75.74ZM56.81 15.78a.59.59 0 1 0-.82-.82.59.59 0 0 0 .82.82ZM60.15 19.12a.64.64 0 1 0-.9-.9.64.64 0 0 0 .9.9ZM63.5 22.46a.7.7 0 1 0-1-1 .7.7 0 0 0 1 1ZM66.83 25.8a.76.76 0 1 0-1.08-1.08.76.76 0 0 0 1.08 1.08ZM70.13 29.1a.76.76 0 1 0-1.08-1.08.76.76 0 0 0 1.08 1.08ZM73.39 32.35a.7.7 0 1 0-1-.99.7.7 0 0 0 1 1ZM76.64 35.61a.64.64 0 1 0-.91-.91.64.64 0 0 0 .91.91ZM79.9 38.87a.59.59 0 1 0-.83-.83.59.59 0 0 0 .83.83ZM83.15 42.12a.53.53 0 1 0-.74-.74.53.53 0 0 0 .74.74ZM86.4 45.38a.47.47 0 1 0-.65-.66.47.47 0 0 0 .66.66ZM89.66 48.63a.4.4 0 1 0-.57-.57.4.4 0 0 0 .57.57ZM92.92 51.89a.35.35 0 1 0-.5-.5.35.35 0 0 0 .5.5ZM50.05 2.43a.35.35 0 1 0-.49-.5.35.35 0 0 0 .5.5ZM53.38 5.76a.4.4 0 1 0-.56-.56.4.4 0 0 0 .56.56ZM56.71 9.08a.44.44 0 1 0-.62-.61.44.44 0 0 0 .62.61ZM60.04 12.41a.48.48 0 1 0-.68-.68.48.48 0 0 0 .68.68ZM63.37 15.74a.53.53 0 1 0-.75-.74.53.53 0 0 0 .75.74ZM66.7 19.07a.57.57 0 1 0-.81-.8.57.57 0 0 0 .8.8ZM70.02 22.4a.61.61 0 1 0-.86-.87.61.61 0 0 0 .86.87ZM73.32 25.7a.61.61 0 1 0-.87-.87.61.61 0 0 0 .87.87ZM76.59 28.96a.57.57 0 1 0-.81-.8.57.57 0 0 0 .81.8ZM79.85 32.23a.53.53 0 1 0-.74-.74.53.53 0 0 0 .74.74ZM83.12 35.5a.48.48 0 1 0-.68-.68.48.48 0 0 0 .68.67ZM86.39 38.76a.44.44 0 1 0-.62-.62.44.44 0 0 0 .62.62ZM89.65 42.03a.4.4 0 1 0-.55-.56.4.4 0 0 0 .55.56ZM92.92 45.3a.35.35 0 1 0-.5-.5.35.35 0 0 0 .5.5ZM59.94 5.72a.35.35 0 1 0-.49-.49.35.35 0 0 0 .5.5ZM63.26 9.04a.38.38 0 1 0-.53-.53.38.38 0 0 0 .53.53ZM66.58 12.36a.4.4 0 1 0-.57-.57.4.4 0 0 0 .57.57ZM69.9 15.68a.44.44 0 1 0-.62-.62.44.44 0 0 0 .62.62ZM73.22 19a.47.47 0 1 0-.66-.66.47.47 0 0 0 .66.66ZM76.51 22.3a.47.47 0 1 0-.65-.66.47.47 0 0 0 .65.65ZM79.8 25.57a.44.44 0 1 0-.63-.62.44.44 0 0 0 .62.62ZM83.07 28.85a.4.4 0 1 0-.58-.58.4.4 0 0 0 .58.58ZM86.34 32.12a.38.38 0 1 0-.53-.53.38.38 0 0 0 .53.53ZM89.62 35.4a.35.35 0 1 0-.5-.5.35.35 0 0 0 .5.5ZM69.8 8.98a.29.29 0 1 0-.41-.4.29.29 0 0 0 .4.4ZM73.1 12.29a.3.3 0 1 0-.43-.43.3.3 0 0 0 .43.43ZM76.41 15.6a.32.32 0 1 0-.45-.45.32.32 0 0 0 .45.45ZM79.7 18.9a.32.32 0 1 0-.44-.46.32.32 0 0 0 .45.45ZM83 22.18a.3.3 0 1 0-.44-.43.3.3 0 0 0 .44.43ZM86.28 25.47a.29.29 0 1 0-.4-.41.29.29 0 0 0 .4.4ZM21.61 86.7a.29.29 0 1 0-.55-.17.29.29 0 0 0 .55.18ZM26.05 88.2a.3.3 0 1 0-.58-.2.3.3 0 0 0 .58.2ZM30.48 89.7a.32.32 0 1 0-.6-.21.32.32 0 0 0 .6.2ZM34.9 91.18a.32.32 0 1 0-.6-.2.32.32 0 0 0 .6.2ZM39.3 92.66a.3.3 0 1 0-.57-.2.3.3 0 0 0 .58.2Z"/><path d="M43.7 94.14a.29.29 0 1 0-.54-.18.29.29 0 0 0 .55.18ZM14.31 79.33a.35.35 0 1 0-.66-.22.35.35 0 0 0 .66.22ZM18.76 80.83a.38.38 0 1 0-.71-.24.38.38 0 0 0 .71.24ZM23.2 82.33a.4.4 0 1 0-.76-.26.4.4 0 0 0 .77.26ZM27.66 83.82a.44.44 0 1 0-.83-.28.44.44 0 0 0 .83.28ZM32.1 85.32a.47.47 0 1 0-.88-.3.47.47 0 0 0 .88.3ZM36.52 86.8a.47.47 0 1 0-.88-.3.47.47 0 0 0 .88.3ZM40.92 88.28a.44.44 0 1 0-.83-.28.44.44 0 0 0 .83.28ZM45.3 89.76a.4.4 0 1 0-.76-.26.4.4 0 0 0 .77.26ZM49.7 91.24a.38.38 0 1 0-.72-.24.38.38 0 0 0 .72.24ZM54.1 92.71a.35.35 0 1 0-.67-.22.35.35 0 0 0 .66.22ZM6.96 71.94a.35.35 0 1 0-.66-.22.35.35 0 0 0 .66.22ZM11.42 73.44a.4.4 0 1 0-.74-.25.4.4 0 0 0 .74.25ZM15.88 74.94a.44.44 0 1 0-.82-.28.44.44 0 0 0 .82.28ZM20.34 76.44a.48.48 0 1 0-.9-.3.48.48 0 0 0 .9.3ZM24.8 77.94a.53.53 0 1 0-.99-.33.53.53 0 0 0 1 .33ZM29.27 79.45a.57.57 0 1 0-1.08-.37.57.57 0 0 0 1.08.37ZM33.73 80.95a.61.61 0 1 0-1.16-.4.61.61 0 0 0 1.16.4ZM38.15 82.43a.61.61 0 1 0-1.16-.39.61.61 0 0 0 1.16.4ZM42.53 83.9a.57.57 0 1 0-1.08-.36.57.57 0 0 0 1.08.37ZM46.9 85.38a.53.53 0 1 0-.99-.34.53.53 0 0 0 1 .34ZM51.28 86.85a.48.48 0 1 0-.9-.3.48.48 0 0 0 .9.3ZM55.66 88.32a.44.44 0 1 0-.83-.28.44.44 0 0 0 .83.28ZM60.04 89.8a.4.4 0 1 0-.75-.26.4.4 0 0 0 .75.25ZM64.42 91.27a.35.35 0 1 0-.66-.23.35.35 0 0 0 .66.23ZM4.03 66.04a.35.35 0 1 0-.66-.23.35.35 0 0 0 .66.23ZM8.5 67.54a.4.4 0 1 0-.77-.26.4.4 0 0 0 .77.26ZM12.98 69.05a.47.47 0 1 0-.89-.3.47.47 0 0 0 .89.3ZM17.45 70.55a.53.53 0 1 0-1-.33.53.53 0 0 0 1 .33ZM21.93 72.06a.58.58 0 1 0-1.1-.38.58.58 0 0 0 1.1.38ZM26.4 73.56a.64.64 0 1 0-1.21-.4.64.64 0 0 0 1.22.4ZM30.88 75.07a.7.7 0 1 0-1.33-.45.7.7 0 0 0 1.33.45ZM35.36 76.57a.76.76 0 1 0-1.45-.48.76.76 0 0 0 1.45.48ZM39.78 78.06a.76.76 0 1 0-1.45-.49.76.76 0 0 0 1.45.49ZM44.14 79.53a.7.7 0 1 0-1.33-.45.7.7 0 0 0 1.33.45ZM48.5 81a.64.64 0 1 0-1.22-.42.64.64 0 0 0 1.23.42ZM52.87 82.46a.58.58 0 1 0-1.1-.37.58.58 0 0 0 1.1.37ZM57.23 83.93a.53.53 0 1 0-1-.33.53.53 0 0 0 1 .33ZM61.6 85.4a.47.47 0 1 0-.89-.3.47.47 0 0 0 .89.3ZM65.96 86.87a.4.4 0 1 0-.77-.26.4.4 0 0 0 .77.26ZM70.32 88.33a.35.35 0 1 0-.65-.22.35.35 0 0 0 .65.22ZM5.56 61.63a.4.4 0 1 0-.75-.25.4.4 0 0 0 .75.25ZM10.05 63.14a.47.47 0 1 0-.89-.3.47.47 0 0 0 .89.3ZM14.53 64.65a.54.54 0 1 0-1.02-.34.54.54 0 0 0 1.02.34ZM19.03 66.16a.61.61 0 1 0-1.17-.4.61.61 0 0 0 1.17.4ZM23.52 67.67a.7.7 0 1 0-1.31-.44.7.7 0 0 0 1.3.44ZM28 69.18a.76.76 0 1 0-1.44-.49.76.76 0 0 0 1.45.5ZM32.5 70.7a.84.84 0 1 0-1.6-.54.84.84 0 0 0 1.6.53ZM36.99 72.2a.91.91 0 1 0-1.73-.58.91.91 0 0 0 1.73.58ZM41.4 73.69a.91.91 0 1 0-1.72-.58.91.91 0 0 0 1.73.58ZM45.76 75.15a.84.84 0 1 0-1.6-.53.84.84 0 0 0 1.6.53ZM50.1 76.61a.76.76 0 1 0-1.44-.48.76.76 0 0 0 1.45.48ZM54.46 78.08a.7.7 0 1 0-1.31-.44.7.7 0 0 0 1.3.44ZM58.8 79.54a.61.61 0 1 0-1.16-.4.61.61 0 0 0 1.16.4ZM63.15 81a.54.54 0 1 0-1.02-.34.54.54 0 0 0 1.02.34ZM67.5 82.46a.47.47 0 1 0-.88-.3.47.47 0 0 0 .88.3ZM71.86 83.93a.4.4 0 1 0-.75-.25.4.4 0 0 0 .75.25ZM2.58 55.7a.35.35 0 1 0-.66-.21.35.35 0 0 0 .66.22ZM7.08 57.22a.44.44 0 1 0-.82-.27.44.44 0 0 0 .82.27ZM11.59 58.74a.53.53 0 1 0-1-.34.53.53 0 0 0 1 .34ZM16.1 60.25a.61.61 0 1 0-1.17-.39.61.61 0 0 0 1.16.4ZM20.6 61.77a.7.7 0 1 0-1.34-.45.7.7 0 0 0 1.34.45ZM25.1 63.28a.8.8 0 1 0-1.5-.5.8.8 0 0 0 1.5.5ZM29.6 64.8a.88.88 0 1 0-1.67-.56.88.88 0 0 0 1.68.56ZM34.1 66.31a.97.97 0 1 0-1.83-.62.97.97 0 0 0 1.84.62ZM38.61 67.83a1.06 1.06 0 1 0-2-.68 1.06 1.06 0 0 0 2 .68ZM43.03 69.31a1.06 1.06 0 1 0-2-.67 1.06 1.06 0 0 0 2 .67ZM47.37 70.77a.97.97 0 1 0-1.84-.62.97.97 0 0 0 1.84.62ZM51.7 72.23a.88.88 0 1 0-1.67-.56.88.88 0 0 0 1.67.56ZM56.04 73.69a.8.8 0 1 0-1.5-.5.8.8 0 0 0 1.5.5ZM60.38 75.15a.7.7 0 1 0-1.34-.45.7.7 0 0 0 1.34.45ZM64.71 76.6a.61.61 0 1 0-1.16-.39.61.61 0 0 0 1.16.4ZM69.05 78.06a.53.53 0 1 0-1-.33.53.53 0 0 0 1 .33ZM73.38 79.52a.44.44 0 1 0-.83-.28.44.44 0 0 0 .83.28ZM77.72 80.98a.35.35 0 1 0-.66-.22.35.35 0 0 0 .66.22ZM4.1 51.3a.38.38 0 1 0-.72-.24.38.38 0 0 0 .71.24ZM8.61 52.82a.48.48 0 1 0-.9-.3.48.48 0 0 0 .9.3ZM13.13 54.34a.58.58 0 1 0-1.1-.37.58.58 0 0 0 1.1.37ZM17.65 55.86a.7.7 0 1 0-1.3-.44.7.7 0 0 0 1.3.44ZM22.17 57.38a.8.8 0 1 0-1.5-.5.8.8 0 0 0 1.5.5ZM26.68 58.9a.9.9 0 1 0-1.7-.57.9.9 0 0 0 1.7.57ZM31.2 60.42a1 1 0 1 0-1.9-.64 1 1 0 0 0 1.9.64ZM35.72 61.94a1.1 1.1 0 1 0-2.1-.7 1.1 1.1 0 0 0 2.1.7ZM40.24 63.46a1.2 1.2 0 1 0-2.29-.77 1.2 1.2 0 0 0 2.3.77ZM44.66 64.94a1.2 1.2 0 1 0-2.29-.77 1.2 1.2 0 0 0 2.3.77ZM48.98 66.4a1.1 1.1 0 1 0-2.1-.7 1.1 1.1 0 0 0 2.1.7ZM53.3 67.85a1 1 0 1 0-1.9-.64 1 1 0 0 0 1.9.64ZM57.62 69.3a.9.9 0 1 0-1.7-.57.9.9 0 0 0 1.7.57ZM61.95 70.76a.8.8 0 1 0-1.5-.51.8.8 0 0 0 1.5.5ZM66.27 72.21a.7.7 0 1 0-1.31-.44.7.7 0 0 0 1.31.44ZM70.59 73.66a.59.59 0 1 0-1.11-.37.59.59 0 0 0 1.1.37ZM74.9 75.12a.48.48 0 1 0-.9-.31.48.48 0 0 0 .9.3ZM79.23 76.57a.38.38 0 1 0-.71-.24.38.38 0 0 0 .71.24ZM1.08 45.36a.29.29 0 1 0-.55-.18.29.29 0 0 0 .55.18ZM5.6 46.89a.4.4 0 1 0-.76-.26.4.4 0 0 0 .77.26ZM10.14 48.41a.53.53 0 1 0-1-.33.53.53 0 0 0 1 .33ZM14.67 49.94a.64.64 0 1 0-1.22-.41.64.64 0 0 0 1.22.4ZM19.2 51.46a.76.76 0 1 0-1.44-.49.76.76 0 0 0 1.45.5ZM23.74 52.99a.88.88 0 1 0-1.67-.57.88.88 0 0 0 1.67.57ZM28.27 54.51a1 1 0 1 0-1.9-.64 1 1 0 0 0 1.9.64ZM32.8 56.03a1.12 1.12 0 1 0-2.12-.7 1.12 1.12 0 0 0 2.12.7ZM37.34 57.56a1.24 1.24 0 1 0-2.35-.79 1.24 1.24 0 0 0 2.35.79ZM41.87 59.08a1.36 1.36 0 1 0-2.57-.86 1.36 1.36 0 0 0 2.57.86ZM46.29 60.57a1.36 1.36 0 1 0-2.57-.87 1.36 1.36 0 0 0 2.57.87ZM50.6 62.02a1.24 1.24 0 1 0-2.35-.8 1.24 1.24 0 0 0 2.35.8ZM54.9 63.47a1.12 1.12 0 1 0-2.12-.72 1.12 1.12 0 0 0 2.12.72ZM59.21 64.92a1 1 0 1 0-1.9-.64 1 1 0 0 0 1.9.64ZM63.52 66.36a.88.88 0 1 0-1.67-.56.88.88 0 0 0 1.67.56ZM67.82 67.81a.76.76 0 1 0-1.44-.48.76.76 0 0 0 1.44.48ZM72.13 69.26a.64.64 0 1 0-1.22-.4.64.64 0 0 0 1.22.4ZM76.44 70.71a.53.53 0 1 0-1-.33.53.53 0 0 0 1 .33ZM80.75 72.16a.4.4 0 1 0-.77-.26.4.4 0 0 0 .77.26ZM85.05 73.6a.29.29 0 1 0-.54-.18.29.29 0 0 0 .54.19ZM2.58 40.95a.3.3 0 1 0-.58-.2.3.3 0 0 0 .58.2ZM7.12 42.48a.44.44 0 1 0-.82-.28.44.44 0 0 0 .82.28ZM11.67 44a.57.57 0 1 0-1.08-.36.57.57 0 0 0 1.08.37ZM16.22 45.54a.7.7 0 1 0-1.34-.45.7.7 0 0 0 1.34.45ZM20.76 47.07a.84.84 0 1 0-1.59-.54.84.84 0 0 0 1.6.54ZM25.3 48.6a.97.97 0 1 0-1.83-.62.97.97 0 0 0 1.84.61ZM29.85 50.12a1.1 1.1 0 1 0-2.09-.7 1.1 1.1 0 0 0 2.1.7ZM34.4 51.65a1.24 1.24 0 1 0-2.34-.79 1.24 1.24 0 0 0 2.34.8ZM38.95 53.18a1.37 1.37 0 1 0-2.6-.87 1.37 1.37 0 0 0 2.6.87ZM43.5 54.71a1.5 1.5 0 1 0-2.86-.96 1.5 1.5 0 0 0 2.85.96ZM47.91 56.2a1.5 1.5 0 1 0-2.85-.96 1.5 1.5 0 0 0 2.85.96ZM52.21 57.64a1.37 1.37 0 1 0-2.6-.87 1.37 1.37 0 0 0 2.6.87ZM56.5 59.09a1.24 1.24 0 1 0-2.35-.8 1.24 1.24 0 0 0 2.35.8ZM60.8 60.53a1.1 1.1 0 1 0-2.1-.7 1.1 1.1 0 0 0 2.1.7ZM65.09 61.97a.97.97 0 1 0-1.84-.62.97.97 0 0 0 1.84.62ZM69.38 63.42a.84.84 0 1 0-1.59-.54.84.84 0 0 0 1.6.54ZM73.67 64.86a.7.7 0 1 0-1.33-.45.7.7 0 0 0 1.33.45ZM77.97 66.3a.57.57 0 1 0-1.08-.36.57.57 0 0 0 1.08.37ZM82.26 67.75a.44.44 0 1 0-.83-.28.44.44 0 0 0 .83.28ZM86.56 69.2a.3.3 0 1 0-.58-.2.3.3 0 0 0 .58.2ZM4.08 36.53a.32.32 0 1 0-.6-.2.32.32 0 0 0 .6.2ZM8.64 38.07a.47.47 0 1 0-.89-.3.47.47 0 0 0 .89.3ZM13.2 39.6a.61.61 0 1 0-1.17-.4.61.61 0 0 0 1.17.4ZM17.76 41.14a.76.76 0 1 0-1.45-.5.76.76 0 0 0 1.45.5ZM22.32 42.67a.91.91 0 1 0-1.73-.58.91.91 0 0 0 1.73.58ZM26.88 44.2a1.06 1.06 0 1 0-2-.67 1.06 1.06 0 0 0 2 .67ZM31.44 45.74a1.2 1.2 0 1 0-2.29-.77 1.2 1.2 0 0 0 2.3.77ZM36 47.27a1.36 1.36 0 1 0-2.57-.86 1.36 1.36 0 0 0 2.57.86ZM40.56 48.8a1.5 1.5 0 1 0-2.85-.96 1.5 1.5 0 0 0 2.85.96ZM45.12 50.34A1.65 1.65 0 1 0 42 49.28a1.65 1.65 0 0 0 3.13 1.06ZM49.54 51.82a1.65 1.65 0 1 0-3.13-1.05 1.65 1.65 0 0 0 3.13 1.05ZM53.82 53.26a1.5 1.5 0 1 0-2.85-.96 1.5 1.5 0 0 0 2.85.96ZM58.1 54.7a1.36 1.36 0 1 0-2.57-.86 1.36 1.36 0 0 0 2.57.86ZM62.38 56.14a1.2 1.2 0 1 0-2.29-.77 1.2 1.2 0 0 0 2.29.77ZM66.66 57.58a1.06 1.06 0 1 0-2.01-.67 1.06 1.06 0 0 0 2 .67ZM70.94 59.02a.91.91 0 1 0-1.73-.58.91.91 0 0 0 1.73.58ZM75.22 60.46a.76.76 0 1 0-1.45-.49.76.76 0 0 0 1.45.49ZM79.5 61.9a.61.61 0 1 0-1.17-.4.61.61 0 0 0 1.17.4ZM83.78 63.34a.47.47 0 1 0-.89-.3.47.47 0 0 0 .89.3ZM88.06 64.78a.32.32 0 1 0-.6-.2.32.32 0 0 0 .6.2ZM5.56 32.11a.32.32 0 1 0-.6-.2.32.32 0 0 0 .6.2ZM10.12 33.65a.47.47 0 1 0-.88-.3.47.47 0 0 0 .88.3ZM14.69 35.18a.61.61 0 1 0-1.17-.39.61.61 0 0 0 1.17.4ZM19.25 36.72a.76.76 0 1 0-1.45-.5.76.76 0 0 0 1.45.5ZM23.8 38.25a.91.91 0 1 0-1.72-.58.91.91 0 0 0 1.73.58ZM28.37 39.78a1.06 1.06 0 1 0-2.01-.67 1.06 1.06 0 0 0 2 .67ZM32.93 41.32a1.2 1.2 0 1 0-2.3-.77 1.2 1.2 0 0 0 2.3.77ZM37.49 42.85a1.36 1.36 0 1 0-2.57-.86 1.36 1.36 0 0 0 2.57.86ZM42.05 44.38a1.5 1.5 0 1 0-2.85-.96 1.5 1.5 0 0 0 2.85.96ZM46.6 45.92a1.65 1.65 0 1 0-3.13-1.06 1.65 1.65 0 0 0 3.14 1.06ZM51.03 47.4a1.65 1.65 0 1 0-3.14-1.05 1.65 1.65 0 0 0 3.14 1.05ZM55.3 48.84a1.5 1.5 0 1 0-2.85-.96 1.5 1.5 0 0 0 2.86.96ZM59.59 50.28a1.36 1.36 0 1 0-2.57-.86 1.36 1.36 0 0 0 2.57.86ZM63.87 51.72a1.2 1.2 0 1 0-2.3-.77 1.2 1.2 0 0 0 2.3.77ZM68.15 53.16a1.06 1.06 0 1 0-2.01-.67 1.06 1.06 0 0 0 2 .67ZM72.42 54.6a.91.91 0 1 0-1.72-.58.91.91 0 0 0 1.72.58ZM76.7 56.04a.76.76 0 1 0-1.44-.49.76.76 0 0 0 1.44.49ZM80.98 57.48a.61.61 0 1 0-1.16-.4.61.61 0 0 0 1.16.4ZM85.26 58.92a.47.47 0 1 0-.88-.3.47.47 0 0 0 .88.3ZM89.54 60.36a.32.32 0 1 0-.6-.2.32.32 0 0 0 .6.2ZM7.04 27.69a.3.3 0 1 0-.58-.2.3.3 0 0 0 .58.2ZM11.58 29.22a.44.44 0 1 0-.82-.28.44.44 0 0 0 .82.28ZM16.13 30.75a.57.57 0 1 0-1.08-.37.57.57 0 0 0 1.08.37ZM20.68 32.28a.7.7 0 1 0-1.34-.45.7.7 0 0 0 1.34.45ZM25.22 33.8a.84.84 0 1 0-1.59-.53.84.84 0 0 0 1.6.54ZM29.77 35.33a.97.97 0 1 0-1.84-.61.97.97 0 0 0 1.84.61ZM34.31 36.86a1.1 1.1 0 1 0-2.09-.7 1.1 1.1 0 0 0 2.1.7ZM38.86 38.4a1.24 1.24 0 1 0-2.34-.8 1.24 1.24 0 0 0 2.34.8ZM43.41 39.92a1.37 1.37 0 1 0-2.6-.87 1.37 1.37 0 0 0 2.6.87ZM47.95 41.45a1.5 1.5 0 1 0-2.85-.96 1.5 1.5 0 0 0 2.85.96ZM52.37 42.94a1.5 1.5 0 1 0-2.85-.96 1.5 1.5 0 0 0 2.85.96ZM56.67 44.38a1.37 1.37 0 1 0-2.6-.87 1.37 1.37 0 0 0 2.6.87ZM60.96 45.83a1.24 1.24 0 1 0-2.35-.8 1.24 1.24 0 0 0 2.35.8ZM65.25 47.27a1.1 1.1 0 1 0-2.09-.7 1.1 1.1 0 0 0 2.1.7ZM69.55 48.71a.97.97 0 1 0-1.84-.62.97.97 0 0 0 1.84.62ZM73.84 50.16a.84.84 0 1 0-1.59-.54.84.84 0 0 0 1.6.54ZM78.13 51.6a.7.7 0 1 0-1.33-.45.7.7 0 0 0 1.33.45ZM82.43 53.05a.57.57 0 1 0-1.09-.37.57.57 0 0 0 1.09.37ZM86.72 54.49a.44.44 0 1 0-.83-.28.44.44 0 0 0 .83.28ZM91.02 55.93a.3.3 0 1 0-.58-.2.3.3 0 0 0 .58.2ZM8.5 23.26a.29.29 0 1 0-.54-.18.29.29 0 0 0 .55.18ZM13.04 24.79a.4.4 0 1 0-.77-.26.4.4 0 0 0 .77.26ZM17.57 26.31a.53.53 0 1 0-1-.33.53.53 0 0 0 1 .33ZM22.1 27.84a.64.64 0 1 0-1.21-.41.64.64 0 0 0 1.22.4ZM26.64 29.36a.76.76 0 1 0-1.45-.48.76.76 0 0 0 1.45.48ZM31.17 30.89a.88.88 0 1 0-1.67-.57.88.88 0 0 0 1.67.57ZM35.7 32.41a1 1 0 1 0-1.9-.64 1 1 0 0 0 1.9.64ZM40.24 33.94a1.12 1.12 0 1 0-2.13-.72 1.12 1.12 0 0 0 2.13.72ZM44.77 35.46a1.24 1.24 0 1 0-2.35-.79 1.24 1.24 0 0 0 2.35.79ZM49.3 36.98a1.36 1.36 0 1 0-2.57-.86 1.36 1.36 0 0 0 2.57.86ZM53.72 38.47a1.36 1.36 0 1 0-2.57-.86 1.36 1.36 0 0 0 2.57.86ZM58.03 39.92a1.24 1.24 0 1 0-2.35-.79 1.24 1.24 0 0 0 2.35.79ZM62.34 41.37a1.12 1.12 0 1 0-2.13-.72 1.12 1.12 0 0 0 2.13.72ZM66.64 42.82a1 1 0 1 0-1.9-.64 1 1 0 0 0 1.9.64ZM70.95 44.27a.88.88 0 1 0-1.67-.57.88.88 0 0 0 1.67.56ZM75.26 45.71a.76.76 0 1 0-1.45-.48.76.76 0 0 0 1.45.48ZM79.56 47.16a.64.64 0 1 0-1.22-.4.64.64 0 0 0 1.22.4ZM83.87 48.61a.53.53 0 1 0-1-.33.53.53 0 0 0 1 .33ZM88.18 50.06a.4.4 0 1 0-.77-.26.4.4 0 0 0 .77.26ZM92.49 51.5a.29.29 0 1 0-.55-.18.29.29 0 0 0 .55.19ZM14.5 20.36a.38.38 0 1 0-.72-.24.38.38 0 0 0 .72.24ZM19.02 21.88a.48.48 0 1 0-.91-.3.48.48 0 0 0 .9.3ZM23.54 23.4a.59.59 0 1 0-1.11-.37.59.59 0 0 0 1.1.37ZM28.06 24.92a.7.7 0 1 0-1.31-.44.7.7 0 0 0 1.3.44ZM32.57 26.44a.8.8 0 1 0-1.5-.5.8.8 0 0 0 1.5.5ZM37.09 27.96a.9.9 0 1 0-1.7-.57.9.9 0 0 0 1.7.57ZM41.61 29.48a1 1 0 1 0-1.9-.64 1 1 0 0 0 1.9.64ZM46.13 31a1.1 1.1 0 1 0-2.1-.7 1.1 1.1 0 0 0 2.1.7ZM50.65 32.52a1.2 1.2 0 1 0-2.3-.77 1.2 1.2 0 0 0 2.3.77ZM55.07 34a1.2 1.2 0 1 0-2.3-.77 1.2 1.2 0 0 0 2.3.77ZM59.39 35.46a1.1 1.1 0 1 0-2.1-.7 1.1 1.1 0 0 0 2.1.7ZM63.7 36.91a1 1 0 1 0-1.89-.64 1 1 0 0 0 1.9.64ZM68.03 38.36a.9.9 0 1 0-1.7-.57.9.9 0 0 0 1.7.57ZM72.35 39.82a.8.8 0 1 0-1.5-.5.8.8 0 0 0 1.5.5ZM76.68 41.27a.7.7 0 1 0-1.31-.44.7.7 0 0 0 1.3.44ZM81 42.72a.58.58 0 1 0-1.11-.37.58.58 0 0 0 1.1.37ZM85.31 44.18a.48.48 0 1 0-.9-.3.48.48 0 0 0 .9.3ZM89.64 45.63a.38.38 0 1 0-.72-.24.38.38 0 0 0 .72.24ZM15.96 15.93a.35.35 0 1 0-.66-.22.35.35 0 0 0 .66.22ZM20.46 17.45a.44.44 0 1 0-.83-.28.44.44 0 0 0 .83.28ZM24.97 18.96a.53.53 0 1 0-1-.33.53.53 0 0 0 1 .33ZM29.47 20.48a.61.61 0 1 0-1.16-.4.61.61 0 0 0 1.16.4ZM33.98 21.99a.7.7 0 1 0-1.34-.45.7.7 0 0 0 1.34.45ZM38.48 23.5a.8.8 0 1 0-1.5-.5.8.8 0 0 0 1.5.5ZM42.98 25.02a.88.88 0 1 0-1.67-.56.88.88 0 0 0 1.67.56ZM47.49 26.53a.97.97 0 1 0-1.84-.61.97.97 0 0 0 1.84.61ZM52 28.05a1.06 1.06 0 1 0-2.02-.68 1.06 1.06 0 0 0 2.01.68ZM56.41 29.54a1.06 1.06 0 1 0-2-.68 1.06 1.06 0 0 0 2 .68ZM60.75 31a.97.97 0 1 0-1.84-.62.97.97 0 0 0 1.84.61ZM65.08 32.45a.88.88 0 1 0-1.67-.56.88.88 0 0 0 1.67.56ZM69.42 33.91a.8.8 0 1 0-1.5-.5.8.8 0 0 0 1.5.5ZM73.75 35.37a.7.7 0 1 0-1.33-.45.7.7 0 0 0 1.33.45ZM78.09 36.83a.61.61 0 1 0-1.17-.4.61.61 0 0 0 1.17.4ZM82.43 38.28a.53.53 0 1 0-1-.33.53.53 0 0 0 1 .33ZM86.76 39.74a.44.44 0 1 0-.83-.28.44.44 0 0 0 .83.28ZM91.1 41.2a.35.35 0 1 0-.66-.22.35.35 0 0 0 .66.22ZM21.9 13.01a.4.4 0 1 0-.74-.25.4.4 0 0 0 .75.25ZM26.4 14.52a.47.47 0 1 0-.89-.3.47.47 0 0 0 .89.3ZM30.89 16.03a.54.54 0 1 0-1.03-.34.54.54 0 0 0 1.03.34ZM35.38 17.54a.61.61 0 1 0-1.17-.39.61.61 0 0 0 1.17.4ZM39.87 19.05a.7.7 0 1 0-1.31-.44.7.7 0 0 0 1.31.44ZM44.36 20.56a.76.76 0 1 0-1.45-.48.76.76 0 0 0 1.45.48ZM48.85 22.07a.84.84 0 1 0-1.6-.53.84.84 0 0 0 1.6.53ZM53.34 23.58A.91.91 0 1 0 51.6 23a.91.91 0 0 0 1.73.58ZM57.76 25.07a.91.91 0 1 0-1.73-.58.91.91 0 0 0 1.73.58ZM62.11 26.53a.84.84 0 1 0-1.6-.53.84.84 0 0 0 1.6.53ZM66.46 28a.76.76 0 1 0-1.45-.5.76.76 0 0 0 1.45.5ZM70.8 29.46a.7.7 0 1 0-1.3-.44.7.7 0 0 0 1.3.44ZM75.16 30.92a.61.61 0 1 0-1.17-.4.61.61 0 0 0 1.17.4ZM79.5 32.38a.54.54 0 1 0-1.02-.34.54.54 0 0 0 1.02.34ZM83.86 33.85a.47.47 0 1 0-.89-.3.47.47 0 0 0 .89.3ZM88.2 35.31a.4.4 0 1 0-.74-.25.4.4 0 0 0 .75.25ZM23.35 8.58a.35.35 0 1 0-.66-.22.35.35 0 0 0 .66.22ZM27.83 10.08a.4.4 0 1 0-.77-.26.4.4 0 0 0 .77.26ZM32.3 11.59a.47.47 0 1 0-.88-.3.47.47 0 0 0 .88.3ZM36.78 13.1a.53.53 0 1 0-1-.34.53.53 0 0 0 1 .33ZM41.26 14.6a.58.58 0 1 0-1.11-.37.58.58 0 0 0 1.1.37ZM45.73 16.1a.64.64 0 1 0-1.22-.4.64.64 0 0 0 1.22.4ZM50.2 17.61a.7.7 0 1 0-1.33-.45.7.7 0 0 0 1.34.45ZM54.68 19.12a.76.76 0 1 0-1.44-.5.76.76 0 0 0 1.44.5ZM59.1 20.6a.76.76 0 1 0-1.44-.48.76.76 0 0 0 1.44.48ZM63.47 22.07a.7.7 0 1 0-1.34-.45.7.7 0 0 0 1.34.45ZM67.83 23.54a.64.64 0 1 0-1.22-.41.64.64 0 0 0 1.22.4ZM72.2 25a.58.58 0 1 0-1.11-.37.58.58 0 0 0 1.1.37ZM76.56 26.47a.53.53 0 1 0-1-.33.53.53 0 0 0 1 .33ZM80.92 27.94a.47.47 0 1 0-.88-.3.47.47 0 0 0 .88.3ZM85.29 29.4a.4.4 0 1 0-.78-.25.4.4 0 0 0 .78.26ZM89.65 30.87a.35.35 0 1 0-.66-.22.35.35 0 0 0 .66.22ZM29.26 5.64a.35.35 0 1 0-.66-.22.35.35 0 0 0 .66.22ZM33.72 7.15a.4.4 0 1 0-.75-.26.4.4 0 0 0 .75.26ZM38.18 8.65a.44.44 0 1 0-.83-.28.44.44 0 0 0 .83.28ZM42.64 10.15a.48.48 0 1 0-.9-.31.48.48 0 0 0 .9.3ZM47.1 11.65a.53.53 0 1 0-1-.34.53.53 0 0 0 1 .34ZM51.57 13.15a.57.57 0 1 0-1.08-.37.57.57 0 0 0 1.08.37ZM56.03 14.65a.61.61 0 1 0-1.17-.4.61.61 0 0 0 1.17.4ZM60.45 16.13a.61.61 0 1 0-1.17-.39.61.61 0 0 0 1.17.4ZM64.83 17.6a.57.57 0 1 0-1.09-.36.57.57 0 0 0 1.09.37ZM69.2 19.08a.53.53 0 1 0-1-.34.53.53 0 0 0 1 .34ZM73.58 20.55a.48.48 0 1 0-.9-.3.48.48 0 0 0 .9.3ZM77.96 22.02a.44.44 0 1 0-.83-.27.44.44 0 0 0 .83.27ZM82.34 23.5a.4.4 0 1 0-.75-.25.4.4 0 0 0 .75.25ZM86.72 24.97a.35.35 0 1 0-.66-.22.35.35 0 0 0 .66.22ZM39.58 4.2a.35.35 0 1 0-.65-.22.35.35 0 0 0 .65.22ZM44.03 5.7a.38.38 0 1 0-.71-.25.38.38 0 0 0 .71.24ZM48.48 7.19a.4.4 0 1 0-.77-.26.4.4 0 0 0 .77.26ZM52.93 8.68a.44.44 0 1 0-.83-.27.44.44 0 0 0 .83.27ZM57.38 10.18a.47.47 0 1 0-.89-.3.47.47 0 0 0 .89.3ZM61.8 11.67a.47.47 0 1 0-.89-.3.47.47 0 0 0 .89.3ZM66.19 13.14a.44.44 0 1 0-.83-.27.44.44 0 0 0 .83.27ZM70.58 14.62a.4.4 0 1 0-.77-.26.4.4 0 0 0 .77.26ZM74.97 16.1a.38.38 0 1 0-.71-.24.38.38 0 0 0 .71.24ZM79.36 17.58a.35.35 0 1 0-.66-.23.35.35 0 0 0 .66.23ZM49.85 2.73a.29.29 0 1 0-.54-.18.29.29 0 0 0 .54.18ZM54.29 4.22a.3.3 0 1 0-.58-.2.3.3 0 0 0 .58.2ZM58.72 5.71a.32.32 0 1 0-.6-.2.32.32 0 0 0 .6.2ZM63.14 7.2a.32.32 0 1 0-.6-.2.32.32 0 0 0 .6.2ZM67.55 8.68a.3.3 0 1 0-.58-.2.3.3 0 0 0 .58.2ZM71.95 10.16a.29.29 0 1 0-.54-.18.29.29 0 0 0 .54.18Z"/></g><defs><clipPath id="a"><path fill="#fff" d="M.02 0h93.02v95H.02z"/></clipPath></defs></svg>