<svg xmlns="http://www.w3.org/2000/svg" width="94" height="95" fill="none"><g fill="#0051FF" clip-path="url(#a)"><path d="M7.17 71.63a.29.29 0 1 0-.41-.4.29.29 0 0 0 .4.4ZM10.48 74.94a.3.3 0 1 0-.44-.43.3.3 0 0 0 .44.43ZM13.78 78.24a.32.32 0 1 0-.45-.44.32.32 0 0 0 .45.44ZM17.08 81.54a.32.32 0 1 0-.45-.45.32.32 0 0 0 .45.45ZM20.37 84.83a.3.3 0 1 0-.43-.43.3.3 0 0 0 .43.43ZM23.65 88.12a.29.29 0 1 0-.4-.41.29.29 0 0 0 .4.4ZM3.91 61.78a.35.35 0 1 0-.5-.5.35.35 0 0 0 .5.5ZM7.23 65.1a.38.38 0 1 0-.53-.54.38.38 0 0 0 .53.54ZM10.55 68.42a.4.4 0 1 0-.58-.58.4.4 0 0 0 .58.58ZM13.87 71.73a.44.44 0 1 0-.62-.61.44.44 0 0 0 .62.61ZM17.18 75.05a.47.47 0 1 0-.66-.66.47.47 0 0 0 .66.66ZM20.48 78.35a.47.47 0 1 0-.66-.66.47.47 0 0 0 .66.66ZM23.76 81.63a.44.44 0 1 0-.62-.62.44.44 0 0 0 .62.62ZM27.03 84.9a.4.4 0 1 0-.57-.57.4.4 0 0 0 .57.57ZM30.31 88.18a.38.38 0 1 0-.53-.53.38.38 0 0 0 .53.53ZM33.59 91.46a.35.35 0 1 0-.5-.5.35.35 0 0 0 .5.5ZM.61 51.89a.35.35 0 1 0-.49-.5.35.35 0 0 0 .5.5ZM3.94 55.22a.4.4 0 1 0-.55-.56.4.4 0 0 0 .55.56ZM7.27 58.54a.44.44 0 1 0-.62-.61.44.44 0 0 0 .62.61ZM10.6 61.87a.48.48 0 1 0-.68-.68.48.48 0 0 0 .68.68ZM13.93 65.2a.53.53 0 1 0-.74-.74.53.53 0 0 0 .74.74ZM17.26 68.53a.57.57 0 1 0-.81-.8.57.57 0 0 0 .8.8ZM20.59 71.86a.61.61 0 1 0-.87-.87.61.61 0 0 0 .87.87ZM23.88 75.16a.61.61 0 1 0-.87-.87.61.61 0 0 0 .87.87ZM27.15 78.42a.57.57 0 1 0-.8-.8.57.57 0 0 0 .8.8ZM30.42 81.69a.53.53 0 1 0-.75-.74.53.53 0 0 0 .75.74ZM33.68 84.95a.48.48 0 1 0-.68-.67.48.48 0 0 0 .68.67ZM36.95 88.22a.44.44 0 1 0-.62-.62.44.44 0 0 0 .62.62ZM40.21 91.49a.4.4 0 1 0-.55-.56.4.4 0 0 0 .55.56ZM43.48 94.75a.35.35 0 1 0-.5-.49.35.35 0 0 0 .5.5ZM.61 45.3a.35.35 0 1 0-.49-.5.35.35 0 0 0 .5.5ZM3.95 48.63a.4.4 0 1 0-.57-.57.4.4 0 0 0 .57.57ZM7.3 51.97a.47.47 0 1 0-.67-.66.47.47 0 0 0 .66.66ZM10.63 55.31a.53.53 0 1 0-.74-.74.53.53 0 0 0 .74.74ZM13.97 58.65a.59.59 0 1 0-.83-.83.59.59 0 0 0 .83.83ZM17.31 61.99a.64.64 0 1 0-.91-.91.64.64 0 0 0 .91.9ZM20.65 65.33a.7.7 0 1 0-1-1 .7.7 0 0 0 1 1ZM23.99 68.67a.76.76 0 1 0-1.08-1.08.76.76 0 0 0 1.08 1.08ZM27.29 71.96a.76.76 0 1 0-1.08-1.07.76.76 0 0 0 1.08 1.07ZM30.54 75.22a.7.7 0 1 0-1-1 .7.7 0 0 0 1 1ZM33.8 78.48a.64.64 0 1 0-.91-.92.64.64 0 0 0 .9.92ZM37.05 81.73a.58.58 0 1 0-.82-.83.58.58 0 0 0 .82.83ZM40.3 84.99a.53.53 0 1 0-.74-.75.53.53 0 0 0 .75.75ZM43.56 88.24a.47.47 0 1 0-.66-.66.47.47 0 0 0 .66.66ZM46.82 91.5a.4.4 0 1 0-.58-.58.4.4 0 0 0 .58.58ZM50.07 94.75a.35.35 0 1 0-.49-.49.35.35 0 0 0 .5.5ZM3.94 42.03a.4.4 0 1 0-.55-.56.4.4 0 0 0 .55.56ZM7.3 45.38a.47.47 0 1 0-.67-.66.47.47 0 0 0 .66.66ZM10.64 48.72a.54.54 0 1 0-.76-.76.54.54 0 0 0 .76.76ZM14 52.08a.61.61 0 1 0-.88-.87.61.61 0 0 0 .87.87ZM17.34 55.43a.7.7 0 1 0-.97-.98.7.7 0 0 0 .97.98ZM20.7 58.78a.76.76 0 1 0-1.09-1.08.76.76 0 0 0 1.08 1.08ZM24.04 62.13a.84.84 0 1 0-1.18-1.19.84.84 0 0 0 1.18 1.19ZM27.4 65.48a.91.91 0 1 0-1.3-1.3.91.91 0 0 0 1.3 1.3ZM30.69 68.77a.91.91 0 1 0-1.3-1.29.91.91 0 0 0 1.3 1.3ZM33.93 72.02a.84.84 0 1 0-1.18-1.19.84.84 0 0 0 1.18 1.19ZM37.18 75.26a.76.76 0 1 0-1.08-1.08.76.76 0 0 0 1.08 1.08ZM40.42 78.5a.7.7 0 1 0-.97-.97.7.7 0 0 0 .97.98ZM43.67 81.75a.61.61 0 1 0-.87-.87.61.61 0 0 0 .87.87ZM46.91 85a.54.54 0 1 0-.76-.77.54.54 0 0 0 .76.77ZM50.16 88.24a.47.47 0 1 0-.66-.66.47.47 0 0 0 .66.66ZM53.4 91.49a.4.4 0 1 0-.55-.56.4.4 0 0 0 .55.56ZM3.91 35.4a.35.35 0 1 0-.5-.5.35.35 0 0 0 .5.5ZM7.27 38.76a.44.44 0 1 0-.62-.62.44.44 0 0 0 .62.62ZM10.63 42.12a.53.53 0 1 0-.74-.74.53.53 0 0 0 .74.74ZM14 45.48a.61.61 0 1 0-.88-.87.61.61 0 0 0 .87.87ZM17.35 48.84a.7.7 0 1 0-1-1 .7.7 0 0 0 1 1ZM20.71 52.2a.8.8 0 1 0-1.12-1.12.8.8 0 0 0 1.12 1.12ZM24.07 55.56a.88.88 0 1 0-1.24-1.24.88.88 0 0 0 1.24 1.24ZM27.43 58.92a.97.97 0 1 0-1.37-1.37.97.97 0 0 0 1.37 1.37ZM30.8 62.28a1.06 1.06 0 1 0-1.5-1.5 1.06 1.06 0 0 0 1.5 1.5ZM34.1 65.58a1.06 1.06 0 1 0-1.5-1.5 1.06 1.06 0 0 0 1.5 1.5ZM37.33 68.81a.97.97 0 1 0-1.38-1.37.97.97 0 0 0 1.38 1.37ZM40.56 72.05a.88.88 0 1 0-1.25-1.25.88.88 0 0 0 1.25 1.25ZM43.8 75.28a.8.8 0 1 0-1.13-1.12.8.8 0 0 0 1.12 1.12ZM47.03 78.52a.7.7 0 1 0-1-1 .7.7 0 0 0 1 1ZM50.26 81.75a.61.61 0 1 0-.87-.87.61.61 0 0 0 .87.87ZM53.5 84.99a.53.53 0 1 0-.75-.75.53.53 0 0 0 .75.75ZM56.73 88.22a.44.44 0 1 0-.62-.62.44.44 0 0 0 .62.62ZM59.97 91.46a.35.35 0 1 0-.5-.5.35.35 0 0 0 .5.5ZM7.23 32.12a.38.38 0 1 0-.53-.53.38.38 0 0 0 .53.53ZM10.6 35.5a.48.48 0 1 0-.68-.68.48.48 0 0 0 .68.67ZM13.97 38.87a.59.59 0 1 0-.83-.83.59.59 0 0 0 .83.83ZM17.34 42.24a.7.7 0 1 0-.97-.98.7.7 0 0 0 .97.98ZM20.71 45.6a.8.8 0 1 0-1.12-1.11.8.8 0 0 0 1.12 1.12ZM24.08 48.98a.9.9 0 1 0-1.26-1.27.9.9 0 0 0 1.26 1.27ZM27.45 52.35a1 1 0 1 0-1.41-1.42 1 1 0 0 0 1.41 1.42ZM30.83 55.72a1.1 1.1 0 1 0-1.57-1.56 1.1 1.1 0 0 0 1.57 1.56ZM34.2 59.09a1.2 1.2 0 1 0-1.71-1.7 1.2 1.2 0 0 0 1.7 1.7ZM37.5 62.39a1.2 1.2 0 1 0-1.72-1.71 1.2 1.2 0 0 0 1.71 1.7ZM40.72 65.61a1.1 1.1 0 1 0-1.57-1.56 1.1 1.1 0 0 0 1.57 1.56ZM43.94 68.84a1 1 0 1 0-1.41-1.42 1 1 0 0 0 1.41 1.42ZM47.16 72.06a.9.9 0 1 0-1.26-1.27.9.9 0 0 0 1.26 1.27ZM50.39 75.28a.8.8 0 1 0-1.12-1.12.8.8 0 0 0 1.12 1.12ZM53.61 78.5a.7.7 0 1 0-.97-.97.7.7 0 0 0 .97.98ZM56.84 81.73a.59.59 0 1 0-.83-.83.59.59 0 0 0 .83.83ZM60.06 84.95a.48.48 0 1 0-.68-.67.48.48 0 0 0 .68.67ZM63.28 88.18a.38.38 0 1 0-.53-.53.38.38 0 0 0 .53.53ZM7.17 25.47a.29.29 0 1 0-.41-.41.29.29 0 0 0 .4.4ZM10.55 28.85a.4.4 0 1 0-.58-.58.4.4 0 0 0 .58.58ZM13.93 32.23a.53.53 0 1 0-.74-.74.53.53 0 0 0 .74.74ZM17.31 35.61a.64.64 0 1 0-.91-.91.64.64 0 0 0 .91.91ZM20.7 39a.76.76 0 1 0-1.09-1.09A.76.76 0 0 0 20.7 39ZM24.07 42.37a.88.88 0 1 0-1.24-1.24.88.88 0 0 0 1.24 1.24ZM27.45 45.75a1 1 0 1 0-1.41-1.41 1 1 0 0 0 1.41 1.41ZM30.84 49.14a1.12 1.12 0 1 0-1.59-1.59 1.12 1.12 0 0 0 1.59 1.59ZM34.22 52.52a1.24 1.24 0 1 0-1.75-1.75 1.24 1.24 0 0 0 1.75 1.75ZM37.6 55.9a1.36 1.36 0 1 0-1.92-1.92 1.36 1.36 0 0 0 1.92 1.92ZM40.9 59.2a1.36 1.36 0 1 0-1.92-1.92 1.36 1.36 0 0 0 1.92 1.92ZM44.1 62.4a1.24 1.24 0 1 0-1.74-1.74 1.24 1.24 0 0 0 1.75 1.75ZM47.32 65.62a1.12 1.12 0 1 0-1.58-1.58 1.12 1.12 0 0 0 1.58 1.58ZM50.54 68.84a1 1 0 1 0-1.42-1.42 1 1 0 0 0 1.42 1.42ZM53.75 72.05a.88.88 0 1 0-1.25-1.25.88.88 0 0 0 1.25 1.25ZM56.96 75.26a.76.76 0 1 0-1.08-1.08.76.76 0 0 0 1.08 1.08ZM60.18 78.48a.64.64 0 1 0-.91-.92.64.64 0 0 0 .9.92ZM63.39 81.69a.53.53 0 1 0-.74-.74.53.53 0 0 0 .74.74ZM66.6 84.9a.4.4 0 1 0-.57-.57.4.4 0 0 0 .57.57ZM69.82 88.12a.29.29 0 1 0-.41-.41.29.29 0 0 0 .4.4ZM10.48 22.18a.3.3 0 1 0-.44-.43.3.3 0 0 0 .44.43ZM13.87 25.57a.44.44 0 1 0-.62-.62.44.44 0 0 0 .62.62ZM17.26 28.96a.57.57 0 1 0-.81-.8.57.57 0 0 0 .8.8ZM20.65 32.35a.7.7 0 1 0-1-.99.7.7 0 0 0 1 1ZM24.04 35.75a.84.84 0 1 0-1.18-1.19.84.84 0 0 0 1.18 1.19ZM27.43 39.14a.97.97 0 1 0-1.37-1.37.97.97 0 0 0 1.37 1.37ZM30.82 42.53a1.1 1.1 0 1 0-1.56-1.56 1.1 1.1 0 0 0 1.56 1.56ZM34.22 45.92a1.24 1.24 0 1 0-1.75-1.75 1.24 1.24 0 0 0 1.75 1.75ZM37.61 49.32a1.37 1.37 0 1 0-1.94-1.95 1.37 1.37 0 0 0 1.94 1.95ZM41 52.7a1.5 1.5 0 1 0-2.13-2.12A1.5 1.5 0 0 0 41 52.7ZM44.3 56a1.5 1.5 0 1 0-2.13-2.13A1.5 1.5 0 0 0 44.3 56ZM47.5 59.2a1.37 1.37 0 1 0-1.94-1.94 1.37 1.37 0 0 0 1.94 1.95ZM50.7 62.4a1.24 1.24 0 1 0-1.75-1.74 1.24 1.24 0 0 0 1.75 1.75ZM53.9 65.61a1.1 1.1 0 1 0-1.55-1.56 1.1 1.1 0 0 0 1.55 1.56ZM57.1 68.81a.97.97 0 1 0-1.36-1.37.97.97 0 0 0 1.37 1.37ZM60.31 72.02a.84.84 0 1 0-1.18-1.19.84.84 0 0 0 1.18 1.19ZM63.52 75.22a.7.7 0 1 0-1-1 .7.7 0 0 0 1 1ZM66.72 78.42a.57.57 0 1 0-.81-.8.57.57 0 0 0 .81.8ZM69.92 81.63a.44.44 0 1 0-.62-.62.44.44 0 0 0 .62.62ZM73.13 84.83a.3.3 0 1 0-.44-.43.3.3 0 0 0 .44.43ZM13.78 18.9a.32.32 0 1 0-.45-.46.32.32 0 0 0 .45.45ZM17.18 22.3a.47.47 0 1 0-.66-.66.47.47 0 0 0 .66.65ZM20.59 25.7a.61.61 0 1 0-.87-.87.61.61 0 0 0 .87.87ZM23.99 29.1a.76.76 0 1 0-1.08-1.08.76.76 0 0 0 1.08 1.08ZM27.4 32.5a.91.91 0 1 0-1.3-1.29.91.91 0 0 0 1.3 1.3ZM30.8 35.9a1.06 1.06 0 1 0-1.5-1.5 1.06 1.06 0 0 0 1.5 1.5ZM34.2 39.3a1.2 1.2 0 1 0-1.71-1.7 1.2 1.2 0 0 0 1.7 1.7ZM37.6 42.7a1.36 1.36 0 1 0-1.92-1.91 1.36 1.36 0 0 0 1.92 1.92ZM41 46.11a1.5 1.5 0 1 0-2.13-2.13A1.5 1.5 0 0 0 41 46.11ZM44.4 49.51a1.65 1.65 0 1 0-2.34-2.34 1.65 1.65 0 0 0 2.34 2.34ZM47.7 52.81a1.65 1.65 0 1 0-2.34-2.34 1.65 1.65 0 0 0 2.34 2.34ZM50.9 56a1.5 1.5 0 1 0-2.14-2.13A1.5 1.5 0 0 0 50.9 56ZM54.08 59.2a1.36 1.36 0 1 0-1.91-1.92 1.36 1.36 0 0 0 1.91 1.92ZM57.28 62.39a1.2 1.2 0 1 0-1.71-1.71 1.2 1.2 0 0 0 1.7 1.7ZM60.47 65.58a1.06 1.06 0 1 0-1.5-1.5 1.06 1.06 0 0 0 1.5 1.5ZM63.66 68.77a.91.91 0 1 0-1.29-1.29.91.91 0 0 0 1.3 1.3ZM66.85 71.96a.76.76 0 1 0-1.07-1.07.76.76 0 0 0 1.07 1.07ZM70.05 75.16a.61.61 0 1 0-.87-.87.61.61 0 0 0 .87.87ZM73.24 78.35a.47.47 0 1 0-.66-.66.47.47 0 0 0 .66.66ZM76.43 81.54a.32.32 0 1 0-.45-.45.32.32 0 0 0 .45.45ZM17.08 15.6a.32.32 0 1 0-.45-.45.32.32 0 0 0 .45.45ZM20.48 19a.47.47 0 1 0-.66-.66.47.47 0 0 0 .66.66ZM23.88 22.4a.61.61 0 1 0-.87-.87.61.61 0 0 0 .87.87ZM27.29 25.8a.76.76 0 1 0-1.08-1.08.76.76 0 0 0 1.08 1.08ZM30.69 29.2a.91.91 0 1 0-1.3-1.28.91.91 0 0 0 1.3 1.28ZM34.1 32.6a1.06 1.06 0 1 0-1.5-1.5 1.06 1.06 0 0 0 1.5 1.5ZM37.5 36a1.2 1.2 0 1 0-1.72-1.7A1.2 1.2 0 0 0 37.5 36ZM40.9 39.41a1.36 1.36 0 1 0-1.92-1.92 1.36 1.36 0 0 0 1.92 1.92ZM44.3 42.81a1.5 1.5 0 1 0-2.13-2.12 1.5 1.5 0 0 0 2.13 2.12ZM47.7 46.22a1.65 1.65 0 1 0-2.34-2.34 1.65 1.65 0 0 0 2.34 2.34ZM51 49.51a1.65 1.65 0 1 0-2.34-2.34A1.65 1.65 0 0 0 51 49.51ZM54.19 52.7a1.5 1.5 0 1 0-2.13-2.12 1.5 1.5 0 0 0 2.13 2.13ZM57.38 55.9a1.36 1.36 0 1 0-1.92-1.92 1.36 1.36 0 0 0 1.92 1.92ZM60.57 59.09a1.2 1.2 0 1 0-1.7-1.7 1.2 1.2 0 0 0 1.7 1.7ZM63.77 62.28a1.06 1.06 0 1 0-1.5-1.5 1.06 1.06 0 0 0 1.5 1.5ZM66.96 65.48a.91.91 0 1 0-1.29-1.3.91.91 0 0 0 1.29 1.3ZM70.15 68.67a.76.76 0 1 0-1.08-1.08.76.76 0 0 0 1.08 1.08ZM73.34 71.86a.61.61 0 1 0-.87-.87.61.61 0 0 0 .87.87ZM76.54 75.05a.47.47 0 1 0-.66-.66.47.47 0 0 0 .66.66ZM79.73 78.24a.32.32 0 1 0-.45-.44.32.32 0 0 0 .45.44ZM20.37 12.29a.3.3 0 1 0-.43-.43.3.3 0 0 0 .43.43ZM23.76 15.68a.44.44 0 1 0-.62-.62.44.44 0 0 0 .62.62ZM27.15 19.07a.57.57 0 1 0-.8-.8.57.57 0 0 0 .8.8ZM30.54 22.46a.7.7 0 1 0-1-1 .7.7 0 0 0 1 1ZM33.93 25.86a.84.84 0 1 0-1.18-1.2.84.84 0 0 0 1.18 1.2ZM37.33 29.25a.97.97 0 1 0-1.38-1.38.97.97 0 0 0 1.38 1.38ZM40.72 32.64a1.1 1.1 0 1 0-1.56-1.56 1.1 1.1 0 0 0 1.56 1.56ZM44.1 36.03a1.24 1.24 0 1 0-1.74-1.75 1.24 1.24 0 0 0 1.75 1.75ZM47.5 39.42a1.37 1.37 0 1 0-1.94-1.94 1.37 1.37 0 0 0 1.94 1.94ZM50.9 42.81a1.5 1.5 0 1 0-2.14-2.12 1.5 1.5 0 0 0 2.13 2.12ZM54.19 46.11a1.5 1.5 0 1 0-2.13-2.13 1.5 1.5 0 0 0 2.13 2.13ZM57.4 49.32a1.37 1.37 0 1 0-1.95-1.95 1.37 1.37 0 0 0 1.94 1.95ZM60.6 52.52a1.24 1.24 0 1 0-1.76-1.75 1.24 1.24 0 0 0 1.76 1.75ZM63.8 55.72a1.1 1.1 0 1 0-1.56-1.56 1.1 1.1 0 0 0 1.56 1.56ZM67 58.92a.97.97 0 1 0-1.37-1.37.97.97 0 0 0 1.37 1.37ZM70.2 62.13a.84.84 0 1 0-1.18-1.19.84.84 0 0 0 1.19 1.19ZM73.4 65.33a.7.7 0 1 0-.99-1 .7.7 0 0 0 1 1ZM76.61 68.53a.57.57 0 1 0-.8-.8.57.57 0 0 0 .8.8ZM79.81 71.73a.44.44 0 1 0-.61-.61.44.44 0 0 0 .61.61ZM83.02 74.94a.3.3 0 1 0-.43-.43.3.3 0 0 0 .43.43ZM23.65 8.98a.29.29 0 1 0-.4-.4.29.29 0 0 0 .4.4ZM27.03 12.36a.4.4 0 1 0-.57-.57.4.4 0 0 0 .57.57ZM30.42 15.74a.53.53 0 1 0-.75-.74.53.53 0 0 0 .75.74ZM33.8 19.12a.64.64 0 1 0-.91-.9.64.64 0 0 0 .9.9ZM37.18 22.5a.76.76 0 1 0-1.08-1.07.76.76 0 0 0 1.08 1.07ZM40.56 25.89a.88.88 0 1 0-1.25-1.25.88.88 0 0 0 1.25 1.25ZM43.94 29.27a1 1 0 1 0-1.41-1.42 1 1 0 0 0 1.41 1.42ZM47.32 32.65a1.12 1.12 0 1 0-1.58-1.58 1.12 1.12 0 0 0 1.58 1.58ZM50.7 36.03a1.24 1.24 0 1 0-1.75-1.75 1.24 1.24 0 0 0 1.75 1.75ZM54.08 39.41a1.36 1.36 0 1 0-1.91-1.92 1.36 1.36 0 0 0 1.91 1.92ZM57.38 42.7a1.36 1.36 0 1 0-1.92-1.91 1.36 1.36 0 0 0 1.92 1.92ZM60.6 45.92a1.24 1.24 0 1 0-1.76-1.75 1.24 1.24 0 0 0 1.76 1.75ZM63.8 49.14a1.12 1.12 0 1 0-1.57-1.59 1.12 1.12 0 0 0 1.58 1.59ZM67.02 52.35a1 1 0 1 0-1.41-1.42 1 1 0 0 0 1.41 1.42ZM70.24 55.56a.88.88 0 1 0-1.25-1.24.88.88 0 0 0 1.25 1.24ZM73.45 58.78a.76.76 0 1 0-1.08-1.08.76.76 0 0 0 1.08 1.08ZM76.66 61.99a.64.64 0 1 0-.9-.91.64.64 0 0 0 .9.9ZM79.88 65.2a.53.53 0 1 0-.75-.74.53.53 0 0 0 .75.74ZM83.09 68.42a.4.4 0 1 0-.58-.58.4.4 0 0 0 .58.58ZM86.3 71.63a.29.29 0 1 0-.4-.4.29.29 0 0 0 .4.4ZM30.31 9.04a.38.38 0 1 0-.53-.53.38.38 0 0 0 .53.53ZM33.68 12.41a.48.48 0 1 0-.68-.68.48.48 0 0 0 .68.68ZM37.05 15.78a.59.59 0 1 0-.82-.82.59.59 0 0 0 .82.82ZM40.42 19.16a.7.7 0 1 0-.97-.98.7.7 0 0 0 .97.98ZM43.8 22.53a.8.8 0 1 0-1.13-1.13.8.8 0 0 0 1.12 1.13ZM47.16 25.9a.9.9 0 1 0-1.26-1.27.9.9 0 0 0 1.26 1.27ZM50.54 29.27a1 1 0 1 0-1.42-1.42 1 1 0 0 0 1.42 1.42ZM53.9 32.64a1.1 1.1 0 1 0-1.56-1.57 1.1 1.1 0 0 0 1.57 1.57ZM57.28 36a1.2 1.2 0 1 0-1.71-1.7 1.2 1.2 0 0 0 1.7 1.7ZM60.57 39.3a1.2 1.2 0 1 0-1.7-1.7 1.2 1.2 0 0 0 1.7 1.7ZM63.8 42.53a1.1 1.1 0 1 0-1.56-1.56 1.1 1.1 0 0 0 1.56 1.56ZM67.02 45.75a1 1 0 1 0-1.41-1.41 1 1 0 0 0 1.41 1.41ZM70.24 48.98a.9.9 0 1 0-1.26-1.27.9.9 0 0 0 1.26 1.27ZM73.47 52.2a.8.8 0 1 0-1.12-1.12.8.8 0 0 0 1.12 1.12ZM76.7 55.43a.7.7 0 1 0-.98-.98.7.7 0 0 0 .98.98ZM79.92 58.65a.58.58 0 1 0-.83-.83.58.58 0 0 0 .83.83ZM83.14 61.87a.48.48 0 1 0-.68-.68.48.48 0 0 0 .68.68ZM86.37 65.1a.38.38 0 1 0-.54-.54.38.38 0 0 0 .54.54ZM33.59 5.72a.35.35 0 1 0-.5-.49.35.35 0 0 0 .5.5ZM36.95 9.08a.44.44 0 1 0-.62-.61.44.44 0 0 0 .62.61ZM40.3 12.44a.53.53 0 1 0-.74-.74.53.53 0 0 0 .75.74ZM43.67 15.8a.61.61 0 1 0-.87-.86.61.61 0 0 0 .87.87ZM47.03 19.17a.7.7 0 1 0-1-1 .7.7 0 0 0 1 1ZM50.39 22.53a.8.8 0 1 0-1.12-1.13.8.8 0 0 0 1.12 1.13ZM53.75 25.89a.88.88 0 1 0-1.25-1.25.88.88 0 0 0 1.25 1.25ZM57.1 29.25a.97.97 0 1 0-1.36-1.38.97.97 0 0 0 1.37 1.38ZM60.47 32.6a1.06 1.06 0 1 0-1.5-1.5 1.06 1.06 0 0 0 1.5 1.5ZM63.77 35.9a1.06 1.06 0 1 0-1.5-1.5 1.06 1.06 0 0 0 1.5 1.5ZM67 39.14a.97.97 0 1 0-1.37-1.37.97.97 0 0 0 1.37 1.37ZM70.24 42.37a.88.88 0 1 0-1.25-1.24.88.88 0 0 0 1.25 1.24ZM73.47 45.6a.8.8 0 1 0-1.12-1.11.8.8 0 0 0 1.12 1.12ZM76.7 48.84a.7.7 0 1 0-1-1 .7.7 0 0 0 1 1ZM79.94 52.08a.61.61 0 1 0-.87-.87.61.61 0 0 0 .87.87ZM83.17 55.31a.53.53 0 1 0-.74-.74.53.53 0 0 0 .74.74ZM86.4 58.54a.44.44 0 1 0-.6-.61.44.44 0 0 0 .6.61ZM89.64 61.78a.35.35 0 1 0-.49-.5.35.35 0 0 0 .5.5ZM40.21 5.76a.4.4 0 1 0-.55-.56.4.4 0 0 0 .55.56ZM43.56 9.1a.47.47 0 1 0-.66-.65.47.47 0 0 0 .66.66ZM46.91 12.45a.54.54 0 1 0-.76-.76.54.54 0 0 0 .76.76ZM50.26 15.8a.61.61 0 1 0-.87-.86.61.61 0 0 0 .87.87ZM53.61 19.16a.7.7 0 1 0-.97-.98.7.7 0 0 0 .97.98ZM56.96 22.5a.76.76 0 1 0-1.08-1.07.76.76 0 0 0 1.08 1.07ZM60.31 25.86a.84.84 0 1 0-1.18-1.2.84.84 0 0 0 1.18 1.2ZM63.66 29.2a.91.91 0 1 0-1.29-1.28.91.91 0 0 0 1.3 1.28ZM66.96 32.5a.91.91 0 1 0-1.29-1.29.91.91 0 0 0 1.29 1.3ZM70.2 35.75a.84.84 0 1 0-1.18-1.19.84.84 0 0 0 1.19 1.19ZM73.45 39a.76.76 0 1 0-1.08-1.09.76.76 0 0 0 1.08 1.08ZM76.7 42.24a.7.7 0 1 0-.98-.98.7.7 0 0 0 .98.98ZM79.94 45.48a.61.61 0 1 0-.87-.87.61.61 0 0 0 .87.87ZM83.18 48.72a.54.54 0 1 0-.76-.76.54.54 0 0 0 .76.76ZM86.43 51.97a.47.47 0 1 0-.66-.66.47.47 0 0 0 .66.66ZM89.68 55.22a.4.4 0 1 0-.56-.56.4.4 0 0 0 .56.56ZM43.48 2.43a.35.35 0 1 0-.5-.5.35.35 0 0 0 .5.5ZM46.82 5.77a.4.4 0 1 0-.58-.58.4.4 0 0 0 .58.58ZM50.16 9.1a.47.47 0 1 0-.66-.65.47.47 0 0 0 .66.66ZM53.5 12.44a.53.53 0 1 0-.75-.74.53.53 0 0 0 .75.74ZM56.84 15.78a.59.59 0 1 0-.83-.82.59.59 0 0 0 .83.82ZM60.18 19.12a.64.64 0 1 0-.92-.9.64.64 0 0 0 .92.9ZM63.52 22.46a.7.7 0 1 0-1-1 .7.7 0 0 0 1 1ZM66.85 25.8a.76.76 0 1 0-1.07-1.08.76.76 0 0 0 1.07 1.08ZM70.15 29.1a.76.76 0 1 0-1.08-1.08.76.76 0 0 0 1.08 1.08ZM73.4 32.35a.7.7 0 1 0-.99-.99.7.7 0 0 0 1 1ZM76.66 35.61a.64.64 0 1 0-.9-.91.64.64 0 0 0 .9.91ZM79.92 38.87a.59.59 0 1 0-.83-.83.59.59 0 0 0 .83.83ZM83.17 42.12a.53.53 0 1 0-.74-.74.53.53 0 0 0 .74.74ZM86.43 45.38a.47.47 0 1 0-.66-.66.47.47 0 0 0 .66.66ZM89.68 48.63a.4.4 0 1 0-.57-.57.4.4 0 0 0 .57.57ZM92.94 51.89a.35.35 0 1 0-.5-.5.35.35 0 0 0 .5.5ZM50.07 2.43a.35.35 0 1 0-.49-.5.35.35 0 0 0 .5.5ZM53.4 5.76a.4.4 0 1 0-.55-.56.4.4 0 0 0 .55.56ZM56.73 9.08a.44.44 0 1 0-.62-.61.44.44 0 0 0 .62.61ZM60.06 12.41a.48.48 0 1 0-.68-.68.48.48 0 0 0 .68.68ZM63.39 15.74a.53.53 0 1 0-.74-.74.53.53 0 0 0 .74.74ZM66.72 19.07a.57.57 0 1 0-.81-.8.57.57 0 0 0 .81.8ZM70.05 22.4a.61.61 0 1 0-.87-.87.61.61 0 0 0 .87.87ZM73.34 25.7a.61.61 0 1 0-.87-.87.61.61 0 0 0 .87.87ZM76.61 28.96a.57.57 0 1 0-.8-.8.57.57 0 0 0 .8.8ZM79.88 32.23a.53.53 0 1 0-.75-.74.53.53 0 0 0 .75.74ZM83.14 35.5a.48.48 0 1 0-.68-.68.48.48 0 0 0 .68.67ZM86.4 38.76a.44.44 0 1 0-.6-.62.44.44 0 0 0 .6.62ZM89.68 42.03a.4.4 0 1 0-.56-.56.4.4 0 0 0 .56.56ZM92.94 45.3a.35.35 0 1 0-.5-.5.35.35 0 0 0 .5.5ZM59.97 5.72a.35.35 0 1 0-.5-.49.35.35 0 0 0 .5.5ZM63.28 9.04a.38.38 0 1 0-.53-.53.38.38 0 0 0 .53.53ZM66.6 12.36a.4.4 0 1 0-.57-.57.4.4 0 0 0 .57.57ZM69.92 15.68a.44.44 0 1 0-.62-.62.44.44 0 0 0 .62.62ZM73.24 19a.47.47 0 1 0-.66-.66.47.47 0 0 0 .66.66ZM76.54 22.3a.47.47 0 1 0-.66-.66.47.47 0 0 0 .66.65ZM79.81 25.57a.44.44 0 1 0-.61-.62.44.44 0 0 0 .61.62ZM83.09 28.85a.4.4 0 1 0-.58-.58.4.4 0 0 0 .58.58ZM86.37 32.12a.38.38 0 1 0-.54-.53.38.38 0 0 0 .54.53ZM89.64 35.4a.35.35 0 1 0-.49-.5.35.35 0 0 0 .5.5ZM69.82 8.98a.29.29 0 1 0-.41-.4.29.29 0 0 0 .4.4ZM73.13 12.29a.3.3 0 1 0-.44-.43.3.3 0 0 0 .44.43ZM76.43 15.6a.32.32 0 1 0-.45-.45.32.32 0 0 0 .45.45ZM79.73 18.9a.32.32 0 1 0-.45-.46.32.32 0 0 0 .45.45ZM83.02 22.18a.3.3 0 1 0-.43-.43.3.3 0 0 0 .43.43ZM86.3 25.47a.29.29 0 1 0-.4-.41.29.29 0 0 0 .4.4ZM29.72 90.88a.29.29 0 1 0-.57-.07.29.29 0 0 0 .57.07ZM34.36 91.46a.3.3 0 1 0-.6-.07.3.3 0 0 0 .6.07ZM39 92.05a.32.32 0 1 0-.63-.08.32.32 0 0 0 .63.08ZM43.63 92.63a.32.32 0 1 0-.63-.08.32.32 0 0 0 .63.08ZM48.24 93.2a.3.3 0 1 0-.6-.07.3.3 0 0 0 .6.08ZM52.85 93.79a.29.29 0 1 0-.57-.07.29.29 0 0 0 .57.07ZM21.1 85.1a.35.35 0 1 0-.68-.09.35.35 0 0 0 .69.09ZM25.76 85.68a.38.38 0 1 0-.74-.1.38.38 0 0 0 .74.1ZM30.42 86.27a.4.4 0 1 0-.8-.1.4.4 0 0 0 .8.1ZM35.08 86.85a.44.44 0 1 0-.87-.1.44.44 0 0 0 .87.1ZM39.73 87.44a.47.47 0 1 0-.92-.12.47.47 0 0 0 .92.12Z"/><path d="M44.36 88.02a.47.47 0 1 0-.93-.12.47.47 0 0 0 .93.12ZM48.96 88.6a.44.44 0 1 0-.87-.11.44.44 0 0 0 .87.1ZM53.55 89.18a.4.4 0 1 0-.8-.1.4.4 0 0 0 .8.1ZM58.15 89.76a.38.38 0 1 0-.75-.1.38.38 0 0 0 .75.1ZM62.75 90.33a.35.35 0 1 0-.7-.08.35.35 0 0 0 .7.08ZM12.44 79.3a.35.35 0 1 0-.7-.08.35.35 0 0 0 .7.09ZM17.11 79.9a.4.4 0 1 0-.78-.1.4.4 0 0 0 .78.1ZM21.78 80.48a.44.44 0 1 0-.87-.1.44.44 0 0 0 .87.1ZM26.45 81.07a.48.48 0 1 0-.95-.12.48.48 0 0 0 .95.12ZM31.12 81.66a.53.53 0 1 0-1.04-.14.53.53 0 0 0 1.04.14ZM35.8 82.24a.57.57 0 1 0-1.14-.14.57.57 0 0 0 1.13.14ZM40.46 82.83a.61.61 0 1 0-1.22-.15.61.61 0 0 0 1.22.15ZM45.09 83.41a.61.61 0 1 0-1.22-.15.61.61 0 0 0 1.22.15ZM49.67 83.99a.57.57 0 1 0-1.13-.14.57.57 0 0 0 1.13.14ZM54.25 84.56a.53.53 0 1 0-1.04-.13.53.53 0 0 0 1.04.13ZM58.83 85.14a.48.48 0 1 0-.95-.12.48.48 0 0 0 .95.12ZM63.42 85.72a.44.44 0 1 0-.87-.11.44.44 0 0 0 .87.1ZM68 86.3a.4.4 0 1 0-.78-.1.4.4 0 0 0 .78.1ZM72.58 86.87a.35.35 0 1 0-.69-.09.35.35 0 0 0 .7.09ZM8.4 74.1a.35.35 0 1 0-.7-.09.35.35 0 0 0 .7.09ZM13.08 74.69a.4.4 0 1 0-.81-.1.4.4 0 0 0 .8.1ZM17.76 75.28a.47.47 0 1 0-.92-.12.47.47 0 0 0 .92.12ZM22.45 75.86a.53.53 0 1 0-1.04-.13.53.53 0 0 0 1.04.13ZM27.13 76.45a.59.59 0 1 0-1.16-.14.59.59 0 0 0 1.16.14ZM31.82 77.04a.64.64 0 1 0-1.28-.16.64.64 0 0 0 1.28.16ZM36.5 77.63a.7.7 0 1 0-1.4-.17.7.7 0 0 0 1.4.17ZM41.2 78.22a.76.76 0 1 0-1.52-.19.76.76 0 0 0 1.51.2ZM45.82 78.8a.76.76 0 1 0-1.52-.19.76.76 0 0 0 1.52.2ZM50.39 79.38a.7.7 0 1 0-1.4-.18.7.7 0 0 0 1.4.18ZM54.95 79.95a.64.64 0 1 0-1.27-.16.64.64 0 0 0 1.27.16ZM59.52 80.53a.58.58 0 1 0-1.16-.15.58.58 0 0 0 1.16.15ZM64.09 81.1a.53.53 0 1 0-1.04-.13.53.53 0 0 0 1.04.13ZM68.66 81.68a.47.47 0 1 0-.93-.12.47.47 0 0 0 .93.12ZM73.22 82.25a.4.4 0 1 0-.8-.1.4.4 0 0 0 .8.1ZM77.8 82.83a.35.35 0 1 0-.7-.1.35.35 0 0 0 .7.1ZM9.02 69.48a.4.4 0 1 0-.78-.1.4.4 0 0 0 .78.1ZM13.72 70.07a.47.47 0 1 0-.93-.12.47.47 0 0 0 .93.12ZM18.42 70.66a.54.54 0 1 0-1.07-.14.54.54 0 0 0 1.07.14ZM23.12 71.25a.61.61 0 1 0-1.22-.15.61.61 0 0 0 1.22.15ZM27.82 71.84a.7.7 0 1 0-1.37-.17.7.7 0 0 0 1.37.17ZM32.52 72.43a.76.76 0 1 0-1.51-.19.76.76 0 0 0 1.51.2ZM37.22 73.02a.84.84 0 1 0-1.66-.2.84.84 0 0 0 1.66.2ZM41.92 73.61a.91.91 0 1 0-1.8-.22.91.91 0 0 0 1.8.22ZM46.55 74.2a.91.91 0 1 0-1.81-.23.91.91 0 0 0 1.8.23ZM51.1 74.77a.84.84 0 1 0-1.66-.21.84.84 0 0 0 1.66.2ZM55.65 75.34a.76.76 0 1 0-1.51-.19.76.76 0 0 0 1.51.2ZM60.2 75.91a.7.7 0 1 0-1.36-.17.7.7 0 0 0 1.37.17ZM64.76 76.49a.61.61 0 1 0-1.22-.16.61.61 0 0 0 1.22.16ZM69.31 77.06a.54.54 0 1 0-1.07-.14.54.54 0 0 0 1.07.14ZM73.87 77.63a.47.47 0 1 0-.93-.11.47.47 0 0 0 .93.11ZM78.42 78.2a.4.4 0 1 0-.78-.1.4.4 0 0 0 .78.1ZM4.93 64.26a.35.35 0 1 0-.69-.09.35.35 0 0 0 .69.1ZM9.64 64.85a.44.44 0 1 0-.86-.1.44.44 0 0 0 .86.1ZM14.36 65.45a.53.53 0 1 0-1.04-.13.53.53 0 0 0 1.04.13ZM19.07 66.04a.61.61 0 1 0-1.22-.15.61.61 0 0 0 1.22.15ZM23.79 66.63a.7.7 0 1 0-1.4-.17.7.7 0 0 0 1.4.17ZM28.5 67.23a.8.8 0 1 0-1.57-.2.8.8 0 0 0 1.57.2ZM33.22 67.82a.88.88 0 1 0-1.75-.22.88.88 0 0 0 1.75.22ZM37.93 68.41a.97.97 0 1 0-1.92-.24.97.97 0 0 0 1.92.24ZM42.65 69a1.06 1.06 0 1 0-2.1-.26 1.06 1.06 0 0 0 2.1.27ZM47.28 69.59a1.06 1.06 0 1 0-2.1-.27 1.06 1.06 0 0 0 2.1.27ZM51.81 70.16a.97.97 0 1 0-1.92-.24.97.97 0 0 0 1.92.24ZM56.35 70.73a.88.88 0 1 0-1.75-.22.88.88 0 0 0 1.75.22ZM60.9 71.3a.8.8 0 1 0-1.58-.2.8.8 0 0 0 1.57.2ZM65.43 71.87a.7.7 0 1 0-1.4-.17.7.7 0 0 0 1.4.17ZM69.97 72.44a.61.61 0 1 0-1.22-.15.61.61 0 0 0 1.22.15ZM74.5 73.01a.53.53 0 1 0-1.04-.13.53.53 0 0 0 1.05.13ZM79.05 73.58a.44.44 0 1 0-.87-.1.44.44 0 0 0 .87.1ZM83.58 74.15a.35.35 0 1 0-.69-.08.35.35 0 0 0 .7.08ZM5.54 59.64a.38.38 0 1 0-.75-.1.38.38 0 0 0 .75.1ZM10.27 60.23a.48.48 0 1 0-.95-.12.48.48 0 0 0 .95.12ZM15 60.83a.59.59 0 1 0-1.16-.15.59.59 0 0 0 1.16.15ZM19.73 61.42a.7.7 0 1 0-1.37-.17.7.7 0 0 0 1.37.17ZM24.46 62.02a.8.8 0 1 0-1.57-.2.8.8 0 0 0 1.57.2ZM29.19 62.61a.9.9 0 1 0-1.78-.22.9.9 0 0 0 1.78.22ZM33.92 63.2a1 1 0 1 0-1.99-.24 1 1 0 0 0 1.99.25ZM38.65 63.8a1.1 1.1 0 1 0-2.2-.27 1.1 1.1 0 0 0 2.2.27ZM43.38 64.4a1.2 1.2 0 1 0-2.4-.3 1.2 1.2 0 0 0 2.4.3ZM48 64.98a1.2 1.2 0 1 0-2.4-.3 1.2 1.2 0 0 0 2.4.3ZM52.53 65.55a1.1 1.1 0 1 0-2.2-.28 1.1 1.1 0 0 0 2.2.28ZM57.05 66.12a1 1 0 1 0-1.98-.25 1 1 0 0 0 1.98.25ZM61.57 66.69a.9.9 0 1 0-1.77-.23.9.9 0 0 0 1.77.23ZM66.1 67.26a.8.8 0 1 0-1.57-.2.8.8 0 0 0 1.57.2ZM70.63 67.82a.7.7 0 1 0-1.38-.17.7.7 0 0 0 1.38.17ZM75.15 68.4a.58.58 0 1 0-1.16-.15.58.58 0 0 0 1.16.14ZM79.67 68.96a.48.48 0 1 0-.95-.12.48.48 0 0 0 .95.12ZM84.2 69.53a.38.38 0 1 0-.75-.1.38.38 0 0 0 .74.1ZM1.4 54.42a.29.29 0 1 0-.56-.07.29.29 0 0 0 .57.07ZM6.15 55.02a.4.4 0 1 0-.8-.1.4.4 0 0 0 .8.1ZM10.9 55.61a.53.53 0 1 0-1.05-.13.53.53 0 0 0 1.05.13ZM15.64 56.2a.64.64 0 1 0-1.28-.15.64.64 0 0 0 1.28.16ZM20.39 56.8a.76.76 0 1 0-1.52-.18.76.76 0 0 0 1.52.19ZM25.13 57.4a.88.88 0 1 0-1.75-.22.88.88 0 0 0 1.75.22ZM29.87 58a1 1 0 1 0-1.98-.25 1 1 0 0 0 1.98.25ZM34.62 58.6a1.12 1.12 0 1 0-2.22-.28 1.12 1.12 0 0 0 2.22.28ZM39.36 59.2a1.24 1.24 0 1 0-2.45-.32 1.24 1.24 0 0 0 2.45.31ZM44.1 59.79a1.36 1.36 0 1 0-2.68-.34 1.36 1.36 0 0 0 2.69.34ZM48.73 60.37a1.36 1.36 0 1 0-2.69-.34 1.36 1.36 0 0 0 2.7.34ZM53.24 60.94a1.24 1.24 0 1 0-2.45-.31 1.24 1.24 0 0 0 2.45.3ZM57.75 61.5a1.12 1.12 0 1 0-2.22-.27 1.12 1.12 0 0 0 2.22.28ZM62.26 62.07a1 1 0 1 0-1.98-.25 1 1 0 0 0 1.98.25ZM66.77 62.64a.88.88 0 1 0-1.75-.22.88.88 0 0 0 1.75.22ZM71.28 63.2a.76.76 0 1 0-1.51-.18.76.76 0 0 0 1.5.19ZM75.79 63.77a.64.64 0 1 0-1.28-.16.64.64 0 0 0 1.28.16ZM80.3 64.34a.53.53 0 1 0-1.05-.13.53.53 0 0 0 1.05.13ZM84.8 64.9a.4.4 0 1 0-.8-.1.4.4 0 0 0 .8.1ZM89.32 65.48a.29.29 0 1 0-.58-.08.29.29 0 0 0 .58.08ZM2 49.8a.3.3 0 1 0-.6-.08.3.3 0 0 0 .6.07ZM6.76 50.4a.44.44 0 1 0-.86-.12.44.44 0 0 0 .86.11ZM11.52 51a.57.57 0 1 0-1.13-.15.57.57 0 0 0 1.13.14ZM16.28 51.59a.7.7 0 1 0-1.4-.18.7.7 0 0 0 1.4.18ZM21.04 52.19a.84.84 0 1 0-1.66-.21.84.84 0 0 0 1.66.2ZM25.8 52.79a.97.97 0 1 0-1.93-.25.97.97 0 0 0 1.93.25ZM30.56 53.39a1.1 1.1 0 1 0-2.19-.28 1.1 1.1 0 0 0 2.19.28ZM35.32 53.98a1.24 1.24 0 1 0-2.46-.3 1.24 1.24 0 0 0 2.46.3ZM40.08 54.58a1.37 1.37 0 1 0-2.73-.34 1.37 1.37 0 0 0 2.73.34ZM44.84 55.18a1.5 1.5 0 1 0-2.99-.37 1.5 1.5 0 0 0 2.99.37ZM49.46 55.76a1.5 1.5 0 1 0-2.98-.37 1.5 1.5 0 0 0 2.98.37ZM53.96 56.33a1.37 1.37 0 1 0-2.73-.34 1.37 1.37 0 0 0 2.73.34ZM58.45 56.9a1.24 1.24 0 1 0-2.45-.32 1.24 1.24 0 0 0 2.45.31ZM62.94 57.46a1.1 1.1 0 1 0-2.18-.28 1.1 1.1 0 0 0 2.18.28ZM67.44 58.02a.97.97 0 1 0-1.93-.24.97.97 0 0 0 1.93.24ZM71.94 58.59a.84.84 0 1 0-1.67-.21.84.84 0 0 0 1.67.21ZM76.43 59.15a.7.7 0 1 0-1.4-.17.7.7 0 0 0 1.4.17ZM80.93 59.72a.57.57 0 1 0-1.14-.14.57.57 0 0 0 1.14.14ZM85.42 60.29a.44.44 0 1 0-.87-.11.44.44 0 0 0 .87.1ZM89.91 60.85a.3.3 0 1 0-.6-.08.3.3 0 0 0 .6.08ZM2.6 45.17a.32.32 0 1 0-.63-.08.32.32 0 0 0 .63.08ZM7.37 45.77a.47.47 0 1 0-.92-.12.47.47 0 0 0 .92.12ZM12.15 46.37a.61.61 0 1 0-1.22-.15.61.61 0 0 0 1.22.15ZM16.92 46.97a.76.76 0 1 0-1.51-.19.76.76 0 0 0 1.51.2ZM21.7 47.57a.91.91 0 1 0-1.81-.23.91.91 0 0 0 1.8.23ZM26.47 48.17a1.06 1.06 0 1 0-2.1-.26 1.06 1.06 0 0 0 2.1.26ZM31.24 48.77a1.2 1.2 0 1 0-2.4-.3 1.2 1.2 0 0 0 2.4.3ZM36.02 49.37a1.36 1.36 0 1 0-2.7-.34 1.36 1.36 0 0 0 2.7.34ZM40.8 49.97a1.5 1.5 0 1 0-3-.37 1.5 1.5 0 0 0 3 .37ZM45.57 50.57a1.65 1.65 0 1 0-3.28-.4 1.65 1.65 0 0 0 3.28.4ZM50.2 51.15a1.65 1.65 0 1 0-3.29-.4 1.65 1.65 0 0 0 3.28.4ZM54.67 51.72a1.5 1.5 0 1 0-2.98-.38 1.5 1.5 0 0 0 2.98.38ZM59.15 52.28a1.36 1.36 0 1 0-2.69-.34 1.36 1.36 0 0 0 2.7.34ZM63.63 52.85a1.2 1.2 0 1 0-2.4-.3 1.2 1.2 0 0 0 2.4.3ZM68.11 53.4a1.06 1.06 0 1 0-2.1-.26 1.06 1.06 0 0 0 2.1.27ZM72.6 53.97a.91.91 0 1 0-1.82-.23.91.91 0 0 0 1.81.23ZM77.07 54.54a.76.76 0 1 0-1.51-.2.76.76 0 0 0 1.51.2ZM81.55 55.1a.61.61 0 1 0-1.22-.15.61.61 0 0 0 1.22.15ZM86.03 55.66a.47.47 0 1 0-.93-.11.47.47 0 0 0 .93.11ZM90.5 56.23a.32.32 0 1 0-.62-.08.32.32 0 0 0 .63.08ZM3.18 40.54a.32.32 0 1 0-.63-.08.32.32 0 0 0 .63.08ZM7.96 41.14a.47.47 0 1 0-.93-.11.47.47 0 0 0 .93.11ZM12.73 41.74a.61.61 0 1 0-1.22-.15.61.61 0 0 0 1.22.15ZM17.5 42.34a.76.76 0 1 0-1.5-.19.76.76 0 0 0 1.5.2ZM22.28 42.94a.91.91 0 1 0-1.81-.22.91.91 0 0 0 1.8.22ZM27.05 43.54a1.06 1.06 0 1 0-2.1-.26 1.06 1.06 0 0 0 2.1.26ZM31.83 44.15a1.2 1.2 0 1 0-2.4-.3 1.2 1.2 0 0 0 2.4.3ZM36.6 44.75a1.36 1.36 0 1 0-2.7-.34 1.36 1.36 0 0 0 2.7.34ZM41.37 45.35a1.5 1.5 0 1 0-2.98-.38 1.5 1.5 0 0 0 2.98.38ZM46.15 45.95a1.65 1.65 0 1 0-3.28-.42 1.65 1.65 0 0 0 3.28.42ZM50.77 46.53a1.65 1.65 0 1 0-3.28-.41 1.65 1.65 0 0 0 3.28.4ZM55.25 47.1a1.5 1.5 0 1 0-2.98-.38 1.5 1.5 0 0 0 2.98.37ZM59.73 47.66a1.36 1.36 0 1 0-2.69-.34 1.36 1.36 0 0 0 2.7.34ZM64.21 48.22a1.2 1.2 0 1 0-2.4-.3 1.2 1.2 0 0 0 2.4.3ZM68.7 48.78a1.06 1.06 0 1 0-2.11-.26 1.06 1.06 0 0 0 2.1.26ZM73.17 49.35a.91.91 0 1 0-1.8-.23.91.91 0 0 0 1.8.23ZM77.65 49.9a.76.76 0 1 0-1.51-.18.76.76 0 0 0 1.51.19ZM82.13 50.47a.61.61 0 1 0-1.22-.15.61.61 0 0 0 1.22.15ZM86.61 51.04a.47.47 0 1 0-.92-.12.47.47 0 0 0 .92.12ZM91.09 51.6a.32.32 0 1 0-.63-.08.32.32 0 0 0 .63.08ZM3.75 35.91a.3.3 0 1 0-.6-.07.3.3 0 0 0 .6.07ZM8.5 36.51a.44.44 0 1 0-.86-.1.44.44 0 0 0 .87.1ZM13.27 37.11a.57.57 0 1 0-1.13-.14.57.57 0 0 0 1.13.14ZM18.03 37.71a.7.7 0 1 0-1.4-.18.7.7 0 0 0 1.4.18ZM22.79 38.3a.84.84 0 1 0-1.67-.2.84.84 0 0 0 1.67.2ZM27.55 38.9a.97.97 0 1 0-1.93-.24.97.97 0 0 0 1.93.25ZM32.3 39.5a1.1 1.1 0 1 0-2.18-.27 1.1 1.1 0 0 0 2.18.28ZM37.06 40.1a1.24 1.24 0 1 0-2.45-.3 1.24 1.24 0 0 0 2.45.3ZM41.83 40.7a1.37 1.37 0 1 0-2.73-.34 1.37 1.37 0 0 0 2.73.34ZM46.58 41.3a1.5 1.5 0 1 0-2.98-.37 1.5 1.5 0 0 0 2.98.37ZM51.21 41.88a1.5 1.5 0 1 0-2.99-.37 1.5 1.5 0 0 0 2.99.37ZM55.7 42.45a1.37 1.37 0 1 0-2.72-.34 1.37 1.37 0 0 0 2.73.34ZM60.2 43.01a1.24 1.24 0 1 0-2.46-.3 1.24 1.24 0 0 0 2.46.3ZM64.69 43.58a1.1 1.1 0 1 0-2.19-.28 1.1 1.1 0 0 0 2.19.28ZM69.19 44.14a.97.97 0 1 0-1.93-.24.97.97 0 0 0 1.93.24ZM73.68 44.7a.84.84 0 1 0-1.66-.2.84.84 0 0 0 1.66.2ZM78.17 45.27a.7.7 0 1 0-1.4-.17.7.7 0 0 0 1.4.17ZM82.67 45.84a.57.57 0 1 0-1.13-.14.57.57 0 0 0 1.13.14ZM87.16 46.4a.44.44 0 1 0-.86-.1.44.44 0 0 0 .86.1ZM91.66 46.97a.3.3 0 1 0-.6-.08.3.3 0 0 0 .6.08ZM4.32 31.29a.29.29 0 1 0-.57-.08.29.29 0 0 0 .57.08ZM9.06 31.88a.4.4 0 1 0-.8-.1.4.4 0 0 0 .8.1ZM13.8 32.48a.53.53 0 1 0-1.04-.13.53.53 0 0 0 1.05.13ZM18.55 33.08a.64.64 0 1 0-1.28-.17.64.64 0 0 0 1.28.17ZM23.3 33.67a.76.76 0 1 0-1.52-.19.76.76 0 0 0 1.52.2ZM28.04 34.27a.88.88 0 1 0-1.75-.22.88.88 0 0 0 1.75.22ZM32.78 34.87a1 1 0 1 0-1.98-.25 1 1 0 0 0 1.98.25ZM37.53 35.46a1.12 1.12 0 1 0-2.22-.28 1.12 1.12 0 0 0 2.22.28ZM42.27 36.06a1.24 1.24 0 1 0-2.45-.31 1.24 1.24 0 0 0 2.45.3ZM47.02 36.66a1.36 1.36 0 1 0-2.7-.34 1.36 1.36 0 0 0 2.7.34ZM51.64 37.24a1.36 1.36 0 1 0-2.69-.34 1.36 1.36 0 0 0 2.7.34ZM56.15 37.8a1.24 1.24 0 1 0-2.45-.3 1.24 1.24 0 0 0 2.45.3ZM60.66 38.37a1.12 1.12 0 1 0-2.22-.28 1.12 1.12 0 0 0 2.22.28ZM65.17 38.94a1 1 0 1 0-1.98-.25 1 1 0 0 0 1.98.25ZM69.68 39.5a.88.88 0 1 0-1.75-.21.88.88 0 0 0 1.75.22ZM74.19 40.07a.76.76 0 1 0-1.52-.19.76.76 0 0 0 1.52.2ZM78.7 40.64a.64.64 0 1 0-1.28-.16.64.64 0 0 0 1.28.16ZM83.2 41.2a.53.53 0 1 0-1.04-.12.53.53 0 0 0 1.05.13ZM87.72 41.77a.4.4 0 1 0-.81-.1.4.4 0 0 0 .8.1ZM92.22 42.34a.29.29 0 1 0-.57-.07.29.29 0 0 0 .57.07ZM9.61 27.25a.38.38 0 1 0-.74-.1.38.38 0 0 0 .74.1ZM14.34 27.85a.48.48 0 1 0-.95-.12.48.48 0 0 0 .95.12ZM19.07 28.44a.58.58 0 1 0-1.16-.14.58.58 0 0 0 1.16.14ZM23.8 29.04a.7.7 0 1 0-1.37-.18.7.7 0 0 0 1.38.18ZM28.53 29.63a.8.8 0 1 0-1.57-.2.8.8 0 0 0 1.57.2ZM33.26 30.23A.9.9 0 1 0 31.5 30a.9.9 0 0 0 1.77.23ZM38 30.82a1 1 0 1 0-2-.25 1 1 0 0 0 2 .25ZM42.72 31.42a1.1 1.1 0 1 0-2.2-.28 1.1 1.1 0 0 0 2.2.28ZM47.45 32.01a1.2 1.2 0 1 0-2.4-.3 1.2 1.2 0 0 0 2.4.3ZM52.08 32.6a1.2 1.2 0 1 0-2.4-.3 1.2 1.2 0 0 0 2.4.3ZM56.6 33.16a1.1 1.1 0 1 0-2.2-.27 1.1 1.1 0 0 0 2.2.27ZM61.13 33.73a1 1 0 1 0-1.99-.25 1 1 0 0 0 1.99.25ZM65.65 34.3a.9.9 0 1 0-1.78-.22.9.9 0 0 0 1.78.22ZM70.17 34.87a.8.8 0 1 0-1.57-.2.8.8 0 0 0 1.57.2ZM74.7 35.44a.7.7 0 1 0-1.37-.18.7.7 0 0 0 1.37.18ZM79.22 36a.59.59 0 1 0-1.16-.14.59.59 0 0 0 1.16.15ZM83.74 36.57a.48.48 0 1 0-.95-.11.48.48 0 0 0 .95.11ZM88.27 37.14a.38.38 0 1 0-.75-.09.38.38 0 0 0 .75.1ZM10.17 22.62a.35.35 0 1 0-.7-.09.35.35 0 0 0 .7.1ZM14.88 23.21a.44.44 0 1 0-.86-.1.44.44 0 0 0 .86.1ZM19.6 23.8a.53.53 0 1 0-1.05-.12.53.53 0 0 0 1.05.13ZM24.31 24.4a.61.61 0 1 0-1.22-.15.61.61 0 0 0 1.22.15ZM29.03 25a.7.7 0 1 0-1.4-.18.7.7 0 0 0 1.4.17ZM33.74 25.59a.8.8 0 1 0-1.57-.2.8.8 0 0 0 1.57.2ZM38.46 26.18a.88.88 0 1 0-1.75-.22.88.88 0 0 0 1.75.22ZM43.17 26.77a.97.97 0 1 0-1.92-.24.97.97 0 0 0 1.92.24ZM47.89 27.37a1.06 1.06 0 1 0-2.1-.27 1.06 1.06 0 0 0 2.1.27ZM52.51 27.95a1.06 1.06 0 1 0-2.1-.27 1.06 1.06 0 0 0 2.1.27ZM57.05 28.52a.97.97 0 1 0-1.92-.24.97.97 0 0 0 1.92.24ZM61.6 29.09a.88.88 0 1 0-1.76-.22.88.88 0 0 0 1.75.22ZM66.13 29.66a.8.8 0 1 0-1.57-.2.8.8 0 0 0 1.57.2ZM70.67 30.23a.7.7 0 1 0-1.4-.18.7.7 0 0 0 1.4.18ZM75.2 30.8a.61.61 0 1 0-1.21-.15.61.61 0 0 0 1.22.15ZM79.74 31.37a.53.53 0 1 0-1.04-.13.53.53 0 0 0 1.04.13ZM84.28 31.94a.44.44 0 1 0-.86-.1.44.44 0 0 0 .86.1ZM88.82 32.51a.35.35 0 1 0-.69-.08.35.35 0 0 0 .7.08ZM15.42 18.58a.4.4 0 1 0-.78-.1.4.4 0 0 0 .78.1ZM20.12 19.17a.47.47 0 1 0-.93-.11.47.47 0 0 0 .93.11ZM24.82 19.76a.54.54 0 1 0-1.07-.13.54.54 0 0 0 1.07.13ZM29.52 20.36a.61.61 0 1 0-1.22-.16.61.61 0 0 0 1.22.16ZM34.22 20.95a.7.7 0 1 0-1.37-.18.7.7 0 0 0 1.37.18ZM38.92 21.54a.76.76 0 1 0-1.51-.2.76.76 0 0 0 1.51.2ZM43.62 22.13a.84.84 0 1 0-1.66-.21.84.84 0 0 0 1.66.2ZM48.32 22.72a.91.91 0 1 0-1.8-.23.91.91 0 0 0 1.8.23ZM52.95 23.3a.91.91 0 1 0-1.81-.23.91.91 0 0 0 1.8.23ZM57.5 23.88a.84.84 0 1 0-1.66-.21.84.84 0 0 0 1.66.2ZM62.05 24.45a.76.76 0 1 0-1.5-.2.76.76 0 0 0 1.5.2ZM66.61 25.02a.7.7 0 1 0-1.37-.17.7.7 0 0 0 1.37.17ZM71.16 25.6a.61.61 0 1 0-1.22-.16.61.61 0 0 0 1.22.15ZM75.71 26.17a.54.54 0 1 0-1.07-.14.54.54 0 0 0 1.07.14ZM80.27 26.74a.47.47 0 1 0-.93-.12.47.47 0 0 0 .93.12ZM84.82 27.31a.4.4 0 1 0-.78-.1.4.4 0 0 0 .78.1ZM15.96 13.95a.35.35 0 1 0-.7-.09.35.35 0 0 0 .7.09ZM20.64 14.54a.4.4 0 1 0-.8-.1.4.4 0 0 0 .8.1ZM25.33 15.13a.47.47 0 1 0-.93-.12.47.47 0 0 0 .93.12ZM30.01 15.72a.53.53 0 1 0-1.04-.13.53.53 0 0 0 1.04.13ZM34.7 16.3a.58.58 0 1 0-1.16-.14.58.58 0 0 0 1.16.15ZM39.39 16.9a.64.64 0 1 0-1.28-.16.64.64 0 0 0 1.28.16ZM44.07 17.49a.7.7 0 1 0-1.4-.18.7.7 0 0 0 1.4.18ZM48.76 18.07a.76.76 0 1 0-1.52-.19.76.76 0 0 0 1.52.2ZM53.38 18.66a.76.76 0 1 0-1.51-.2.76.76 0 0 0 1.51.2ZM57.95 19.23a.7.7 0 1 0-1.4-.17.7.7 0 0 0 1.4.17ZM62.52 19.8a.64.64 0 1 0-1.28-.16.64.64 0 0 0 1.28.17ZM67.09 20.38a.59.59 0 1 0-1.16-.15.59.59 0 0 0 1.16.15ZM71.65 20.95a.53.53 0 1 0-1.04-.13.53.53 0 0 0 1.04.13ZM76.22 21.53a.47.47 0 1 0-.92-.12.47.47 0 0 0 .92.12ZM80.79 22.1a.4.4 0 1 0-.8-.1.4.4 0 0 0 .8.1ZM85.36 22.68a.35.35 0 1 0-.7-.09.35.35 0 0 0 .7.09ZM21.17 9.9a.35.35 0 1 0-.7-.08.35.35 0 0 0 .7.08ZM25.84 10.5a.4.4 0 1 0-.78-.1.4.4 0 0 0 .78.1ZM30.5 11.08a.44.44 0 1 0-.86-.1.44.44 0 0 0 .87.1ZM35.18 11.67a.48.48 0 1 0-.95-.12.48.48 0 0 0 .95.12ZM39.85 12.25a.53.53 0 1 0-1.04-.13.53.53 0 0 0 1.04.13ZM44.52 12.84a.57.57 0 1 0-1.13-.14.57.57 0 0 0 1.13.14ZM49.2 13.43a.61.61 0 1 0-1.23-.15.61.61 0 0 0 1.22.15ZM53.82 14.01a.61.61 0 1 0-1.22-.15.61.61 0 0 0 1.22.15ZM58.4 14.59a.57.57 0 1 0-1.13-.14.57.57 0 0 0 1.13.14ZM62.98 15.16a.53.53 0 1 0-1.04-.13.53.53 0 0 0 1.04.13ZM67.56 15.74a.48.48 0 1 0-.95-.12.48.48 0 0 0 .95.12ZM72.15 16.32a.44.44 0 1 0-.87-.11.44.44 0 0 0 .87.1ZM76.73 16.9a.4.4 0 1 0-.78-.1.4.4 0 0 0 .78.1ZM81.31 17.47a.35.35 0 1 0-.69-.09.35.35 0 0 0 .7.09ZM31 6.44a.35.35 0 1 0-.69-.08.35.35 0 0 0 .7.08ZM35.66 7.03a.38.38 0 1 0-.75-.1.38.38 0 0 0 .75.1ZM40.31 7.61a.4.4 0 1 0-.8-.1.4.4 0 0 0 .8.1ZM44.97 8.2a.44.44 0 1 0-.87-.11.44.44 0 0 0 .87.1ZM49.63 8.78a.47.47 0 1 0-.93-.11.47.47 0 0 0 .93.11ZM54.25 9.37a.47.47 0 1 0-.92-.12.47.47 0 0 0 .92.12ZM58.85 9.94a.44.44 0 1 0-.87-.1.44.44 0 0 0 .87.1ZM63.45 10.52a.4.4 0 1 0-.81-.1.4.4 0 0 0 .8.1ZM68.04 11.1a.38.38 0 1 0-.74-.1.38.38 0 0 0 .74.1ZM72.64 11.68a.35.35 0 1 0-.69-.09.35.35 0 0 0 .7.09ZM40.78 2.97a.29.29 0 1 0-.57-.07.29.29 0 0 0 .57.07ZM45.42 3.56a.3.3 0 1 0-.6-.08.3.3 0 0 0 .6.08ZM50.06 4.14a.32.32 0 1 0-.63-.08.32.32 0 0 0 .63.08ZM54.69 4.72a.32.32 0 1 0-.63-.08.32.32 0 0 0 .63.08ZM59.3 5.3a.3.3 0 1 0-.6-.07.3.3 0 0 0 .6.07ZM63.91 5.88a.29.29 0 1 0-.57-.07.29.29 0 0 0 .57.07Z"/></g><defs><clipPath id="a"><path fill="#fff" d="M.04 0h93.02v95H.04z"/></clipPath></defs></svg>