<svg xmlns="http://www.w3.org/2000/svg" width="94" height="95" fill="none"><g fill="#0051FF" clip-path="url(#a)"><path d="M7.19 71.63a.29.29 0 1 0-.41-.4.29.29 0 0 0 .4.4ZM10.5 74.94a.3.3 0 1 0-.43-.43.3.3 0 0 0 .43.43ZM13.8 78.24a.32.32 0 1 0-.45-.45.32.32 0 0 0 .45.45ZM17.1 81.54a.32.32 0 1 0-.45-.45.32.32 0 0 0 .45.45ZM20.39 84.83a.3.3 0 1 0-.43-.43.3.3 0 0 0 .43.43ZM23.67 88.12a.29.29 0 1 0-.4-.41.29.29 0 0 0 .4.4ZM3.93 61.78a.35.35 0 1 0-.49-.5.35.35 0 0 0 .5.5ZM7.25 65.1a.38.38 0 1 0-.53-.54.38.38 0 0 0 .53.54ZM10.57 68.42a.4.4 0 1 0-.58-.58.4.4 0 0 0 .58.58ZM13.89 71.73a.44.44 0 1 0-.62-.61.44.44 0 0 0 .62.61ZM17.2 75.05a.47.47 0 1 0-.65-.66.47.47 0 0 0 .66.66ZM20.5 78.35a.47.47 0 1 0-.66-.66.47.47 0 0 0 .66.66ZM23.78 81.63a.44.44 0 1 0-.62-.62.44.44 0 0 0 .62.62ZM27.06 84.9a.4.4 0 1 0-.58-.57.4.4 0 0 0 .58.57ZM30.33 88.18a.38.38 0 1 0-.53-.54.38.38 0 0 0 .53.54ZM33.6 91.45a.35.35 0 1 0-.48-.49.35.35 0 0 0 .49.5ZM.63 51.89a.35.35 0 1 0-.49-.5.35.35 0 0 0 .5.5ZM3.96 55.22a.4.4 0 1 0-.55-.56.4.4 0 0 0 .55.56ZM7.3 58.54a.44.44 0 1 0-.63-.61.44.44 0 0 0 .62.61ZM10.62 61.87a.48.48 0 1 0-.68-.68.48.48 0 0 0 .68.68ZM13.95 65.2a.53.53 0 1 0-.74-.74.53.53 0 0 0 .74.74ZM17.28 68.53a.57.57 0 1 0-.8-.8.57.57 0 0 0 .8.8ZM20.6 71.86a.61.61 0 1 0-.86-.87.61.61 0 0 0 .87.87ZM23.9 75.16a.61.61 0 1 0-.86-.87.61.61 0 0 0 .86.87ZM27.17 78.42a.57.57 0 1 0-.8-.8.57.57 0 0 0 .8.8ZM30.44 81.69a.53.53 0 1 0-.75-.74.53.53 0 0 0 .75.74ZM33.7 84.95a.48.48 0 1 0-.68-.67.48.48 0 0 0 .68.67ZM36.97 88.22a.44.44 0 1 0-.62-.62.44.44 0 0 0 .62.62ZM40.24 91.49a.4.4 0 1 0-.56-.56.4.4 0 0 0 .56.56ZM43.5 94.75a.35.35 0 1 0-.5-.49.35.35 0 0 0 .5.5ZM.63 45.3a.35.35 0 1 0-.49-.5.35.35 0 0 0 .5.5ZM3.97 48.63a.4.4 0 1 0-.57-.57.4.4 0 0 0 .57.57ZM7.31 51.97a.47.47 0 1 0-.66-.66.47.47 0 0 0 .66.66ZM10.65 55.31a.53.53 0 1 0-.74-.74.53.53 0 0 0 .74.74ZM14 58.65a.59.59 0 1 0-.84-.83.59.59 0 0 0 .83.83ZM17.33 61.99a.64.64 0 1 0-.91-.91.64.64 0 0 0 .91.9ZM20.67 65.33a.7.7 0 1 0-1-1 .7.7 0 0 0 1 1ZM24.01 68.67a.76.76 0 1 0-1.08-1.08.76.76 0 0 0 1.08 1.08ZM27.3 71.96a.76.76 0 1 0-1.07-1.07.76.76 0 0 0 1.08 1.07ZM30.56 75.22a.7.7 0 1 0-1-1 .7.7 0 0 0 1 1ZM33.82 78.48a.64.64 0 1 0-.91-.92.64.64 0 0 0 .9.92ZM37.07 81.73a.59.59 0 1 0-.82-.83.59.59 0 0 0 .82.83ZM40.33 84.99a.53.53 0 1 0-.74-.75.53.53 0 0 0 .74.75ZM43.58 88.24a.47.47 0 1 0-.66-.66.47.47 0 0 0 .66.66ZM46.84 91.5a.4.4 0 1 0-.58-.58.4.4 0 0 0 .58.58ZM50.1 94.75a.35.35 0 1 0-.5-.49.35.35 0 0 0 .5.5ZM3.96 42.03a.4.4 0 1 0-.55-.56.4.4 0 0 0 .55.56ZM7.31 45.38a.47.47 0 1 0-.66-.66.47.47 0 0 0 .66.66ZM10.66 48.72a.54.54 0 1 0-.76-.76.54.54 0 0 0 .76.76ZM14.01 52.08a.61.61 0 1 0-.87-.87.61.61 0 0 0 .87.87ZM17.36 55.43a.7.7 0 1 0-.97-.98.7.7 0 0 0 .97.98ZM20.71 58.78a.76.76 0 1 0-1.08-1.08.76.76 0 0 0 1.08 1.08ZM24.06 62.13a.84.84 0 1 0-1.18-1.2.84.84 0 0 0 1.18 1.2ZM27.41 65.47a.91.91 0 1 0-1.29-1.28.91.91 0 0 0 1.3 1.28ZM30.7 68.77a.91.91 0 1 0-1.28-1.29.91.91 0 0 0 1.29 1.3ZM33.96 72.02a.84.84 0 1 0-1.2-1.19.84.84 0 0 0 1.2 1.19ZM37.2 75.26a.76.76 0 1 0-1.08-1.08.76.76 0 0 0 1.08 1.08ZM40.45 78.5a.7.7 0 1 0-.98-.97.7.7 0 0 0 .98.98ZM43.69 81.75a.61.61 0 1 0-.87-.87.61.61 0 0 0 .87.87ZM46.93 85a.54.54 0 1 0-.76-.77.54.54 0 0 0 .76.77ZM50.18 88.24a.47.47 0 1 0-.66-.66.47.47 0 0 0 .66.66ZM53.43 91.49a.4.4 0 1 0-.56-.56.4.4 0 0 0 .56.56ZM3.93 35.4a.35.35 0 1 0-.49-.5.35.35 0 0 0 .5.5ZM7.3 38.76a.44.44 0 1 0-.63-.62.44.44 0 0 0 .62.62ZM10.65 42.12a.53.53 0 1 0-.74-.74.53.53 0 0 0 .74.74ZM14.01 45.48a.61.61 0 1 0-.87-.87.61.61 0 0 0 .87.87ZM17.37 48.84a.7.7 0 1 0-1-1 .7.7 0 0 0 1 1ZM20.73 52.2a.8.8 0 1 0-1.12-1.12.8.8 0 0 0 1.12 1.12ZM24.1 55.56a.88.88 0 1 0-1.25-1.25.88.88 0 0 0 1.24 1.25ZM27.45 58.92a.97.97 0 1 0-1.37-1.37.97.97 0 0 0 1.37 1.37ZM30.81 62.28a1.06 1.06 0 1 0-1.5-1.5 1.06 1.06 0 0 0 1.5 1.5ZM34.11 65.58a1.06 1.06 0 1 0-1.5-1.5 1.06 1.06 0 0 0 1.5 1.5ZM37.35 68.81a.97.97 0 1 0-1.38-1.37.97.97 0 0 0 1.38 1.37ZM40.58 72.05a.88.88 0 1 0-1.25-1.25.88.88 0 0 0 1.25 1.25ZM43.81 75.28a.8.8 0 1 0-1.12-1.12.8.8 0 0 0 1.12 1.12ZM47.05 78.52a.7.7 0 1 0-1-1 .7.7 0 0 0 1 1ZM50.28 81.75a.61.61 0 1 0-.87-.87.61.61 0 0 0 .87.87ZM53.52 84.99a.53.53 0 1 0-.75-.75.53.53 0 0 0 .75.75ZM56.75 88.22a.44.44 0 1 0-.61-.62.44.44 0 0 0 .61.62ZM59.99 91.45a.35.35 0 1 0-.5-.49.35.35 0 0 0 .5.5ZM7.25 32.12a.38.38 0 1 0-.53-.53.38.38 0 0 0 .53.53ZM10.62 35.5a.48.48 0 1 0-.68-.68.48.48 0 0 0 .68.67ZM14 38.87a.59.59 0 1 0-.84-.83.59.59 0 0 0 .83.83ZM17.36 42.24a.7.7 0 1 0-.97-.98.7.7 0 0 0 .97.98ZM20.73 45.6a.8.8 0 1 0-1.12-1.11.8.8 0 0 0 1.12 1.12ZM24.1 48.98a.9.9 0 1 0-1.26-1.27.9.9 0 0 0 1.26 1.27ZM27.48 52.35a1 1 0 1 0-1.42-1.42 1 1 0 0 0 1.42 1.42ZM30.85 55.72a1.1 1.1 0 1 0-1.57-1.56 1.1 1.1 0 0 0 1.57 1.56ZM34.22 59.09a1.2 1.2 0 1 0-1.71-1.7 1.2 1.2 0 0 0 1.7 1.7ZM37.51 62.39a1.2 1.2 0 1 0-1.7-1.71 1.2 1.2 0 0 0 1.7 1.7ZM40.74 65.61a1.1 1.1 0 1 0-1.57-1.56 1.1 1.1 0 0 0 1.57 1.56ZM43.96 68.84a1 1 0 1 0-1.41-1.42 1 1 0 0 0 1.41 1.42ZM47.18 72.06a.9.9 0 1 0-1.26-1.27.9.9 0 0 0 1.26 1.27ZM50.41 75.28a.8.8 0 1 0-1.12-1.12.8.8 0 0 0 1.12 1.12ZM53.64 78.5a.7.7 0 1 0-.98-.97.7.7 0 0 0 .98.98ZM56.86 81.73a.59.59 0 1 0-.83-.83.59.59 0 0 0 .83.83ZM60.08 84.95a.48.48 0 1 0-.68-.67.48.48 0 0 0 .68.67ZM63.3 88.18a.38.38 0 1 0-.53-.54.38.38 0 0 0 .54.54ZM7.19 25.47a.29.29 0 1 0-.41-.41.29.29 0 0 0 .4.4ZM10.57 28.85a.4.4 0 1 0-.58-.58.4.4 0 0 0 .58.58ZM13.95 32.23a.53.53 0 1 0-.74-.74.53.53 0 0 0 .74.74ZM17.33 35.61a.64.64 0 1 0-.91-.91.64.64 0 0 0 .91.91ZM20.71 39a.76.76 0 1 0-1.08-1.09.76.76 0 0 0 1.08 1.08ZM24.1 42.37a.88.88 0 1 0-1.25-1.24.88.88 0 0 0 1.24 1.24ZM27.48 45.75a1 1 0 1 0-1.42-1.41 1 1 0 0 0 1.42 1.41ZM30.86 49.13a1.12 1.12 0 1 0-1.59-1.58 1.12 1.12 0 0 0 1.59 1.59ZM34.24 52.52a1.24 1.24 0 1 0-1.75-1.75 1.24 1.24 0 0 0 1.75 1.75ZM37.62 55.9a1.36 1.36 0 1 0-1.92-1.92 1.36 1.36 0 0 0 1.92 1.92ZM40.92 59.2A1.36 1.36 0 1 0 39 57.27a1.36 1.36 0 0 0 1.92 1.91ZM44.13 62.4a1.24 1.24 0 1 0-1.75-1.74 1.24 1.24 0 0 0 1.75 1.75ZM47.34 65.62a1.12 1.12 0 1 0-1.58-1.58 1.12 1.12 0 0 0 1.58 1.58ZM50.56 68.84a1 1 0 1 0-1.42-1.42 1 1 0 0 0 1.42 1.42ZM53.77 72.05a.88.88 0 1 0-1.25-1.25.88.88 0 0 0 1.25 1.25ZM56.98 75.26a.76.76 0 1 0-1.08-1.08.76.76 0 0 0 1.08 1.08ZM60.2 78.48a.64.64 0 1 0-.91-.92.64.64 0 0 0 .9.92ZM63.41 81.69a.53.53 0 1 0-.74-.74.53.53 0 0 0 .74.74ZM66.62 84.9a.4.4 0 1 0-.57-.57.4.4 0 0 0 .57.57ZM69.84 88.12a.29.29 0 1 0-.41-.41.29.29 0 0 0 .4.4ZM10.5 22.18a.3.3 0 1 0-.44-.43.3.3 0 0 0 .44.43ZM13.89 25.57a.44.44 0 1 0-.62-.62.44.44 0 0 0 .62.62ZM17.28 28.96a.57.57 0 1 0-.8-.8.57.57 0 0 0 .8.8ZM20.67 32.35a.7.7 0 1 0-1-1 .7.7 0 0 0 1 1ZM24.06 35.75a.84.84 0 1 0-1.18-1.19.84.84 0 0 0 1.18 1.19ZM27.45 39.14a.97.97 0 1 0-1.37-1.37.97.97 0 0 0 1.37 1.37ZM30.84 42.53a1.1 1.1 0 1 0-1.55-1.56 1.1 1.1 0 0 0 1.55 1.56ZM34.24 45.92a1.24 1.24 0 1 0-1.75-1.75 1.24 1.24 0 0 0 1.75 1.75ZM37.63 49.31a1.37 1.37 0 1 0-1.94-1.94 1.37 1.37 0 0 0 1.94 1.94ZM41.02 52.7a1.5 1.5 0 1 0-2.13-2.12 1.5 1.5 0 0 0 2.13 2.13ZM44.32 56a1.5 1.5 0 1 0-2.13-2.13A1.5 1.5 0 0 0 44.32 56ZM47.52 59.2a1.37 1.37 0 1 0-1.94-1.94 1.37 1.37 0 0 0 1.94 1.95ZM50.72 62.4a1.24 1.24 0 1 0-1.75-1.74 1.24 1.24 0 0 0 1.75 1.75ZM53.93 65.61a1.1 1.1 0 1 0-1.56-1.56 1.1 1.1 0 0 0 1.56 1.56ZM57.13 68.81a.97.97 0 1 0-1.37-1.37.97.97 0 0 0 1.37 1.37ZM60.33 72.02a.84.84 0 1 0-1.18-1.19.84.84 0 0 0 1.18 1.19ZM63.54 75.22a.7.7 0 1 0-1-1 .7.7 0 0 0 1 1ZM66.74 78.42a.57.57 0 1 0-.8-.8.57.57 0 0 0 .8.8ZM69.94 81.63a.44.44 0 1 0-.62-.62.44.44 0 0 0 .62.62ZM73.15 84.83a.3.3 0 1 0-.44-.43.3.3 0 0 0 .44.43ZM13.8 18.9a.32.32 0 1 0-.45-.46.32.32 0 0 0 .45.45ZM17.2 22.3a.47.47 0 1 0-.65-.66.47.47 0 0 0 .66.65ZM20.6 25.7a.61.61 0 1 0-.86-.87.61.61 0 0 0 .87.87ZM24.01 29.1a.76.76 0 1 0-1.08-1.08.76.76 0 0 0 1.08 1.08ZM27.41 32.5a.91.91 0 1 0-1.29-1.29.91.91 0 0 0 1.3 1.3ZM30.81 35.9a1.06 1.06 0 1 0-1.5-1.5 1.06 1.06 0 0 0 1.5 1.5ZM34.22 39.3a1.2 1.2 0 1 0-1.71-1.7 1.2 1.2 0 0 0 1.7 1.7ZM37.62 42.7a1.36 1.36 0 1 0-1.92-1.91 1.36 1.36 0 0 0 1.92 1.92ZM41.02 46.11a1.5 1.5 0 1 0-2.13-2.13 1.5 1.5 0 0 0 2.13 2.13ZM44.42 49.51a1.65 1.65 0 1 0-2.33-2.34 1.65 1.65 0 0 0 2.33 2.34ZM47.72 52.81a1.65 1.65 0 1 0-2.34-2.34 1.65 1.65 0 0 0 2.34 2.34ZM50.91 56a1.5 1.5 0 1 0-2.13-2.13A1.5 1.5 0 0 0 50.91 56ZM54.1 59.2a1.36 1.36 0 1 0-1.91-1.92 1.36 1.36 0 0 0 1.92 1.91ZM57.3 62.39a1.2 1.2 0 1 0-1.71-1.71 1.2 1.2 0 0 0 1.7 1.7ZM60.5 65.58a1.06 1.06 0 1 0-1.5-1.5 1.06 1.06 0 0 0 1.5 1.5ZM63.68 68.77a.91.91 0 1 0-1.29-1.29.91.91 0 0 0 1.3 1.3ZM66.88 71.96a.76.76 0 1 0-1.08-1.07.76.76 0 0 0 1.08 1.07ZM70.07 75.16a.61.61 0 1 0-.87-.87.61.61 0 0 0 .87.87ZM73.26 78.35a.47.47 0 1 0-.66-.66.47.47 0 0 0 .66.66ZM76.45 81.54a.32.32 0 1 0-.45-.45.32.32 0 0 0 .45.45ZM17.1 15.6a.32.32 0 1 0-.45-.45.32.32 0 0 0 .45.45ZM20.5 19a.47.47 0 1 0-.66-.66.47.47 0 0 0 .66.66ZM23.9 22.4a.61.61 0 1 0-.86-.87.61.61 0 0 0 .86.87ZM27.3 25.8a.76.76 0 1 0-1.07-1.08.76.76 0 0 0 1.08 1.08ZM30.7 29.2a.91.91 0 1 0-1.28-1.28.91.91 0 0 0 1.29 1.28ZM34.11 32.6a1.06 1.06 0 1 0-1.5-1.5 1.06 1.06 0 0 0 1.5 1.5ZM37.51 36a1.2 1.2 0 1 0-1.7-1.7 1.2 1.2 0 0 0 1.7 1.7ZM40.92 39.41A1.36 1.36 0 1 0 39 37.5a1.36 1.36 0 0 0 1.92 1.92ZM44.32 42.81a1.5 1.5 0 1 0-2.13-2.13 1.5 1.5 0 0 0 2.13 2.13ZM47.72 46.22a1.65 1.65 0 1 0-2.34-2.34 1.65 1.65 0 0 0 2.34 2.34ZM51.02 49.51a1.65 1.65 0 1 0-2.34-2.34 1.65 1.65 0 0 0 2.34 2.34ZM54.21 52.7a1.5 1.5 0 1 0-2.13-2.12 1.5 1.5 0 0 0 2.13 2.13ZM57.4 55.9a1.36 1.36 0 1 0-1.92-1.92 1.36 1.36 0 0 0 1.92 1.92ZM60.6 59.09a1.2 1.2 0 1 0-1.71-1.7 1.2 1.2 0 0 0 1.7 1.7ZM63.79 62.28a1.06 1.06 0 1 0-1.5-1.5 1.06 1.06 0 0 0 1.5 1.5ZM66.98 65.47a.91.91 0 1 0-1.29-1.28.91.91 0 0 0 1.29 1.28ZM70.17 68.67a.76.76 0 1 0-1.08-1.08.76.76 0 0 0 1.08 1.08ZM73.37 71.86a.61.61 0 1 0-.87-.87.61.61 0 0 0 .87.87ZM76.56 75.05a.47.47 0 1 0-.66-.66.47.47 0 0 0 .66.66ZM79.75 78.24a.32.32 0 1 0-.45-.45.32.32 0 0 0 .45.45ZM20.39 12.29a.3.3 0 1 0-.43-.43.3.3 0 0 0 .43.43ZM23.78 15.68a.44.44 0 1 0-.62-.62.44.44 0 0 0 .62.62ZM27.17 19.07a.57.57 0 1 0-.8-.8.57.57 0 0 0 .8.8ZM30.56 22.46a.7.7 0 1 0-1-1 .7.7 0 0 0 1 1ZM33.96 25.86a.84.84 0 1 0-1.2-1.2.84.84 0 0 0 1.2 1.2ZM37.35 29.25a.97.97 0 1 0-1.38-1.38.97.97 0 0 0 1.38 1.38ZM40.74 32.64a1.1 1.1 0 1 0-1.56-1.56 1.1 1.1 0 0 0 1.56 1.56ZM44.13 36.03a1.24 1.24 0 1 0-1.75-1.75 1.24 1.24 0 0 0 1.75 1.75ZM47.52 39.42a1.37 1.37 0 1 0-1.94-1.94 1.37 1.37 0 0 0 1.94 1.94ZM50.91 42.81a1.5 1.5 0 1 0-2.13-2.13 1.5 1.5 0 0 0 2.13 2.13ZM54.21 46.11a1.5 1.5 0 1 0-2.13-2.13 1.5 1.5 0 0 0 2.13 2.13ZM57.41 49.31a1.37 1.37 0 1 0-1.94-1.94 1.37 1.37 0 0 0 1.95 1.94ZM60.62 52.52a1.24 1.24 0 1 0-1.75-1.75 1.24 1.24 0 0 0 1.75 1.75ZM63.82 55.72a1.1 1.1 0 1 0-1.56-1.56 1.1 1.1 0 0 0 1.56 1.56ZM67.02 58.92a.97.97 0 1 0-1.37-1.37.97.97 0 0 0 1.37 1.37ZM70.23 62.13a.84.84 0 1 0-1.19-1.2.84.84 0 0 0 1.19 1.2ZM73.43 65.33a.7.7 0 1 0-1-1 .7.7 0 0 0 1 1ZM76.63 68.53a.57.57 0 1 0-.8-.8.57.57 0 0 0 .8.8ZM79.83 71.73a.44.44 0 1 0-.61-.61.44.44 0 0 0 .61.61ZM83.04 74.94a.3.3 0 1 0-.43-.43.3.3 0 0 0 .43.43ZM23.67 8.98a.29.29 0 1 0-.4-.4.29.29 0 0 0 .4.4ZM27.06 12.36a.4.4 0 1 0-.58-.57.4.4 0 0 0 .58.57ZM30.44 15.74a.53.53 0 1 0-.75-.74.53.53 0 0 0 .75.74ZM33.82 19.12a.64.64 0 1 0-.91-.9.64.64 0 0 0 .9.9ZM37.2 22.5a.76.76 0 1 0-1.08-1.07.76.76 0 0 0 1.08 1.07ZM40.58 25.89a.88.88 0 1 0-1.25-1.25.88.88 0 0 0 1.25 1.25ZM43.96 29.27a1 1 0 1 0-1.41-1.42 1 1 0 0 0 1.41 1.42ZM47.34 32.65a1.12 1.12 0 1 0-1.58-1.58 1.12 1.12 0 0 0 1.58 1.58ZM50.72 36.03a1.24 1.24 0 1 0-1.75-1.75 1.24 1.24 0 0 0 1.75 1.75ZM54.1 39.41a1.36 1.36 0 1 0-1.91-1.92 1.36 1.36 0 0 0 1.92 1.92ZM57.4 42.7a1.36 1.36 0 1 0-1.92-1.91 1.36 1.36 0 0 0 1.92 1.92ZM60.62 45.92a1.24 1.24 0 1 0-1.75-1.75 1.24 1.24 0 0 0 1.75 1.75ZM63.83 49.13a1.12 1.12 0 1 0-1.58-1.58 1.12 1.12 0 0 0 1.58 1.59ZM67.04 52.35a1 1 0 1 0-1.41-1.42 1 1 0 0 0 1.41 1.42ZM70.26 55.56A.88.88 0 1 0 69 54.31a.88.88 0 0 0 1.25 1.25ZM73.47 58.78a.76.76 0 1 0-1.08-1.08.76.76 0 0 0 1.08 1.08ZM76.68 61.99a.64.64 0 1 0-.9-.91.64.64 0 0 0 .9.9ZM79.9 65.2a.53.53 0 1 0-.75-.74.53.53 0 0 0 .75.74ZM83.11 68.42a.4.4 0 1 0-.58-.58.4.4 0 0 0 .58.58ZM86.32 71.63a.29.29 0 1 0-.4-.4.29.29 0 0 0 .4.4ZM30.33 9.04a.38.38 0 1 0-.53-.53.38.38 0 0 0 .53.53ZM33.7 12.41a.48.48 0 1 0-.68-.68.48.48 0 0 0 .68.68ZM37.07 15.78a.58.58 0 1 0-.82-.82.58.58 0 0 0 .82.82ZM40.45 19.16a.7.7 0 1 0-.98-.98.7.7 0 0 0 .98.98ZM43.81 22.53a.8.8 0 1 0-1.12-1.13.8.8 0 0 0 1.12 1.13ZM47.18 25.9a.9.9 0 1 0-1.26-1.27.9.9 0 0 0 1.26 1.26ZM50.56 29.27a1 1 0 1 0-1.42-1.42 1 1 0 0 0 1.42 1.42ZM53.93 32.64a1.1 1.1 0 1 0-1.57-1.57 1.1 1.1 0 0 0 1.57 1.57ZM57.3 36a1.2 1.2 0 1 0-1.71-1.7 1.2 1.2 0 0 0 1.7 1.7ZM60.6 39.3a1.2 1.2 0 1 0-1.71-1.7 1.2 1.2 0 0 0 1.7 1.7ZM63.82 42.53a1.1 1.1 0 1 0-1.56-1.56 1.1 1.1 0 0 0 1.56 1.56ZM67.04 45.75a1 1 0 1 0-1.41-1.41 1 1 0 0 0 1.41 1.41ZM70.27 48.98A.9.9 0 1 0 69 47.7a.9.9 0 0 0 1.27 1.27ZM73.5 52.2a.8.8 0 1 0-1.13-1.12.8.8 0 0 0 1.12 1.12ZM76.72 55.43a.7.7 0 1 0-.98-.98.7.7 0 0 0 .98.98ZM79.94 58.65a.59.59 0 1 0-.83-.83.59.59 0 0 0 .83.83ZM83.16 61.87a.48.48 0 1 0-.68-.68.48.48 0 0 0 .68.68ZM86.39 65.1a.38.38 0 1 0-.54-.54.38.38 0 0 0 .54.54ZM33.6 5.72a.35.35 0 1 0-.48-.49.35.35 0 0 0 .49.5ZM36.97 9.08a.44.44 0 1 0-.62-.61.44.44 0 0 0 .62.61ZM40.33 12.44a.53.53 0 1 0-.74-.74.53.53 0 0 0 .74.74ZM43.69 15.8a.61.61 0 1 0-.87-.86.61.61 0 0 0 .87.86ZM47.05 19.17a.7.7 0 1 0-1-1 .7.7 0 0 0 1 1ZM50.41 22.53a.8.8 0 1 0-1.12-1.13.8.8 0 0 0 1.12 1.13ZM53.77 25.89a.88.88 0 1 0-1.25-1.25.88.88 0 0 0 1.25 1.25ZM57.13 29.25a.97.97 0 1 0-1.37-1.38.97.97 0 0 0 1.37 1.38ZM60.5 32.6a1.06 1.06 0 1 0-1.5-1.5 1.06 1.06 0 0 0 1.5 1.5ZM63.79 35.9a1.06 1.06 0 1 0-1.5-1.5 1.06 1.06 0 0 0 1.5 1.5ZM67.02 39.14a.97.97 0 1 0-1.37-1.37.97.97 0 0 0 1.37 1.37ZM70.26 42.37A.88.88 0 1 0 69 41.13a.88.88 0 0 0 1.25 1.24ZM73.5 45.6a.8.8 0 1 0-1.13-1.11.8.8 0 0 0 1.12 1.12ZM76.73 48.84a.7.7 0 1 0-1-1 .7.7 0 0 0 1 1ZM79.96 52.08a.61.61 0 1 0-.87-.87.61.61 0 0 0 .87.87ZM83.2 55.31a.53.53 0 1 0-.75-.74.53.53 0 0 0 .74.74ZM86.43 58.54a.44.44 0 1 0-.62-.61.44.44 0 0 0 .62.61ZM89.66 61.78a.35.35 0 1 0-.49-.5.35.35 0 0 0 .5.5ZM40.24 5.76a.4.4 0 1 0-.56-.56.4.4 0 0 0 .56.56ZM43.58 9.1a.47.47 0 1 0-.66-.65.47.47 0 0 0 .66.66ZM46.93 12.45a.54.54 0 1 0-.76-.76.54.54 0 0 0 .76.76ZM50.28 15.8a.61.61 0 1 0-.87-.86.61.61 0 0 0 .87.86ZM53.64 19.16a.7.7 0 1 0-.98-.98.7.7 0 0 0 .98.98ZM56.98 22.5a.76.76 0 1 0-1.08-1.07.76.76 0 0 0 1.08 1.07ZM60.33 25.86a.84.84 0 1 0-1.18-1.2.84.84 0 0 0 1.18 1.2ZM63.68 29.2a.91.91 0 1 0-1.29-1.28.91.91 0 0 0 1.3 1.28ZM66.98 32.5a.91.91 0 1 0-1.29-1.29.91.91 0 0 0 1.29 1.3ZM70.23 35.75a.84.84 0 1 0-1.19-1.19.84.84 0 0 0 1.19 1.19ZM73.47 39a.76.76 0 1 0-1.08-1.09.76.76 0 0 0 1.08 1.08ZM76.72 42.24a.7.7 0 1 0-.98-.98.7.7 0 0 0 .98.98ZM79.96 45.48a.61.61 0 1 0-.87-.87.61.61 0 0 0 .87.87ZM83.2 48.72a.54.54 0 1 0-.76-.76.54.54 0 0 0 .76.76ZM86.45 51.97a.47.47 0 1 0-.66-.66.47.47 0 0 0 .66.66ZM89.7 55.22a.4.4 0 1 0-.56-.56.4.4 0 0 0 .56.56ZM43.5 2.43a.35.35 0 1 0-.5-.5.35.35 0 0 0 .5.5ZM46.84 5.77a.4.4 0 1 0-.58-.58.4.4 0 0 0 .58.58ZM50.18 9.1a.47.47 0 1 0-.66-.65.47.47 0 0 0 .66.66ZM53.52 12.44a.53.53 0 1 0-.75-.74.53.53 0 0 0 .75.74ZM56.86 15.78a.59.59 0 1 0-.83-.82.59.59 0 0 0 .83.82ZM60.2 19.12a.64.64 0 1 0-.91-.9.64.64 0 0 0 .9.9ZM63.54 22.46a.7.7 0 1 0-1-1 .7.7 0 0 0 1 1ZM66.88 25.8a.76.76 0 1 0-1.08-1.08.76.76 0 0 0 1.08 1.08ZM70.17 29.1a.76.76 0 1 0-1.08-1.08.76.76 0 0 0 1.08 1.08ZM73.43 32.35a.7.7 0 1 0-1-1 .7.7 0 0 0 1 1ZM76.68 35.61a.64.64 0 1 0-.9-.91.64.64 0 0 0 .9.91ZM79.94 38.87a.58.58 0 1 0-.83-.83.58.58 0 0 0 .83.83ZM83.2 42.12a.53.53 0 1 0-.75-.74.53.53 0 0 0 .74.74ZM86.45 45.38a.47.47 0 1 0-.66-.66.47.47 0 0 0 .66.66ZM89.7 48.63a.4.4 0 1 0-.57-.57.4.4 0 0 0 .58.57ZM92.96 51.89a.35.35 0 1 0-.5-.5.35.35 0 0 0 .5.5ZM50.1 2.43a.35.35 0 1 0-.5-.5.35.35 0 0 0 .5.5ZM53.43 5.76a.4.4 0 1 0-.56-.56.4.4 0 0 0 .56.56ZM56.75 9.08a.44.44 0 1 0-.62-.61.44.44 0 0 0 .62.61ZM60.08 12.41a.48.48 0 1 0-.68-.68.48.48 0 0 0 .68.68ZM63.41 15.74a.53.53 0 1 0-.74-.74.53.53 0 0 0 .74.74ZM66.74 19.07a.57.57 0 1 0-.8-.8.57.57 0 0 0 .8.8ZM70.07 22.4a.61.61 0 1 0-.87-.87.61.61 0 0 0 .87.87ZM73.37 25.7a.61.61 0 1 0-.87-.87.61.61 0 0 0 .87.87ZM76.63 28.96a.57.57 0 1 0-.8-.8.57.57 0 0 0 .8.8ZM79.9 32.23a.53.53 0 1 0-.75-.74.53.53 0 0 0 .75.74ZM83.16 35.5a.48.48 0 1 0-.68-.68.48.48 0 0 0 .68.67ZM86.43 38.76a.44.44 0 1 0-.62-.62.44.44 0 0 0 .62.62ZM89.7 42.03a.4.4 0 1 0-.56-.56.4.4 0 0 0 .56.56ZM92.96 45.3a.35.35 0 1 0-.5-.5.35.35 0 0 0 .5.5ZM59.99 5.72a.35.35 0 1 0-.5-.49.35.35 0 0 0 .5.5ZM63.3 9.04a.38.38 0 1 0-.53-.53.38.38 0 0 0 .54.53ZM66.62 12.36a.4.4 0 1 0-.57-.57.4.4 0 0 0 .57.57ZM69.94 15.68a.44.44 0 1 0-.62-.62.44.44 0 0 0 .62.62ZM73.26 19a.47.47 0 1 0-.66-.66.47.47 0 0 0 .66.66ZM76.56 22.3a.47.47 0 1 0-.66-.66.47.47 0 0 0 .66.65ZM79.83 25.57a.44.44 0 1 0-.61-.62.44.44 0 0 0 .61.62ZM83.11 28.85a.4.4 0 1 0-.58-.58.4.4 0 0 0 .58.58ZM86.39 32.12a.38.38 0 1 0-.54-.53.38.38 0 0 0 .54.53ZM89.66 35.4a.35.35 0 1 0-.49-.5.35.35 0 0 0 .5.5ZM69.84 8.98a.29.29 0 1 0-.41-.4.29.29 0 0 0 .4.4ZM73.15 12.29a.3.3 0 1 0-.44-.43.3.3 0 0 0 .44.43ZM76.45 15.6a.32.32 0 1 0-.45-.45.32.32 0 0 0 .45.45ZM79.75 18.9a.32.32 0 1 0-.45-.46.32.32 0 0 0 .45.45ZM83.04 22.18a.3.3 0 1 0-.43-.43.3.3 0 0 0 .43.43ZM86.32 25.47a.29.29 0 1 0-.4-.41.29.29 0 0 0 .4.4ZM3.32 63.26a.29.29 0 1 0-.32-.48.29.29 0 0 0 .32.48ZM5.9 67.17a.3.3 0 1 0-.34-.51.3.3 0 0 0 .33.5ZM8.47 71.07a.32.32 0 1 0-.35-.53.32.32 0 0 0 .35.53Z"/><path d="M11.04 74.96a.32.32 0 1 0-.35-.53.32.32 0 0 0 .35.53ZM13.6 78.84a.3.3 0 1 0-.33-.5.3.3 0 0 0 .33.5ZM16.16 82.72a.29.29 0 1 0-.32-.48.29.29 0 0 0 .32.48ZM2.1 52.96a.35.35 0 1 0-.38-.58.35.35 0 0 0 .38.58ZM4.69 56.87a.38.38 0 1 0-.42-.63.38.38 0 0 0 .42.63ZM7.27 60.8a.4.4 0 1 0-.44-.69.4.4 0 0 0 .44.68ZM9.86 64.7a.44.44 0 1 0-.48-.72.44.44 0 0 0 .48.73ZM12.44 68.62a.47.47 0 1 0-.5-.77.47.47 0 0 0 .5.77ZM15.01 72.52a.47.47 0 1 0-.51-.78.47.47 0 0 0 .51.78ZM17.57 76.38a.44.44 0 1 0-.48-.73.44.44 0 0 0 .48.73ZM20.12 80.25a.4.4 0 1 0-.45-.68.4.4 0 0 0 .45.68ZM22.67 84.12a.38.38 0 1 0-.41-.63.38.38 0 0 0 .41.63ZM25.22 87.98a.35.35 0 1 0-.38-.58.35.35 0 0 0 .38.58ZM.86 42.6a.35.35 0 1 0-.39-.57.35.35 0 0 0 .39.58ZM3.45 46.54a.4.4 0 1 0-.43-.66.4.4 0 0 0 .43.66ZM6.04 50.46a.44.44 0 1 0-.48-.73.44.44 0 0 0 .48.73ZM8.64 54.39a.48.48 0 1 0-.53-.8.48.48 0 0 0 .53.8ZM11.23 58.32a.53.53 0 1 0-.58-.88.53.53 0 0 0 .58.88ZM13.83 62.25a.57.57 0 1 0-.64-.95.57.57 0 0 0 .64.95ZM16.42 66.18a.61.61 0 1 0-.68-1.03.61.61 0 0 0 .68 1.03ZM18.99 70.07a.61.61 0 1 0-.68-1.03.61.61 0 0 0 .68 1.03ZM21.53 73.93a.57.57 0 1 0-.63-.96.57.57 0 0 0 .63.96ZM24.08 77.78a.53.53 0 1 0-.58-.88.53.53 0 0 0 .58.88ZM26.62 81.63a.48.48 0 1 0-.53-.8.48.48 0 0 0 .53.8ZM29.16 85.49a.44.44 0 1 0-.48-.73.44.44 0 0 0 .48.73ZM31.71 89.34a.4.4 0 1 0-.43-.65.4.4 0 0 0 .43.65ZM34.25 93.2a.35.35 0 1 0-.38-.58.35.35 0 0 0 .38.58ZM2.18 36.14a.35.35 0 1 0-.38-.58.35.35 0 0 0 .38.58ZM4.78 40.09a.4.4 0 1 0-.45-.68.4.4 0 0 0 .45.68ZM7.38 44.03a.47.47 0 1 0-.51-.78.47.47 0 0 0 .51.78ZM9.98 47.97a.53.53 0 1 0-.57-.88.53.53 0 0 0 .57.88ZM12.59 51.91a.59.59 0 1 0-.65-.98.59.59 0 0 0 .65.98ZM15.19 55.85a.64.64 0 1 0-.71-1.07.64.64 0 0 0 .7 1.07ZM17.79 59.8a.7.7 0 1 0-.78-1.18.7.7 0 0 0 .78 1.17ZM20.4 63.73a.76.76 0 1 0-.85-1.27.76.76 0 0 0 .84 1.27ZM22.96 67.63a.76.76 0 1 0-.84-1.28.76.76 0 0 0 .84 1.28ZM25.5 71.47a.7.7 0 1 0-.78-1.18.7.7 0 0 0 .78 1.18ZM28.03 75.3a.64.64 0 1 0-.7-1.07.64.64 0 0 0 .7 1.08ZM30.57 79.15a.59.59 0 1 0-.65-.97.59.59 0 0 0 .65.97ZM33.1 83a.53.53 0 1 0-.57-.88.53.53 0 0 0 .58.87ZM35.64 86.84a.47.47 0 1 0-.51-.78.47.47 0 0 0 .51.78ZM38.18 90.68a.4.4 0 1 0-.45-.68.4.4 0 0 0 .45.68ZM40.71 94.52a.35.35 0 1 0-.38-.58.35.35 0 0 0 .38.58ZM6.1 33.61a.4.4 0 1 0-.44-.65.4.4 0 0 0 .44.65ZM8.7 37.57a.47.47 0 1 0-.5-.78.47.47 0 0 0 .5.78ZM11.31 41.52a.54.54 0 1 0-.59-.9.54.54 0 0 0 .6.9ZM13.93 45.47a.61.61 0 1 0-.68-1.02.61.61 0 0 0 .68 1.02ZM16.54 49.43a.7.7 0 1 0-.76-1.15.7.7 0 0 0 .76 1.15ZM19.15 53.38a.76.76 0 1 0-.85-1.27.76.76 0 0 0 .85 1.27ZM21.76 57.34a.84.84 0 1 0-.93-1.4.84.84 0 0 0 .93 1.4ZM24.36 61.29a.91.91 0 1 0-1-1.52.91.91 0 0 0 1 1.52ZM26.93 65.18a.91.91 0 1 0-1-1.52.91.91 0 0 0 1 1.52ZM29.46 69.01a.84.84 0 1 0-.92-1.4.84.84 0 0 0 .92 1.4ZM31.99 72.84a.76.76 0 1 0-.84-1.27.76.76 0 0 0 .84 1.27ZM34.52 76.67a.7.7 0 1 0-.76-1.15.7.7 0 0 0 .76 1.15ZM37.05 80.5a.61.61 0 1 0-.68-1.03.61.61 0 0 0 .68 1.03ZM39.57 84.33a.54.54 0 1 0-.59-.9.54.54 0 0 0 .6.9ZM42.1 88.16a.47.47 0 1 0-.51-.78.47.47 0 0 0 .51.78ZM44.63 91.99a.4.4 0 1 0-.43-.66.4.4 0 0 0 .43.66ZM7.4 27.12a.35.35 0 1 0-.39-.59.35.35 0 0 0 .38.59ZM10.01 31.08a.44.44 0 1 0-.48-.73.44.44 0 0 0 .48.73ZM12.63 35.05a.53.53 0 1 0-.58-.88.53.53 0 0 0 .58.88ZM15.25 39.01a.61.61 0 1 0-.68-1.02.61.61 0 0 0 .68 1.02ZM17.87 42.98a.7.7 0 1 0-.78-1.18.7.7 0 0 0 .78 1.18ZM20.48 46.95a.8.8 0 1 0-.87-1.33.8.8 0 0 0 .87 1.33ZM23.1 50.91a.88.88 0 1 0-.97-1.47.88.88 0 0 0 .97 1.47ZM25.72 54.88a.97.97 0 1 0-1.07-1.62.97.97 0 0 0 1.07 1.62ZM28.34 58.84a1.06 1.06 0 1 0-1.17-1.77 1.06 1.06 0 0 0 1.17 1.77ZM30.9 62.73a1.06 1.06 0 1 0-1.16-1.76 1.06 1.06 0 0 0 1.17 1.76ZM33.43 66.55a.97.97 0 1 0-1.07-1.62.97.97 0 0 0 1.07 1.62ZM35.95 70.37a.88.88 0 1 0-.97-1.47.88.88 0 0 0 .97 1.47ZM38.47 74.19a.8.8 0 1 0-.88-1.33.8.8 0 0 0 .88 1.33ZM40.99 78a.7.7 0 1 0-.78-1.17A.7.7 0 0 0 41 78ZM43.5 81.82a.61.61 0 1 0-.67-1.02.61.61 0 0 0 .68 1.02ZM46.03 85.64a.53.53 0 1 0-.58-.88.53.53 0 0 0 .58.88ZM48.55 89.46a.44.44 0 1 0-.48-.73.44.44 0 0 0 .48.73ZM51.07 93.27a.35.35 0 1 0-.39-.58.35.35 0 0 0 .39.58ZM11.3 24.57a.38.38 0 1 0-.41-.63.38.38 0 0 0 .41.63ZM13.93 28.55a.48.48 0 1 0-.53-.8.48.48 0 0 0 .53.8ZM16.55 32.53a.59.59 0 1 0-.64-.98.59.59 0 0 0 .64.98ZM19.18 36.5a.7.7 0 1 0-.76-1.15.7.7 0 0 0 .76 1.16ZM21.8 40.48a.8.8 0 1 0-.87-1.32.8.8 0 0 0 .88 1.32ZM24.43 44.46a.9.9 0 1 0-.98-1.5.9.9 0 0 0 .98 1.5ZM27.06 48.44a1 1 0 1 0-1.1-1.67 1 1 0 0 0 1.1 1.67ZM29.69 52.42a1.1 1.1 0 1 0-1.22-1.85 1.1 1.1 0 0 0 1.22 1.85ZM32.31 56.4a1.2 1.2 0 1 0-1.33-2.02 1.2 1.2 0 0 0 1.33 2.02ZM34.88 60.29a1.2 1.2 0 1 0-1.33-2.02 1.2 1.2 0 0 0 1.33 2.02ZM37.4 64.1a1.1 1.1 0 1 0-1.23-1.85 1.1 1.1 0 0 0 1.22 1.85ZM39.9 67.9a1 1 0 1 0-1.1-1.67 1 1 0 0 0 1.1 1.67ZM42.41 71.7a.9.9 0 1 0-.98-1.49.9.9 0 0 0 .98 1.5ZM44.93 75.51a.8.8 0 1 0-.88-1.32.8.8 0 0 0 .88 1.32ZM47.44 79.32a.7.7 0 1 0-.76-1.16.7.7 0 0 0 .76 1.16ZM49.95 83.12a.59.59 0 1 0-.64-.98.59.59 0 0 0 .64.98ZM52.46 86.92a.48.48 0 1 0-.53-.8.48.48 0 0 0 .53.8ZM54.97 90.73a.38.38 0 1 0-.41-.63.38.38 0 0 0 .41.63ZM12.58 18.04a.29.29 0 1 0-.32-.49.29.29 0 0 0 .32.49ZM15.21 22.03a.4.4 0 1 0-.45-.68.4.4 0 0 0 .45.68ZM17.84 26.02a.53.53 0 1 0-.57-.88.53.53 0 0 0 .57.88ZM20.48 30a.64.64 0 1 0-.71-1.07.64.64 0 0 0 .7 1.08ZM23.11 34a.76.76 0 1 0-.84-1.27.76.76 0 0 0 .84 1.27ZM25.75 37.99a.88.88 0 1 0-.97-1.47.88.88 0 0 0 .97 1.47ZM28.38 41.98a1 1 0 1 0-1.1-1.67 1 1 0 0 0 1.1 1.67ZM31.02 45.97a1.12 1.12 0 1 0-1.24-1.87 1.12 1.12 0 0 0 1.24 1.87ZM33.65 49.96a1.24 1.24 0 1 0-1.36-2.06 1.24 1.24 0 0 0 1.36 2.06ZM36.29 53.95a1.36 1.36 0 1 0-1.5-2.26 1.36 1.36 0 0 0 1.5 2.26ZM38.85 57.84a1.36 1.36 0 1 0-1.49-2.26 1.36 1.36 0 0 0 1.5 2.26ZM41.36 61.64a1.24 1.24 0 1 0-1.37-2.07 1.24 1.24 0 0 0 1.37 2.07ZM43.86 65.43a1.12 1.12 0 1 0-1.23-1.87 1.12 1.12 0 0 0 1.23 1.87ZM46.37 69.22a1 1 0 1 0-1.1-1.67 1 1 0 0 0 1.1 1.67ZM48.87 73.02a.88.88 0 1 0-.97-1.48.88.88 0 0 0 .97 1.47ZM51.37 76.8a.76.76 0 1 0-.84-1.27.76.76 0 0 0 .84 1.28ZM53.88 80.6a.64.64 0 1 0-.71-1.08.64.64 0 0 0 .7 1.08ZM56.38 84.4a.53.53 0 1 0-.58-.88.53.53 0 0 0 .58.87ZM58.88 88.19a.4.4 0 1 0-.45-.68.4.4 0 0 0 .45.68ZM61.39 91.98a.29.29 0 1 0-.32-.48.29.29 0 0 0 .32.48ZM16.48 15.48a.3.3 0 1 0-.34-.5.3.3 0 0 0 .34.5ZM19.12 19.48a.44.44 0 1 0-.48-.73.44.44 0 0 0 .48.73ZM21.76 23.49a.57.57 0 1 0-.63-.96.57.57 0 0 0 .63.96ZM24.4 27.49a.7.7 0 1 0-.77-1.18.7.7 0 0 0 .77 1.18ZM27.05 31.5a.84.84 0 1 0-.93-1.4.84.84 0 0 0 .93 1.4ZM29.69 35.5a.97.97 0 1 0-1.07-1.63.97.97 0 0 0 1.07 1.63ZM32.33 39.5a1.1 1.1 0 1 0-1.21-1.84 1.1 1.1 0 0 0 1.21 1.84ZM34.97 43.5a1.24 1.24 0 1 0-1.36-2.06 1.24 1.24 0 0 0 1.36 2.06ZM37.62 47.5a1.37 1.37 0 1 0-1.52-2.29 1.37 1.37 0 0 0 1.52 2.3ZM40.26 51.5A1.5 1.5 0 1 0 38.6 49a1.5 1.5 0 0 0 1.66 2.5ZM42.83 55.4a1.5 1.5 0 1 0-1.66-2.51 1.5 1.5 0 0 0 1.66 2.5ZM45.32 59.18a1.37 1.37 0 1 0-1.5-2.3 1.37 1.37 0 0 0 1.5 2.3ZM47.82 62.96a1.24 1.24 0 1 0-1.37-2.07 1.24 1.24 0 0 0 1.37 2.07ZM50.31 66.74a1.1 1.1 0 1 0-1.21-1.84 1.1 1.1 0 0 0 1.21 1.84ZM52.8 70.52a.97.97 0 1 0-1.06-1.62.97.97 0 0 0 1.07 1.62ZM55.3 74.3a.84.84 0 1 0-.92-1.4.84.84 0 0 0 .93 1.4ZM57.8 78.08a.7.7 0 1 0-.77-1.17.7.7 0 0 0 .77 1.17ZM60.3 81.86a.57.57 0 1 0-.63-.95.57.57 0 0 0 .63.95ZM62.8 85.64a.44.44 0 1 0-.49-.73.44.44 0 0 0 .48.73ZM65.29 89.42a.3.3 0 1 0-.34-.5.3.3 0 0 0 .34.5ZM20.38 12.92a.32.32 0 1 0-.35-.53.32.32 0 0 0 .35.53ZM23.03 16.94a.47.47 0 1 0-.52-.78.47.47 0 0 0 .52.78ZM25.68 20.95a.61.61 0 1 0-.68-1.02.61.61 0 0 0 .68 1.02ZM28.33 24.97a.76.76 0 1 0-.84-1.27.76.76 0 0 0 .84 1.27ZM30.98 28.98a.91.91 0 1 0-1-1.52.91.91 0 0 0 1 1.52ZM33.63 33a1.06 1.06 0 1 0-1.17-1.77A1.06 1.06 0 0 0 33.63 33ZM36.28 37.02A1.2 1.2 0 1 0 34.95 35a1.2 1.2 0 0 0 1.33 2.02ZM38.93 41.03a1.36 1.36 0 1 0-1.5-2.26 1.36 1.36 0 0 0 1.5 2.26ZM41.58 45.05a1.5 1.5 0 1 0-1.66-2.51 1.5 1.5 0 0 0 1.66 2.5ZM44.23 49.06a1.65 1.65 0 1 0-1.82-2.76 1.65 1.65 0 0 0 1.82 2.76ZM46.8 52.95a1.65 1.65 0 1 0-1.82-2.76 1.65 1.65 0 0 0 1.82 2.76ZM49.29 56.72a1.5 1.5 0 1 0-1.66-2.51 1.5 1.5 0 0 0 1.66 2.51ZM51.78 60.49a1.36 1.36 0 1 0-1.5-2.26 1.36 1.36 0 0 0 1.5 2.26ZM54.26 64.26a1.2 1.2 0 1 0-1.33-2.02 1.2 1.2 0 0 0 1.33 2.02ZM56.75 68.03a1.06 1.06 0 1 0-1.17-1.77 1.06 1.06 0 0 0 1.17 1.77ZM59.24 71.8a.91.91 0 1 0-1-1.53.91.91 0 0 0 1 1.52ZM61.72 75.56a.76.76 0 1 0-.84-1.27.76.76 0 0 0 .84 1.27ZM64.21 79.33a.61.61 0 1 0-.68-1.03.61.61 0 0 0 .68 1.03ZM66.7 83.1a.47.47 0 1 0-.51-.78.47.47 0 0 0 .5.78ZM69.19 86.86a.32.32 0 1 0-.35-.53.32.32 0 0 0 .35.53ZM24.27 10.35a.32.32 0 1 0-.35-.53.32.32 0 0 0 .35.53ZM26.92 14.37a.47.47 0 1 0-.52-.78.47.47 0 0 0 .52.78ZM29.57 18.38a.61.61 0 1 0-.68-1.02.61.61 0 0 0 .68 1.02ZM32.22 22.4a.76.76 0 1 0-.84-1.27.76.76 0 0 0 .84 1.27ZM34.87 26.42a.91.91 0 1 0-1-1.53.91.91 0 0 0 1 1.53ZM37.52 30.43a1.06 1.06 0 1 0-1.17-1.77 1.06 1.06 0 0 0 1.17 1.77ZM40.17 34.45a1.2 1.2 0 1 0-1.33-2.02 1.2 1.2 0 0 0 1.33 2.02ZM42.82 38.46a1.36 1.36 0 1 0-1.5-2.26 1.36 1.36 0 0 0 1.5 2.26ZM45.47 42.48a1.5 1.5 0 1 0-1.66-2.51 1.5 1.5 0 0 0 1.66 2.5ZM48.12 46.5a1.65 1.65 0 1 0-1.82-2.77 1.65 1.65 0 0 0 1.82 2.76ZM50.7 50.39a1.65 1.65 0 1 0-1.83-2.76 1.65 1.65 0 0 0 1.82 2.76ZM53.18 54.15a1.5 1.5 0 1 0-1.66-2.5 1.5 1.5 0 0 0 1.66 2.5ZM55.67 57.92a1.36 1.36 0 1 0-1.5-2.26 1.36 1.36 0 0 0 1.5 2.26ZM58.15 61.69a1.2 1.2 0 1 0-1.33-2.02 1.2 1.2 0 0 0 1.33 2.02ZM60.64 65.46a1.06 1.06 0 1 0-1.17-1.77 1.06 1.06 0 0 0 1.17 1.77ZM63.13 69.22a.91.91 0 1 0-1-1.52.91.91 0 0 0 1 1.52ZM65.62 73a.76.76 0 1 0-.84-1.28.76.76 0 0 0 .84 1.27ZM68.1 76.76a.61.61 0 1 0-.67-1.03.61.61 0 0 0 .67 1.03ZM70.6 80.53a.47.47 0 1 0-.52-.78.47.47 0 0 0 .51.78ZM73.08 84.3a.32.32 0 1 0-.35-.53.32.32 0 0 0 .35.53ZM28.15 7.77a.3.3 0 1 0-.33-.5.3.3 0 0 0 .33.5ZM30.8 11.78a.44.44 0 1 0-.49-.73.44.44 0 0 0 .48.73ZM33.44 15.78a.57.57 0 1 0-.63-.95.57.57 0 0 0 .63.95ZM36.08 19.78a.7.7 0 1 0-.78-1.17.7.7 0 0 0 .78 1.17ZM38.72 23.79a.84.84 0 1 0-.92-1.4.84.84 0 0 0 .92 1.4ZM41.36 27.79a.97.97 0 1 0-1.07-1.62.97.97 0 0 0 1.07 1.62ZM44 31.79a1.1 1.1 0 1 0-1.21-1.84 1.1 1.1 0 0 0 1.22 1.84ZM46.65 35.8a1.24 1.24 0 1 0-1.36-2.07 1.24 1.24 0 0 0 1.36 2.06ZM49.3 39.8a1.37 1.37 0 1 0-1.52-2.3 1.37 1.37 0 0 0 1.51 2.3ZM51.93 43.8a1.5 1.5 0 1 0-1.65-2.51 1.5 1.5 0 0 0 1.65 2.51ZM54.5 47.7a1.5 1.5 0 1 0-1.66-2.52 1.5 1.5 0 0 0 1.66 2.51ZM57 51.47a1.37 1.37 0 1 0-1.51-2.29 1.37 1.37 0 0 0 1.5 2.3ZM59.5 55.25a1.24 1.24 0 1 0-1.37-2.06 1.24 1.24 0 0 0 1.36 2.06ZM61.99 59.03a1.1 1.1 0 1 0-1.22-1.84A1.1 1.1 0 0 0 62 59.03ZM64.48 62.81a.97.97 0 1 0-1.06-1.62.97.97 0 0 0 1.06 1.62ZM66.98 66.6a.84.84 0 1 0-.92-1.4.84.84 0 0 0 .92 1.4ZM69.48 70.37a.7.7 0 1 0-.78-1.17.7.7 0 0 0 .78 1.17ZM71.97 74.16a.57.57 0 1 0-.63-.96.57.57 0 0 0 .63.96ZM74.47 77.93a.44.44 0 1 0-.48-.72.44.44 0 0 0 .48.72ZM76.96 81.72a.3.3 0 1 0-.33-.51.3.3 0 0 0 .33.5ZM32.03 5.2a.29.29 0 1 0-.31-.49.29.29 0 0 0 .31.48ZM34.67 9.18a.4.4 0 1 0-.45-.68.4.4 0 0 0 .45.68ZM37.3 13.17a.53.53 0 1 0-.58-.87.53.53 0 0 0 .58.87ZM39.94 17.16a.64.64 0 1 0-.71-1.07.64.64 0 0 0 .7 1.07ZM42.57 21.15a.76.76 0 1 0-.84-1.27.76.76 0 0 0 .84 1.27ZM45.2 25.14a.88.88 0 1 0-.97-1.47.88.88 0 0 0 .98 1.47ZM47.84 29.14a1 1 0 1 0-1.1-1.67 1 1 0 0 0 1.1 1.67ZM50.48 33.13a1.12 1.12 0 1 0-1.24-1.87 1.12 1.12 0 0 0 1.23 1.87ZM53.1 37.12a1.24 1.24 0 1 0-1.35-2.07 1.24 1.24 0 0 0 1.36 2.07ZM55.74 41.1a1.36 1.36 0 1 0-1.5-2.26 1.36 1.36 0 0 0 1.5 2.27ZM58.31 45a1.36 1.36 0 1 0-1.5-2.26 1.36 1.36 0 0 0 1.5 2.26ZM60.82 48.8a1.24 1.24 0 1 0-1.37-2.07 1.24 1.24 0 0 0 1.37 2.06ZM63.32 52.58a1.12 1.12 0 1 0-1.23-1.86 1.12 1.12 0 0 0 1.23 1.86ZM65.82 56.38a1 1 0 1 0-1.1-1.67 1 1 0 0 0 1.1 1.67ZM68.33 60.17a.88.88 0 1 0-.97-1.47.88.88 0 0 0 .97 1.47ZM70.83 63.96A.76.76 0 1 0 70 62.7a.76.76 0 0 0 .84 1.27ZM73.33 67.76a.64.64 0 1 0-.7-1.08.64.64 0 0 0 .7 1.08ZM75.84 71.55a.53.53 0 1 0-.58-.88.53.53 0 0 0 .58.88ZM78.34 75.34a.4.4 0 1 0-.45-.68.4.4 0 0 0 .45.68ZM80.85 79.13a.29.29 0 1 0-.32-.48.29.29 0 0 0 .32.48ZM38.54 6.59a.38.38 0 1 0-.41-.63.38.38 0 0 0 .41.63ZM41.17 10.56a.48.48 0 1 0-.53-.8.48.48 0 0 0 .53.8ZM43.8 14.54a.58.58 0 1 0-.65-.97.58.58 0 0 0 .65.97ZM46.42 18.52a.7.7 0 1 0-.76-1.15.7.7 0 0 0 .76 1.15ZM49.05 22.5a.8.8 0 1 0-.87-1.32.8.8 0 0 0 .87 1.32ZM51.67 26.48a.9.9 0 1 0-.98-1.5.9.9 0 0 0 .98 1.5ZM54.3 30.46a1 1 0 1 0-1.1-1.67 1 1 0 0 0 1.1 1.67ZM56.93 34.44a1.1 1.1 0 1 0-1.22-1.85 1.1 1.1 0 0 0 1.22 1.85ZM59.55 38.42a1.2 1.2 0 1 0-1.33-2.02 1.2 1.2 0 0 0 1.33 2.02ZM62.12 42.3a1.2 1.2 0 1 0-1.33-2.01 1.2 1.2 0 0 0 1.33 2.02ZM64.64 46.11a1.1 1.1 0 1 0-1.22-1.84 1.1 1.1 0 0 0 1.22 1.84ZM67.15 49.92a1 1 0 1 0-1.1-1.67 1 1 0 0 0 1.1 1.67ZM69.66 53.72a.9.9 0 1 0-.99-1.5.9.9 0 0 0 .99 1.5ZM72.17 57.53a.8.8 0 1 0-.87-1.33.8.8 0 0 0 .87 1.33ZM74.68 61.33a.7.7 0 1 0-.76-1.15.7.7 0 0 0 .76 1.15ZM77.2 65.14a.58.58 0 1 0-.65-.98.58.58 0 0 0 .64.98ZM79.7 68.94a.48.48 0 1 0-.52-.8.48.48 0 0 0 .52.8ZM82.22 72.75a.38.38 0 1 0-.42-.63.38.38 0 0 0 .42.63ZM42.42 4a.35.35 0 1 0-.38-.59.35.35 0 0 0 .38.58ZM45.04 7.96a.44.44 0 1 0-.48-.73.44.44 0 0 0 .48.73ZM47.66 11.93a.53.53 0 1 0-.58-.88.53.53 0 0 0 .58.88ZM50.27 15.9a.61.61 0 1 0-.67-1.03.61.61 0 0 0 .67 1.02ZM52.9 19.86a.7.7 0 1 0-.78-1.18.7.7 0 0 0 .77 1.18ZM55.51 23.82a.8.8 0 1 0-.87-1.32.8.8 0 0 0 .87 1.32ZM58.13 27.79a.88.88 0 1 0-.97-1.47.88.88 0 0 0 .97 1.47ZM60.75 31.76a.97.97 0 1 0-1.07-1.62.97.97 0 0 0 1.07 1.62ZM63.36 35.72a1.06 1.06 0 1 0-1.16-1.77 1.06 1.06 0 0 0 1.16 1.77ZM65.93 39.61a1.06 1.06 0 1 0-1.17-1.76 1.06 1.06 0 0 0 1.17 1.76ZM68.45 43.43a.97.97 0 1 0-1.07-1.62.97.97 0 0 0 1.07 1.62ZM70.97 47.25a.88.88 0 1 0-.97-1.47.88.88 0 0 0 .97 1.47ZM73.5 51.07a.8.8 0 1 0-.88-1.33.8.8 0 0 0 .87 1.33ZM76.01 54.88a.7.7 0 1 0-.77-1.17.7.7 0 0 0 .77 1.17ZM78.53 58.7a.61.61 0 1 0-.67-1.03.61.61 0 0 0 .67 1.03ZM81.05 62.52a.53.53 0 1 0-.58-.88.53.53 0 0 0 .58.88ZM83.57 66.34a.44.44 0 1 0-.48-.73.44.44 0 0 0 .48.73ZM86.1 70.15a.35.35 0 1 0-.4-.58.35.35 0 0 0 .4.58ZM48.9 5.36a.4.4 0 1 0-.43-.66.4.4 0 0 0 .44.66ZM51.51 9.3a.47.47 0 1 0-.5-.77.47.47 0 0 0 .5.78ZM54.12 13.26a.54.54 0 1 0-.59-.9.54.54 0 0 0 .6.9ZM56.73 17.21a.61.61 0 1 0-.67-1.02.61.61 0 0 0 .67 1.02ZM59.35 21.17a.7.7 0 1 0-.77-1.15.7.7 0 0 0 .77 1.15ZM61.95 25.12a.76.76 0 1 0-.84-1.27.76.76 0 0 0 .84 1.27ZM64.57 29.08a.84.84 0 1 0-.93-1.4.84.84 0 0 0 .93 1.4ZM67.17 33.03a.91.91 0 1 0-1-1.52.91.91 0 0 0 1 1.52ZM69.74 36.92a.91.91 0 1 0-1-1.52.91.91 0 0 0 1 1.52ZM72.27 40.75a.84.84 0 1 0-.92-1.4.84.84 0 0 0 .92 1.4ZM74.8 44.58a.76.76 0 1 0-.84-1.27.76.76 0 0 0 .84 1.27ZM77.33 48.41a.7.7 0 1 0-.76-1.15.7.7 0 0 0 .76 1.15ZM79.86 52.24a.61.61 0 1 0-.68-1.03.61.61 0 0 0 .68 1.03ZM82.38 56.07a.54.54 0 1 0-.6-.9.54.54 0 0 0 .6.9ZM84.91 59.9a.47.47 0 1 0-.51-.78.47.47 0 0 0 .51.78ZM87.44 63.73a.4.4 0 1 0-.43-.66.4.4 0 0 0 .43.66ZM52.77 2.75a.35.35 0 1 0-.38-.58.35.35 0 0 0 .38.58ZM55.37 6.69a.4.4 0 1 0-.44-.68.4.4 0 0 0 .44.68ZM57.98 10.63a.47.47 0 1 0-.52-.78.47.47 0 0 0 .52.78ZM60.58 14.57a.53.53 0 1 0-.58-.88.53.53 0 0 0 .58.88ZM63.18 18.51a.59.59 0 1 0-.65-.97.59.59 0 0 0 .65.97ZM65.78 22.45a.64.64 0 1 0-.7-1.07.64.64 0 0 0 .7 1.07ZM68.38 26.4a.7.7 0 1 0-.77-1.18.7.7 0 0 0 .77 1.18ZM70.98 30.34a.76.76 0 1 0-.84-1.28.76.76 0 0 0 .84 1.28ZM73.55 34.23a.76.76 0 1 0-.84-1.28.76.76 0 0 0 .84 1.28ZM76.09 38.07a.7.7 0 1 0-.78-1.17.7.7 0 0 0 .78 1.17ZM78.63 41.91a.64.64 0 1 0-.71-1.07.64.64 0 0 0 .7 1.07ZM81.16 45.75a.58.58 0 1 0-.64-.97.58.58 0 0 0 .64.97ZM83.7 49.6a.53.53 0 1 0-.58-.88.53.53 0 0 0 .58.88ZM86.23 53.44a.47.47 0 1 0-.5-.78.47.47 0 0 0 .5.78ZM88.77 57.28a.4.4 0 1 0-.45-.68.4.4 0 0 0 .45.68ZM91.3 61.12a.35.35 0 1 0-.38-.58.35.35 0 0 0 .39.58ZM59.23 4.07a.35.35 0 1 0-.38-.58.35.35 0 0 0 .38.58ZM61.83 8a.4.4 0 1 0-.44-.66.4.4 0 0 0 .44.66ZM64.42 11.93a.44.44 0 1 0-.48-.73.44.44 0 0 0 .48.73ZM67.01 15.86a.48.48 0 1 0-.53-.8.48.48 0 0 0 .53.8ZM69.6 19.79a.53.53 0 1 0-.57-.88.53.53 0 0 0 .58.88ZM72.2 23.72a.57.57 0 1 0-.63-.96.57.57 0 0 0 .63.96ZM74.8 27.64a.61.61 0 1 0-.68-1.02.61.61 0 0 0 .67 1.02ZM77.36 31.54a.61.61 0 1 0-.67-1.03.61.61 0 0 0 .67 1.03ZM79.9 35.4a.57.57 0 1 0-.62-.96.57.57 0 0 0 .63.95ZM82.45 39.24a.53.53 0 1 0-.58-.87.53.53 0 0 0 .58.87ZM85 43.1a.48.48 0 1 0-.53-.8.48.48 0 0 0 .53.8ZM87.54 46.95a.44.44 0 1 0-.48-.72.44.44 0 0 0 .48.72ZM90.09 50.81a.4.4 0 1 0-.44-.66.4.4 0 0 0 .44.66ZM92.63 54.66a.35.35 0 1 0-.38-.58.35.35 0 0 0 .38.58ZM68.26 9.29a.35.35 0 1 0-.38-.58.35.35 0 0 0 .38.58ZM70.85 13.2a.38.38 0 1 0-.42-.63.38.38 0 0 0 .42.63ZM73.43 17.12a.4.4 0 1 0-.45-.68.4.4 0 0 0 .45.68ZM76.02 21.03a.44.44 0 1 0-.48-.72.44.44 0 0 0 .48.72ZM78.6 24.95a.47.47 0 1 0-.51-.78.47.47 0 0 0 .51.78ZM81.17 28.84a.47.47 0 1 0-.51-.78.47.47 0 0 0 .51.78ZM83.73 32.71a.44.44 0 1 0-.49-.73.44.44 0 0 0 .49.73ZM86.28 36.58a.4.4 0 1 0-.45-.68.4.4 0 0 0 .45.68ZM88.83 40.44a.38.38 0 1 0-.42-.63.38.38 0 0 0 .42.63ZM91.38 44.31a.35.35 0 1 0-.38-.58.35.35 0 0 0 .38.58ZM77.26 14.45a.29.29 0 1 0-.32-.48.29.29 0 0 0 .32.48ZM79.84 18.36a.3.3 0 1 0-.34-.51.3.3 0 0 0 .34.5ZM82.41 22.26a.32.32 0 1 0-.35-.53.32.32 0 0 0 .35.53ZM84.98 26.15a.32.32 0 1 0-.35-.53.32.32 0 0 0 .35.53ZM87.54 30.03a.3.3 0 1 0-.33-.5.3.3 0 0 0 .33.5ZM90.1 33.9a.29.29 0 1 0-.31-.47.29.29 0 0 0 .31.48Z"/></g><defs><clipPath id="a"><path fill="#fff" d="M.06 0h93.02v95H.06z"/></clipPath></defs></svg>