<svg xmlns="http://www.w3.org/2000/svg" width="94" height="95" fill="none"><g fill="#0051FF" clip-path="url(#a)"><path d="M7.2 71.63a.29.29 0 1 0-.4-.4.29.29 0 0 0 .4.4ZM10.52 74.94a.3.3 0 1 0-.43-.43.3.3 0 0 0 .43.43ZM13.82 78.24a.32.32 0 1 0-.44-.44.32.32 0 0 0 .44.44ZM17.12 81.54a.32.32 0 1 0-.45-.45.32.32 0 0 0 .45.45ZM20.41 84.83a.3.3 0 1 0-.43-.43.3.3 0 0 0 .43.43ZM23.7 88.12a.29.29 0 1 0-.41-.41.29.29 0 0 0 .4.4ZM3.95 61.78a.35.35 0 1 0-.49-.5.35.35 0 0 0 .5.5ZM7.27 65.1a.38.38 0 1 0-.53-.54.38.38 0 0 0 .53.54ZM10.59 68.42a.4.4 0 1 0-.58-.58.4.4 0 0 0 .58.58ZM13.9 71.73a.44.44 0 1 0-.6-.61.44.44 0 0 0 .6.61ZM17.23 75.05a.47.47 0 1 0-.66-.66.47.47 0 0 0 .66.66ZM20.52 78.35a.47.47 0 1 0-.66-.66.47.47 0 0 0 .66.66ZM23.8 81.63a.44.44 0 1 0-.62-.62.44.44 0 0 0 .62.62ZM27.08 84.9a.4.4 0 1 0-.58-.57.4.4 0 0 0 .58.57ZM30.35 88.18a.38.38 0 1 0-.53-.53.38.38 0 0 0 .53.53ZM33.63 91.46a.35.35 0 1 0-.5-.5.35.35 0 0 0 .5.5ZM.66 51.89a.35.35 0 1 0-.5-.5.35.35 0 0 0 .5.5ZM3.99 55.22a.4.4 0 1 0-.56-.56.4.4 0 0 0 .56.56ZM7.31 58.54a.44.44 0 1 0-.61-.61.44.44 0 0 0 .61.61ZM10.64 61.87a.48.48 0 1 0-.68-.68.48.48 0 0 0 .68.68ZM13.97 65.2a.53.53 0 1 0-.74-.74.53.53 0 0 0 .74.74ZM17.3 68.53a.57.57 0 1 0-.8-.8.57.57 0 0 0 .8.8ZM20.63 71.86a.61.61 0 1 0-.87-.87.61.61 0 0 0 .87.87ZM23.93 75.16a.61.61 0 1 0-.87-.87.61.61 0 0 0 .87.87ZM27.2 78.42a.57.57 0 1 0-.82-.8.57.57 0 0 0 .81.8ZM30.46 81.69a.53.53 0 1 0-.75-.74.53.53 0 0 0 .75.74ZM33.72 84.95a.48.48 0 1 0-.67-.67.48.48 0 0 0 .67.67ZM36.99 88.22a.44.44 0 1 0-.62-.62.44.44 0 0 0 .62.62ZM40.26 91.49a.4.4 0 1 0-.56-.56.4.4 0 0 0 .56.56ZM43.52 94.75a.35.35 0 1 0-.49-.49.35.35 0 0 0 .5.5ZM.66 45.3a.35.35 0 1 0-.5-.5.35.35 0 0 0 .5.5ZM4 48.63a.4.4 0 1 0-.58-.57.4.4 0 0 0 .58.57ZM7.33 51.97a.47.47 0 1 0-.65-.66.47.47 0 0 0 .65.66ZM10.67 55.31a.53.53 0 1 0-.74-.74.53.53 0 0 0 .74.74ZM14.01 58.65a.58.58 0 1 0-.82-.83.58.58 0 0 0 .82.83ZM17.35 61.99a.64.64 0 1 0-.9-.91.64.64 0 0 0 .9.9ZM20.7 65.33a.7.7 0 1 0-1-1 .7.7 0 0 0 1 1ZM24.03 68.67a.76.76 0 1 0-1.08-1.08.76.76 0 0 0 1.08 1.08ZM27.33 71.96a.76.76 0 1 0-1.08-1.07.76.76 0 0 0 1.08 1.07ZM30.58 75.22a.7.7 0 1 0-1-1 .7.7 0 0 0 1 1ZM33.84 78.48a.64.64 0 1 0-.91-.92.64.64 0 0 0 .9.92ZM37.1 81.73a.59.59 0 1 0-.83-.83.59.59 0 0 0 .82.83ZM40.35 84.99a.53.53 0 1 0-.74-.75.53.53 0 0 0 .74.75ZM43.6 88.24a.47.47 0 1 0-.65-.66.47.47 0 0 0 .66.66ZM46.86 91.5a.4.4 0 1 0-.57-.58.4.4 0 0 0 .57.58ZM50.12 94.75a.35.35 0 1 0-.5-.49.35.35 0 0 0 .5.5ZM3.99 42.03a.4.4 0 1 0-.56-.56.4.4 0 0 0 .56.56ZM7.33 45.38a.47.47 0 1 0-.65-.66.47.47 0 0 0 .65.66ZM10.68 48.72a.54.54 0 1 0-.76-.76.54.54 0 0 0 .76.76ZM14.03 52.08a.61.61 0 1 0-.86-.87.61.61 0 0 0 .86.87ZM17.39 55.43a.7.7 0 1 0-.98-.98.7.7 0 0 0 .98.98ZM20.73 58.78a.76.76 0 1 0-1.08-1.08.76.76 0 0 0 1.08 1.08ZM24.09 62.13a.84.84 0 1 0-1.2-1.19.84.84 0 0 0 1.2 1.19ZM27.43 65.48a.91.91 0 1 0-1.29-1.3.91.91 0 0 0 1.3 1.3ZM30.73 68.77a.91.91 0 1 0-1.29-1.29.91.91 0 0 0 1.3 1.3ZM33.98 72.02a.84.84 0 1 0-1.19-1.19.84.84 0 0 0 1.19 1.19ZM37.22 75.26a.76.76 0 1 0-1.08-1.08.76.76 0 0 0 1.08 1.08ZM40.47 78.5a.7.7 0 1 0-.98-.97.7.7 0 0 0 .98.98ZM43.71 81.75a.61.61 0 1 0-.87-.87.61.61 0 0 0 .87.87ZM46.95 85a.54.54 0 1 0-.76-.77.54.54 0 0 0 .76.77ZM50.2 88.24a.47.47 0 1 0-.66-.66.47.47 0 0 0 .66.66ZM53.45 91.49a.4.4 0 1 0-.56-.56.4.4 0 0 0 .56.56ZM3.95 35.4a.35.35 0 1 0-.49-.5.35.35 0 0 0 .5.5ZM7.31 38.76a.44.44 0 1 0-.61-.62.44.44 0 0 0 .61.62ZM10.67 42.12a.53.53 0 1 0-.74-.74.53.53 0 0 0 .74.74ZM14.03 45.48a.61.61 0 1 0-.86-.87.61.61 0 0 0 .86.87ZM17.4 48.84a.7.7 0 1 0-1-1 .7.7 0 0 0 1 1ZM20.75 52.2a.8.8 0 1 0-1.12-1.12.8.8 0 0 0 1.12 1.12ZM24.12 55.56a.88.88 0 1 0-1.25-1.24.88.88 0 0 0 1.25 1.24ZM27.48 58.92a.97.97 0 1 0-1.38-1.37.97.97 0 0 0 1.38 1.37ZM30.84 62.28a1.06 1.06 0 1 0-1.5-1.5 1.06 1.06 0 0 0 1.5 1.5ZM34.13 65.58a1.06 1.06 0 1 0-1.5-1.5 1.06 1.06 0 0 0 1.5 1.5ZM37.37 68.81a.97.97 0 1 0-1.38-1.37.97.97 0 0 0 1.38 1.37ZM40.6 72.05a.88.88 0 1 0-1.25-1.25.88.88 0 0 0 1.25 1.25ZM43.84 75.28a.8.8 0 1 0-1.12-1.12.8.8 0 0 0 1.12 1.12ZM47.07 78.52a.7.7 0 1 0-1-1 .7.7 0 0 0 1 1ZM50.3 81.75a.61.61 0 1 0-.86-.87.61.61 0 0 0 .87.87ZM53.54 84.99a.53.53 0 1 0-.74-.75.53.53 0 0 0 .74.75ZM56.77 88.22a.44.44 0 1 0-.61-.62.44.44 0 0 0 .61.62ZM60 91.46a.35.35 0 1 0-.48-.5.35.35 0 0 0 .49.5ZM7.27 32.12a.38.38 0 1 0-.53-.53.38.38 0 0 0 .53.53ZM10.64 35.5a.48.48 0 1 0-.68-.68.48.48 0 0 0 .68.67ZM14.01 38.87a.59.59 0 1 0-.82-.83.59.59 0 0 0 .82.83ZM17.39 42.24a.7.7 0 1 0-.98-.98.7.7 0 0 0 .98.98ZM20.75 45.6a.8.8 0 1 0-1.12-1.11.8.8 0 0 0 1.12 1.12ZM24.12 48.98a.9.9 0 1 0-1.26-1.27.9.9 0 0 0 1.26 1.27ZM27.5 52.35a1 1 0 1 0-1.42-1.42 1 1 0 0 0 1.42 1.42ZM30.87 55.72a1.1 1.1 0 1 0-1.57-1.56 1.1 1.1 0 0 0 1.57 1.56ZM34.24 59.09a1.2 1.2 0 1 0-1.71-1.7 1.2 1.2 0 0 0 1.7 1.7ZM37.54 62.39a1.2 1.2 0 1 0-1.71-1.71 1.2 1.2 0 0 0 1.7 1.7ZM40.76 65.61a1.1 1.1 0 1 0-1.56-1.56 1.1 1.1 0 0 0 1.56 1.56ZM43.98 68.84a1 1 0 1 0-1.41-1.42 1 1 0 0 0 1.41 1.42ZM47.2 72.06a.9.9 0 1 0-1.26-1.27.9.9 0 0 0 1.27 1.27ZM50.43 75.28a.8.8 0 1 0-1.12-1.12.8.8 0 0 0 1.12 1.12ZM53.66 78.5a.7.7 0 1 0-.98-.97.7.7 0 0 0 .98.98ZM56.88 81.73a.59.59 0 1 0-.83-.83.59.59 0 0 0 .83.83ZM60.1 84.95a.48.48 0 1 0-.68-.67.48.48 0 0 0 .68.67ZM63.33 88.18a.38.38 0 1 0-.54-.53.38.38 0 0 0 .54.53ZM7.2 25.47a.29.29 0 1 0-.4-.41.29.29 0 0 0 .4.4ZM10.59 28.85a.4.4 0 1 0-.58-.58.4.4 0 0 0 .58.58ZM13.97 32.23a.53.53 0 1 0-.74-.74.53.53 0 0 0 .74.74ZM17.35 35.61a.64.64 0 1 0-.9-.91.64.64 0 0 0 .9.91ZM20.73 39a.76.76 0 1 0-1.08-1.09.76.76 0 0 0 1.08 1.08ZM24.12 42.37a.88.88 0 1 0-1.25-1.24.88.88 0 0 0 1.25 1.24ZM27.5 45.75a1 1 0 1 0-1.42-1.41 1 1 0 0 0 1.42 1.41ZM30.88 49.14a1.12 1.12 0 1 0-1.59-1.59 1.12 1.12 0 0 0 1.59 1.59ZM34.26 52.52a1.24 1.24 0 1 0-1.75-1.75 1.24 1.24 0 0 0 1.75 1.75ZM37.64 55.9a1.36 1.36 0 1 0-1.92-1.92 1.36 1.36 0 0 0 1.92 1.92ZM40.94 59.2a1.36 1.36 0 1 0-1.92-1.92 1.36 1.36 0 0 0 1.92 1.92ZM44.15 62.4a1.24 1.24 0 1 0-1.75-1.74 1.24 1.24 0 0 0 1.75 1.75ZM47.36 65.62a1.12 1.12 0 1 0-1.58-1.58 1.12 1.12 0 0 0 1.58 1.58ZM50.58 68.84a1 1 0 1 0-1.42-1.42 1 1 0 0 0 1.42 1.42ZM53.8 72.05a.88.88 0 1 0-1.26-1.25.88.88 0 0 0 1.25 1.25ZM57 75.26a.76.76 0 1 0-1.07-1.08.76.76 0 0 0 1.07 1.08ZM60.22 78.48a.64.64 0 1 0-.91-.92.64.64 0 0 0 .9.92ZM63.43 81.69a.53.53 0 1 0-.74-.74.53.53 0 0 0 .74.74ZM66.65 84.9a.4.4 0 1 0-.58-.57.4.4 0 0 0 .58.57ZM69.86 88.12a.29.29 0 1 0-.4-.41.29.29 0 0 0 .4.4ZM10.52 22.18a.3.3 0 1 0-.43-.43.3.3 0 0 0 .43.43ZM13.9 25.57a.44.44 0 1 0-.6-.62.44.44 0 0 0 .6.62ZM17.3 28.96a.57.57 0 1 0-.8-.8.57.57 0 0 0 .8.8ZM20.7 32.35a.7.7 0 1 0-1-.99.7.7 0 0 0 1 1ZM24.09 35.75a.84.84 0 1 0-1.2-1.19.84.84 0 0 0 1.2 1.19ZM27.48 39.14a.97.97 0 1 0-1.38-1.37.97.97 0 0 0 1.38 1.37ZM30.87 42.53a1.1 1.1 0 1 0-1.56-1.56 1.1 1.1 0 0 0 1.56 1.56ZM34.26 45.92a1.24 1.24 0 1 0-1.75-1.75 1.24 1.24 0 0 0 1.75 1.75ZM37.65 49.32a1.37 1.37 0 1 0-1.94-1.95 1.37 1.37 0 0 0 1.94 1.95ZM41.04 52.7a1.5 1.5 0 1 0-2.13-2.12 1.5 1.5 0 0 0 2.13 2.13ZM44.34 56a1.5 1.5 0 1 0-2.13-2.13A1.5 1.5 0 0 0 44.34 56ZM47.54 59.2a1.37 1.37 0 1 0-1.94-1.94 1.37 1.37 0 0 0 1.94 1.95ZM50.75 62.4A1.24 1.24 0 1 0 49 60.67a1.24 1.24 0 0 0 1.75 1.75ZM53.95 65.61a1.1 1.1 0 1 0-1.56-1.56 1.1 1.1 0 0 0 1.56 1.56ZM57.15 68.81a.97.97 0 1 0-1.37-1.37.97.97 0 0 0 1.37 1.37ZM60.36 72.02a.84.84 0 1 0-1.2-1.19.84.84 0 0 0 1.2 1.19ZM63.56 75.22a.7.7 0 1 0-1-1 .7.7 0 0 0 1 1ZM66.76 78.42a.57.57 0 1 0-.8-.8.57.57 0 0 0 .8.8ZM69.96 81.63a.44.44 0 1 0-.61-.62.44.44 0 0 0 .61.62ZM73.17 84.83a.3.3 0 1 0-.43-.43.3.3 0 0 0 .43.43ZM13.82 18.9a.32.32 0 1 0-.44-.46.32.32 0 0 0 .44.45ZM17.23 22.3a.47.47 0 1 0-.66-.66.47.47 0 0 0 .66.65ZM20.63 25.7a.61.61 0 1 0-.87-.87.61.61 0 0 0 .87.87ZM24.03 29.1a.76.76 0 1 0-1.08-1.08.76.76 0 0 0 1.08 1.08ZM27.43 32.5a.91.91 0 1 0-1.29-1.29.91.91 0 0 0 1.3 1.3ZM30.84 35.9a1.06 1.06 0 1 0-1.5-1.5 1.06 1.06 0 0 0 1.5 1.5ZM34.24 39.3a1.2 1.2 0 1 0-1.71-1.7 1.2 1.2 0 0 0 1.7 1.7ZM37.64 42.7a1.36 1.36 0 1 0-1.92-1.91 1.36 1.36 0 0 0 1.92 1.92ZM41.04 46.11a1.5 1.5 0 1 0-2.13-2.13 1.5 1.5 0 0 0 2.13 2.13ZM44.44 49.51a1.65 1.65 0 1 0-2.33-2.34 1.65 1.65 0 0 0 2.33 2.34ZM47.74 52.81a1.65 1.65 0 1 0-2.34-2.34 1.65 1.65 0 0 0 2.34 2.34ZM50.93 56a1.5 1.5 0 1 0-2.12-2.13A1.5 1.5 0 0 0 50.93 56ZM54.13 59.2a1.36 1.36 0 1 0-1.92-1.92 1.36 1.36 0 0 0 1.92 1.92ZM57.32 62.39a1.2 1.2 0 1 0-1.7-1.71 1.2 1.2 0 0 0 1.7 1.7ZM60.51 65.58a1.06 1.06 0 1 0-1.5-1.5 1.06 1.06 0 0 0 1.5 1.5ZM63.7 68.77a.91.91 0 1 0-1.28-1.29.91.91 0 0 0 1.28 1.3ZM66.9 71.96a.76.76 0 1 0-1.08-1.07.76.76 0 0 0 1.08 1.07ZM70.09 75.16a.61.61 0 1 0-.87-.87.61.61 0 0 0 .87.87ZM73.28 78.35a.47.47 0 1 0-.66-.66.47.47 0 0 0 .66.66ZM76.47 81.54a.32.32 0 1 0-.45-.45.32.32 0 0 0 .45.45ZM17.12 15.6a.32.32 0 1 0-.45-.45.32.32 0 0 0 .45.45ZM20.52 19a.47.47 0 1 0-.66-.66.47.47 0 0 0 .66.66ZM23.93 22.4a.61.61 0 1 0-.87-.87.61.61 0 0 0 .87.87ZM27.33 25.8a.76.76 0 1 0-1.08-1.08.76.76 0 0 0 1.08 1.08ZM30.73 29.2a.91.91 0 1 0-1.29-1.28.91.91 0 0 0 1.3 1.28ZM34.13 32.6a1.06 1.06 0 1 0-1.5-1.5 1.06 1.06 0 0 0 1.5 1.5ZM37.54 36a1.2 1.2 0 1 0-1.71-1.7 1.2 1.2 0 0 0 1.7 1.7ZM40.94 39.41a1.36 1.36 0 1 0-1.92-1.92 1.36 1.36 0 0 0 1.92 1.92ZM44.34 42.81a1.5 1.5 0 1 0-2.13-2.12 1.5 1.5 0 0 0 2.13 2.12ZM47.74 46.22a1.65 1.65 0 1 0-2.34-2.34 1.65 1.65 0 0 0 2.34 2.34ZM51.04 49.51a1.65 1.65 0 1 0-2.34-2.34 1.65 1.65 0 0 0 2.34 2.34ZM54.23 52.7a1.5 1.5 0 1 0-2.13-2.12 1.5 1.5 0 0 0 2.13 2.13ZM57.42 55.9a1.36 1.36 0 1 0-1.91-1.92 1.36 1.36 0 0 0 1.91 1.92ZM60.62 59.09a1.2 1.2 0 1 0-1.71-1.7 1.2 1.2 0 0 0 1.7 1.7ZM63.8 62.28a1.06 1.06 0 1 0-1.49-1.5 1.06 1.06 0 0 0 1.5 1.5ZM67 65.48a.91.91 0 1 0-1.29-1.3.91.91 0 0 0 1.3 1.3ZM70.2 68.67a.76.76 0 1 0-1.08-1.08.76.76 0 0 0 1.07 1.08ZM73.39 71.86a.61.61 0 1 0-.87-.87.61.61 0 0 0 .87.87ZM76.58 75.05a.47.47 0 1 0-.66-.66.47.47 0 0 0 .66.66ZM79.77 78.24a.32.32 0 1 0-.45-.44.32.32 0 0 0 .45.44ZM20.41 12.29a.3.3 0 1 0-.43-.43.3.3 0 0 0 .43.43ZM23.8 15.68a.44.44 0 1 0-.62-.62.44.44 0 0 0 .62.62ZM27.2 19.07a.57.57 0 1 0-.82-.8.57.57 0 0 0 .81.8ZM30.58 22.46a.7.7 0 1 0-1-1 .7.7 0 0 0 1 1ZM33.98 25.86a.84.84 0 1 0-1.19-1.2.84.84 0 0 0 1.19 1.2ZM37.37 29.25a.97.97 0 1 0-1.38-1.38.97.97 0 0 0 1.38 1.38ZM40.76 32.64a1.1 1.1 0 1 0-1.56-1.56 1.1 1.1 0 0 0 1.56 1.56ZM44.15 36.03a1.24 1.24 0 1 0-1.75-1.75 1.24 1.24 0 0 0 1.75 1.75ZM47.54 39.42a1.37 1.37 0 1 0-1.94-1.94 1.37 1.37 0 0 0 1.94 1.94ZM50.93 42.81a1.5 1.5 0 1 0-2.12-2.12 1.5 1.5 0 0 0 2.12 2.12ZM54.23 46.11a1.5 1.5 0 1 0-2.13-2.13 1.5 1.5 0 0 0 2.13 2.13ZM57.44 49.32a1.37 1.37 0 1 0-1.95-1.95 1.37 1.37 0 0 0 1.95 1.95ZM60.64 52.52a1.24 1.24 0 1 0-1.75-1.75 1.24 1.24 0 0 0 1.75 1.75ZM63.84 55.72a1.1 1.1 0 1 0-1.56-1.56 1.1 1.1 0 0 0 1.56 1.56ZM67.04 58.92a.97.97 0 1 0-1.37-1.37.97.97 0 0 0 1.37 1.37ZM70.25 62.13a.84.84 0 1 0-1.19-1.19.84.84 0 0 0 1.19 1.19ZM73.45 65.33a.7.7 0 1 0-1-1 .7.7 0 0 0 1 1ZM76.65 68.53a.57.57 0 1 0-.8-.8.57.57 0 0 0 .8.8ZM79.86 71.73a.44.44 0 1 0-.62-.61.44.44 0 0 0 .62.61ZM83.06 74.94a.3.3 0 1 0-.43-.43.3.3 0 0 0 .43.43ZM23.7 8.98a.29.29 0 1 0-.41-.4.29.29 0 0 0 .4.4ZM27.08 12.36a.4.4 0 1 0-.58-.57.4.4 0 0 0 .58.57ZM30.46 15.74a.53.53 0 1 0-.75-.74.53.53 0 0 0 .75.74ZM33.84 19.12a.64.64 0 1 0-.91-.9.64.64 0 0 0 .9.9ZM37.22 22.5a.76.76 0 1 0-1.08-1.07.76.76 0 0 0 1.08 1.07ZM40.6 25.89a.88.88 0 1 0-1.25-1.25.88.88 0 0 0 1.25 1.25ZM43.98 29.27a1 1 0 1 0-1.41-1.42 1 1 0 0 0 1.41 1.42ZM47.36 32.65a1.12 1.12 0 1 0-1.58-1.58 1.12 1.12 0 0 0 1.58 1.58ZM50.75 36.03A1.24 1.24 0 1 0 49 34.28a1.24 1.24 0 0 0 1.75 1.75ZM54.13 39.41a1.36 1.36 0 1 0-1.92-1.92 1.36 1.36 0 0 0 1.92 1.92ZM57.42 42.7a1.36 1.36 0 1 0-1.91-1.91 1.36 1.36 0 0 0 1.91 1.92ZM60.64 45.92a1.24 1.24 0 1 0-1.75-1.75 1.24 1.24 0 0 0 1.75 1.75ZM63.85 49.14a1.12 1.12 0 1 0-1.58-1.59 1.12 1.12 0 0 0 1.58 1.59ZM67.06 52.35a1 1 0 1 0-1.41-1.42 1 1 0 0 0 1.41 1.42ZM70.28 55.56a.88.88 0 1 0-1.25-1.24.88.88 0 0 0 1.25 1.24ZM73.5 58.78a.76.76 0 1 0-1.09-1.08.76.76 0 0 0 1.08 1.08ZM76.7 61.99a.64.64 0 1 0-.9-.91.64.64 0 0 0 .9.9ZM79.92 65.2a.53.53 0 1 0-.74-.74.53.53 0 0 0 .74.74ZM83.13 68.42a.4.4 0 1 0-.57-.58.4.4 0 0 0 .57.58ZM86.35 71.63a.29.29 0 1 0-.41-.4.29.29 0 0 0 .4.4ZM30.35 9.04a.38.38 0 1 0-.53-.53.38.38 0 0 0 .53.53ZM33.72 12.41a.48.48 0 1 0-.67-.68.48.48 0 0 0 .67.68ZM37.1 15.78a.59.59 0 1 0-.83-.82.59.59 0 0 0 .82.82ZM40.47 19.16a.7.7 0 1 0-.98-.98.7.7 0 0 0 .98.98ZM43.84 22.53a.8.8 0 1 0-1.12-1.13.8.8 0 0 0 1.12 1.13ZM47.2 25.9a.9.9 0 1 0-1.26-1.27.9.9 0 0 0 1.27 1.27ZM50.58 29.27a1 1 0 1 0-1.42-1.42 1 1 0 0 0 1.42 1.42ZM53.95 32.64a1.1 1.1 0 1 0-1.56-1.57 1.1 1.1 0 0 0 1.56 1.57ZM57.32 36a1.2 1.2 0 1 0-1.7-1.7 1.2 1.2 0 0 0 1.7 1.7ZM60.62 39.3a1.2 1.2 0 1 0-1.71-1.7 1.2 1.2 0 0 0 1.7 1.7ZM63.84 42.53a1.1 1.1 0 1 0-1.56-1.56 1.1 1.1 0 0 0 1.56 1.56ZM67.06 45.75a1 1 0 1 0-1.41-1.41 1 1 0 0 0 1.41 1.41ZM70.29 48.98a.9.9 0 1 0-1.27-1.27.9.9 0 0 0 1.27 1.27ZM73.51 52.2a.8.8 0 1 0-1.12-1.12.8.8 0 0 0 1.12 1.12ZM76.74 55.43a.7.7 0 1 0-.98-.98.7.7 0 0 0 .98.98ZM79.96 58.65a.58.58 0 1 0-.83-.83.58.58 0 0 0 .83.83ZM83.18 61.87a.48.48 0 1 0-.67-.68.48.48 0 0 0 .67.68ZM86.4 65.1a.38.38 0 1 0-.53-.54.38.38 0 0 0 .54.54ZM33.63 5.72a.35.35 0 1 0-.5-.49.35.35 0 0 0 .5.5ZM36.99 9.08a.44.44 0 1 0-.62-.61.44.44 0 0 0 .62.61ZM40.35 12.44a.53.53 0 1 0-.74-.74.53.53 0 0 0 .74.74ZM43.71 15.8a.61.61 0 1 0-.87-.86.61.61 0 0 0 .87.87ZM47.07 19.17a.7.7 0 1 0-1-1 .7.7 0 0 0 1 1ZM50.43 22.53a.8.8 0 1 0-1.12-1.13.8.8 0 0 0 1.12 1.13ZM53.8 25.89a.88.88 0 1 0-1.26-1.25.88.88 0 0 0 1.25 1.25ZM57.15 29.25a.97.97 0 1 0-1.37-1.38.97.97 0 0 0 1.37 1.38ZM60.51 32.6a1.06 1.06 0 1 0-1.5-1.5 1.06 1.06 0 0 0 1.5 1.5ZM63.8 35.9a1.06 1.06 0 1 0-1.49-1.5 1.06 1.06 0 0 0 1.5 1.5ZM67.04 39.14a.97.97 0 1 0-1.37-1.37.97.97 0 0 0 1.37 1.37ZM70.28 42.37a.88.88 0 1 0-1.25-1.24.88.88 0 0 0 1.25 1.24ZM73.51 45.6a.8.8 0 1 0-1.12-1.11.8.8 0 0 0 1.12 1.12ZM76.75 48.84a.7.7 0 1 0-1-1 .7.7 0 0 0 1 1ZM79.98 52.08a.61.61 0 1 0-.87-.87.61.61 0 0 0 .87.87ZM83.22 55.31a.53.53 0 1 0-.75-.74.53.53 0 0 0 .75.74ZM86.45 58.54a.44.44 0 1 0-.62-.61.44.44 0 0 0 .62.61ZM89.68 61.78a.35.35 0 1 0-.49-.5.35.35 0 0 0 .5.5ZM40.26 5.76a.4.4 0 1 0-.56-.56.4.4 0 0 0 .56.56ZM43.6 9.1a.47.47 0 1 0-.65-.65.47.47 0 0 0 .66.66ZM46.95 12.45a.54.54 0 1 0-.76-.76.54.54 0 0 0 .76.76ZM50.3 15.8a.61.61 0 1 0-.86-.86.61.61 0 0 0 .87.87ZM53.66 19.16a.7.7 0 1 0-.98-.98.7.7 0 0 0 .98.98ZM57 22.5a.76.76 0 1 0-1.07-1.07A.76.76 0 0 0 57 22.5ZM60.36 25.86a.84.84 0 1 0-1.2-1.2.84.84 0 0 0 1.2 1.2ZM63.7 29.2a.91.91 0 1 0-1.28-1.28.91.91 0 0 0 1.28 1.28ZM67 32.5a.91.91 0 1 0-1.29-1.29.91.91 0 0 0 1.3 1.3ZM70.25 35.75a.84.84 0 1 0-1.19-1.19.84.84 0 0 0 1.19 1.19ZM73.5 39a.76.76 0 1 0-1.09-1.09A.76.76 0 0 0 73.5 39ZM76.74 42.24a.7.7 0 1 0-.98-.98.7.7 0 0 0 .98.98ZM79.98 45.48a.61.61 0 1 0-.87-.87.61.61 0 0 0 .87.87ZM83.22 48.72a.54.54 0 1 0-.76-.76.54.54 0 0 0 .76.76ZM86.47 51.97a.47.47 0 1 0-.66-.66.47.47 0 0 0 .66.66ZM89.72 55.22a.4.4 0 1 0-.56-.56.4.4 0 0 0 .56.56ZM43.52 2.43a.35.35 0 1 0-.49-.5.35.35 0 0 0 .5.5ZM46.86 5.77a.4.4 0 1 0-.57-.58.4.4 0 0 0 .57.58ZM50.2 9.1a.47.47 0 1 0-.66-.65.47.47 0 0 0 .66.66ZM53.54 12.44a.53.53 0 1 0-.74-.74.53.53 0 0 0 .74.74ZM56.88 15.78a.59.59 0 1 0-.83-.82.59.59 0 0 0 .83.82ZM60.22 19.12a.64.64 0 1 0-.91-.9.64.64 0 0 0 .9.9ZM63.56 22.46a.7.7 0 1 0-1-1 .7.7 0 0 0 1 1ZM66.9 25.8a.76.76 0 1 0-1.08-1.08.76.76 0 0 0 1.08 1.08ZM70.2 29.1a.76.76 0 1 0-1.08-1.08.76.76 0 0 0 1.07 1.08ZM73.45 32.35a.7.7 0 1 0-1-.99.7.7 0 0 0 1 1ZM76.7 35.61a.64.64 0 1 0-.9-.91.64.64 0 0 0 .9.91ZM79.96 38.87a.59.59 0 1 0-.83-.83.59.59 0 0 0 .83.83ZM83.22 42.12a.53.53 0 1 0-.75-.74.53.53 0 0 0 .75.74ZM86.47 45.38a.47.47 0 1 0-.66-.66.47.47 0 0 0 .66.66ZM89.73 48.63a.4.4 0 1 0-.58-.57.4.4 0 0 0 .58.57ZM92.98 51.89a.35.35 0 1 0-.49-.5.35.35 0 0 0 .5.5ZM50.12 2.43a.35.35 0 1 0-.5-.5.35.35 0 0 0 .5.5ZM53.45 5.76a.4.4 0 1 0-.56-.56.4.4 0 0 0 .56.56ZM56.77 9.08a.44.44 0 1 0-.61-.61.44.44 0 0 0 .61.61ZM60.1 12.41a.48.48 0 1 0-.68-.68.48.48 0 0 0 .68.68ZM63.43 15.74a.53.53 0 1 0-.74-.74.53.53 0 0 0 .74.74ZM66.76 19.07a.57.57 0 1 0-.8-.8.57.57 0 0 0 .8.8ZM70.09 22.4a.61.61 0 1 0-.87-.87.61.61 0 0 0 .87.87ZM73.39 25.7a.61.61 0 1 0-.87-.87.61.61 0 0 0 .87.87ZM76.65 28.96a.57.57 0 1 0-.8-.8.57.57 0 0 0 .8.8ZM79.92 32.23a.53.53 0 1 0-.74-.74.53.53 0 0 0 .74.74ZM83.18 35.5a.48.48 0 1 0-.67-.68.48.48 0 0 0 .67.67ZM86.45 38.76a.44.44 0 1 0-.62-.62.44.44 0 0 0 .62.62ZM89.72 42.03a.4.4 0 1 0-.56-.56.4.4 0 0 0 .56.56ZM92.98 45.3a.35.35 0 1 0-.49-.5.35.35 0 0 0 .5.5ZM60 5.72a.35.35 0 1 0-.48-.49.35.35 0 0 0 .49.5ZM63.33 9.04a.38.38 0 1 0-.54-.53.38.38 0 0 0 .54.53ZM66.65 12.36a.4.4 0 1 0-.58-.57.4.4 0 0 0 .58.57ZM69.96 15.68a.44.44 0 1 0-.61-.62.44.44 0 0 0 .61.62ZM73.28 19a.47.47 0 1 0-.66-.66.47.47 0 0 0 .66.66ZM76.58 22.3a.47.47 0 1 0-.66-.66.47.47 0 0 0 .66.65ZM79.86 25.57a.44.44 0 1 0-.62-.62.44.44 0 0 0 .62.62ZM83.13 28.85a.4.4 0 1 0-.57-.58.4.4 0 0 0 .57.58ZM86.4 32.12a.38.38 0 1 0-.53-.53.38.38 0 0 0 .54.53ZM89.68 35.4a.35.35 0 1 0-.49-.5.35.35 0 0 0 .5.5ZM69.86 8.98a.29.29 0 1 0-.4-.4.29.29 0 0 0 .4.4ZM73.17 12.29a.3.3 0 1 0-.43-.43.3.3 0 0 0 .43.43ZM76.47 15.6a.32.32 0 1 0-.45-.45.32.32 0 0 0 .45.45ZM79.77 18.9a.32.32 0 1 0-.45-.46.32.32 0 0 0 .45.45ZM83.06 22.18a.3.3 0 1 0-.43-.43.3.3 0 0 0 .43.43ZM86.35 25.47a.29.29 0 1 0-.41-.41.29.29 0 0 0 .4.4ZM4.81 67a.29.29 0 1 0-.36-.46.29.29 0 0 0 .36.45ZM7.72 70.66a.3.3 0 1 0-.38-.48.3.3 0 0 0 .38.48ZM10.63 74.32a.32.32 0 1 0-.4-.5.32.32 0 0 0 .4.5Z"/><path d="M13.53 77.97a.32.32 0 1 0-.4-.5.32.32 0 0 0 .4.5ZM16.42 81.61a.3.3 0 1 0-.38-.48.3.3 0 0 0 .38.48ZM19.31 85.25a.29.29 0 1 0-.36-.45.29.29 0 0 0 .36.45ZM2.7 56.83a.35.35 0 1 0-.43-.54.35.35 0 0 0 .43.54ZM5.62 60.5a.38.38 0 1 0-.47-.58.38.38 0 0 0 .47.59ZM8.54 64.18a.4.4 0 1 0-.51-.63.4.4 0 0 0 .5.63ZM11.46 67.86a.44.44 0 1 0-.55-.69.44.44 0 0 0 .55.69ZM14.37 71.53a.47.47 0 1 0-.58-.73.47.47 0 0 0 .58.73ZM17.27 75.19a.47.47 0 1 0-.58-.74.47.47 0 0 0 .58.74ZM20.16 78.81a.44.44 0 1 0-.55-.68.44.44 0 0 0 .55.68ZM23.04 82.44a.4.4 0 1 0-.5-.64.4.4 0 0 0 .5.64ZM25.92 86.07a.38.38 0 1 0-.47-.59.38.38 0 0 0 .47.6ZM28.8 89.7a.35.35 0 1 0-.43-.55.35.35 0 0 0 .43.55ZM.55 46.63a.35.35 0 1 0-.43-.54.35.35 0 0 0 .43.54ZM3.48 50.32a.4.4 0 1 0-.49-.62.4.4 0 0 0 .49.62ZM6.4 54a.44.44 0 1 0-.54-.68.44.44 0 0 0 .55.68ZM9.33 57.69a.48.48 0 1 0-.6-.75.48.48 0 0 0 .6.75ZM12.26 61.38a.53.53 0 1 0-.65-.83.53.53 0 0 0 .65.83ZM15.2 65.06a.57.57 0 1 0-.72-.9.57.57 0 0 0 .71.9ZM18.12 68.75a.61.61 0 1 0-.77-.96.61.61 0 0 0 .77.96ZM21.02 72.4a.61.61 0 1 0-.77-.96.61.61 0 0 0 .77.96ZM23.9 76.02a.57.57 0 1 0-.72-.9.57.57 0 0 0 .71.9ZM26.76 79.64a.53.53 0 1 0-.65-.83.53.53 0 0 0 .65.83ZM29.63 83.25a.48.48 0 1 0-.6-.75.48.48 0 0 0 .6.75ZM32.5 86.87a.44.44 0 1 0-.54-.69.44.44 0 0 0 .55.69ZM35.38 90.49a.4.4 0 1 0-.49-.62.4.4 0 0 0 .5.62ZM38.25 94.1a.35.35 0 1 0-.43-.54.35.35 0 0 0 .43.54ZM1.3 40.08a.35.35 0 1 0-.43-.55.35.35 0 0 0 .43.55ZM4.24 43.78a.4.4 0 1 0-.5-.64.4.4 0 0 0 .5.64ZM7.18 47.48a.47.47 0 1 0-.58-.74.47.47 0 0 0 .58.74ZM10.11 51.17a.53.53 0 1 0-.65-.82.53.53 0 0 0 .65.82ZM13.05 54.87a.58.58 0 1 0-.73-.91.58.58 0 0 0 .73.91ZM15.99 58.57a.64.64 0 1 0-.8-1 .64.64 0 0 0 .8 1ZM18.92 62.27a.7.7 0 1 0-.87-1.1.7.7 0 0 0 .87 1.1ZM21.86 65.97a.76.76 0 1 0-.95-1.2.76.76 0 0 0 .95 1.2ZM24.76 69.62a.76.76 0 1 0-.95-1.2.76.76 0 0 0 .95 1.2ZM27.62 73.22a.7.7 0 1 0-.87-1.1.7.7 0 0 0 .87 1.1ZM30.49 76.83a.64.64 0 1 0-.8-1.01.64.64 0 0 0 .8 1ZM33.35 80.43a.59.59 0 1 0-.73-.91.59.59 0 0 0 .73.91ZM36.21 84.04a.53.53 0 1 0-.65-.82.53.53 0 0 0 .65.82ZM39.08 87.64a.47.47 0 1 0-.58-.73.47.47 0 0 0 .58.73ZM41.94 91.25a.4.4 0 1 0-.5-.64.4.4 0 0 0 .5.64ZM44.8 94.85a.35.35 0 1 0-.43-.54.35.35 0 0 0 .43.54ZM4.98 37.22a.4.4 0 1 0-.49-.62.4.4 0 0 0 .5.62ZM7.93 40.92a.47.47 0 1 0-.58-.73.47.47 0 0 0 .58.73ZM10.87 44.63a.54.54 0 1 0-.67-.84.54.54 0 0 0 .67.84ZM13.82 48.34a.61.61 0 1 0-.76-.96.61.61 0 0 0 .76.96ZM16.77 52.05a.7.7 0 1 0-.86-1.08.7.7 0 0 0 .86 1.08ZM19.71 55.76a.76.76 0 1 0-.95-1.2.76.76 0 0 0 .95 1.2ZM22.66 59.47a.84.84 0 1 0-1.04-1.31.84.84 0 0 0 1.04 1.31ZM25.6 63.18a.91.91 0 1 0-1.13-1.43.91.91 0 0 0 1.14 1.43ZM28.5 66.83a.91.91 0 1 0-1.13-1.42.91.91 0 0 0 1.14 1.42ZM31.36 70.43a.84.84 0 1 0-1.04-1.32.84.84 0 0 0 1.04 1.32ZM34.21 74.02a.76.76 0 1 0-.95-1.2.76.76 0 0 0 .95 1.2ZM37.07 77.62a.7.7 0 1 0-.86-1.09.7.7 0 0 0 .86 1.09ZM39.92 81.2a.61.61 0 1 0-.76-.95.61.61 0 0 0 .76.96ZM42.77 84.8a.54.54 0 1 0-.67-.84.54.54 0 0 0 .67.84ZM45.63 88.4a.47.47 0 1 0-.58-.74.47.47 0 0 0 .58.74ZM48.48 91.99a.4.4 0 1 0-.49-.62.4.4 0 0 0 .5.62ZM5.7 30.63a.35.35 0 1 0-.43-.55.35.35 0 0 0 .44.55ZM8.66 34.35a.44.44 0 1 0-.54-.69.44.44 0 0 0 .54.69ZM11.62 38.07a.53.53 0 1 0-.66-.82.53.53 0 0 0 .66.82ZM14.57 41.8a.61.61 0 1 0-.76-.97.61.61 0 0 0 .76.96ZM17.53 45.51a.7.7 0 1 0-.88-1.1.7.7 0 0 0 .88 1.1ZM20.48 49.23A.8.8 0 1 0 19.5 48a.8.8 0 0 0 .98 1.24ZM23.44 52.96a.88.88 0 1 0-1.1-1.39.88.88 0 0 0 1.1 1.39ZM26.4 56.68a.97.97 0 1 0-1.21-1.52.97.97 0 0 0 1.2 1.52ZM29.35 60.4a1.06 1.06 0 1 0-1.32-1.66 1.06 1.06 0 0 0 1.32 1.66ZM32.25 64.05a1.06 1.06 0 1 0-1.32-1.66 1.06 1.06 0 0 0 1.32 1.66ZM35.1 67.63a.97.97 0 1 0-1.21-1.52.97.97 0 0 0 1.2 1.52ZM37.94 71.21a.88.88 0 1 0-1.1-1.38.88.88 0 0 0 1.1 1.38ZM40.78 74.8a.8.8 0 1 0-.98-1.25.8.8 0 0 0 .98 1.25ZM43.63 78.38a.7.7 0 1 0-.88-1.1.7.7 0 0 0 .88 1.1ZM46.47 81.96a.61.61 0 1 0-.76-.96.61.61 0 0 0 .76.96ZM49.32 85.54a.53.53 0 1 0-.66-.82.53.53 0 0 0 .66.82ZM52.16 89.12a.44.44 0 1 0-.54-.68.44.44 0 0 0 .54.68ZM55 92.7a.35.35 0 1 0-.43-.54.35.35 0 0 0 .44.55ZM9.38 27.75a.38.38 0 1 0-.47-.59.38.38 0 0 0 .47.59ZM12.34 31.48a.48.48 0 1 0-.6-.75.48.48 0 0 0 .6.75ZM15.3 35.22a.59.59 0 1 0-.72-.92.59.59 0 0 0 .73.92ZM18.27 38.95a.7.7 0 1 0-.86-1.08.7.7 0 0 0 .86 1.08ZM21.23 42.68a.8.8 0 1 0-.98-1.24.8.8 0 0 0 .98 1.24ZM24.2 46.41a.9.9 0 1 0-1.11-1.4.9.9 0 0 0 1.1 1.4ZM27.16 50.15a1 1 0 1 0-1.24-1.57 1 1 0 0 0 1.24 1.57ZM30.13 53.88a1.1 1.1 0 1 0-1.38-1.73 1.1 1.1 0 0 0 1.38 1.73ZM33.1 57.61a1.2 1.2 0 1 0-1.5-1.89 1.2 1.2 0 0 0 1.5 1.9ZM36 61.27a1.2 1.2 0 1 0-1.5-1.9 1.2 1.2 0 0 0 1.5 1.9ZM38.83 64.84a1.1 1.1 0 1 0-1.38-1.73 1.1 1.1 0 0 0 1.38 1.73ZM41.66 68.4a1 1 0 1 0-1.24-1.56 1 1 0 0 0 1.24 1.57ZM44.5 71.98a.9.9 0 1 0-1.11-1.4.9.9 0 0 0 1.1 1.4ZM47.34 75.55a.8.8 0 1 0-.99-1.24.8.8 0 0 0 .99 1.24ZM50.17 79.12a.7.7 0 1 0-.86-1.08.7.7 0 0 0 .86 1.08ZM53 82.69a.58.58 0 1 0-.72-.92.58.58 0 0 0 .73.92ZM55.84 86.26a.48.48 0 1 0-.6-.75.48.48 0 0 0 .6.75ZM58.68 89.83a.38.38 0 1 0-.47-.6.38.38 0 0 0 .47.6ZM10.07 21.13a.29.29 0 1 0-.36-.45.29.29 0 0 0 .36.45ZM13.05 24.87a.4.4 0 1 0-.51-.63.4.4 0 0 0 .5.63ZM16.02 28.62a.53.53 0 1 0-.65-.83.53.53 0 0 0 .65.83ZM19 32.36a.64.64 0 1 0-.8-1 .64.64 0 0 0 .8 1ZM21.97 36.1a.76.76 0 1 0-.95-1.19.76.76 0 0 0 .95 1.2ZM24.94 39.85a.88.88 0 1 0-1.1-1.38.88.88 0 0 0 1.1 1.38ZM27.92 43.6a1 1 0 1 0-1.25-1.57 1 1 0 0 0 1.25 1.57ZM30.89 47.34a1.12 1.12 0 1 0-1.4-1.75 1.12 1.12 0 0 0 1.4 1.75ZM33.86 51.09a1.24 1.24 0 1 0-1.54-1.94 1.24 1.24 0 0 0 1.54 1.94ZM36.84 54.83a1.36 1.36 0 1 0-1.69-2.12 1.36 1.36 0 0 0 1.69 2.12ZM39.74 58.48a1.36 1.36 0 1 0-1.69-2.12 1.36 1.36 0 0 0 1.69 2.12ZM42.56 62.04a1.24 1.24 0 1 0-1.54-1.94 1.24 1.24 0 0 0 1.54 1.94ZM45.39 65.6a1.12 1.12 0 1 0-1.4-1.75 1.12 1.12 0 0 0 1.4 1.75ZM48.22 69.16a1 1 0 1 0-1.25-1.57 1 1 0 0 0 1.25 1.57ZM51.04 72.72a.88.88 0 1 0-1.1-1.38.88.88 0 0 0 1.1 1.38ZM53.87 76.28a.76.76 0 1 0-.95-1.2.76.76 0 0 0 .95 1.2ZM56.7 79.83a.64.64 0 1 0-.8-1 .64.64 0 0 0 .8 1ZM59.52 83.4a.53.53 0 1 0-.65-.83.53.53 0 0 0 .65.82ZM62.35 86.95a.4.4 0 1 0-.5-.64.4.4 0 0 0 .5.64ZM65.17 90.51a.29.29 0 1 0-.35-.45.29.29 0 0 0 .35.45ZM13.73 18.24a.3.3 0 1 0-.38-.48.3.3 0 0 0 .38.48ZM16.72 22a.44.44 0 1 0-.55-.69.44.44 0 0 0 .55.69ZM19.7 25.75a.57.57 0 1 0-.71-.9.57.57 0 0 0 .71.9ZM22.68 29.5a.7.7 0 1 0-.87-1.1.7.7 0 0 0 .87 1.1ZM25.67 33.27a.84.84 0 1 0-1.05-1.32.84.84 0 0 0 1.05 1.32ZM28.65 37.02a.97.97 0 1 0-1.2-1.52.97.97 0 0 0 1.2 1.52ZM31.63 40.78a1.1 1.1 0 1 0-1.37-1.73 1.1 1.1 0 0 0 1.37 1.73ZM34.62 44.53a1.24 1.24 0 1 0-1.54-1.93 1.24 1.24 0 0 0 1.54 1.93ZM37.6 48.3a1.37 1.37 0 1 0-1.7-2.16 1.37 1.37 0 0 0 1.7 2.15ZM40.58 52.05a1.5 1.5 0 1 0-1.87-2.36 1.5 1.5 0 0 0 1.87 2.36ZM43.48 55.7a1.5 1.5 0 1 0-1.87-2.36 1.5 1.5 0 0 0 1.87 2.36ZM46.3 59.25a1.37 1.37 0 1 0-1.7-2.15 1.37 1.37 0 0 0 1.7 2.15ZM49.12 62.8a1.24 1.24 0 1 0-1.54-1.95 1.24 1.24 0 0 0 1.54 1.94ZM51.93 66.34a1.1 1.1 0 1 0-1.37-1.73 1.1 1.1 0 0 0 1.37 1.73ZM54.75 69.89a.97.97 0 1 0-1.2-1.52.97.97 0 0 0 1.2 1.52ZM57.57 73.44a.84.84 0 1 0-1.05-1.32.84.84 0 0 0 1.05 1.32ZM60.38 76.98a.7.7 0 1 0-.87-1.1.7.7 0 0 0 .87 1.1ZM63.2 80.53a.57.57 0 1 0-.71-.9.57.57 0 0 0 .71.9ZM66.02 84.08a.44.44 0 1 0-.55-.69.44.44 0 0 0 .55.69ZM68.84 87.62a.3.3 0 1 0-.38-.47.3.3 0 0 0 .38.47ZM17.4 15.35a.32.32 0 1 0-.4-.5.32.32 0 0 0 .4.5ZM20.39 19.12a.47.47 0 1 0-.58-.73.47.47 0 0 0 .58.73ZM23.38 22.89a.61.61 0 1 0-.77-.96.61.61 0 0 0 .77.96ZM26.37 26.66a.76.76 0 1 0-.95-1.2.76.76 0 0 0 .95 1.2ZM29.36 30.42A.91.91 0 1 0 28.23 29a.91.91 0 0 0 1.13 1.42ZM32.36 34.2a1.06 1.06 0 1 0-1.32-1.67 1.06 1.06 0 0 0 1.32 1.66ZM35.35 37.96a1.2 1.2 0 1 0-1.5-1.9 1.2 1.2 0 0 0 1.5 1.9ZM38.34 41.73a1.36 1.36 0 1 0-1.69-2.13 1.36 1.36 0 0 0 1.7 2.13ZM41.33 45.5a1.5 1.5 0 1 0-1.87-2.36 1.5 1.5 0 0 0 1.87 2.35ZM44.33 49.26a1.65 1.65 0 1 0-2.06-2.59 1.65 1.65 0 0 0 2.06 2.6ZM47.23 52.91a1.65 1.65 0 1 0-2.06-2.58 1.65 1.65 0 0 0 2.06 2.58ZM50.03 56.45a1.5 1.5 0 1 0-1.87-2.36 1.5 1.5 0 0 0 1.87 2.36ZM52.84 59.99a1.36 1.36 0 1 0-1.69-2.13 1.36 1.36 0 0 0 1.7 2.13ZM55.65 63.52a1.2 1.2 0 1 0-1.5-1.9 1.2 1.2 0 0 0 1.5 1.9ZM58.46 67.06a1.06 1.06 0 1 0-1.32-1.66 1.06 1.06 0 0 0 1.32 1.66ZM61.26 70.6a.91.91 0 1 0-1.13-1.44.91.91 0 0 0 1.13 1.43ZM64.07 74.13a.76.76 0 1 0-.95-1.2.76.76 0 0 0 .95 1.2ZM66.88 77.66a.61.61 0 1 0-.76-.96.61.61 0 0 0 .76.96ZM69.69 81.2a.47.47 0 1 0-.58-.73.47.47 0 0 0 .58.73ZM72.5 84.73a.32.32 0 1 0-.4-.5.32.32 0 0 0 .4.5ZM21.05 12.45a.32.32 0 1 0-.4-.5.32.32 0 0 0 .4.5ZM24.04 16.22a.47.47 0 1 0-.58-.73.47.47 0 0 0 .58.73ZM27.03 19.99a.61.61 0 1 0-.76-.96.61.61 0 0 0 .76.96ZM30.02 23.76a.76.76 0 1 0-.95-1.2.76.76 0 0 0 .95 1.2ZM33.02 27.52a.91.91 0 1 0-1.14-1.42.91.91 0 0 0 1.14 1.42ZM36 31.3a1.06 1.06 0 1 0-1.31-1.67 1.06 1.06 0 0 0 1.32 1.66ZM39 35.06a1.2 1.2 0 1 0-1.5-1.9 1.2 1.2 0 0 0 1.5 1.9ZM42 38.83a1.36 1.36 0 1 0-1.7-2.13 1.36 1.36 0 0 0 1.7 2.13ZM44.98 42.6a1.5 1.5 0 1 0-1.87-2.36 1.5 1.5 0 0 0 1.87 2.35ZM47.98 46.36a1.65 1.65 0 1 0-2.06-2.59 1.65 1.65 0 0 0 2.06 2.6ZM50.88 50.01a1.65 1.65 0 1 0-2.06-2.58A1.65 1.65 0 0 0 50.88 50ZM53.69 53.55a1.5 1.5 0 1 0-1.88-2.36 1.5 1.5 0 0 0 1.88 2.36ZM56.5 57.09a1.36 1.36 0 1 0-1.7-2.13 1.36 1.36 0 0 0 1.7 2.13ZM59.3 60.62a1.2 1.2 0 1 0-1.5-1.9 1.2 1.2 0 0 0 1.5 1.9ZM62.1 64.16a1.06 1.06 0 1 0-1.31-1.66 1.06 1.06 0 0 0 1.32 1.66ZM64.92 67.7a.91.91 0 1 0-1.14-1.44.91.91 0 0 0 1.14 1.43ZM67.72 71.23a.76.76 0 1 0-.94-1.2.76.76 0 0 0 .94 1.2ZM70.53 74.76a.61.61 0 1 0-.76-.96.61.61 0 0 0 .76.96ZM73.34 78.3a.47.47 0 1 0-.58-.73.47.47 0 0 0 .58.73ZM76.15 81.83a.32.32 0 1 0-.4-.5.32.32 0 0 0 .4.5ZM24.69 9.54a.3.3 0 1 0-.38-.48.3.3 0 0 0 .38.48ZM27.67 13.3a.44.44 0 1 0-.54-.69.44.44 0 0 0 .54.69ZM30.66 17.05a.57.57 0 1 0-.72-.9.57.57 0 0 0 .72.9ZM33.64 20.8a.7.7 0 1 0-.88-1.1.7.7 0 0 0 .88 1.1ZM36.62 24.57a.84.84 0 1 0-1.04-1.32.84.84 0 0 0 1.04 1.32ZM39.6 28.32a.97.97 0 1 0-1.2-1.52.97.97 0 0 0 1.2 1.52ZM42.59 32.08a1.1 1.1 0 1 0-1.37-1.73 1.1 1.1 0 0 0 1.37 1.73ZM45.57 35.83a1.24 1.24 0 1 0-1.54-1.93 1.24 1.24 0 0 0 1.54 1.93ZM48.55 39.6a1.37 1.37 0 1 0-1.7-2.16 1.37 1.37 0 0 0 1.7 2.15ZM51.54 43.35a1.5 1.5 0 1 0-1.88-2.36 1.5 1.5 0 0 0 1.88 2.36ZM54.44 47a1.5 1.5 0 1 0-1.88-2.36A1.5 1.5 0 0 0 54.44 47ZM57.26 50.55a1.37 1.37 0 1 0-1.71-2.15 1.37 1.37 0 0 0 1.7 2.15ZM60.07 54.1a1.24 1.24 0 1 0-1.54-1.95 1.24 1.24 0 0 0 1.54 1.94ZM62.89 57.64a1.1 1.1 0 1 0-1.37-1.73 1.1 1.1 0 0 0 1.37 1.73ZM65.7 61.19a.97.97 0 1 0-1.2-1.52.97.97 0 0 0 1.2 1.52ZM68.52 64.74a.84.84 0 1 0-1.04-1.32.84.84 0 0 0 1.04 1.32ZM71.34 68.28a.7.7 0 1 0-.88-1.1.7.7 0 0 0 .88 1.1ZM74.16 71.83a.57.57 0 1 0-.71-.9.57.57 0 0 0 .7.9ZM76.97 75.38a.44.44 0 1 0-.54-.69.44.44 0 0 0 .54.69ZM79.8 78.92a.3.3 0 1 0-.39-.47.3.3 0 0 0 .38.47ZM28.33 6.63a.29.29 0 1 0-.36-.45.29.29 0 0 0 .36.45ZM31.3 10.37a.4.4 0 1 0-.5-.63.4.4 0 0 0 .5.63ZM34.28 14.12a.53.53 0 1 0-.65-.83.53.53 0 0 0 .65.83ZM37.25 17.86a.64.64 0 1 0-.8-1 .64.64 0 0 0 .8 1ZM40.23 21.6a.76.76 0 1 0-.95-1.19.76.76 0 0 0 .95 1.2ZM43.2 25.35a.88.88 0 1 0-1.1-1.38.88.88 0 0 0 1.1 1.38ZM46.17 29.1a1 1 0 1 0-1.24-1.57 1 1 0 0 0 1.24 1.57ZM49.15 32.84a1.12 1.12 0 1 0-1.4-1.75 1.12 1.12 0 0 0 1.4 1.75ZM52.12 36.59a1.24 1.24 0 1 0-1.54-1.94 1.24 1.24 0 0 0 1.54 1.94ZM55.1 40.33a1.36 1.36 0 1 0-1.7-2.12 1.36 1.36 0 0 0 1.7 2.12ZM58 43.98a1.36 1.36 0 1 0-1.7-2.12 1.36 1.36 0 0 0 1.7 2.12ZM60.82 47.54a1.24 1.24 0 1 0-1.54-1.94 1.24 1.24 0 0 0 1.54 1.94ZM63.65 51.1a1.12 1.12 0 1 0-1.4-1.75 1.12 1.12 0 0 0 1.4 1.75ZM66.47 54.66a1 1 0 1 0-1.24-1.57 1 1 0 0 0 1.24 1.57ZM69.3 58.22a.88.88 0 1 0-1.1-1.38.88.88 0 0 0 1.1 1.38ZM72.13 61.78a.76.76 0 1 0-.95-1.2.76.76 0 0 0 .95 1.2ZM74.95 65.33a.64.64 0 1 0-.8-1 .64.64 0 0 0 .8 1ZM77.78 68.9a.53.53 0 1 0-.65-.83.53.53 0 0 0 .65.82ZM80.6 72.45a.4.4 0 1 0-.5-.64.4.4 0 0 0 .5.64ZM83.43 76.01a.29.29 0 1 0-.36-.45.29.29 0 0 0 .36.45ZM34.94 7.45a.38.38 0 1 0-.47-.6.38.38 0 0 0 .47.6ZM37.9 11.18a.48.48 0 1 0-.6-.75.48.48 0 0 0 .6.75ZM40.87 14.92a.59.59 0 1 0-.73-.92.59.59 0 0 0 .73.92ZM43.83 18.65a.7.7 0 1 0-.86-1.08.7.7 0 0 0 .86 1.08ZM46.8 22.38a.8.8 0 1 0-.99-1.24.8.8 0 0 0 .99 1.24ZM49.76 26.11a.9.9 0 1 0-1.11-1.4.9.9 0 0 0 1.11 1.4ZM52.73 29.85a1 1 0 1 0-1.25-1.57 1 1 0 0 0 1.25 1.57ZM55.7 33.58a1.1 1.1 0 1 0-1.38-1.73 1.1 1.1 0 0 0 1.37 1.73ZM58.66 37.31a1.2 1.2 0 1 0-1.5-1.89 1.2 1.2 0 0 0 1.5 1.9ZM61.56 40.97a1.2 1.2 0 1 0-1.5-1.9 1.2 1.2 0 0 0 1.5 1.9ZM64.4 44.54a1.1 1.1 0 1 0-1.38-1.74 1.1 1.1 0 0 0 1.37 1.74ZM67.23 48.1a1 1 0 1 0-1.25-1.56 1 1 0 0 0 1.25 1.57ZM70.06 51.68a.9.9 0 1 0-1.11-1.4.9.9 0 0 0 1.11 1.4ZM72.9 55.25A.8.8 0 1 0 71.9 54a.8.8 0 0 0 .99 1.24ZM75.73 58.82a.7.7 0 1 0-.86-1.08.7.7 0 0 0 .86 1.08ZM78.57 62.39a.59.59 0 1 0-.73-.92.59.59 0 0 0 .73.92ZM81.4 65.96a.48.48 0 1 0-.6-.75.48.48 0 0 0 .6.75ZM84.24 69.53a.38.38 0 1 0-.47-.6.38.38 0 0 0 .47.6ZM38.57 4.53a.35.35 0 1 0-.43-.55.35.35 0 0 0 .43.55ZM41.53 8.25a.44.44 0 1 0-.55-.69.44.44 0 0 0 .55.69ZM44.48 11.97a.53.53 0 1 0-.65-.82.53.53 0 0 0 .65.82ZM47.44 15.7a.61.61 0 1 0-.77-.97.61.61 0 0 0 .77.96ZM50.4 19.41a.7.7 0 1 0-.88-1.1.7.7 0 0 0 .87 1.1ZM53.35 23.13a.8.8 0 1 0-.99-1.24.8.8 0 0 0 .99 1.24ZM56.3 26.86a.88.88 0 1 0-1.1-1.39.88.88 0 0 0 1.1 1.39ZM59.26 30.58a.97.97 0 1 0-1.2-1.52.97.97 0 0 0 1.2 1.52ZM62.21 34.3a1.06 1.06 0 1 0-1.31-1.66 1.06 1.06 0 0 0 1.31 1.66ZM65.11 37.95a1.06 1.06 0 1 0-1.31-1.66 1.06 1.06 0 0 0 1.31 1.66ZM67.96 41.53a.97.97 0 1 0-1.2-1.52.97.97 0 0 0 1.2 1.52ZM70.8 45.11a.88.88 0 1 0-1.1-1.38.88.88 0 0 0 1.1 1.38ZM73.65 48.7a.8.8 0 1 0-.99-1.25.8.8 0 0 0 .99 1.25ZM76.5 52.28a.7.7 0 1 0-.88-1.1.7.7 0 0 0 .87 1.1ZM79.34 55.86a.61.61 0 1 0-.77-.96.61.61 0 0 0 .77.96ZM82.18 59.44a.53.53 0 1 0-.65-.82.53.53 0 0 0 .65.82ZM85.03 63.02a.44.44 0 1 0-.55-.68.44.44 0 0 0 .55.68ZM87.87 66.6a.35.35 0 1 0-.43-.54.35.35 0 0 0 .43.55ZM45.15 5.32a.4.4 0 1 0-.49-.62.4.4 0 0 0 .5.62ZM48.1 9.02a.47.47 0 1 0-.58-.73.47.47 0 0 0 .58.73ZM51.04 12.73a.54.54 0 1 0-.67-.84.54.54 0 0 0 .67.84ZM53.99 16.44a.61.61 0 1 0-.76-.96.61.61 0 0 0 .76.96ZM56.94 20.15a.7.7 0 1 0-.86-1.08.7.7 0 0 0 .86 1.08ZM59.88 23.86a.76.76 0 1 0-.95-1.2.76.76 0 0 0 .95 1.2ZM62.83 27.57a.84.84 0 1 0-1.04-1.31.84.84 0 0 0 1.04 1.31ZM65.77 31.28a.91.91 0 1 0-1.13-1.43.91.91 0 0 0 1.13 1.43ZM68.67 34.93a.91.91 0 1 0-1.13-1.42.91.91 0 0 0 1.13 1.42ZM71.53 38.53a.84.84 0 1 0-1.04-1.32.84.84 0 0 0 1.04 1.32ZM74.38 42.12a.76.76 0 1 0-.95-1.2.76.76 0 0 0 .95 1.2ZM77.24 45.72a.7.7 0 1 0-.86-1.09.7.7 0 0 0 .86 1.09ZM80.09 49.3a.61.61 0 1 0-.76-.96.61.61 0 0 0 .76.97ZM82.94 52.9a.54.54 0 1 0-.67-.84.54.54 0 0 0 .67.84ZM85.8 56.5a.47.47 0 1 0-.58-.74.47.47 0 0 0 .58.73ZM88.65 60.09a.4.4 0 1 0-.49-.62.4.4 0 0 0 .5.62ZM48.77 2.38a.35.35 0 1 0-.43-.55.35.35 0 0 0 .43.55ZM51.71 6.08a.4.4 0 1 0-.5-.64.4.4 0 0 0 .5.64ZM54.65 9.77a.47.47 0 1 0-.58-.73.47.47 0 0 0 .58.73ZM57.59 13.47a.53.53 0 1 0-.66-.82.53.53 0 0 0 .66.82ZM60.52 17.17a.58.58 0 1 0-.72-.92.58.58 0 0 0 .72.92ZM63.46 20.87a.64.64 0 1 0-.8-1.01.64.64 0 0 0 .8 1ZM66.4 24.57a.7.7 0 1 0-.88-1.1.7.7 0 0 0 .88 1.1ZM69.33 28.27a.76.76 0 1 0-.95-1.2.76.76 0 0 0 .95 1.2ZM72.23 31.92a.76.76 0 1 0-.95-1.2.76.76 0 0 0 .95 1.2ZM75.1 35.52a.7.7 0 1 0-.88-1.1.7.7 0 0 0 .88 1.1ZM77.96 39.13a.64.64 0 1 0-.8-1.01.64.64 0 0 0 .8 1ZM80.82 42.73a.59.59 0 1 0-.72-.91.59.59 0 0 0 .72.91ZM83.69 46.34a.53.53 0 1 0-.66-.83.53.53 0 0 0 .66.83ZM86.55 49.94a.47.47 0 1 0-.58-.73.47.47 0 0 0 .58.73ZM89.41 53.55a.4.4 0 1 0-.5-.64.4.4 0 0 0 .5.64ZM92.28 57.15a.35.35 0 1 0-.44-.54.35.35 0 0 0 .44.54ZM55.33 3.13a.35.35 0 1 0-.44-.54.35.35 0 0 0 .44.54ZM58.26 6.82a.4.4 0 1 0-.5-.62.4.4 0 0 0 .5.62ZM61.18 10.5a.44.44 0 1 0-.54-.68.44.44 0 0 0 .54.68ZM64.1 14.19a.48.48 0 1 0-.59-.75.48.48 0 0 0 .6.75ZM67.04 17.88a.53.53 0 1 0-.66-.83.53.53 0 0 0 .66.83ZM69.97 21.56a.57.57 0 1 0-.72-.9.57.57 0 0 0 .72.9ZM72.9 25.25a.61.61 0 1 0-.77-.96.61.61 0 0 0 .76.96ZM75.8 28.9a.61.61 0 1 0-.77-.96.61.61 0 0 0 .76.96ZM78.67 32.52a.57.57 0 1 0-.72-.9.57.57 0 0 0 .72.9ZM81.54 36.13a.53.53 0 1 0-.66-.82.53.53 0 0 0 .66.82ZM84.4 39.75a.48.48 0 1 0-.59-.75.48.48 0 0 0 .6.75ZM87.28 43.37a.44.44 0 1 0-.54-.69.44.44 0 0 0 .54.69ZM90.16 46.99a.4.4 0 1 0-.5-.62.4.4 0 0 0 .5.62ZM93.03 50.6a.35.35 0 1 0-.43-.54.35.35 0 0 0 .43.54ZM64.78 7.53a.35.35 0 1 0-.43-.54.35.35 0 0 0 .43.54ZM67.7 11.2a.38.38 0 1 0-.47-.58.38.38 0 0 0 .47.59ZM70.62 14.88a.4.4 0 1 0-.51-.63.4.4 0 0 0 .5.63ZM73.53 18.56a.44.44 0 1 0-.54-.69.44.44 0 0 0 .54.69ZM76.45 22.23a.47.47 0 1 0-.58-.73.47.47 0 0 0 .58.73ZM79.35 25.88a.47.47 0 1 0-.58-.73.47.47 0 0 0 .58.73ZM82.23 29.51a.44.44 0 1 0-.54-.68.44.44 0 0 0 .54.68ZM85.12 33.14a.4.4 0 1 0-.51-.64.4.4 0 0 0 .5.64ZM88 36.77a.38.38 0 1 0-.47-.6.38.38 0 0 0 .47.6ZM90.88 40.4a.35.35 0 1 0-.43-.55.35.35 0 0 0 .43.55ZM74.2 11.89a.29.29 0 1 0-.37-.45.29.29 0 0 0 .36.45ZM77.1 15.56a.3.3 0 1 0-.38-.48.3.3 0 0 0 .38.48ZM80.01 19.22a.32.32 0 1 0-.4-.5.32.32 0 0 0 .4.5ZM82.91 22.87a.32.32 0 1 0-.4-.5.32.32 0 0 0 .4.5ZM85.8 26.51a.3.3 0 1 0-.38-.48.3.3 0 0 0 .38.48ZM88.7 30.15a.29.29 0 1 0-.36-.45.29.29 0 0 0 .35.45Z"/></g><defs><clipPath id="a"><path fill="#fff" d="M.09 0H93.1v95H.09z"/></clipPath></defs></svg>