<svg xmlns="http://www.w3.org/2000/svg" width="94" height="95" fill="none"><g fill="#0051FF" clip-path="url(#a)"><path d="M7.25 71.63a.29.29 0 1 0-.4-.4.29.29 0 0 0 .4.4ZM10.56 74.94a.3.3 0 1 0-.43-.43.3.3 0 0 0 .43.43ZM13.87 78.24a.32.32 0 1 0-.45-.45.32.32 0 0 0 .45.45ZM17.16 81.54a.32.32 0 1 0-.44-.45.32.32 0 0 0 .44.45ZM20.45 84.83a.3.3 0 1 0-.43-.43.3.3 0 0 0 .43.43ZM23.74 88.12a.29.29 0 1 0-.41-.41.29.29 0 0 0 .4.4ZM4 61.78a.35.35 0 1 0-.5-.5.35.35 0 0 0 .5.5ZM7.31 65.1a.38.38 0 1 0-.53-.54.38.38 0 0 0 .53.54ZM10.63 68.42a.4.4 0 1 0-.57-.58.4.4 0 0 0 .57.58ZM13.95 71.73a.44.44 0 1 0-.62-.61.44.44 0 0 0 .62.61ZM17.27 75.05a.47.47 0 1 0-.66-.66.47.47 0 0 0 .66.66ZM20.57 78.35a.47.47 0 1 0-.66-.66.47.47 0 0 0 .66.66ZM23.84 81.63a.44.44 0 1 0-.61-.62.44.44 0 0 0 .61.62ZM27.12 84.9a.4.4 0 1 0-.58-.57.4.4 0 0 0 .58.57ZM30.4 88.18a.38.38 0 1 0-.54-.54.38.38 0 0 0 .54.54ZM33.67 91.45a.35.35 0 1 0-.49-.49.35.35 0 0 0 .5.5ZM.7 51.89a.35.35 0 1 0-.5-.5.35.35 0 0 0 .5.5ZM4.03 55.22a.4.4 0 1 0-.56-.56.4.4 0 0 0 .56.56ZM7.36 58.54a.44.44 0 1 0-.62-.61.44.44 0 0 0 .62.61ZM10.68 61.87a.48.48 0 1 0-.67-.68.48.48 0 0 0 .67.68ZM14.01 65.2a.53.53 0 1 0-.74-.74.53.53 0 0 0 .74.74ZM17.34 68.53a.57.57 0 1 0-.8-.8.57.57 0 0 0 .8.8ZM20.67 71.86a.61.61 0 1 0-.87-.87.61.61 0 0 0 .87.87ZM23.97 75.16a.61.61 0 1 0-.87-.87.61.61 0 0 0 .87.87ZM27.24 78.42a.57.57 0 1 0-.81-.8.57.57 0 0 0 .8.8ZM30.5 81.69a.53.53 0 1 0-.74-.74.53.53 0 0 0 .74.74ZM33.77 84.95a.48.48 0 1 0-.68-.67.48.48 0 0 0 .68.67ZM37.03 88.22a.44.44 0 1 0-.61-.62.44.44 0 0 0 .61.62ZM40.3 91.49a.4.4 0 1 0-.56-.56.4.4 0 0 0 .56.56ZM43.56 94.75a.35.35 0 1 0-.49-.49.35.35 0 0 0 .5.5ZM.7 45.3a.35.35 0 1 0-.5-.5.35.35 0 0 0 .5.5ZM4.04 48.63a.4.4 0 1 0-.58-.57.4.4 0 0 0 .58.57ZM7.38 51.97a.47.47 0 1 0-.66-.66.47.47 0 0 0 .66.66ZM10.72 55.31a.53.53 0 1 0-.75-.74.53.53 0 0 0 .75.74ZM14.06 58.65a.59.59 0 1 0-.83-.83.59.59 0 0 0 .83.83ZM17.4 61.99a.64.64 0 1 0-.92-.91.64.64 0 0 0 .92.9ZM20.73 65.33a.7.7 0 1 0-.99-1 .7.7 0 0 0 1 1ZM24.07 68.67A.76.76 0 1 0 23 67.59a.76.76 0 0 0 1.07 1.08ZM27.37 71.96a.76.76 0 1 0-1.08-1.07.76.76 0 0 0 1.08 1.07ZM30.63 75.22a.7.7 0 1 0-1-1 .7.7 0 0 0 1 1ZM33.88 78.48a.64.64 0 1 0-.9-.92.64.64 0 0 0 .9.92ZM37.14 81.73a.59.59 0 1 0-.83-.83.59.59 0 0 0 .83.83ZM40.4 84.99a.53.53 0 1 0-.75-.75.53.53 0 0 0 .74.75ZM43.65 88.24a.47.47 0 1 0-.66-.66.47.47 0 0 0 .66.66ZM46.9 91.5a.4.4 0 1 0-.57-.58.4.4 0 0 0 .57.58ZM50.16 94.75a.35.35 0 1 0-.5-.49.35.35 0 0 0 .5.5ZM4.03 42.03a.4.4 0 1 0-.56-.56.4.4 0 0 0 .56.56ZM7.38 45.38a.47.47 0 1 0-.66-.66.47.47 0 0 0 .66.66ZM10.73 48.72a.54.54 0 1 0-.77-.76.54.54 0 0 0 .77.76ZM14.08 52.08a.61.61 0 1 0-.87-.87.61.61 0 0 0 .87.87ZM17.43 55.43a.7.7 0 1 0-.98-.98.7.7 0 0 0 .98.98ZM20.78 58.78a.76.76 0 1 0-1.08-1.08.76.76 0 0 0 1.08 1.08ZM24.13 62.13a.84.84 0 1 0-1.19-1.2.84.84 0 0 0 1.19 1.2ZM27.48 65.47a.91.91 0 1 0-1.3-1.28.91.91 0 0 0 1.3 1.28ZM30.77 68.77a.91.91 0 1 0-1.28-1.29.91.91 0 0 0 1.28 1.3ZM34.02 72.02a.84.84 0 1 0-1.19-1.19.84.84 0 0 0 1.19 1.19ZM37.26 75.26a.76.76 0 1 0-1.08-1.08.76.76 0 0 0 1.08 1.08ZM40.51 78.5a.7.7 0 1 0-.98-.97.7.7 0 0 0 .98.98ZM43.75 81.75a.61.61 0 1 0-.87-.87.61.61 0 0 0 .87.87ZM47 85a.54.54 0 1 0-.76-.77.54.54 0 0 0 .76.77ZM50.24 88.24a.47.47 0 1 0-.66-.66.47.47 0 0 0 .66.66ZM53.49 91.49a.4.4 0 1 0-.56-.56.4.4 0 0 0 .56.56ZM4 35.4a.35.35 0 1 0-.5-.5.35.35 0 0 0 .5.5ZM7.36 38.76a.44.44 0 1 0-.62-.62.44.44 0 0 0 .62.62ZM10.72 42.12a.53.53 0 1 0-.75-.74.53.53 0 0 0 .75.74ZM14.08 45.48a.61.61 0 1 0-.87-.87.61.61 0 0 0 .87.87ZM17.44 48.84a.7.7 0 1 0-1-1 .7.7 0 0 0 1 1ZM20.8 52.2a.8.8 0 1 0-1.12-1.12.8.8 0 0 0 1.12 1.12ZM24.16 55.56a.88.88 0 1 0-1.25-1.25.88.88 0 0 0 1.25 1.25ZM27.52 58.92a.97.97 0 1 0-1.37-1.37.97.97 0 0 0 1.37 1.37ZM30.88 62.28a1.06 1.06 0 1 0-1.5-1.5 1.06 1.06 0 0 0 1.5 1.5ZM34.18 65.58a1.06 1.06 0 1 0-1.5-1.5 1.06 1.06 0 0 0 1.5 1.5ZM37.41 68.81a.97.97 0 1 0-1.37-1.37.97.97 0 0 0 1.37 1.37ZM40.65 72.05a.88.88 0 1 0-1.25-1.25.88.88 0 0 0 1.25 1.25ZM43.88 75.28a.8.8 0 1 0-1.12-1.12.8.8 0 0 0 1.12 1.12ZM47.11 78.52a.7.7 0 1 0-1-1 .7.7 0 0 0 1 1ZM50.35 81.75a.61.61 0 1 0-.87-.87.61.61 0 0 0 .87.87ZM53.58 84.99a.53.53 0 1 0-.74-.75.53.53 0 0 0 .74.75ZM56.82 88.22a.44.44 0 1 0-.62-.62.44.44 0 0 0 .62.62ZM60.05 91.45a.35.35 0 1 0-.49-.49.35.35 0 0 0 .5.5ZM7.31 32.12a.38.38 0 1 0-.53-.53.38.38 0 0 0 .53.53ZM10.68 35.5a.48.48 0 1 0-.67-.68.48.48 0 0 0 .67.67ZM14.06 38.87a.58.58 0 1 0-.83-.83.58.58 0 0 0 .83.83ZM17.43 42.24a.7.7 0 1 0-.98-.98.7.7 0 0 0 .98.98ZM20.8 45.6a.8.8 0 1 0-1.12-1.11.8.8 0 0 0 1.12 1.12ZM24.17 48.98a.9.9 0 1 0-1.27-1.27.9.9 0 0 0 1.27 1.27ZM27.54 52.35a1 1 0 1 0-1.42-1.42 1 1 0 0 0 1.42 1.42ZM30.91 55.72a1.1 1.1 0 1 0-1.56-1.56 1.1 1.1 0 0 0 1.56 1.56ZM34.28 59.09a1.2 1.2 0 1 0-1.7-1.7 1.2 1.2 0 0 0 1.7 1.7ZM37.58 62.39a1.2 1.2 0 1 0-1.71-1.71 1.2 1.2 0 0 0 1.7 1.7ZM40.8 65.61a1.1 1.1 0 1 0-1.56-1.56 1.1 1.1 0 0 0 1.56 1.56ZM44.03 68.84a1 1 0 1 0-1.42-1.42 1 1 0 0 0 1.42 1.42ZM47.25 72.06a.9.9 0 1 0-1.27-1.27.9.9 0 0 0 1.27 1.27ZM50.47 75.28a.8.8 0 1 0-1.12-1.12.8.8 0 0 0 1.12 1.12ZM53.7 78.5a.7.7 0 1 0-.98-.97.7.7 0 0 0 .98.98ZM56.92 81.73a.59.59 0 1 0-.83-.83.59.59 0 0 0 .83.83ZM60.14 84.95a.48.48 0 1 0-.67-.67.48.48 0 0 0 .67.67ZM63.37 88.18a.38.38 0 1 0-.53-.54.38.38 0 0 0 .53.54ZM7.25 25.47a.29.29 0 1 0-.4-.41.29.29 0 0 0 .4.4ZM10.63 28.85a.4.4 0 1 0-.57-.58.4.4 0 0 0 .57.58ZM14.01 32.23a.53.53 0 1 0-.74-.74.53.53 0 0 0 .74.74ZM17.4 35.61a.64.64 0 1 0-.92-.91.64.64 0 0 0 .92.91ZM20.78 39a.76.76 0 1 0-1.08-1.09.76.76 0 0 0 1.08 1.08ZM24.16 42.37a.88.88 0 1 0-1.25-1.24.88.88 0 0 0 1.25 1.24ZM27.54 45.75a1 1 0 1 0-1.42-1.41 1 1 0 0 0 1.42 1.41ZM30.92 49.13a1.12 1.12 0 1 0-1.58-1.58 1.12 1.12 0 0 0 1.58 1.59ZM34.3 52.52a1.24 1.24 0 1 0-1.75-1.75 1.24 1.24 0 0 0 1.75 1.75ZM37.68 55.9a1.36 1.36 0 1 0-1.92-1.92 1.36 1.36 0 0 0 1.92 1.92ZM40.98 59.2a1.36 1.36 0 1 0-1.92-1.92 1.36 1.36 0 0 0 1.92 1.91ZM44.2 62.4a1.24 1.24 0 1 0-1.76-1.74 1.24 1.24 0 0 0 1.75 1.75ZM47.4 65.62a1.12 1.12 0 1 0-1.57-1.58 1.12 1.12 0 0 0 1.58 1.58ZM50.62 68.84a1 1 0 1 0-1.41-1.42 1 1 0 0 0 1.41 1.42ZM53.83 72.05a.88.88 0 1 0-1.24-1.25.88.88 0 0 0 1.24 1.25ZM57.05 75.26a.76.76 0 1 0-1.08-1.08.76.76 0 0 0 1.08 1.08ZM60.26 78.48a.64.64 0 1 0-.91-.92.64.64 0 0 0 .91.92ZM63.47 81.69a.53.53 0 1 0-.74-.74.53.53 0 0 0 .74.74ZM66.69 84.9a.4.4 0 1 0-.58-.57.4.4 0 0 0 .58.57ZM69.9 88.12a.29.29 0 1 0-.4-.41.29.29 0 0 0 .4.4ZM10.56 22.18a.3.3 0 1 0-.43-.43.3.3 0 0 0 .43.43ZM13.95 25.57a.44.44 0 1 0-.62-.62.44.44 0 0 0 .62.62ZM17.34 28.96a.57.57 0 1 0-.8-.8.57.57 0 0 0 .8.8ZM20.73 32.35a.7.7 0 1 0-.99-1 .7.7 0 0 0 1 1ZM24.13 35.75a.84.84 0 1 0-1.19-1.19.84.84 0 0 0 1.19 1.19ZM27.52 39.14a.97.97 0 1 0-1.37-1.37.97.97 0 0 0 1.37 1.37ZM30.9 42.53a1.1 1.1 0 1 0-1.55-1.56 1.1 1.1 0 0 0 1.56 1.56ZM34.3 45.92a1.24 1.24 0 1 0-1.75-1.75 1.24 1.24 0 0 0 1.75 1.75ZM37.7 49.31a1.37 1.37 0 1 0-1.95-1.94 1.37 1.37 0 0 0 1.95 1.94ZM41.09 52.7a1.5 1.5 0 1 0-2.13-2.12 1.5 1.5 0 0 0 2.13 2.13ZM44.38 56a1.5 1.5 0 1 0-2.13-2.13A1.5 1.5 0 0 0 44.38 56ZM47.59 59.2a1.37 1.37 0 1 0-1.94-1.94 1.37 1.37 0 0 0 1.94 1.95ZM50.79 62.4a1.24 1.24 0 1 0-1.75-1.74 1.24 1.24 0 0 0 1.75 1.75ZM53.99 65.61a1.1 1.1 0 1 0-1.56-1.56A1.1 1.1 0 0 0 54 65.61ZM57.2 68.81a.97.97 0 1 0-1.38-1.37.97.97 0 0 0 1.37 1.37ZM60.4 72.02a.84.84 0 1 0-1.19-1.19.84.84 0 0 0 1.19 1.19ZM63.6 75.22a.7.7 0 1 0-1-1 .7.7 0 0 0 1 1ZM66.8 78.42a.57.57 0 1 0-.8-.8.57.57 0 0 0 .8.8ZM70 81.63a.44.44 0 1 0-.61-.62.44.44 0 0 0 .62.62ZM73.21 84.83a.3.3 0 1 0-.43-.43.3.3 0 0 0 .43.43ZM13.87 18.9a.32.32 0 1 0-.45-.46.32.32 0 0 0 .45.45ZM17.27 22.3a.47.47 0 1 0-.66-.66.47.47 0 0 0 .66.65ZM20.67 25.7a.61.61 0 1 0-.87-.87.61.61 0 0 0 .87.87ZM24.07 29.1A.76.76 0 1 0 23 28.02a.76.76 0 0 0 1.08 1.08ZM27.48 32.5a.91.91 0 1 0-1.3-1.29.91.91 0 0 0 1.3 1.3ZM30.88 35.9a1.06 1.06 0 1 0-1.5-1.5 1.06 1.06 0 0 0 1.5 1.5ZM34.28 39.3a1.2 1.2 0 1 0-1.7-1.7 1.2 1.2 0 0 0 1.7 1.7ZM37.68 42.7a1.36 1.36 0 1 0-1.91-1.91 1.36 1.36 0 0 0 1.91 1.92ZM41.09 46.11a1.5 1.5 0 1 0-2.13-2.13 1.5 1.5 0 0 0 2.13 2.13ZM44.49 49.51a1.65 1.65 0 1 0-2.34-2.34 1.65 1.65 0 0 0 2.34 2.34ZM47.79 52.81a1.65 1.65 0 1 0-2.34-2.34 1.65 1.65 0 0 0 2.34 2.34ZM50.98 56a1.5 1.5 0 1 0-2.13-2.13A1.5 1.5 0 0 0 50.98 56ZM54.17 59.2a1.36 1.36 0 1 0-1.92-1.92 1.36 1.36 0 0 0 1.92 1.91ZM57.36 62.39a1.2 1.2 0 1 0-1.7-1.71 1.2 1.2 0 0 0 1.7 1.7ZM60.55 65.58a1.06 1.06 0 1 0-1.5-1.5 1.06 1.06 0 0 0 1.5 1.5ZM63.75 68.77a.91.91 0 1 0-1.3-1.29.91.91 0 0 0 1.3 1.3ZM66.94 71.96a.76.76 0 1 0-1.08-1.07.76.76 0 0 0 1.08 1.07ZM70.13 75.16a.61.61 0 1 0-.87-.87.61.61 0 0 0 .87.87ZM73.32 78.35a.47.47 0 1 0-.65-.66.47.47 0 0 0 .65.66ZM76.52 81.54a.32.32 0 1 0-.45-.45.32.32 0 0 0 .45.45ZM17.16 15.6a.32.32 0 1 0-.44-.45.32.32 0 0 0 .44.45ZM20.57 19a.47.47 0 1 0-.66-.66.47.47 0 0 0 .66.66ZM23.97 22.4a.61.61 0 1 0-.87-.87.61.61 0 0 0 .87.87ZM27.37 25.8a.76.76 0 1 0-1.08-1.08.76.76 0 0 0 1.08 1.08ZM30.77 29.2a.91.91 0 1 0-1.28-1.28.91.91 0 0 0 1.28 1.28ZM34.18 32.6a1.06 1.06 0 1 0-1.5-1.5 1.06 1.06 0 0 0 1.5 1.5ZM37.58 36a1.2 1.2 0 1 0-1.71-1.7 1.2 1.2 0 0 0 1.7 1.7ZM40.98 39.41a1.36 1.36 0 1 0-1.92-1.92 1.36 1.36 0 0 0 1.92 1.92ZM44.38 42.81a1.5 1.5 0 1 0-2.13-2.13 1.5 1.5 0 0 0 2.13 2.13ZM47.79 46.22a1.65 1.65 0 1 0-2.34-2.34 1.65 1.65 0 0 0 2.34 2.34ZM51.08 49.51a1.65 1.65 0 1 0-2.34-2.34 1.65 1.65 0 0 0 2.34 2.34ZM54.28 52.7a1.5 1.5 0 1 0-2.13-2.12 1.5 1.5 0 0 0 2.13 2.13ZM57.47 55.9a1.36 1.36 0 1 0-1.92-1.92 1.36 1.36 0 0 0 1.92 1.92ZM60.66 59.09a1.2 1.2 0 1 0-1.7-1.7 1.2 1.2 0 0 0 1.7 1.7ZM63.85 62.28a1.06 1.06 0 1 0-1.5-1.5 1.06 1.06 0 0 0 1.5 1.5ZM67.04 65.47a.91.91 0 1 0-1.28-1.28.91.91 0 0 0 1.28 1.28ZM70.24 68.67a.76.76 0 1 0-1.08-1.08.76.76 0 0 0 1.08 1.08ZM73.43 71.86a.61.61 0 1 0-.87-.87.61.61 0 0 0 .87.87ZM76.62 75.05a.47.47 0 1 0-.66-.66.47.47 0 0 0 .66.66ZM79.81 78.24a.32.32 0 1 0-.45-.45.32.32 0 0 0 .45.45ZM20.45 12.29a.3.3 0 1 0-.43-.43.3.3 0 0 0 .43.43ZM23.84 15.68a.44.44 0 1 0-.61-.62.44.44 0 0 0 .61.62ZM27.24 19.07a.57.57 0 1 0-.81-.8.57.57 0 0 0 .8.8ZM30.63 22.46a.7.7 0 1 0-1-1 .7.7 0 0 0 1 1ZM34.02 25.86a.84.84 0 1 0-1.19-1.2.84.84 0 0 0 1.19 1.2ZM37.41 29.25a.97.97 0 1 0-1.37-1.38.97.97 0 0 0 1.37 1.38ZM40.8 32.64a1.1 1.1 0 1 0-1.56-1.56 1.1 1.1 0 0 0 1.56 1.56ZM44.2 36.03a1.24 1.24 0 1 0-1.76-1.75 1.24 1.24 0 0 0 1.75 1.75ZM47.59 39.42a1.37 1.37 0 1 0-1.95-1.94 1.37 1.37 0 0 0 1.95 1.94ZM50.98 42.81a1.5 1.5 0 1 0-2.13-2.13 1.5 1.5 0 0 0 2.13 2.13ZM54.28 46.11a1.5 1.5 0 1 0-2.13-2.13 1.5 1.5 0 0 0 2.13 2.13ZM57.48 49.31a1.37 1.37 0 1 0-1.94-1.94 1.37 1.37 0 0 0 1.94 1.94ZM60.68 52.52a1.24 1.24 0 1 0-1.75-1.75 1.24 1.24 0 0 0 1.75 1.75ZM63.88 55.72a1.1 1.1 0 1 0-1.56-1.56 1.1 1.1 0 0 0 1.56 1.56ZM67.09 58.92a.97.97 0 1 0-1.38-1.37.97.97 0 0 0 1.38 1.37ZM70.3 62.13a.84.84 0 1 0-1.2-1.2.84.84 0 0 0 1.2 1.2ZM73.5 65.33a.7.7 0 1 0-1-1 .7.7 0 0 0 1 1ZM76.7 68.53a.57.57 0 1 0-.81-.8.57.57 0 0 0 .8.8ZM79.9 71.73a.44.44 0 1 0-.62-.61.44.44 0 0 0 .62.61ZM83.1 74.94a.3.3 0 1 0-.43-.43.3.3 0 0 0 .43.43ZM23.74 8.98a.29.29 0 1 0-.41-.4.29.29 0 0 0 .4.4ZM27.12 12.36a.4.4 0 1 0-.58-.57.4.4 0 0 0 .58.57ZM30.5 15.74a.53.53 0 1 0-.74-.74.53.53 0 0 0 .74.74ZM33.88 19.12a.64.64 0 1 0-.9-.9.64.64 0 0 0 .9.9ZM37.26 22.5a.76.76 0 1 0-1.08-1.07.76.76 0 0 0 1.08 1.07ZM40.65 25.89a.88.88 0 1 0-1.25-1.25.88.88 0 0 0 1.25 1.25ZM44.03 29.27a1 1 0 1 0-1.42-1.42 1 1 0 0 0 1.42 1.42ZM47.4 32.65a1.12 1.12 0 1 0-1.57-1.58 1.12 1.12 0 0 0 1.58 1.58ZM50.79 36.03a1.24 1.24 0 1 0-1.75-1.75 1.24 1.24 0 0 0 1.75 1.75ZM54.17 39.41a1.36 1.36 0 1 0-1.92-1.92 1.36 1.36 0 0 0 1.92 1.92ZM57.47 42.7a1.36 1.36 0 1 0-1.92-1.91 1.36 1.36 0 0 0 1.92 1.92ZM60.68 45.92a1.24 1.24 0 1 0-1.75-1.75 1.24 1.24 0 0 0 1.75 1.75ZM63.9 49.13a1.12 1.12 0 1 0-1.59-1.58 1.12 1.12 0 0 0 1.58 1.59ZM67.1 52.35a1 1 0 1 0-1.4-1.42 1 1 0 0 0 1.4 1.42ZM70.32 55.56a.88.88 0 1 0-1.25-1.25.88.88 0 0 0 1.25 1.25ZM73.53 58.78a.76.76 0 1 0-1.08-1.08.76.76 0 0 0 1.08 1.08ZM76.75 61.99a.64.64 0 1 0-.91-.91.64.64 0 0 0 .9.9ZM79.96 65.2a.53.53 0 1 0-.74-.74.53.53 0 0 0 .74.74ZM83.17 68.42a.4.4 0 1 0-.57-.58.4.4 0 0 0 .57.58ZM86.39 71.63a.29.29 0 1 0-.4-.4.29.29 0 0 0 .4.4ZM30.4 9.04a.38.38 0 1 0-.54-.53.38.38 0 0 0 .54.53ZM33.77 12.41a.48.48 0 1 0-.68-.68.48.48 0 0 0 .68.68ZM37.14 15.78a.59.59 0 1 0-.83-.82.59.59 0 0 0 .83.82ZM40.51 19.16a.7.7 0 1 0-.98-.98.7.7 0 0 0 .98.98ZM43.88 22.53a.8.8 0 1 0-1.12-1.13.8.8 0 0 0 1.12 1.13ZM47.25 25.9a.9.9 0 1 0-1.27-1.27.9.9 0 0 0 1.27 1.26ZM50.62 29.27a1 1 0 1 0-1.41-1.42 1 1 0 0 0 1.41 1.42ZM54 32.64a1.1 1.1 0 1 0-1.57-1.57 1.1 1.1 0 0 0 1.56 1.57ZM57.36 36a1.2 1.2 0 1 0-1.7-1.7 1.2 1.2 0 0 0 1.7 1.7ZM60.66 39.3a1.2 1.2 0 1 0-1.7-1.7 1.2 1.2 0 0 0 1.7 1.7ZM63.89 42.53a1.1 1.1 0 1 0-1.57-1.56 1.1 1.1 0 0 0 1.57 1.56ZM67.1 45.75a1 1 0 1 0-1.4-1.41 1 1 0 0 0 1.4 1.41ZM70.33 48.98a.9.9 0 1 0-1.26-1.27.9.9 0 0 0 1.26 1.27ZM73.56 52.2a.8.8 0 1 0-1.13-1.12.8.8 0 0 0 1.13 1.12ZM76.78 55.43a.7.7 0 1 0-.98-.98.7.7 0 0 0 .98.98ZM80 58.65a.59.59 0 1 0-.82-.83.59.59 0 0 0 .82.83ZM83.23 61.87a.48.48 0 1 0-.68-.68.48.48 0 0 0 .68.68ZM86.45 65.1a.38.38 0 1 0-.53-.54.38.38 0 0 0 .53.54ZM33.67 5.72a.35.35 0 1 0-.49-.49.35.35 0 0 0 .5.5ZM37.03 9.08a.44.44 0 1 0-.61-.61.44.44 0 0 0 .61.61ZM40.4 12.44a.53.53 0 1 0-.75-.74.53.53 0 0 0 .74.74ZM43.75 15.8a.61.61 0 1 0-.87-.86.61.61 0 0 0 .87.86ZM47.11 19.17a.7.7 0 1 0-1-1 .7.7 0 0 0 1 1ZM50.47 22.53a.8.8 0 1 0-1.12-1.13.8.8 0 0 0 1.12 1.13ZM53.83 25.89a.88.88 0 1 0-1.24-1.25.88.88 0 0 0 1.24 1.25ZM57.2 29.25a.97.97 0 1 0-1.38-1.38.97.97 0 0 0 1.37 1.38ZM60.55 32.6a1.06 1.06 0 1 0-1.5-1.5 1.06 1.06 0 0 0 1.5 1.5ZM63.85 35.9a1.06 1.06 0 1 0-1.5-1.5 1.06 1.06 0 0 0 1.5 1.5ZM67.09 39.14a.97.97 0 1 0-1.38-1.37.97.97 0 0 0 1.38 1.37ZM70.32 42.37a.88.88 0 1 0-1.25-1.24.88.88 0 0 0 1.25 1.24ZM73.56 45.6a.8.8 0 1 0-1.13-1.11.8.8 0 0 0 1.13 1.12ZM76.79 48.84a.7.7 0 1 0-1-1 .7.7 0 0 0 1 1ZM80.02 52.08a.61.61 0 1 0-.87-.87.61.61 0 0 0 .87.87ZM83.26 55.31a.53.53 0 1 0-.74-.74.53.53 0 0 0 .74.74ZM86.5 58.54a.44.44 0 1 0-.62-.61.44.44 0 0 0 .61.61ZM89.73 61.78a.35.35 0 1 0-.5-.5.35.35 0 0 0 .5.5ZM40.3 5.76a.4.4 0 1 0-.56-.56.4.4 0 0 0 .56.56ZM43.65 9.1a.47.47 0 1 0-.66-.65.47.47 0 0 0 .66.66ZM47 12.45a.54.54 0 1 0-.76-.76.54.54 0 0 0 .76.76ZM50.35 15.8a.61.61 0 1 0-.87-.86.61.61 0 0 0 .87.86ZM53.7 19.16a.7.7 0 1 0-.98-.98.7.7 0 0 0 .98.98ZM57.05 22.5a.76.76 0 1 0-1.08-1.07.76.76 0 0 0 1.08 1.07ZM60.4 25.86a.84.84 0 1 0-1.19-1.2.84.84 0 0 0 1.19 1.2ZM63.75 29.2a.91.91 0 1 0-1.3-1.28.91.91 0 0 0 1.3 1.28ZM67.04 32.5a.91.91 0 1 0-1.28-1.29.91.91 0 0 0 1.28 1.3ZM70.3 35.75a.84.84 0 1 0-1.2-1.19.84.84 0 0 0 1.2 1.19ZM73.53 39a.76.76 0 1 0-1.07-1.09.76.76 0 0 0 1.07 1.08ZM76.78 42.24a.7.7 0 1 0-.98-.98.7.7 0 0 0 .98.98ZM80.02 45.48a.61.61 0 1 0-.87-.87.61.61 0 0 0 .87.87ZM83.27 48.72a.54.54 0 1 0-.76-.76.54.54 0 0 0 .76.76ZM86.51 51.97a.47.47 0 1 0-.66-.66.47.47 0 0 0 .66.66ZM89.76 55.22a.4.4 0 1 0-.56-.56.4.4 0 0 0 .56.56ZM43.56 2.43a.35.35 0 1 0-.49-.5.35.35 0 0 0 .5.5ZM46.9 5.77a.4.4 0 1 0-.57-.58.4.4 0 0 0 .57.58ZM50.24 9.1a.47.47 0 1 0-.66-.65.47.47 0 0 0 .66.66ZM53.58 12.44a.53.53 0 1 0-.74-.74.53.53 0 0 0 .74.74ZM56.92 15.78a.58.58 0 1 0-.83-.82.58.58 0 0 0 .83.82ZM60.26 19.12a.64.64 0 1 0-.91-.9.64.64 0 0 0 .91.9ZM63.6 22.46a.7.7 0 1 0-1-1 .7.7 0 0 0 1 1ZM66.94 25.8a.76.76 0 1 0-1.08-1.08.76.76 0 0 0 1.08 1.08ZM70.24 29.1a.76.76 0 1 0-1.08-1.08.76.76 0 0 0 1.08 1.08ZM73.5 32.35a.7.7 0 1 0-1-1 .7.7 0 0 0 1 1ZM76.75 35.61a.64.64 0 1 0-.91-.91.64.64 0 0 0 .9.91ZM80 38.87a.59.59 0 1 0-.82-.83.59.59 0 0 0 .82.83ZM83.26 42.12a.53.53 0 1 0-.74-.74.53.53 0 0 0 .74.74ZM86.51 45.38a.47.47 0 1 0-.66-.66.47.47 0 0 0 .66.66ZM89.77 48.63a.4.4 0 1 0-.58-.57.4.4 0 0 0 .58.57ZM93.03 51.89a.35.35 0 1 0-.5-.5.35.35 0 0 0 .5.5ZM50.16 2.43a.35.35 0 1 0-.5-.5.35.35 0 0 0 .5.5ZM53.49 5.76a.4.4 0 1 0-.56-.56.4.4 0 0 0 .56.56ZM56.82 9.08a.44.44 0 1 0-.62-.61.44.44 0 0 0 .62.61ZM60.14 12.41a.48.48 0 1 0-.67-.68.48.48 0 0 0 .67.68ZM63.47 15.74a.53.53 0 1 0-.74-.74.53.53 0 0 0 .74.74ZM66.8 19.07a.57.57 0 1 0-.8-.8.57.57 0 0 0 .8.8ZM70.13 22.4a.61.61 0 1 0-.87-.87.61.61 0 0 0 .87.87ZM73.43 25.7a.61.61 0 1 0-.87-.87.61.61 0 0 0 .87.87ZM76.7 28.96a.57.57 0 1 0-.81-.8.57.57 0 0 0 .8.8ZM79.96 32.23a.53.53 0 1 0-.74-.74.53.53 0 0 0 .74.74ZM83.23 35.5a.48.48 0 1 0-.68-.68.48.48 0 0 0 .68.67ZM86.5 38.76a.44.44 0 1 0-.62-.62.44.44 0 0 0 .61.62ZM89.76 42.03a.4.4 0 1 0-.56-.56.4.4 0 0 0 .56.56ZM93.03 45.3a.35.35 0 1 0-.5-.5.35.35 0 0 0 .5.5ZM60.05 5.72a.35.35 0 1 0-.49-.49.35.35 0 0 0 .5.5ZM63.37 9.04a.38.38 0 1 0-.53-.53.38.38 0 0 0 .53.53ZM66.69 12.36a.4.4 0 1 0-.58-.57.4.4 0 0 0 .58.57ZM70 15.68a.44.44 0 1 0-.61-.62.44.44 0 0 0 .62.62ZM73.32 19a.47.47 0 1 0-.65-.66.47.47 0 0 0 .65.66ZM76.62 22.3a.47.47 0 1 0-.66-.66.47.47 0 0 0 .66.65ZM79.9 25.57a.44.44 0 1 0-.62-.62.44.44 0 0 0 .62.62ZM83.17 28.85a.4.4 0 1 0-.57-.58.4.4 0 0 0 .57.58ZM86.45 32.12a.38.38 0 1 0-.53-.53.38.38 0 0 0 .53.53ZM89.73 35.4a.35.35 0 1 0-.5-.5.35.35 0 0 0 .5.5ZM69.9 8.98a.29.29 0 1 0-.4-.4.29.29 0 0 0 .4.4ZM73.21 12.29a.3.3 0 1 0-.43-.43.3.3 0 0 0 .43.43ZM76.52 15.6a.32.32 0 1 0-.45-.45.32.32 0 0 0 .45.45ZM79.81 18.9a.32.32 0 1 0-.44-.46.32.32 0 0 0 .44.45ZM83.1 22.18a.3.3 0 1 0-.43-.43.3.3 0 0 0 .43.43ZM86.39 25.47a.29.29 0 1 0-.4-.41.29.29 0 0 0 .4.4ZM2.57 36.03a.29.29 0 1 0 .01-.58.29.29 0 0 0-.01.58ZM2.47 40.7a.3.3 0 1 0 .01-.6.3.3 0 0 0-.01.6ZM2.37 45.38a.32.32 0 1 0 .01-.64.32.32 0 0 0-.01.64ZM2.27 50.04a.32.32 0 1 0 .01-.63.32.32 0 0 0-.01.63ZM2.17 54.7a.3.3 0 1 0 .01-.62.3.3 0 0 0-.01.61ZM2.07 59.34a.29.29 0 1 0 .01-.58.29.29 0 0 0-.01.58ZM7.43 26.86a.35.35 0 1 0 .02-.7.35.35 0 0 0-.02.7Z"/><path d="M7.33 31.55a.38.38 0 1 0 .02-.75.38.38 0 0 0-.02.75ZM7.23 36.24a.4.4 0 1 0 .02-.81.4.4 0 0 0-.02.81ZM7.13 40.94a.44.44 0 1 0 .02-.88.44.44 0 0 0-.02.88ZM7.03 45.63a.47.47 0 1 0 .02-.93.47.47 0 0 0-.02.93ZM6.93 50.29a.47.47 0 1 0 .02-.93.47.47 0 0 0-.02.93ZM6.83 54.92a.44.44 0 1 0 .02-.87.44.44 0 0 0-.02.87ZM6.73 59.55a.4.4 0 1 0 .02-.8.4.4 0 0 0-.02.8ZM6.63 64.19a.38.38 0 1 0 .01-.76.38.38 0 0 0-.01.76ZM6.53 68.82a.35.35 0 1 0 .01-.7.35.35 0 0 0-.01.7ZM12.3 17.64a.35.35 0 1 0 0-.7.35.35 0 0 0 0 .7ZM12.2 22.35a.4.4 0 1 0 0-.8.4.4 0 0 0 0 .8ZM12.1 27.05a.44.44 0 1 0 0-.87.44.44 0 0 0 0 .87ZM11.99 31.75a.48.48 0 1 0 .02-.95.48.48 0 0 0-.02.95ZM11.89 36.46a.53.53 0 1 0 .02-1.05.53.53 0 0 0-.02 1.05ZM11.79 41.17a.57.57 0 1 0 .02-1.14.57.57 0 0 0-.02 1.14ZM11.69 45.88a.61.61 0 1 0 .02-1.23.61.61 0 0 0-.02 1.23ZM11.59 50.54a.61.61 0 1 0 .02-1.23.61.61 0 0 0-.02 1.23ZM11.49 55.16A.57.57 0 1 0 11.5 54a.57.57 0 0 0-.02 1.15ZM11.39 59.77a.53.53 0 1 0 .02-1.05.53.53 0 0 0-.02 1.05ZM11.29 64.39a.48.48 0 1 0 .02-.96.48.48 0 0 0-.02.96ZM11.19 69a.44.44 0 1 0 .02-.86.44.44 0 0 0-.02.87ZM11.09 73.63a.4.4 0 1 0 .02-.79.4.4 0 0 0-.02.79ZM11 78.24a.35.35 0 1 0 0-.7.35.35 0 0 0 0 .7ZM17.06 13.07a.35.35 0 1 0 .01-.69.35.35 0 0 0-.01.7ZM16.95 17.8a.4.4 0 1 0 .02-.82.4.4 0 0 0-.02.82ZM16.85 22.52a.47.47 0 1 0 .02-.93.47.47 0 0 0-.02.93ZM16.75 27.24a.53.53 0 1 0 .02-1.05.53.53 0 0 0-.02 1.05ZM16.65 31.96a.59.59 0 1 0 .02-1.17.59.59 0 0 0-.02 1.17ZM16.55 36.68a.64.64 0 1 0 .03-1.29.64.64 0 0 0-.03 1.3ZM16.45 41.4a.7.7 0 1 0 .03-1.4.7.7 0 0 0-.03 1.4ZM16.35 46.12a.76.76 0 1 0 .03-1.52.76.76 0 0 0-.03 1.52ZM16.24 50.79a.76.76 0 1 0 .04-1.53.76.76 0 0 0-.04 1.53ZM16.15 55.39a.7.7 0 1 0 .03-1.4.7.7 0 0 0-.03 1.4ZM16.05 60a.64.64 0 1 0 .02-1.3.64.64 0 0 0-.02 1.3ZM15.95 64.6a.58.58 0 1 0 .02-1.17.58.58 0 0 0-.02 1.17ZM15.85 69.2a.53.53 0 1 0 .02-1.05.53.53 0 0 0-.02 1.05ZM15.75 73.8a.47.47 0 1 0 .02-.93.47.47 0 0 0-.02.93ZM15.65 78.4a.4.4 0 1 0 .02-.81.4.4 0 0 0-.02.81ZM15.55 83a.35.35 0 1 0 .02-.69.35.35 0 0 0-.02.7ZM21.72 13.22a.4.4 0 1 0 .01-.79.4.4 0 0 0-.01.8ZM21.61 17.96a.47.47 0 1 0 .02-.94.47.47 0 0 0-.02.94ZM21.51 22.69a.54.54 0 1 0 .03-1.08.54.54 0 0 0-.03 1.08ZM21.41 27.43a.61.61 0 1 0 .03-1.23.61.61 0 0 0-.03 1.23ZM21.3 32.17a.7.7 0 1 0 .04-1.38.7.7 0 0 0-.03 1.38ZM21.2 36.9a.76.76 0 1 0 .04-1.53.76.76 0 0 0-.03 1.53ZM21.1 41.64a.84.84 0 1 0 .04-1.68.84.84 0 0 0-.03 1.68ZM21 46.37a.91.91 0 1 0 .04-1.82.91.91 0 0 0-.04 1.82ZM20.9 51.04a.91.91 0 1 0 .04-1.83.91.91 0 0 0-.04 1.83ZM20.8 55.63a.84.84 0 1 0 .04-1.68.84.84 0 0 0-.03 1.68ZM20.7 60.21a.76.76 0 1 0 .04-1.52.76.76 0 0 0-.03 1.52ZM20.6 64.8a.7.7 0 1 0 .04-1.38.7.7 0 0 0-.03 1.38ZM20.5 69.39a.61.61 0 1 0 .04-1.23.61.61 0 0 0-.03 1.23ZM20.41 73.97a.54.54 0 1 0 .02-1.07.54.54 0 0 0-.02 1.07ZM20.31 78.56a.47.47 0 1 0 .02-.93.47.47 0 0 0-.02.93ZM20.21 83.15a.4.4 0 1 0 .02-.79.4.4 0 0 0-.02.8ZM26.48 8.61a.35.35 0 1 0 .01-.7.35.35 0 0 0-.01.7ZM26.38 13.36a.44.44 0 1 0 .02-.87.44.44 0 0 0-.02.87ZM26.28 18.12a.53.53 0 1 0 .02-1.06.53.53 0 0 0-.02 1.06ZM26.17 22.87a.61.61 0 1 0 .03-1.23.61.61 0 0 0-.03 1.23ZM26.07 27.62a.7.7 0 1 0 .03-1.41.7.7 0 0 0-.03 1.4ZM25.97 32.37a.8.8 0 1 0 .03-1.59.8.8 0 0 0-.03 1.59ZM25.87 37.12a.88.88 0 1 0 .03-1.76.88.88 0 0 0-.03 1.76ZM25.77 41.87a.97.97 0 1 0 .04-1.94.97.97 0 0 0-.04 1.94ZM25.66 46.62a1.06 1.06 0 1 0 .05-2.12 1.06 1.06 0 0 0-.05 2.12ZM25.56 51.28a1.06 1.06 0 1 0 .05-2.12 1.06 1.06 0 0 0-.05 2.12ZM25.46 55.86a.97.97 0 1 0 .05-1.94.97.97 0 0 0-.05 1.94ZM25.37 60.43a.88.88 0 1 0 .03-1.76.88.88 0 0 0-.03 1.76ZM25.27 65a.8.8 0 1 0 .03-1.58.8.8 0 0 0-.03 1.58ZM25.17 69.58a.7.7 0 1 0 .03-1.41.7.7 0 0 0-.03 1.4ZM25.07 74.15a.61.61 0 1 0 .03-1.23.61.61 0 0 0-.03 1.23ZM24.97 78.72a.53.53 0 1 0 .03-1.05.53.53 0 0 0-.03 1.05ZM24.88 83.3a.44.44 0 1 0 .01-.88.44.44 0 0 0-.02.88ZM24.78 87.87a.35.35 0 1 0 .01-.7.35.35 0 0 0-.01.7ZM31.14 8.74a.38.38 0 1 0 .02-.75.38.38 0 0 0-.02.75ZM31.04 13.5a.48.48 0 1 0 .02-.95.48.48 0 0 0-.02.96ZM30.94 18.27a.58.58 0 1 0 .02-1.16.58.58 0 0 0-.02 1.16ZM30.83 23.04a.7.7 0 1 0 .03-1.38.7.7 0 0 0-.03 1.38ZM30.73 27.8a.8.8 0 1 0 .04-1.58.8.8 0 0 0-.04 1.59ZM30.63 32.57a.9.9 0 1 0 .04-1.79.9.9 0 0 0-.04 1.8ZM30.53 37.34a1 1 0 1 0 .04-2 1 1 0 0 0-.04 2ZM30.42 42.1a1.1 1.1 0 1 0 .05-2.2 1.1 1.1 0 0 0-.05 2.2ZM30.32 46.87a1.2 1.2 0 1 0 .05-2.42 1.2 1.2 0 0 0-.05 2.42ZM30.22 51.53a1.2 1.2 0 1 0 .05-2.41 1.2 1.2 0 0 0-.05 2.41ZM30.12 56.1a1.1 1.1 0 1 0 .05-2.22 1.1 1.1 0 0 0-.05 2.21ZM30.03 60.65a1 1 0 1 0 .04-2 1 1 0 0 0-.04 2ZM29.93 65.2a.9.9 0 1 0 .04-1.78.9.9 0 0 0-.04 1.78ZM29.83 69.77a.8.8 0 1 0 .03-1.59.8.8 0 0 0-.03 1.59ZM29.73 74.33a.7.7 0 1 0 .03-1.39.7.7 0 0 0-.03 1.39ZM29.63 78.88a.59.59 0 1 0 .03-1.17.59.59 0 0 0-.03 1.17ZM29.54 83.44a.48.48 0 1 0 .02-.96.48.48 0 0 0-.02.96ZM29.44 88a.38.38 0 1 0 .01-.76.38.38 0 0 0-.01.76ZM35.9 4.1a.29.29 0 1 0 .02-.58.29.29 0 0 0-.01.57ZM35.8 8.87a.4.4 0 1 0 .02-.81.4.4 0 0 0-.02.81ZM35.7 13.65a.53.53 0 1 0 .02-1.05.53.53 0 0 0-.02 1.05ZM35.6 18.43a.64.64 0 1 0 .02-1.28.64.64 0 0 0-.02 1.28ZM35.5 23.22a.76.76 0 1 0 .03-1.53.76.76 0 0 0-.04 1.53ZM35.4 28a.88.88 0 1 0 .03-1.77.88.88 0 0 0-.04 1.77ZM35.29 32.78a1 1 0 1 0 .04-2 1 1 0 0 0-.04 2ZM35.19 37.56a1.12 1.12 0 1 0 .04-2.24 1.12 1.12 0 0 0-.04 2.24ZM35.08 42.34a1.24 1.24 0 1 0 .06-2.48 1.24 1.24 0 0 0-.06 2.48ZM34.98 47.12a1.36 1.36 0 1 0 .06-2.71 1.36 1.36 0 0 0-.06 2.7ZM34.88 51.78a1.36 1.36 0 1 0 .06-2.71 1.36 1.36 0 0 0-.06 2.71ZM34.78 56.32a1.24 1.24 0 1 0 .06-2.47 1.24 1.24 0 0 0-.06 2.47ZM34.69 60.87a1.12 1.12 0 1 0 .04-2.24 1.12 1.12 0 0 0-.04 2.24ZM34.59 65.41a1 1 0 1 0 .04-2 1 1 0 0 0-.04 2ZM34.49 69.95a.88.88 0 1 0 .04-1.76.88.88 0 0 0-.04 1.76ZM34.4 74.5a.76.76 0 1 0 .03-1.53.76.76 0 0 0-.04 1.53ZM34.3 79.04a.64.64 0 1 0 .02-1.29.64.64 0 0 0-.03 1.3ZM34.2 83.58a.53.53 0 1 0 .02-1.05.53.53 0 0 0-.02 1.05ZM34.1 88.13a.4.4 0 1 0 .02-.82.4.4 0 0 0-.02.82ZM34 92.67a.29.29 0 1 0 .01-.57.29.29 0 0 0 0 .57ZM40.57 4.2a.3.3 0 1 0 .01-.6.3.3 0 0 0-.01.6ZM40.46 9a.44.44 0 1 0 .02-.87.44.44 0 0 0-.02.87ZM40.36 13.8a.57.57 0 1 0 .03-1.14.57.57 0 0 0-.03 1.14ZM40.26 18.6a.7.7 0 1 0 .03-1.41.7.7 0 0 0-.03 1.4ZM40.15 23.4a.84.84 0 1 0 .04-1.69.84.84 0 0 0-.04 1.68ZM40.05 28.19a.97.97 0 1 0 .04-1.95.97.97 0 0 0-.04 1.95ZM39.95 32.98a1.1 1.1 0 1 0 .05-2.2 1.1 1.1 0 0 0-.05 2.2ZM39.85 37.78a1.24 1.24 0 1 0 .05-2.48 1.24 1.24 0 0 0-.05 2.48ZM39.74 42.57a1.37 1.37 0 1 0 .06-2.74 1.37 1.37 0 0 0-.06 2.74ZM39.64 47.37a1.5 1.5 0 1 0 .06-3.01 1.5 1.5 0 0 0-.06 3ZM39.54 52.03a1.5 1.5 0 1 0 .06-3.01 1.5 1.5 0 0 0-.06 3ZM39.44 56.56a1.37 1.37 0 1 0 .06-2.75 1.37 1.37 0 0 0-.06 2.75ZM39.34 61.09a1.24 1.24 0 1 0 .06-2.48 1.24 1.24 0 0 0-.06 2.48ZM39.25 65.61a1.1 1.1 0 1 0 .04-2.2 1.1 1.1 0 0 0-.04 2.2ZM39.15 70.14a.97.97 0 1 0 .04-1.94.97.97 0 0 0-.04 1.94ZM39.05 74.67A.84.84 0 1 0 39.1 73a.84.84 0 0 0-.04 1.67ZM38.96 79.2a.7.7 0 1 0 .03-1.4.7.7 0 0 0-.03 1.4ZM38.86 83.73a.57.57 0 1 0 .02-1.14.57.57 0 0 0-.02 1.14ZM38.76 88.26a.44.44 0 1 0 .02-.87.44.44 0 0 0-.02.87ZM38.66 92.79a.3.3 0 1 0 .02-.61.3.3 0 0 0-.02.6ZM45.23 4.32a.32.32 0 1 0 .01-.63.32.32 0 0 0-.01.63ZM45.13 9.13a.47.47 0 1 0 .02-.93.47.47 0 0 0-.02.93ZM45.02 13.94a.61.61 0 1 0 .03-1.23.61.61 0 0 0-.03 1.23ZM44.92 18.75a.76.76 0 1 0 .03-1.52.76.76 0 0 0-.03 1.52ZM44.82 23.56a.91.91 0 1 0 .03-1.82.91.91 0 0 0-.03 1.82ZM44.71 28.37a1.06 1.06 0 1 0 .05-2.11 1.06 1.06 0 0 0-.05 2.11ZM44.6 33.18a1.2 1.2 0 1 0 .06-2.41 1.2 1.2 0 0 0-.05 2.41ZM44.5 38a1.36 1.36 0 1 0 .06-2.72 1.36 1.36 0 0 0-.05 2.72ZM44.4 42.8a1.5 1.5 0 1 0 .07-3 1.5 1.5 0 0 0-.07 3ZM44.3 47.62a1.65 1.65 0 1 0 .07-3.31 1.65 1.65 0 0 0-.07 3.3ZM44.2 52.28a1.65 1.65 0 1 0 .07-3.3 1.65 1.65 0 0 0-.07 3.3ZM44.1 56.8a1.5 1.5 0 1 0 .07-3.02 1.5 1.5 0 0 0-.07 3.01ZM44 61.3a1.36 1.36 0 1 0 .06-2.7 1.36 1.36 0 0 0-.06 2.7ZM43.9 65.82a1.2 1.2 0 1 0 .06-2.42 1.2 1.2 0 0 0-.05 2.42ZM43.81 70.33a1.06 1.06 0 1 0 .05-2.12 1.06 1.06 0 0 0-.05 2.12ZM43.71 74.85a.91.91 0 1 0 .04-1.83.91.91 0 0 0-.04 1.83ZM43.62 79.36a.76.76 0 1 0 .03-1.53.76.76 0 0 0-.03 1.53ZM43.52 83.87a.61.61 0 1 0 .03-1.22.61.61 0 0 0-.03 1.22ZM43.42 88.39a.47.47 0 1 0 .02-.93.47.47 0 0 0-.02.93ZM43.33 92.9a.32.32 0 1 0 0-.63.32.32 0 0 0 0 .63ZM49.9 4.42a.32.32 0 1 0 0-.63.32.32 0 0 0 0 .63ZM49.79 9.23a.47.47 0 1 0 .02-.93.47.47 0 0 0-.02.93ZM49.68 14.04a.61.61 0 1 0 .03-1.23.61.61 0 0 0-.03 1.23ZM49.58 18.85a.76.76 0 1 0 .03-1.52.76.76 0 0 0-.03 1.52ZM49.48 23.66a.91.91 0 1 0 .04-1.82.91.91 0 0 0-.04 1.82ZM49.37 28.47a1.06 1.06 0 1 0 .05-2.11 1.06 1.06 0 0 0-.05 2.11ZM49.27 33.28a1.2 1.2 0 1 0 .05-2.41 1.2 1.2 0 0 0-.05 2.41ZM49.17 38.1a1.36 1.36 0 1 0 .06-2.72 1.36 1.36 0 0 0-.06 2.72ZM49.06 42.9a1.5 1.5 0 1 0 .07-3 1.5 1.5 0 0 0-.07 3ZM48.96 47.72a1.65 1.65 0 1 0 .07-3.3 1.65 1.65 0 0 0-.07 3.3ZM48.86 52.38a1.65 1.65 0 1 0 .07-3.3 1.65 1.65 0 0 0-.07 3.3ZM48.76 56.9a1.5 1.5 0 1 0 .07-3.02 1.5 1.5 0 0 0-.07 3.01ZM48.67 61.4a1.36 1.36 0 1 0 .05-2.7 1.36 1.36 0 0 0-.05 2.7ZM48.57 65.92a1.2 1.2 0 1 0 .05-2.42 1.2 1.2 0 0 0-.05 2.42ZM48.47 70.43a1.06 1.06 0 1 0 .05-2.12 1.06 1.06 0 0 0-.05 2.12ZM48.38 74.95a.91.91 0 1 0 .03-1.83.91.91 0 0 0-.03 1.83ZM48.28 79.46a.76.76 0 1 0 .03-1.53.76.76 0 0 0-.03 1.53ZM48.18 83.97a.61.61 0 1 0 .03-1.22.61.61 0 0 0-.03 1.22ZM48.08 88.49a.47.47 0 1 0 .02-.93.47.47 0 0 0-.02.93ZM47.99 93a.32.32 0 1 0 .01-.63.32.32 0 0 0-.01.63ZM54.55 4.51a.3.3 0 1 0 .02-.61.3.3 0 0 0-.02.61ZM54.45 9.3a.44.44 0 1 0 .02-.87.44.44 0 0 0-.02.87ZM54.35 14.1a.57.57 0 1 0 .02-1.14.57.57 0 0 0-.02 1.14ZM54.24 18.9a.7.7 0 1 0 .03-1.41.7.7 0 0 0-.03 1.4ZM54.14 23.7a.84.84 0 1 0 .04-1.69.84.84 0 0 0-.04 1.68ZM54.04 28.49a.97.97 0 1 0 .04-1.95.97.97 0 0 0-.04 1.95ZM53.94 33.28a1.1 1.1 0 1 0 .04-2.2 1.1 1.1 0 0 0-.04 2.2ZM53.83 38.08a1.24 1.24 0 1 0 .06-2.48 1.24 1.24 0 0 0-.06 2.48ZM53.73 42.87a1.37 1.37 0 1 0 .06-2.74 1.37 1.37 0 0 0-.06 2.74ZM53.63 47.67a1.5 1.5 0 1 0 .06-3.01 1.5 1.5 0 0 0-.06 3ZM53.53 52.33a1.5 1.5 0 1 0 .06-3 1.5 1.5 0 0 0-.06 3ZM53.43 56.86a1.37 1.37 0 1 0 .06-2.75 1.37 1.37 0 0 0-.06 2.75ZM53.33 61.39a1.24 1.24 0 1 0 .05-2.48 1.24 1.24 0 0 0-.05 2.48ZM53.23 65.91a1.1 1.1 0 1 0 .05-2.2 1.1 1.1 0 0 0-.05 2.2ZM53.14 70.44a.97.97 0 1 0 .04-1.94.97.97 0 0 0-.04 1.94ZM53.04 74.98a.84.84 0 1 0 .04-1.68.84.84 0 0 0-.04 1.68ZM52.94 79.5a.7.7 0 1 0 .03-1.4.7.7 0 0 0-.03 1.4ZM52.84 84.03a.57.57 0 1 0 .03-1.14.57.57 0 0 0-.03 1.14ZM52.75 88.56a.44.44 0 1 0 .02-.87.44.44 0 0 0-.02.87ZM52.65 93.09a.3.3 0 1 0 .01-.61.3.3 0 0 0-.01.6ZM59.22 4.6a.29.29 0 1 0 0-.58.29.29 0 0 0 0 .57ZM59.11 9.37a.4.4 0 1 0 .02-.81.4.4 0 0 0-.02.81ZM59.01 14.15a.53.53 0 1 0 .02-1.05.53.53 0 0 0-.02 1.05ZM58.9 18.94a.64.64 0 1 0 .04-1.3.64.64 0 0 0-.03 1.3ZM58.8 23.72a.76.76 0 1 0 .04-1.53.76.76 0 0 0-.04 1.53ZM58.7 28.5a.88.88 0 1 0 .04-1.77.88.88 0 0 0-.04 1.77ZM58.6 33.28a1 1 0 1 0 .04-2 1 1 0 0 0-.04 2ZM58.5 38.06a1.12 1.12 0 1 0 .04-2.24 1.12 1.12 0 0 0-.04 2.24ZM58.4 42.84a1.24 1.24 0 1 0 .05-2.48 1.24 1.24 0 0 0-.06 2.48ZM58.3 47.62a1.36 1.36 0 1 0 .05-2.71 1.36 1.36 0 0 0-.06 2.71ZM58.2 52.28a1.36 1.36 0 1 0 .05-2.71 1.36 1.36 0 0 0-.06 2.71ZM58.1 56.83a1.24 1.24 0 1 0 .05-2.48 1.24 1.24 0 0 0-.06 2.48ZM58 61.37a1.12 1.12 0 1 0 .04-2.24 1.12 1.12 0 0 0-.04 2.24ZM57.9 65.91a1 1 0 1 0 .04-2 1 1 0 0 0-.04 2ZM57.8 70.46a.88.88 0 1 0 .04-1.77.88.88 0 0 0-.04 1.77ZM57.7 75a.76.76 0 1 0 .04-1.53.76.76 0 0 0-.04 1.53ZM57.6 79.54a.64.64 0 1 0 .03-1.29.64.64 0 0 0-.02 1.3ZM57.5 84.09a.53.53 0 1 0 .03-1.06.53.53 0 0 0-.02 1.06ZM57.41 88.63a.4.4 0 1 0 .02-.81.4.4 0 0 0-.02.8ZM57.31 93.17a.29.29 0 1 0 .01-.57.29.29 0 0 0 0 .57ZM63.78 9.44a.38.38 0 1 0 .01-.75.38.38 0 0 0-.01.75ZM63.67 14.2a.48.48 0 1 0 .02-.95.48.48 0 0 0-.02.96ZM63.57 18.98a.58.58 0 1 0 .03-1.17.58.58 0 0 0-.03 1.17ZM63.47 23.74a.7.7 0 1 0 .03-1.38.7.7 0 0 0-.03 1.38ZM63.37 28.5a.8.8 0 1 0 .03-1.58.8.8 0 0 0-.03 1.59ZM63.26 33.27a.9.9 0 1 0 .04-1.79.9.9 0 0 0-.04 1.8ZM63.16 38.04a1 1 0 1 0 .04-2 1 1 0 0 0-.04 2ZM63.06 42.8a1.1 1.1 0 1 0 .05-2.2 1.1 1.1 0 0 0-.05 2.2ZM62.96 47.57a1.2 1.2 0 1 0 .05-2.41 1.2 1.2 0 0 0-.05 2.41ZM62.86 52.23a1.2 1.2 0 1 0 .05-2.41 1.2 1.2 0 0 0-.05 2.41ZM62.76 56.8a1.1 1.1 0 1 0 .05-2.22 1.1 1.1 0 0 0-.05 2.21ZM62.66 61.35a1 1 0 1 0 .04-2 1 1 0 0 0-.04 2ZM62.56 65.9a.9.9 0 1 0 .04-1.78.9.9 0 0 0-.04 1.79ZM62.46 70.47a.8.8 0 1 0 .04-1.59.8.8 0 0 0-.04 1.59ZM62.37 75.03a.7.7 0 1 0 .03-1.38.7.7 0 0 0-.03 1.38ZM62.27 79.58a.59.59 0 1 0 .02-1.17.59.59 0 0 0-.02 1.17ZM62.17 84.14a.48.48 0 1 0 .02-.96.48.48 0 0 0-.02.96ZM62.07 88.7a.38.38 0 1 0 .02-.75.38.38 0 0 0-.02.75ZM68.44 9.51a.35.35 0 1 0 .01-.69.35.35 0 0 0-.01.7ZM68.34 14.27a.44.44 0 1 0 .02-.88.44.44 0 0 0-.02.88ZM68.23 19.02a.53.53 0 1 0 .03-1.05.53.53 0 0 0-.03 1.05ZM68.13 23.77a.61.61 0 1 0 .03-1.23.61.61 0 0 0-.03 1.23ZM68.03 28.52a.7.7 0 1 0 .03-1.4.7.7 0 0 0-.03 1.4ZM67.93 33.27a.8.8 0 1 0 .03-1.58.8.8 0 0 0-.03 1.58ZM67.83 38.02a.88.88 0 1 0 .03-1.76.88.88 0 0 0-.03 1.76ZM67.72 42.77a.97.97 0 1 0 .05-1.94.97.97 0 0 0-.05 1.94ZM67.62 47.52a1.06 1.06 0 1 0 .05-2.12 1.06 1.06 0 0 0-.05 2.12ZM67.52 52.19a1.06 1.06 0 1 0 .05-2.12 1.06 1.06 0 0 0-.05 2.12ZM67.42 56.76a.97.97 0 1 0 .04-1.94.97.97 0 0 0-.04 1.94ZM67.33 61.33a.88.88 0 1 0 .03-1.76.88.88 0 0 0-.03 1.76ZM67.23 65.9a.8.8 0 1 0 .03-1.58.8.8 0 0 0-.03 1.58ZM67.13 70.48a.7.7 0 1 0 .03-1.4.7.7 0 0 0-.03 1.4ZM67.03 75.05a.61.61 0 1 0 .03-1.23.61.61 0 0 0-.03 1.23ZM66.93 79.62a.53.53 0 1 0 .02-1.05.53.53 0 0 0-.02 1.05ZM66.83 84.2a.44.44 0 1 0 .02-.88.44.44 0 0 0-.02.88ZM66.74 88.77a.35.35 0 1 0 .01-.7.35.35 0 0 0-.01.7ZM73 14.32a.4.4 0 1 0 .02-.78.4.4 0 0 0-.02.78ZM72.9 19.06a.47.47 0 1 0 .02-.93.47.47 0 0 0-.02.93ZM72.8 23.8a.54.54 0 1 0 .02-1.08.54.54 0 0 0-.02 1.07ZM72.7 28.53a.61.61 0 1 0 .02-1.23.61.61 0 0 0-.03 1.23ZM72.6 33.27a.7.7 0 1 0 .02-1.38.7.7 0 0 0-.03 1.38ZM72.49 38a.76.76 0 1 0 .03-1.52.76.76 0 0 0-.03 1.52ZM72.39 42.74a.84.84 0 1 0 .03-1.68.84.84 0 0 0-.03 1.68ZM72.29 47.48a.91.91 0 1 0 .04-1.83.91.91 0 0 0-.04 1.83ZM72.19 52.14a.91.91 0 1 0 .04-1.82.91.91 0 0 0-.04 1.82ZM72.09 56.73a.84.84 0 1 0 .03-1.68.84.84 0 0 0-.03 1.68ZM71.99 61.31a.76.76 0 1 0 .03-1.52.76.76 0 0 0-.03 1.52ZM71.9 65.9a.7.7 0 1 0 .02-1.38.7.7 0 0 0-.03 1.38ZM71.8 70.49a.61.61 0 1 0 .02-1.23.61.61 0 0 0-.03 1.23ZM71.7 75.07a.54.54 0 1 0 .02-1.07.54.54 0 0 0-.03 1.07ZM71.6 79.67a.47.47 0 1 0 .02-.94.47.47 0 0 0-.02.94ZM71.5 84.25a.4.4 0 1 0 .01-.78.4.4 0 0 0-.01.78ZM77.66 14.38a.35.35 0 1 0 .02-.7.35.35 0 0 0-.02.7ZM77.56 19.1a.4.4 0 1 0 .02-.81.4.4 0 0 0-.02.8ZM77.46 23.82a.47.47 0 1 0 .02-.93.47.47 0 0 0-.02.93ZM77.36 28.54a.53.53 0 1 0 .02-1.05.53.53 0 0 0-.02 1.05ZM77.26 33.26a.59.59 0 1 0 .02-1.17.59.59 0 0 0-.02 1.17ZM77.16 37.98a.64.64 0 1 0 .02-1.28.64.64 0 0 0-.02 1.28ZM77.05 42.7a.7.7 0 1 0 .03-1.4.7.7 0 0 0-.03 1.4ZM76.95 47.43A.76.76 0 1 0 77 45.9a.76.76 0 0 0-.04 1.53ZM76.85 52.09a.76.76 0 1 0 .04-1.53.76.76 0 0 0-.04 1.53ZM76.75 56.7a.7.7 0 1 0 .03-1.41.7.7 0 0 0-.03 1.4ZM76.65 61.3a.64.64 0 1 0 .03-1.3.64.64 0 0 0-.03 1.3ZM76.56 65.9a.58.58 0 1 0 .02-1.17.58.58 0 0 0-.02 1.17ZM76.46 70.5a.53.53 0 1 0 .02-1.05.53.53 0 0 0-.02 1.05ZM76.36 75.1a.47.47 0 1 0 .02-.93.47.47 0 0 0-.02.93ZM76.26 79.7a.4.4 0 1 0 .02-.8.4.4 0 0 0-.02.8ZM76.16 84.3a.35.35 0 1 0 .01-.69.35.35 0 0 0-.01.7ZM82.22 19.14a.35.35 0 1 0 .02-.7.35.35 0 0 0-.02.7ZM82.12 23.85a.4.4 0 1 0 .02-.79.4.4 0 0 0-.02.79ZM82.02 28.55a.44.44 0 1 0 .02-.87.44.44 0 0 0-.02.87ZM81.92 33.26a.48.48 0 1 0 .02-.96.48.48 0 0 0-.02.96ZM81.82 37.97a.53.53 0 1 0 .02-1.06.53.53 0 0 0-.02 1.06ZM81.72 42.67a.57.57 0 1 0 .02-1.14.57.57 0 0 0-.02 1.14ZM81.62 47.38a.61.61 0 1 0 .02-1.23.61.61 0 0 0-.02 1.23ZM81.52 52.04a.61.61 0 1 0 .02-1.23.61.61 0 0 0-.02 1.23ZM81.42 56.66a.57.57 0 1 0 .02-1.14.57.57 0 0 0-.02 1.14ZM81.32 61.28a.53.53 0 1 0 .02-1.05.53.53 0 0 0-.02 1.05ZM81.22 65.9a.48.48 0 1 0 .02-.97.48.48 0 0 0-.02.96ZM81.12 70.51a.44.44 0 1 0 .02-.87.44.44 0 0 0-.02.87ZM81.02 75.13a.4.4 0 1 0 .02-.79.4.4 0 0 0-.02.8ZM80.92 79.75a.35.35 0 1 0 .02-.7.35.35 0 0 0-.02.7ZM86.69 28.56a.35.35 0 1 0 .01-.7.35.35 0 0 0-.01.7ZM86.59 33.26a.38.38 0 1 0 .01-.76.38.38 0 0 0-.01.76ZM86.48 37.95a.4.4 0 1 0 .02-.82.4.4 0 0 0-.02.82ZM86.38 42.64a.44.44 0 1 0 .02-.87.44.44 0 0 0-.02.87ZM86.28 47.33a.47.47 0 1 0 .02-.93.47.47 0 0 0-.02.93ZM86.18 52a.47.47 0 1 0 .02-.94.47.47 0 0 0-.02.93ZM86.08 56.63a.44.44 0 1 0 .02-.88.44.44 0 0 0-.02.88ZM85.98 61.26a.4.4 0 1 0 .02-.82.4.4 0 0 0-.02.82ZM85.88 65.89a.38.38 0 1 0 .02-.75.38.38 0 0 0-.02.75ZM85.78 70.52a.35.35 0 1 0 .02-.7.35.35 0 0 0-.02.7ZM91.15 37.93a.29.29 0 1 0 .01-.58.29.29 0 0 0-.01.58ZM91.05 42.6a.3.3 0 1 0 .01-.6.3.3 0 0 0-.01.6ZM90.95 47.28a.32.32 0 1 0 .01-.63.32.32 0 0 0-.01.63ZM90.85 51.94a.32.32 0 1 0 .01-.63.32.32 0 0 0-.01.63ZM90.75 56.6a.3.3 0 1 0 .01-.62.3.3 0 0 0-.01.61ZM90.65 61.24a.29.29 0 1 0 .01-.58.29.29 0 0 0-.01.58Z"/></g><defs><clipPath id="a"><path fill="#fff" d="M.13 0h93.02v95H.13z"/></clipPath></defs></svg>