<svg xmlns="http://www.w3.org/2000/svg" width="94" height="95" fill="none"><g fill="#0051FF" clip-path="url(#a)"><path d="M7.27 71.63a.29.29 0 1 0-.4-.4.29.29 0 0 0 .4.4ZM10.58 74.94a.3.3 0 1 0-.43-.43.3.3 0 0 0 .43.43ZM13.89 78.24a.32.32 0 1 0-.45-.44.32.32 0 0 0 .45.44ZM17.19 81.54a.32.32 0 1 0-.45-.45.32.32 0 0 0 .45.45ZM20.47 84.83a.3.3 0 1 0-.43-.43.3.3 0 0 0 .43.43ZM23.76 88.12a.29.29 0 1 0-.4-.41.29.29 0 0 0 .4.4ZM4.02 61.78a.35.35 0 1 0-.5-.5.35.35 0 0 0 .5.5ZM7.34 65.1a.38.38 0 1 0-.54-.54.38.38 0 0 0 .54.54ZM10.65 68.42a.4.4 0 1 0-.57-.58.4.4 0 0 0 .57.58ZM13.97 71.73a.44.44 0 1 0-.61-.61.44.44 0 0 0 .61.61ZM17.3 75.05a.47.47 0 1 0-.67-.66.47.47 0 0 0 .66.66ZM20.59 78.35a.47.47 0 1 0-.66-.66.47.47 0 0 0 .66.66ZM23.86 81.63a.44.44 0 1 0-.61-.62.44.44 0 0 0 .61.62ZM27.14 84.9a.4.4 0 1 0-.57-.57.4.4 0 0 0 .57.57ZM30.42 88.18a.38.38 0 1 0-.54-.53.38.38 0 0 0 .54.53ZM33.7 91.46a.35.35 0 1 0-.5-.5.35.35 0 0 0 .5.5ZM.72 51.89a.35.35 0 1 0-.5-.5.35.35 0 0 0 .5.5ZM4.05 55.22a.4.4 0 1 0-.56-.56.4.4 0 0 0 .56.56ZM7.38 58.54a.44.44 0 1 0-.62-.61.44.44 0 0 0 .62.61ZM10.7 61.87a.48.48 0 1 0-.67-.68.48.48 0 0 0 .68.68ZM14.04 65.2a.53.53 0 1 0-.75-.74.53.53 0 0 0 .75.74ZM17.37 68.53a.57.57 0 1 0-.81-.8.57.57 0 0 0 .8.8ZM20.7 71.86a.61.61 0 1 0-.88-.87.61.61 0 0 0 .87.87ZM24 75.16a.61.61 0 1 0-.88-.87.61.61 0 0 0 .87.87ZM27.26 78.42a.57.57 0 1 0-.81-.8.57.57 0 0 0 .8.8ZM30.52 81.69a.53.53 0 1 0-.74-.74.53.53 0 0 0 .74.74ZM33.79 84.95a.48.48 0 1 0-.68-.67.48.48 0 0 0 .68.67ZM37.05 88.22a.44.44 0 1 0-.61-.62.44.44 0 0 0 .61.62ZM40.32 91.49a.4.4 0 1 0-.56-.56.4.4 0 0 0 .56.56ZM43.59 94.75a.35.35 0 1 0-.5-.49.35.35 0 0 0 .5.5ZM.72 45.3a.35.35 0 1 0-.5-.5.35.35 0 0 0 .5.5ZM4.06 48.63a.4.4 0 1 0-.58-.57.4.4 0 0 0 .58.57ZM7.4 51.97a.47.47 0 1 0-.66-.66.47.47 0 0 0 .66.66ZM10.74 55.31a.53.53 0 1 0-.74-.74.53.53 0 0 0 .74.74ZM14.08 58.65a.58.58 0 1 0-.83-.83.58.58 0 0 0 .83.83ZM17.42 61.99a.64.64 0 1 0-.91-.91.64.64 0 0 0 .9.9ZM20.76 65.33a.7.7 0 1 0-1-1 .7.7 0 0 0 1 1ZM24.1 68.67a.76.76 0 1 0-1.08-1.08.76.76 0 0 0 1.08 1.08ZM27.4 71.96a.76.76 0 1 0-1.09-1.07.76.76 0 0 0 1.08 1.07ZM30.65 75.22a.7.7 0 1 0-1-1 .7.7 0 0 0 1 1ZM33.9 78.48a.64.64 0 1 0-.9-.92.64.64 0 0 0 .9.92ZM37.16 81.73a.58.58 0 1 0-.83-.83.58.58 0 0 0 .83.83ZM40.41 84.99a.53.53 0 1 0-.74-.75.53.53 0 0 0 .74.75ZM43.67 88.24a.47.47 0 1 0-.66-.66.47.47 0 0 0 .66.66ZM46.93 91.5a.4.4 0 1 0-.58-.58.4.4 0 0 0 .58.58ZM50.18 94.75a.35.35 0 1 0-.5-.49.35.35 0 0 0 .5.5ZM4.05 42.03a.4.4 0 1 0-.56-.56.4.4 0 0 0 .56.56ZM7.4 45.38a.47.47 0 1 0-.66-.66.47.47 0 0 0 .66.66ZM10.75 48.72a.54.54 0 1 0-.76-.76.54.54 0 0 0 .76.76ZM14.1 52.08a.61.61 0 1 0-.87-.87.61.61 0 0 0 .87.87ZM17.45 55.43a.7.7 0 1 0-.98-.98.7.7 0 0 0 .98.98ZM20.8 58.78a.76.76 0 1 0-1.08-1.08.76.76 0 0 0 1.08 1.08ZM24.15 62.13a.84.84 0 1 0-1.19-1.19.84.84 0 0 0 1.19 1.19ZM27.5 65.48a.91.91 0 1 0-1.3-1.3.91.91 0 0 0 1.3 1.3ZM30.8 68.77a.91.91 0 1 0-1.3-1.29.91.91 0 0 0 1.3 1.3ZM34.04 72.02a.84.84 0 1 0-1.19-1.19.84.84 0 0 0 1.2 1.19ZM37.29 75.26a.76.76 0 1 0-1.08-1.08.76.76 0 0 0 1.08 1.08ZM40.53 78.5a.7.7 0 1 0-.98-.97.7.7 0 0 0 .98.98ZM43.77 81.75a.61.61 0 1 0-.86-.87.61.61 0 0 0 .86.87ZM47.02 85a.54.54 0 1 0-.76-.77.54.54 0 0 0 .76.77ZM50.26 88.24a.47.47 0 1 0-.65-.66.47.47 0 0 0 .65.66ZM53.51 91.49a.4.4 0 1 0-.56-.56.4.4 0 0 0 .56.56ZM4.02 35.4a.35.35 0 1 0-.5-.5.35.35 0 0 0 .5.5ZM7.38 38.76a.44.44 0 1 0-.62-.62.44.44 0 0 0 .62.62ZM10.74 42.12a.53.53 0 1 0-.74-.74.53.53 0 0 0 .74.74ZM14.1 45.48a.61.61 0 1 0-.87-.87.61.61 0 0 0 .87.87ZM17.46 48.84a.7.7 0 1 0-1-1 .7.7 0 0 0 1 1ZM20.82 52.2a.8.8 0 1 0-1.12-1.12.8.8 0 0 0 1.12 1.12ZM24.18 55.56a.88.88 0 1 0-1.25-1.24.88.88 0 0 0 1.25 1.24ZM27.54 58.92a.97.97 0 1 0-1.37-1.37.97.97 0 0 0 1.37 1.37ZM30.9 62.28a1.06 1.06 0 1 0-1.5-1.5 1.06 1.06 0 0 0 1.5 1.5ZM34.2 65.58a1.06 1.06 0 1 0-1.5-1.5 1.06 1.06 0 0 0 1.5 1.5ZM37.43 68.81a.97.97 0 1 0-1.37-1.37.97.97 0 0 0 1.37 1.37ZM40.67 72.05a.88.88 0 1 0-1.25-1.25.88.88 0 0 0 1.25 1.25ZM43.9 75.28a.8.8 0 1 0-1.12-1.12.8.8 0 0 0 1.12 1.12ZM47.14 78.52a.7.7 0 1 0-1-1 .7.7 0 0 0 1 1ZM50.37 81.75a.61.61 0 1 0-.87-.87.61.61 0 0 0 .87.87ZM53.6 84.99a.53.53 0 1 0-.74-.75.53.53 0 0 0 .74.75ZM56.84 88.22a.44.44 0 1 0-.62-.62.44.44 0 0 0 .62.62ZM60.07 91.46a.35.35 0 1 0-.49-.5.35.35 0 0 0 .5.5ZM7.34 32.12a.38.38 0 1 0-.54-.53.38.38 0 0 0 .54.53ZM10.7 35.5a.48.48 0 1 0-.67-.68.48.48 0 0 0 .68.67ZM14.08 38.87a.59.59 0 1 0-.83-.83.59.59 0 0 0 .83.83ZM17.45 42.24a.7.7 0 1 0-.98-.98.7.7 0 0 0 .98.98ZM20.82 45.6a.8.8 0 1 0-1.12-1.11.8.8 0 0 0 1.12 1.12ZM24.19 48.98a.9.9 0 1 0-1.27-1.27.9.9 0 0 0 1.27 1.27ZM27.56 52.35a1 1 0 1 0-1.41-1.42 1 1 0 0 0 1.41 1.42ZM30.93 55.72a1.1 1.1 0 1 0-1.56-1.56 1.1 1.1 0 0 0 1.56 1.56ZM34.3 59.09a1.2 1.2 0 1 0-1.7-1.7 1.2 1.2 0 0 0 1.7 1.7ZM37.6 62.39a1.2 1.2 0 1 0-1.7-1.71 1.2 1.2 0 0 0 1.7 1.7ZM40.83 65.61a1.1 1.1 0 1 0-1.57-1.56 1.1 1.1 0 0 0 1.57 1.56ZM44.05 68.84a1 1 0 1 0-1.42-1.42 1 1 0 0 0 1.42 1.42ZM47.27 72.06a.9.9 0 1 0-1.26-1.27.9.9 0 0 0 1.26 1.27ZM50.5 75.28a.8.8 0 1 0-1.13-1.12.8.8 0 0 0 1.13 1.12ZM53.72 78.5a.7.7 0 1 0-.98-.97.7.7 0 0 0 .98.98ZM56.94 81.73a.58.58 0 1 0-.82-.83.58.58 0 0 0 .82.83ZM60.17 84.95a.48.48 0 1 0-.68-.67.48.48 0 0 0 .68.67ZM63.4 88.18a.38.38 0 1 0-.54-.53.38.38 0 0 0 .53.53ZM7.27 25.47a.29.29 0 1 0-.4-.41.29.29 0 0 0 .4.4ZM10.65 28.85a.4.4 0 1 0-.57-.58.4.4 0 0 0 .57.58ZM14.04 32.23a.53.53 0 1 0-.75-.74.53.53 0 0 0 .75.74ZM17.42 35.61a.64.64 0 1 0-.91-.91.64.64 0 0 0 .9.91ZM20.8 39a.76.76 0 1 0-1.08-1.09A.76.76 0 0 0 20.8 39ZM24.18 42.37a.88.88 0 1 0-1.25-1.24.88.88 0 0 0 1.25 1.24ZM27.56 45.75a1 1 0 1 0-1.41-1.41 1 1 0 0 0 1.41 1.41ZM30.94 49.14a1.12 1.12 0 1 0-1.58-1.59 1.12 1.12 0 0 0 1.58 1.59ZM34.32 52.52a1.24 1.24 0 1 0-1.75-1.75 1.24 1.24 0 0 0 1.75 1.75ZM37.7 55.9a1.36 1.36 0 1 0-1.91-1.92 1.36 1.36 0 0 0 1.91 1.92ZM41 59.2a1.36 1.36 0 1 0-1.92-1.92A1.36 1.36 0 0 0 41 59.2ZM44.22 62.4a1.24 1.24 0 1 0-1.76-1.74 1.24 1.24 0 0 0 1.76 1.75ZM47.43 65.62a1.12 1.12 0 1 0-1.58-1.58 1.12 1.12 0 0 0 1.58 1.58ZM50.64 68.84a1 1 0 1 0-1.41-1.42 1 1 0 0 0 1.41 1.42ZM53.86 72.05a.88.88 0 1 0-1.25-1.25.88.88 0 0 0 1.25 1.25ZM57.07 75.26a.76.76 0 1 0-1.08-1.08.76.76 0 0 0 1.08 1.08ZM60.28 78.48a.64.64 0 1 0-.9-.92.64.64 0 0 0 .9.92ZM63.5 81.69a.53.53 0 1 0-.75-.74.53.53 0 0 0 .75.74ZM66.71 84.9a.4.4 0 1 0-.58-.57.4.4 0 0 0 .58.57ZM69.92 88.12a.29.29 0 1 0-.4-.41.29.29 0 0 0 .4.4ZM10.58 22.18a.3.3 0 1 0-.43-.43.3.3 0 0 0 .43.43ZM13.97 25.57a.44.44 0 1 0-.61-.62.44.44 0 0 0 .61.62ZM17.37 28.96a.57.57 0 1 0-.81-.8.57.57 0 0 0 .8.8ZM20.76 32.35a.7.7 0 1 0-1-.99.7.7 0 0 0 1 1ZM24.15 35.75a.84.84 0 1 0-1.19-1.19.84.84 0 0 0 1.19 1.19ZM27.54 39.14a.97.97 0 1 0-1.37-1.37.97.97 0 0 0 1.37 1.37ZM30.93 42.53a1.1 1.1 0 1 0-1.56-1.56 1.1 1.1 0 0 0 1.56 1.56ZM34.32 45.92a1.24 1.24 0 1 0-1.75-1.75 1.24 1.24 0 0 0 1.75 1.75ZM37.72 49.32a1.37 1.37 0 1 0-1.95-1.95 1.37 1.37 0 0 0 1.95 1.95ZM41.1 52.7a1.5 1.5 0 1 0-2.12-2.12 1.5 1.5 0 0 0 2.13 2.13ZM44.4 56a1.5 1.5 0 1 0-2.12-2.13A1.5 1.5 0 0 0 44.4 56ZM47.6 59.2a1.37 1.37 0 1 0-1.93-1.94 1.37 1.37 0 0 0 1.94 1.95ZM50.81 62.4a1.24 1.24 0 1 0-1.75-1.74 1.24 1.24 0 0 0 1.75 1.75ZM54.01 65.61a1.1 1.1 0 1 0-1.56-1.56 1.1 1.1 0 0 0 1.56 1.56ZM57.22 68.81a.97.97 0 1 0-1.38-1.37.97.97 0 0 0 1.38 1.37ZM60.42 72.02a.84.84 0 1 0-1.19-1.19.84.84 0 0 0 1.2 1.19ZM63.62 75.22a.7.7 0 1 0-1-1 .7.7 0 0 0 1 1ZM66.83 78.42a.57.57 0 1 0-.81-.8.57.57 0 0 0 .8.8ZM70.03 81.63a.44.44 0 1 0-.62-.62.44.44 0 0 0 .62.62ZM73.23 84.83a.3.3 0 1 0-.43-.43.3.3 0 0 0 .43.43ZM13.89 18.9a.32.32 0 1 0-.45-.46.32.32 0 0 0 .45.45ZM17.3 22.3a.47.47 0 1 0-.67-.66.47.47 0 0 0 .66.65ZM20.7 25.7a.61.61 0 1 0-.88-.87.61.61 0 0 0 .87.87ZM24.1 29.1a.76.76 0 1 0-1.08-1.08.76.76 0 0 0 1.08 1.08ZM27.5 32.5a.91.91 0 1 0-1.3-1.29.91.91 0 0 0 1.3 1.3ZM30.9 35.9a1.06 1.06 0 1 0-1.5-1.5 1.06 1.06 0 0 0 1.5 1.5ZM34.3 39.3a1.2 1.2 0 1 0-1.7-1.7 1.2 1.2 0 0 0 1.7 1.7ZM37.7 42.7a1.36 1.36 0 1 0-1.91-1.91 1.36 1.36 0 0 0 1.91 1.92ZM41.1 46.11a1.5 1.5 0 1 0-2.12-2.13 1.5 1.5 0 0 0 2.13 2.13ZM44.5 49.51a1.65 1.65 0 1 0-2.33-2.34 1.65 1.65 0 0 0 2.34 2.34ZM47.8 52.81a1.65 1.65 0 1 0-2.33-2.34 1.65 1.65 0 0 0 2.34 2.34ZM51 56a1.5 1.5 0 1 0-2.13-2.13A1.5 1.5 0 0 0 51 56ZM54.2 59.2a1.36 1.36 0 1 0-1.93-1.92 1.36 1.36 0 0 0 1.92 1.92ZM57.38 62.39a1.2 1.2 0 1 0-1.7-1.71 1.2 1.2 0 0 0 1.7 1.7ZM60.58 65.58a1.06 1.06 0 1 0-1.5-1.5 1.06 1.06 0 0 0 1.5 1.5ZM63.77 68.77a.91.91 0 1 0-1.29-1.29.91.91 0 0 0 1.29 1.3ZM66.96 71.96a.76.76 0 1 0-1.08-1.07.76.76 0 0 0 1.08 1.07ZM70.15 75.16a.61.61 0 1 0-.87-.87.61.61 0 0 0 .87.87ZM73.35 78.35a.47.47 0 1 0-.66-.66.47.47 0 0 0 .66.66ZM76.54 81.54a.32.32 0 1 0-.45-.45.32.32 0 0 0 .45.45ZM17.19 15.6a.32.32 0 1 0-.45-.45.32.32 0 0 0 .45.45ZM20.59 19a.47.47 0 1 0-.66-.66.47.47 0 0 0 .66.66ZM24 22.4a.61.61 0 1 0-.88-.87.61.61 0 0 0 .87.87ZM27.4 25.8a.76.76 0 1 0-1.09-1.08.76.76 0 0 0 1.08 1.08ZM30.8 29.2a.91.91 0 1 0-1.3-1.28.91.91 0 0 0 1.3 1.28ZM34.2 32.6a1.06 1.06 0 1 0-1.5-1.5 1.06 1.06 0 0 0 1.5 1.5ZM37.6 36a1.2 1.2 0 1 0-1.7-1.7 1.2 1.2 0 0 0 1.7 1.7ZM41 39.41a1.36 1.36 0 1 0-1.92-1.92A1.36 1.36 0 0 0 41 39.41ZM44.4 42.81a1.5 1.5 0 1 0-2.12-2.12 1.5 1.5 0 0 0 2.12 2.12ZM47.8 46.22a1.65 1.65 0 1 0-2.33-2.34 1.65 1.65 0 0 0 2.34 2.34ZM51.1 49.51a1.65 1.65 0 1 0-2.33-2.34 1.65 1.65 0 0 0 2.33 2.34ZM54.3 52.7a1.5 1.5 0 1 0-2.13-2.12 1.5 1.5 0 0 0 2.13 2.13ZM57.49 55.9a1.36 1.36 0 1 0-1.92-1.92 1.36 1.36 0 0 0 1.92 1.92ZM60.68 59.09a1.2 1.2 0 1 0-1.7-1.7 1.2 1.2 0 0 0 1.7 1.7ZM63.87 62.28a1.06 1.06 0 1 0-1.5-1.5 1.06 1.06 0 0 0 1.5 1.5ZM67.07 65.48a.91.91 0 1 0-1.3-1.3.91.91 0 0 0 1.3 1.3ZM70.26 68.67a.76.76 0 1 0-1.08-1.08.76.76 0 0 0 1.08 1.08ZM73.45 71.86a.61.61 0 1 0-.87-.87.61.61 0 0 0 .87.87ZM76.64 75.05a.47.47 0 1 0-.66-.66.47.47 0 0 0 .66.66ZM79.84 78.24a.32.32 0 1 0-.45-.44.32.32 0 0 0 .45.44ZM20.47 12.29a.3.3 0 1 0-.43-.43.3.3 0 0 0 .43.43ZM23.86 15.68a.44.44 0 1 0-.61-.62.44.44 0 0 0 .61.62ZM27.26 19.07a.57.57 0 1 0-.81-.8.57.57 0 0 0 .8.8ZM30.65 22.46a.7.7 0 1 0-1-1 .7.7 0 0 0 1 1ZM34.04 25.86a.84.84 0 1 0-1.19-1.2.84.84 0 0 0 1.2 1.2ZM37.43 29.25a.97.97 0 1 0-1.37-1.38.97.97 0 0 0 1.37 1.38ZM40.82 32.64a1.1 1.1 0 1 0-1.56-1.56 1.1 1.1 0 0 0 1.56 1.56ZM44.22 36.03a1.24 1.24 0 1 0-1.76-1.75 1.24 1.24 0 0 0 1.76 1.75ZM47.6 39.42a1.37 1.37 0 1 0-1.93-1.94 1.37 1.37 0 0 0 1.94 1.94ZM51 42.81a1.5 1.5 0 1 0-2.13-2.12A1.5 1.5 0 0 0 51 42.8ZM54.3 46.11a1.5 1.5 0 1 0-2.13-2.13 1.5 1.5 0 0 0 2.13 2.13ZM57.5 49.32a1.37 1.37 0 1 0-1.94-1.95 1.37 1.37 0 0 0 1.94 1.95ZM60.7 52.52a1.24 1.24 0 1 0-1.75-1.75 1.24 1.24 0 0 0 1.75 1.75ZM63.9 55.72a1.1 1.1 0 1 0-1.56-1.56 1.1 1.1 0 0 0 1.56 1.56ZM67.1 58.92a.97.97 0 1 0-1.36-1.37.97.97 0 0 0 1.37 1.37ZM70.31 62.13a.84.84 0 1 0-1.18-1.19.84.84 0 0 0 1.18 1.19ZM73.51 65.33a.7.7 0 1 0-1-1 .7.7 0 0 0 1 1ZM76.72 68.53a.57.57 0 1 0-.81-.8.57.57 0 0 0 .8.8ZM79.92 71.73a.44.44 0 1 0-.62-.61.44.44 0 0 0 .62.61ZM83.12 74.94a.3.3 0 1 0-.43-.43.3.3 0 0 0 .43.43ZM23.76 8.98a.29.29 0 1 0-.4-.4.29.29 0 0 0 .4.4ZM27.14 12.36a.4.4 0 1 0-.57-.57.4.4 0 0 0 .57.57ZM30.52 15.74a.53.53 0 1 0-.74-.74.53.53 0 0 0 .74.74ZM33.9 19.12a.64.64 0 1 0-.9-.9.64.64 0 0 0 .9.9ZM37.29 22.5a.76.76 0 1 0-1.08-1.07.76.76 0 0 0 1.08 1.07ZM40.67 25.89a.88.88 0 1 0-1.25-1.25.88.88 0 0 0 1.25 1.25ZM44.05 29.27a1 1 0 1 0-1.42-1.42 1 1 0 0 0 1.42 1.42ZM47.43 32.65a1.12 1.12 0 1 0-1.58-1.58 1.12 1.12 0 0 0 1.58 1.58ZM50.81 36.03a1.24 1.24 0 1 0-1.75-1.75 1.24 1.24 0 0 0 1.75 1.75ZM54.2 39.41a1.36 1.36 0 1 0-1.93-1.92 1.36 1.36 0 0 0 1.92 1.92ZM57.49 42.7a1.36 1.36 0 1 0-1.92-1.91 1.36 1.36 0 0 0 1.92 1.92ZM60.7 45.92a1.24 1.24 0 1 0-1.75-1.75 1.24 1.24 0 0 0 1.75 1.75ZM63.92 49.14a1.12 1.12 0 1 0-1.59-1.59 1.12 1.12 0 0 0 1.59 1.59ZM67.13 52.35a1 1 0 1 0-1.42-1.42 1 1 0 0 0 1.42 1.42ZM70.34 55.56a.88.88 0 1 0-1.24-1.24.88.88 0 0 0 1.24 1.24ZM73.56 58.78a.76.76 0 1 0-1.08-1.08.76.76 0 0 0 1.08 1.08ZM76.77 61.99a.64.64 0 1 0-.91-.91.64.64 0 0 0 .91.9ZM79.98 65.2a.53.53 0 1 0-.74-.74.53.53 0 0 0 .74.74ZM83.2 68.42a.4.4 0 1 0-.58-.58.4.4 0 0 0 .58.58ZM86.41 71.63a.29.29 0 1 0-.4-.4.29.29 0 0 0 .4.4ZM30.42 9.04a.38.38 0 1 0-.54-.53.38.38 0 0 0 .54.53ZM33.79 12.41a.48.48 0 1 0-.68-.68.48.48 0 0 0 .68.68ZM37.16 15.78a.59.59 0 1 0-.83-.82.59.59 0 0 0 .83.82ZM40.53 19.16a.7.7 0 1 0-.98-.98.7.7 0 0 0 .98.98ZM43.9 22.53a.8.8 0 1 0-1.12-1.13.8.8 0 0 0 1.12 1.13ZM47.27 25.9a.9.9 0 1 0-1.26-1.27.9.9 0 0 0 1.26 1.27ZM50.64 29.27a1 1 0 1 0-1.41-1.42 1 1 0 0 0 1.41 1.42ZM54.01 32.64a1.1 1.1 0 1 0-1.56-1.57 1.1 1.1 0 0 0 1.56 1.57ZM57.38 36a1.2 1.2 0 1 0-1.7-1.7 1.2 1.2 0 0 0 1.7 1.7ZM60.68 39.3a1.2 1.2 0 1 0-1.7-1.7 1.2 1.2 0 0 0 1.7 1.7ZM63.9 42.53a1.1 1.1 0 1 0-1.56-1.56 1.1 1.1 0 0 0 1.57 1.56ZM67.13 45.75a1 1 0 1 0-1.42-1.41 1 1 0 0 0 1.42 1.41ZM70.35 48.98a.9.9 0 1 0-1.26-1.27.9.9 0 0 0 1.26 1.27ZM73.58 52.2a.8.8 0 1 0-1.12-1.12.8.8 0 0 0 1.12 1.12ZM76.8 55.43a.7.7 0 1 0-.97-.98.7.7 0 0 0 .97.98ZM80.03 58.65a.59.59 0 1 0-.83-.83.59.59 0 0 0 .83.83ZM83.25 61.87a.48.48 0 1 0-.68-.68.48.48 0 0 0 .68.68ZM86.47 65.1a.38.38 0 1 0-.53-.54.38.38 0 0 0 .53.54ZM33.7 5.72a.35.35 0 1 0-.5-.49.35.35 0 0 0 .5.5ZM37.05 9.08a.44.44 0 1 0-.61-.61.44.44 0 0 0 .61.61ZM40.41 12.44a.53.53 0 1 0-.74-.74.53.53 0 0 0 .74.74ZM43.77 15.8a.61.61 0 1 0-.86-.86.61.61 0 0 0 .86.87ZM47.14 19.17a.7.7 0 1 0-1-1 .7.7 0 0 0 1 1ZM50.5 22.53a.8.8 0 1 0-1.13-1.13.8.8 0 0 0 1.13 1.13ZM53.86 25.89a.88.88 0 1 0-1.25-1.25.88.88 0 0 0 1.25 1.25ZM57.22 29.25a.97.97 0 1 0-1.38-1.38.97.97 0 0 0 1.38 1.38ZM60.58 32.6a1.06 1.06 0 1 0-1.5-1.5 1.06 1.06 0 0 0 1.5 1.5ZM63.87 35.9a1.06 1.06 0 1 0-1.5-1.5 1.06 1.06 0 0 0 1.5 1.5ZM67.1 39.14a.97.97 0 1 0-1.36-1.37.97.97 0 0 0 1.37 1.37ZM70.34 42.37a.88.88 0 1 0-1.24-1.24.88.88 0 0 0 1.24 1.24ZM73.58 45.6a.8.8 0 1 0-1.12-1.11.8.8 0 0 0 1.12 1.12ZM76.81 48.84a.7.7 0 1 0-1-1 .7.7 0 0 0 1 1ZM80.05 52.08a.61.61 0 1 0-.87-.87.61.61 0 0 0 .87.87ZM83.28 55.31a.53.53 0 1 0-.74-.74.53.53 0 0 0 .74.74ZM86.51 58.54a.44.44 0 1 0-.61-.61.44.44 0 0 0 .61.61ZM89.75 61.78a.35.35 0 1 0-.5-.5.35.35 0 0 0 .5.5ZM40.32 5.76a.4.4 0 1 0-.56-.56.4.4 0 0 0 .56.56ZM43.67 9.1a.47.47 0 1 0-.66-.65.47.47 0 0 0 .66.66ZM47.02 12.45a.54.54 0 1 0-.76-.76.54.54 0 0 0 .76.76ZM50.37 15.8a.61.61 0 1 0-.87-.86.61.61 0 0 0 .87.87ZM53.72 19.16a.7.7 0 1 0-.98-.98.7.7 0 0 0 .98.98ZM57.07 22.5a.76.76 0 1 0-1.08-1.07.76.76 0 0 0 1.08 1.07ZM60.42 25.86a.84.84 0 1 0-1.19-1.2.84.84 0 0 0 1.2 1.2ZM63.77 29.2a.91.91 0 1 0-1.29-1.28.91.91 0 0 0 1.29 1.28ZM67.07 32.5a.91.91 0 1 0-1.3-1.29.91.91 0 0 0 1.3 1.3ZM70.31 35.75a.84.84 0 1 0-1.18-1.19.84.84 0 0 0 1.18 1.19ZM73.56 39a.76.76 0 1 0-1.08-1.09.76.76 0 0 0 1.08 1.08ZM76.8 42.24a.7.7 0 1 0-.97-.98.7.7 0 0 0 .97.98ZM80.05 45.48a.61.61 0 1 0-.87-.87.61.61 0 0 0 .87.87ZM83.29 48.72a.54.54 0 1 0-.76-.76.54.54 0 0 0 .76.76ZM86.54 51.97a.47.47 0 1 0-.66-.66.47.47 0 0 0 .66.66ZM89.78 55.22a.4.4 0 1 0-.56-.56.4.4 0 0 0 .56.56ZM43.59 2.43a.35.35 0 1 0-.5-.5.35.35 0 0 0 .5.5ZM46.93 5.77a.4.4 0 1 0-.58-.58.4.4 0 0 0 .58.58ZM50.26 9.1a.47.47 0 1 0-.65-.65.47.47 0 0 0 .65.66ZM53.6 12.44a.53.53 0 1 0-.74-.74.53.53 0 0 0 .74.74ZM56.94 15.78a.59.59 0 1 0-.82-.82.59.59 0 0 0 .82.82ZM60.28 19.12a.64.64 0 1 0-.9-.9.64.64 0 0 0 .9.9ZM63.62 22.46a.7.7 0 1 0-1-1 .7.7 0 0 0 1 1ZM66.96 25.8a.76.76 0 1 0-1.08-1.08.76.76 0 0 0 1.08 1.08ZM70.26 29.1a.76.76 0 1 0-1.08-1.08.76.76 0 0 0 1.08 1.08ZM73.51 32.35a.7.7 0 1 0-1-.99.7.7 0 0 0 1 1ZM76.77 35.61a.64.64 0 1 0-.91-.91.64.64 0 0 0 .91.91ZM80.03 38.87a.59.59 0 1 0-.83-.83.59.59 0 0 0 .83.83ZM83.28 42.12a.53.53 0 1 0-.74-.74.53.53 0 0 0 .74.74ZM86.54 45.38a.47.47 0 1 0-.66-.66.47.47 0 0 0 .66.66ZM89.8 48.63a.4.4 0 1 0-.58-.57.4.4 0 0 0 .57.57ZM93.05 51.89a.35.35 0 1 0-.5-.5.35.35 0 0 0 .5.5ZM50.18 2.43a.35.35 0 1 0-.5-.5.35.35 0 0 0 .5.5ZM53.51 5.76a.4.4 0 1 0-.56-.56.4.4 0 0 0 .56.56ZM56.84 9.08a.44.44 0 1 0-.62-.61.44.44 0 0 0 .62.61ZM60.17 12.41a.48.48 0 1 0-.68-.68.48.48 0 0 0 .68.68ZM63.5 15.74a.53.53 0 1 0-.75-.74.53.53 0 0 0 .75.74ZM66.83 19.07a.57.57 0 1 0-.81-.8.57.57 0 0 0 .8.8ZM70.15 22.4a.61.61 0 1 0-.87-.87.61.61 0 0 0 .87.87ZM73.45 25.7a.61.61 0 1 0-.87-.87.61.61 0 0 0 .87.87ZM76.72 28.96a.57.57 0 1 0-.81-.8.57.57 0 0 0 .8.8ZM79.98 32.23a.53.53 0 1 0-.74-.74.53.53 0 0 0 .74.74ZM83.25 35.5a.48.48 0 1 0-.68-.68.48.48 0 0 0 .68.67ZM86.51 38.76a.44.44 0 1 0-.61-.62.44.44 0 0 0 .61.62ZM89.78 42.03a.4.4 0 1 0-.56-.56.4.4 0 0 0 .56.56ZM93.05 45.3a.35.35 0 1 0-.5-.5.35.35 0 0 0 .5.5ZM60.07 5.72a.35.35 0 1 0-.49-.49.35.35 0 0 0 .5.5ZM63.4 9.04a.38.38 0 1 0-.54-.53.38.38 0 0 0 .53.53ZM66.71 12.36a.4.4 0 1 0-.58-.57.4.4 0 0 0 .58.57ZM70.03 15.68a.44.44 0 1 0-.62-.62.44.44 0 0 0 .62.62ZM73.35 19a.47.47 0 1 0-.66-.66.47.47 0 0 0 .66.66ZM76.64 22.3a.47.47 0 1 0-.66-.66.47.47 0 0 0 .66.65ZM79.92 25.57a.44.44 0 1 0-.62-.62.44.44 0 0 0 .62.62ZM83.2 28.85a.4.4 0 1 0-.58-.58.4.4 0 0 0 .58.58ZM86.47 32.12a.38.38 0 1 0-.53-.53.38.38 0 0 0 .53.53ZM89.75 35.4a.35.35 0 1 0-.5-.5.35.35 0 0 0 .5.5ZM69.92 8.98a.29.29 0 1 0-.4-.4.29.29 0 0 0 .4.4ZM73.23 12.29a.3.3 0 1 0-.43-.43.3.3 0 0 0 .43.43ZM76.54 15.6a.32.32 0 1 0-.45-.45.32.32 0 0 0 .45.45ZM79.84 18.9a.32.32 0 1 0-.45-.46.32.32 0 0 0 .45.45ZM83.12 22.18a.3.3 0 1 0-.43-.43.3.3 0 0 0 .43.43ZM86.41 25.47a.29.29 0 1 0-.4-.41.29.29 0 0 0 .4.4Z"/><path d="M1.01 45.17a.29.29 0 1 0-.1-.56.29.29 0 0 0 .1.56ZM1.86 49.78a.3.3 0 1 0-.11-.6.3.3 0 0 0 .1.6ZM2.7 54.38a.32.32 0 1 0-.11-.63.32.32 0 0 0 .11.63ZM3.55 58.96a.32.32 0 1 0-.12-.62.32.32 0 0 0 .12.62ZM4.39 63.54a.3.3 0 1 0-.11-.6.3.3 0 0 0 .1.6ZM5.23 68.1a.29.29 0 1 0-.1-.56.29.29 0 0 0 .1.57ZM3.92 35.22a.35.35 0 1 0-.13-.69.35.35 0 0 0 .13.69ZM4.77 39.83a.38.38 0 1 0-.14-.74.38.38 0 0 0 .14.74ZM5.62 44.45a.4.4 0 1 0-.15-.8.4.4 0 0 0 .15.8ZM6.47 49.06a.44.44 0 1 0-.16-.86.44.44 0 0 0 .16.86ZM7.32 53.68a.47.47 0 1 0-.17-.92.47.47 0 0 0 .17.92ZM8.16 58.27a.47.47 0 1 0-.17-.92.47.47 0 0 0 .17.91ZM9 62.82a.44.44 0 1 0-.16-.86.44.44 0 0 0 .16.86ZM9.84 67.38a.4.4 0 1 0-.15-.8.4.4 0 0 0 .15.8ZM10.67 71.94a.38.38 0 1 0-.13-.75.38.38 0 0 0 .13.75ZM11.51 76.5a.35.35 0 1 0-.12-.69.35.35 0 0 0 .12.68ZM6.82 25.2a.35.35 0 1 0-.13-.68.35.35 0 0 0 .13.68ZM7.67 29.83a.4.4 0 1 0-.14-.77.4.4 0 0 0 .14.77ZM8.52 34.46a.44.44 0 1 0-.15-.86.44.44 0 0 0 .15.86ZM9.37 39.09a.48.48 0 1 0-.17-.94.48.48 0 0 0 .17.94ZM10.23 43.72a.53.53 0 1 0-.2-1.03.53.53 0 0 0 .2 1.03ZM11.08 48.35a.57.57 0 1 0-.2-1.12.57.57 0 0 0 .2 1.12ZM11.93 52.98a.61.61 0 1 0-.22-1.2.61.61 0 0 0 .22 1.2ZM12.77 57.57a.61.61 0 1 0-.22-1.21.61.61 0 0 0 .22 1.2ZM13.6 62.11a.57.57 0 1 0-.2-1.12.57.57 0 0 0 .2 1.12ZM14.44 66.65a.53.53 0 1 0-.19-1.03.53.53 0 0 0 .2 1.03ZM15.28 71.2a.48.48 0 1 0-.17-.95.48.48 0 0 0 .17.94ZM16.11 75.74a.44.44 0 1 0-.15-.86.44.44 0 0 0 .15.86ZM16.95 80.28a.4.4 0 1 0-.14-.77.4.4 0 0 0 .14.77ZM17.78 84.82a.35.35 0 1 0-.12-.68.35.35 0 0 0 .12.68ZM10.56 19.77a.35.35 0 1 0-.12-.68.35.35 0 0 0 .12.68ZM11.42 24.42a.4.4 0 1 0-.15-.8.4.4 0 0 0 .15.8ZM12.27 29.06a.47.47 0 1 0-.17-.92.47.47 0 0 0 .17.92ZM13.13 33.7a.53.53 0 1 0-.2-1.03.53.53 0 0 0 .2 1.04ZM13.98 38.35a.58.58 0 1 0-.21-1.15.58.58 0 0 0 .21 1.15ZM14.83 43a.64.64 0 1 0-.23-1.27.64.64 0 0 0 .23 1.26ZM15.69 47.64a.7.7 0 1 0-.26-1.39.7.7 0 0 0 .26 1.39ZM16.54 52.28a.76.76 0 1 0-.27-1.5.76.76 0 0 0 .27 1.5ZM17.39 56.87a.76.76 0 1 0-.28-1.5.76.76 0 0 0 .28 1.5ZM18.22 61.4a.7.7 0 1 0-.26-1.39.7.7 0 0 0 .26 1.39ZM19.05 65.93a.64.64 0 1 0-.23-1.27.64.64 0 0 0 .23 1.27ZM19.88 70.45a.59.59 0 1 0-.2-1.15.59.59 0 0 0 .2 1.15ZM20.72 74.98a.53.53 0 1 0-.2-1.03.53.53 0 0 0 .2 1.03ZM21.55 79.5a.47.47 0 1 0-.17-.9.47.47 0 0 0 .17.9ZM22.38 84.04a.4.4 0 1 0-.15-.8.4.4 0 0 0 .15.8ZM23.21 88.57a.35.35 0 1 0-.12-.69.35.35 0 0 0 .12.69ZM15.16 18.97a.4.4 0 1 0-.14-.77.4.4 0 0 0 .14.77ZM16.01 23.63a.47.47 0 1 0-.16-.92.47.47 0 0 0 .16.92ZM16.87 28.29a.54.54 0 1 0-.2-1.06.54.54 0 0 0 .2 1.06ZM17.73 32.95a.61.61 0 1 0-.22-1.21.61.61 0 0 0 .22 1.2ZM18.59 37.61a.7.7 0 1 0-.25-1.36.7.7 0 0 0 .25 1.36ZM19.44 42.27a.76.76 0 1 0-.27-1.5.76.76 0 0 0 .27 1.5ZM20.3 46.93a.84.84 0 1 0-.3-1.65.84.84 0 0 0 .3 1.65ZM21.16 51.59a.91.91 0 1 0-.33-1.8.91.91 0 0 0 .33 1.8ZM22 56.17a.91.91 0 1 0-.33-1.79.91.91 0 0 0 .33 1.8ZM22.83 60.69a.84.84 0 1 0-.3-1.65.84.84 0 0 0 .3 1.65ZM23.66 65.2a.76.76 0 1 0-.28-1.5.76.76 0 0 0 .28 1.5ZM24.49 69.71a.7.7 0 1 0-.25-1.35.7.7 0 0 0 .25 1.35ZM25.32 74.23a.61.61 0 1 0-.22-1.21.61.61 0 0 0 .22 1.2ZM26.15 78.74a.54.54 0 1 0-.2-1.06.54.54 0 0 0 .2 1.06ZM26.98 83.25a.47.47 0 1 0-.17-.92.47.47 0 0 0 .17.92ZM27.8 87.77a.4.4 0 1 0-.13-.78.4.4 0 0 0 .14.78ZM18.9 13.5a.35.35 0 1 0-.13-.69.35.35 0 0 0 .12.69ZM19.75 18.17a.44.44 0 1 0-.16-.86.44.44 0 0 0 .16.86ZM20.61 22.85a.53.53 0 1 0-.19-1.04.53.53 0 0 0 .2 1.04ZM21.47 27.52a.61.61 0 1 0-.22-1.2.61.61 0 0 0 .22 1.2ZM22.33 32.2a.7.7 0 1 0-.25-1.4.7.7 0 0 0 .25 1.4ZM23.19 36.87a.8.8 0 1 0-.29-1.56.8.8 0 0 0 .29 1.56ZM24.05 41.54a.88.88 0 1 0-.32-1.73.88.88 0 0 0 .32 1.73ZM24.9 46.22a.97.97 0 1 0-.34-1.91.97.97 0 0 0 .35 1.9ZM25.77 50.89a1.06 1.06 0 1 0-.38-2.09 1.06 1.06 0 0 0 .38 2.09ZM26.61 55.48a1.06 1.06 0 1 0-.38-2.09 1.06 1.06 0 0 0 .38 2.09ZM27.44 59.97a.97.97 0 1 0-.35-1.9.97.97 0 0 0 .35 1.9ZM28.27 64.47a.88.88 0 1 0-.32-1.73.88.88 0 0 0 .32 1.73ZM29.1 68.97a.8.8 0 1 0-.3-1.56.8.8 0 0 0 .3 1.56ZM29.92 73.47a.7.7 0 1 0-.25-1.38.7.7 0 0 0 .25 1.38ZM30.75 77.97a.61.61 0 1 0-.22-1.21.61.61 0 0 0 .22 1.2ZM31.58 82.47a.53.53 0 1 0-.2-1.04.53.53 0 0 0 .2 1.04ZM32.4 86.97a.44.44 0 1 0-.15-.86.44.44 0 0 0 .15.86ZM33.23 91.46a.35.35 0 1 0-.13-.68.35.35 0 0 0 .13.68ZM23.48 12.68a.38.38 0 1 0-.13-.74.38.38 0 0 0 .13.74ZM24.35 17.37a.48.48 0 1 0-.18-.94.48.48 0 0 0 .18.94ZM25.2 22.06a.59.59 0 1 0-.2-1.15.59.59 0 0 0 .2 1.15ZM26.07 26.75a.7.7 0 1 0-.25-1.36.7.7 0 0 0 .25 1.36ZM26.93 31.44a.8.8 0 1 0-.28-1.56.8.8 0 0 0 .28 1.56ZM27.8 36.12a.9.9 0 1 0-.33-1.76.9.9 0 0 0 .32 1.76ZM28.66 40.81a1 1 0 1 0-.36-1.96 1 1 0 0 0 .36 1.96ZM29.52 45.5a1.1 1.1 0 1 0-.4-2.17 1.1 1.1 0 0 0 .4 2.18ZM30.38 50.2a1.2 1.2 0 1 0-.44-2.39 1.2 1.2 0 0 0 .44 2.38ZM31.23 54.78a1.2 1.2 0 1 0-.44-2.38 1.2 1.2 0 0 0 .44 2.38ZM32.05 59.26a1.1 1.1 0 1 0-.4-2.17 1.1 1.1 0 0 0 .4 2.17ZM32.87 63.75a1 1 0 1 0-.36-1.97 1 1 0 0 0 .36 1.97ZM33.7 68.23a.9.9 0 1 0-.32-1.76.9.9 0 0 0 .32 1.76ZM34.52 72.71a.8.8 0 1 0-.28-1.56.8.8 0 0 0 .28 1.56ZM35.35 77.2a.7.7 0 1 0-.25-1.36.7.7 0 0 0 .25 1.36ZM36.17 81.68a.59.59 0 1 0-.2-1.15.59.59 0 0 0 .2 1.15ZM37 86.16a.48.48 0 1 0-.18-.94.48.48 0 0 0 .18.94ZM37.82 90.65a.38.38 0 1 0-.13-.74.38.38 0 0 0 .13.74ZM27.21 7.17a.29.29 0 1 0-.1-.57.29.29 0 0 0 .1.57ZM28.08 11.87a.4.4 0 1 0-.15-.8.4.4 0 0 0 .15.8ZM28.94 16.57a.53.53 0 1 0-.19-1.03.53.53 0 0 0 .19 1.03ZM29.8 21.28a.64.64 0 1 0-.23-1.27.64.64 0 0 0 .24 1.27ZM30.67 25.98a.76.76 0 1 0-.28-1.5.76.76 0 0 0 .28 1.5ZM31.54 30.68a.88.88 0 1 0-.32-1.73.88.88 0 0 0 .32 1.73ZM32.4 35.38a1 1 0 1 0-.36-1.96 1 1 0 0 0 .36 1.96ZM33.26 40.09a1.12 1.12 0 1 0-.4-2.2 1.12 1.12 0 0 0 .4 2.2ZM34.13 44.8a1.24 1.24 0 1 0-.45-2.44 1.24 1.24 0 0 0 .45 2.43ZM35 49.5a1.36 1.36 0 1 0-.5-2.67 1.36 1.36 0 0 0 .5 2.66ZM35.84 54.08a1.36 1.36 0 1 0-.5-2.67 1.36 1.36 0 0 0 .5 2.67ZM36.66 58.55a1.24 1.24 0 1 0-.45-2.44 1.24 1.24 0 0 0 .45 2.44ZM37.48 63.02a1.12 1.12 0 1 0-.4-2.2 1.12 1.12 0 0 0 .4 2.2ZM38.3 67.49a1 1 0 1 0-.36-1.97 1 1 0 0 0 .36 1.97ZM39.13 71.96a.88.88 0 1 0-.32-1.74.88.88 0 0 0 .32 1.74ZM39.95 76.43a.76.76 0 1 0-.28-1.5.76.76 0 0 0 .28 1.5ZM40.77 80.9a.64.64 0 1 0-.23-1.27.64.64 0 0 0 .23 1.27ZM41.6 85.37a.53.53 0 1 0-.2-1.04.53.53 0 0 0 .2 1.04ZM42.41 89.84a.4.4 0 1 0-.14-.8.4.4 0 0 0 .14.8ZM43.24 94.3a.29.29 0 1 0-.1-.56.29.29 0 0 0 .1.57ZM31.8 6.34a.3.3 0 1 0-.11-.6.3.3 0 0 0 .11.6ZM32.67 11.06a.44.44 0 1 0-.16-.86.44.44 0 0 0 .16.86ZM33.54 15.78a.57.57 0 1 0-.21-1.13.57.57 0 0 0 .2 1.13ZM34.4 20.5a.7.7 0 1 0-.25-1.4.7.7 0 0 0 .25 1.4ZM35.27 25.21a.84.84 0 1 0-.3-1.65.84.84 0 0 0 .3 1.65ZM36.14 29.93a.97.97 0 1 0-.35-1.91.97.97 0 0 0 .35 1.9ZM37 34.64a1.1 1.1 0 1 0-.4-2.17 1.1 1.1 0 0 0 .4 2.17ZM37.87 39.36a1.24 1.24 0 1 0-.44-2.43 1.24 1.24 0 0 0 .44 2.43ZM38.74 44.08a1.37 1.37 0 1 0-.5-2.7 1.37 1.37 0 0 0 .5 2.7ZM39.6 48.8a1.5 1.5 0 1 0-.54-2.96 1.5 1.5 0 0 0 .55 2.96ZM40.45 53.38a1.5 1.5 0 1 0-.54-2.96 1.5 1.5 0 0 0 .54 2.96ZM41.27 57.84a1.37 1.37 0 1 0-.5-2.7 1.37 1.37 0 0 0 .5 2.7ZM42.09 62.3a1.24 1.24 0 1 0-.45-2.44 1.24 1.24 0 0 0 .45 2.43ZM42.9 66.75a1.1 1.1 0 1 0-.39-2.17 1.1 1.1 0 0 0 .4 2.17ZM43.73 71.2a.97.97 0 1 0-.35-1.9.97.97 0 0 0 .35 1.9ZM44.55 75.66a.84.84 0 1 0-.3-1.65.84.84 0 0 0 .3 1.65ZM45.37 80.11a.7.7 0 1 0-.26-1.38.7.7 0 0 0 .26 1.38ZM46.19 84.57a.57.57 0 1 0-.21-1.13.57.57 0 0 0 .2 1.13ZM47 89.02a.44.44 0 1 0-.15-.86.44.44 0 0 0 .16.86ZM47.83 93.48a.3.3 0 1 0-.12-.6.3.3 0 0 0 .12.6ZM36.39 5.5a.32.32 0 1 0-.12-.62.32.32 0 0 0 .12.63ZM37.26 10.24a.47.47 0 1 0-.17-.92.47.47 0 0 0 .17.92ZM38.13 14.97a.61.61 0 1 0-.22-1.2.61.61 0 0 0 .22 1.2ZM39 19.7a.76.76 0 1 0-.28-1.5.76.76 0 0 0 .28 1.5ZM39.87 24.44a.91.91 0 1 0-.33-1.8.91.91 0 0 0 .33 1.8ZM40.74 29.17a1.06 1.06 0 1 0-.38-2.08 1.06 1.06 0 0 0 .38 2.08ZM41.61 33.9a1.2 1.2 0 1 0-.44-2.37 1.2 1.2 0 0 0 .44 2.37ZM42.48 38.63a1.36 1.36 0 1 0-.5-2.66 1.36 1.36 0 0 0 .5 2.66ZM43.35 43.37a1.5 1.5 0 1 0-.54-2.96 1.5 1.5 0 0 0 .54 2.96ZM44.22 48.1a1.65 1.65 0 1 0-.6-3.25 1.65 1.65 0 0 0 .6 3.25ZM45.06 52.69a1.65 1.65 0 1 0-.6-3.26 1.65 1.65 0 0 0 .6 3.26ZM45.88 57.13a1.5 1.5 0 1 0-.54-2.96 1.5 1.5 0 0 0 .54 2.96ZM46.7 61.57a1.36 1.36 0 1 0-.5-2.67 1.36 1.36 0 0 0 .5 2.67ZM47.51 66a1.2 1.2 0 1 0-.43-2.37 1.2 1.2 0 0 0 .43 2.38ZM48.33 70.45a1.06 1.06 0 1 0-.38-2.09 1.06 1.06 0 0 0 .38 2.09ZM49.15 74.89a.91.91 0 1 0-.33-1.8.91.91 0 0 0 .33 1.8ZM49.96 79.33a.76.76 0 1 0-.27-1.5.76.76 0 0 0 .27 1.5ZM50.78 83.77a.61.61 0 1 0-.22-1.21.61.61 0 0 0 .22 1.2ZM51.6 88.2a.47.47 0 1 0-.17-.91.47.47 0 0 0 .17.92ZM52.41 92.65a.32.32 0 1 0-.11-.63.32.32 0 0 0 .11.63ZM40.97 4.67a.32.32 0 1 0-.11-.63.32.32 0 0 0 .11.63ZM41.84 9.4a.47.47 0 1 0-.16-.92.47.47 0 0 0 .16.92ZM42.72 14.13a.61.61 0 1 0-.23-1.2.61.61 0 0 0 .23 1.2ZM43.59 18.86a.76.76 0 1 0-.28-1.5.76.76 0 0 0 .28 1.5ZM44.46 23.6a.91.91 0 1 0-.33-1.8.91.91 0 0 0 .33 1.8ZM45.33 28.33a1.06 1.06 0 1 0-.39-2.09 1.06 1.06 0 0 0 .39 2.09ZM46.2 33.06a1.2 1.2 0 1 0-.44-2.38 1.2 1.2 0 0 0 .44 2.38ZM47.07 37.8a1.36 1.36 0 1 0-.5-2.68 1.36 1.36 0 0 0 .5 2.67ZM47.94 42.52a1.5 1.5 0 1 0-.55-2.96 1.5 1.5 0 0 0 .55 2.96ZM48.8 47.26a1.65 1.65 0 1 0-.6-3.26 1.65 1.65 0 0 0 .6 3.26ZM49.65 51.84a1.65 1.65 0 1 0-.6-3.25 1.65 1.65 0 0 0 .6 3.25ZM50.47 56.28a1.5 1.5 0 1 0-.55-2.96 1.5 1.5 0 0 0 .55 2.96ZM51.28 60.72a1.36 1.36 0 1 0-.49-2.67 1.36 1.36 0 0 0 .5 2.67ZM52.1 65.16a1.2 1.2 0 1 0-.44-2.37 1.2 1.2 0 0 0 .44 2.37ZM52.92 69.6a1.06 1.06 0 1 0-.39-2.08 1.06 1.06 0 0 0 .39 2.08ZM53.73 74.04a.91.91 0 1 0-.33-1.79.91.91 0 0 0 .33 1.8ZM54.55 78.48a.76.76 0 1 0-.28-1.5.76.76 0 0 0 .28 1.5ZM55.37 82.92a.61.61 0 1 0-.23-1.2.61.61 0 0 0 .23 1.2ZM56.18 87.36a.47.47 0 1 0-.17-.91.47.47 0 0 0 .17.91ZM57 91.8a.32.32 0 1 0-.12-.62.32.32 0 0 0 .12.62ZM45.56 3.81a.3.3 0 1 0-.11-.6.3.3 0 0 0 .1.6ZM46.43 8.53a.44.44 0 1 0-.16-.86.44.44 0 0 0 .16.86ZM47.3 13.25a.57.57 0 1 0-.21-1.13.57.57 0 0 0 .2 1.13ZM48.16 17.96a.7.7 0 1 0-.25-1.38.7.7 0 0 0 .25 1.38ZM49.03 22.68a.84.84 0 1 0-.3-1.65.84.84 0 0 0 .3 1.65ZM49.9 27.4a.97.97 0 1 0-.36-1.91.97.97 0 0 0 .36 1.9ZM50.76 32.11a1.1 1.1 0 1 0-.4-2.17 1.1 1.1 0 0 0 .4 2.17ZM51.63 36.83a1.24 1.24 0 1 0-.45-2.43 1.24 1.24 0 0 0 .45 2.43ZM52.5 41.55a1.37 1.37 0 1 0-.5-2.7 1.37 1.37 0 0 0 .5 2.7ZM53.37 46.27a1.5 1.5 0 1 0-.55-2.96 1.5 1.5 0 0 0 .55 2.96ZM54.21 50.85a1.5 1.5 0 1 0-.54-2.96 1.5 1.5 0 0 0 .54 2.96ZM55.03 55.3a1.37 1.37 0 1 0-.5-2.7 1.37 1.37 0 0 0 .5 2.7ZM55.85 59.76a1.24 1.24 0 1 0-.45-2.43 1.24 1.24 0 0 0 .45 2.43ZM56.67 64.22a1.1 1.1 0 1 0-.4-2.17 1.1 1.1 0 0 0 .4 2.17ZM57.49 68.67a.97.97 0 1 0-.35-1.9.97.97 0 0 0 .35 1.9ZM58.3 73.13a.84.84 0 1 0-.3-1.65.84.84 0 0 0 .3 1.65ZM59.13 77.58a.7.7 0 1 0-.26-1.38.7.7 0 0 0 .26 1.38ZM59.95 82.04a.57.57 0 1 0-.21-1.13.57.57 0 0 0 .2 1.13ZM60.76 86.5a.44.44 0 1 0-.15-.87.44.44 0 0 0 .15.86ZM61.58 90.95a.3.3 0 1 0-.1-.6.3.3 0 0 0 .1.6ZM50.14 2.95a.29.29 0 1 0-.1-.57.29.29 0 0 0 .1.57ZM51 7.65a.4.4 0 1 0-.14-.8.4.4 0 0 0 .15.8ZM51.87 12.36a.53.53 0 1 0-.19-1.04.53.53 0 0 0 .2 1.04ZM52.74 17.06a.64.64 0 1 0-.24-1.27.64.64 0 0 0 .24 1.27ZM53.6 21.76a.76.76 0 1 0-.27-1.5.76.76 0 0 0 .27 1.5ZM54.47 26.46a.88.88 0 1 0-.32-1.73.88.88 0 0 0 .32 1.73ZM55.33 31.17a1 1 0 1 0-.36-1.97 1 1 0 0 0 .36 1.97ZM56.2 35.87a1.12 1.12 0 1 0-.4-2.2 1.12 1.12 0 0 0 .4 2.2ZM57.06 40.57a1.24 1.24 0 1 0-.45-2.43 1.24 1.24 0 0 0 .45 2.43ZM57.93 45.28a1.36 1.36 0 1 0-.5-2.67 1.36 1.36 0 0 0 .5 2.67ZM58.77 49.86a1.36 1.36 0 1 0-.5-2.67 1.36 1.36 0 0 0 .5 2.67ZM59.6 54.33a1.24 1.24 0 1 0-.46-2.43 1.24 1.24 0 0 0 .45 2.43ZM60.41 58.8a1.12 1.12 0 1 0-.4-2.2 1.12 1.12 0 0 0 .4 2.2ZM61.24 63.27a1 1 0 1 0-.37-1.97 1 1 0 0 0 .37 1.97ZM62.06 67.74a.88.88 0 1 0-.32-1.73.88.88 0 0 0 .32 1.73ZM62.88 72.21a.76.76 0 1 0-.28-1.5.76.76 0 0 0 .28 1.5ZM63.7 76.68a.64.64 0 1 0-.23-1.27.64.64 0 0 0 .23 1.27ZM64.52 81.15a.53.53 0 1 0-.19-1.03.53.53 0 0 0 .2 1.03ZM65.34 85.62a.4.4 0 1 0-.14-.8.4.4 0 0 0 .14.8ZM66.17 90.09a.29.29 0 1 0-.1-.57.29.29 0 0 0 .1.57ZM55.59 6.78a.38.38 0 1 0-.14-.74.38.38 0 0 0 .14.74ZM56.45 11.47a.48.48 0 1 0-.17-.95.48.48 0 0 0 .17.95ZM57.31 16.16A.59.59 0 1 0 57.1 15a.59.59 0 0 0 .21 1.15ZM58.17 20.85a.7.7 0 1 0-.25-1.36.7.7 0 0 0 .25 1.36ZM59.04 25.53a.8.8 0 1 0-.29-1.56.8.8 0 0 0 .29 1.56ZM59.9 30.22a.9.9 0 1 0-.33-1.76.9.9 0 0 0 .33 1.76ZM60.76 34.91a1 1 0 1 0-.36-1.97 1 1 0 0 0 .36 1.97ZM61.62 39.6a1.1 1.1 0 1 0-.4-2.18 1.1 1.1 0 0 0 .4 2.18ZM62.49 44.29a1.2 1.2 0 1 0-.44-2.38 1.2 1.2 0 0 0 .44 2.38ZM63.33 48.87a1.2 1.2 0 1 0-.44-2.37 1.2 1.2 0 0 0 .44 2.37ZM64.15 53.36a1.1 1.1 0 1 0-.4-2.18 1.1 1.1 0 0 0 .4 2.18ZM64.98 57.84a1 1 0 1 0-.36-1.97 1 1 0 0 0 .36 1.97ZM65.8 62.32a.9.9 0 1 0-.32-1.76.9.9 0 0 0 .32 1.76ZM66.63 66.81a.8.8 0 1 0-.29-1.56.8.8 0 0 0 .29 1.56ZM67.45 71.3a.7.7 0 1 0-.25-1.36.7.7 0 0 0 .25 1.36ZM68.28 75.78a.59.59 0 1 0-.21-1.15.59.59 0 0 0 .2 1.15ZM69.1 80.26a.48.48 0 1 0-.17-.94.48.48 0 0 0 .17.94ZM69.93 84.75a.38.38 0 1 0-.14-.75.38.38 0 0 0 .14.75ZM60.17 5.9a.35.35 0 1 0-.13-.68.35.35 0 0 0 .13.69ZM61.03 10.58a.44.44 0 1 0-.16-.86.44.44 0 0 0 .16.86ZM61.89 15.26a.53.53 0 1 0-.2-1.04.53.53 0 0 0 .2 1.04ZM62.75 19.93a.61.61 0 1 0-.23-1.21.61.61 0 0 0 .23 1.2ZM63.6 24.6a.7.7 0 1 0-.25-1.38.7.7 0 0 0 .26 1.38ZM64.47 29.28a.8.8 0 1 0-.29-1.56.8.8 0 0 0 .29 1.56ZM65.33 33.95a.88.88 0 1 0-.32-1.73.88.88 0 0 0 .32 1.73ZM66.19 38.62a.97.97 0 1 0-.36-1.9.97.97 0 0 0 .36 1.9ZM67.04 43.3a1.06 1.06 0 1 0-.38-2.09 1.06 1.06 0 0 0 .38 2.09ZM67.89 47.88a1.06 1.06 0 1 0-.39-2.08 1.06 1.06 0 0 0 .39 2.08ZM68.72 52.38a.97.97 0 1 0-.36-1.9.97.97 0 0 0 .36 1.9ZM69.54 56.88a.88.88 0 1 0-.32-1.73.88.88 0 0 0 .32 1.73ZM70.37 61.38a.8.8 0 1 0-.29-1.56.8.8 0 0 0 .29 1.56ZM71.2 65.88a.7.7 0 1 0-.26-1.38.7.7 0 0 0 .26 1.38ZM72.02 70.38a.61.61 0 1 0-.22-1.21.61.61 0 0 0 .22 1.2ZM72.85 74.88a.53.53 0 1 0-.19-1.04.53.53 0 0 0 .2 1.04ZM73.68 79.38a.44.44 0 1 0-.16-.86.44.44 0 0 0 .16.86ZM74.5 83.87a.35.35 0 1 0-.12-.68.35.35 0 0 0 .13.68ZM65.6 9.7a.4.4 0 1 0-.14-.78.4.4 0 0 0 .15.78ZM66.46 14.35a.47.47 0 1 0-.17-.91.47.47 0 0 0 .17.91ZM67.32 19.01a.54.54 0 1 0-.2-1.06.54.54 0 0 0 .2 1.06ZM68.18 23.67a.61.61 0 1 0-.23-1.2.61.61 0 0 0 .23 1.2ZM69.03 28.33a.7.7 0 1 0-.25-1.36.7.7 0 0 0 .25 1.36ZM69.89 32.99a.76.76 0 1 0-.28-1.5.76.76 0 0 0 .28 1.5ZM70.75 37.65a.84.84 0 1 0-.3-1.65.84.84 0 0 0 .3 1.65ZM71.6 42.3a.91.91 0 1 0-.33-1.78.91.91 0 0 0 .33 1.79ZM72.45 46.9a.91.91 0 1 0-.33-1.8.91.91 0 0 0 .33 1.8ZM73.28 51.41a.84.84 0 1 0-.3-1.65.84.84 0 0 0 .3 1.65ZM74.1 55.92a.76.76 0 1 0-.27-1.5.76.76 0 0 0 .28 1.5ZM74.94 60.44a.7.7 0 1 0-.25-1.36.7.7 0 0 0 .25 1.36ZM75.77 64.95a.61.61 0 1 0-.22-1.21.61.61 0 0 0 .22 1.2ZM76.6 69.46a.54.54 0 1 0-.2-1.06.54.54 0 0 0 .2 1.06ZM77.43 73.97a.47.47 0 1 0-.17-.91.47.47 0 0 0 .17.91ZM78.26 78.49a.4.4 0 1 0-.14-.78.4.4 0 0 0 .14.78ZM70.18 8.8a.35.35 0 1 0-.12-.68.35.35 0 0 0 .12.69ZM71.04 13.45a.4.4 0 1 0-.15-.8.4.4 0 0 0 .15.8ZM71.9 18.1a.47.47 0 1 0-.18-.92.47.47 0 0 0 .17.92ZM72.75 22.74a.53.53 0 1 0-.2-1.03.53.53 0 0 0 .2 1.03ZM73.6 27.39a.59.59 0 1 0-.21-1.16.59.59 0 0 0 .21 1.16ZM74.46 32.03a.64.64 0 1 0-.24-1.27.64.64 0 0 0 .24 1.27ZM75.31 36.67a.7.7 0 1 0-.26-1.38.7.7 0 0 0 .26 1.38ZM76.16 41.32a.76.76 0 1 0-.27-1.5.76.76 0 0 0 .27 1.5ZM77 45.9a.76.76 0 1 0-.27-1.5.76.76 0 0 0 .28 1.5ZM77.84 50.43a.7.7 0 1 0-.25-1.38.7.7 0 0 0 .25 1.38ZM78.67 54.96a.64.64 0 1 0-.23-1.27.64.64 0 0 0 .23 1.27ZM79.5 59.49a.59.59 0 1 0-.2-1.15.59.59 0 0 0 .2 1.15ZM80.34 64.02a.53.53 0 1 0-.2-1.04.53.53 0 0 0 .2 1.04ZM81.17 68.55a.47.47 0 1 0-.17-.92.47.47 0 0 0 .17.92ZM82 73.07a.4.4 0 1 0-.14-.8.4.4 0 0 0 .14.8ZM82.84 77.6a.35.35 0 1 0-.13-.68.35.35 0 0 0 .13.68ZM75.61 12.55a.35.35 0 1 0-.12-.68.35.35 0 0 0 .12.68ZM76.47 17.18a.4.4 0 1 0-.15-.77.4.4 0 0 0 .15.77ZM77.32 21.81a.44.44 0 1 0-.16-.86.44.44 0 0 0 .16.86ZM78.17 26.44a.48.48 0 1 0-.18-.94.48.48 0 0 0 .18.94ZM79.02 31.07a.53.53 0 1 0-.19-1.03.53.53 0 0 0 .19 1.03ZM79.87 35.7a.57.57 0 1 0-.2-1.12.57.57 0 0 0 .2 1.12ZM80.72 40.33a.61.61 0 1 0-.22-1.2.61.61 0 0 0 .22 1.2ZM81.57 44.92a.61.61 0 1 0-.23-1.21.61.61 0 0 0 .23 1.2ZM82.4 49.46a.57.57 0 1 0-.2-1.12.57.57 0 0 0 .2 1.12ZM83.24 54a.53.53 0 1 0-.2-1.03.53.53 0 0 0 .2 1.03ZM84.07 58.54a.48.48 0 1 0-.17-.94.48.48 0 0 0 .17.94ZM84.9 63.09a.44.44 0 1 0-.15-.86.44.44 0 0 0 .16.86ZM85.74 67.63a.4.4 0 1 0-.14-.77.4.4 0 0 0 .14.77ZM86.58 72.17a.35.35 0 1 0-.13-.68.35.35 0 0 0 .13.68ZM81.89 20.88a.35.35 0 1 0-.13-.68.35.35 0 0 0 .13.68ZM82.74 25.5a.38.38 0 1 0-.14-.75.38.38 0 0 0 .14.74ZM83.58 30.11a.4.4 0 1 0-.14-.8.4.4 0 0 0 .14.8ZM84.43 34.73a.44.44 0 1 0-.15-.86.44.44 0 0 0 .15.86ZM85.28 39.34a.47.47 0 1 0-.17-.92.47.47 0 0 0 .17.92ZM86.13 43.93a.47.47 0 1 0-.17-.92.47.47 0 0 0 .17.92ZM86.96 48.48a.44.44 0 1 0-.15-.85.44.44 0 0 0 .15.85ZM87.8 53.04a.4.4 0 1 0-.15-.8.4.4 0 0 0 .15.8ZM88.64 57.6a.38.38 0 1 0-.14-.74.38.38 0 0 0 .14.74ZM89.48 62.16a.35.35 0 1 0-.13-.69.35.35 0 0 0 .13.69ZM88.15 29.15a.29.29 0 1 0-.1-.57.29.29 0 0 0 .1.57ZM89 33.75a.3.3 0 1 0-.11-.6.3.3 0 0 0 .1.6ZM89.84 38.35a.32.32 0 1 0-.11-.62.32.32 0 0 0 .11.62ZM90.69 42.94a.32.32 0 1 0-.12-.63.32.32 0 0 0 .12.63ZM91.53 47.51a.3.3 0 1 0-.11-.6.3.3 0 0 0 .1.6ZM92.37 52.08a.29.29 0 1 0-.1-.57.29.29 0 0 0 .1.57Z"/></g><defs><clipPath id="a"><path fill="#fff" d="M.15 0h93.02v95H.15z"/></clipPath></defs></svg>