<svg xmlns="http://www.w3.org/2000/svg" width="94" height="95" fill="none"><g fill="#0051FF" clip-path="url(#a)"><path d="M7.15 70.78a.29.29 0 1 0-.41-.4.29.29 0 0 0 .4.4ZM10.46 74.1a.3.3 0 1 0-.44-.44.3.3 0 0 0 .44.43ZM13.76 77.4a.32.32 0 1 0-.45-.45.32.32 0 0 0 .45.45ZM17.06 80.7a.32.32 0 1 0-.45-.45.32.32 0 0 0 .45.45ZM20.35 83.99a.3.3 0 1 0-.43-.44.3.3 0 0 0 .43.44ZM23.63 87.27a.29.29 0 1 0-.4-.4.29.29 0 0 0 .4.4ZM3.9 60.93a.35.35 0 1 0-.5-.49.35.35 0 0 0 .5.5ZM7.21 64.25a.38.38 0 1 0-.53-.53.38.38 0 0 0 .53.53ZM10.53 67.57a.4.4 0 1 0-.58-.57.4.4 0 0 0 .58.57ZM13.85 70.89a.44.44 0 1 0-.62-.62.44.44 0 0 0 .62.62ZM17.17 74.2a.47.47 0 1 0-.66-.65.47.47 0 0 0 .66.66ZM20.46 77.5a.47.47 0 1 0-.66-.65.47.47 0 0 0 .66.66ZM23.74 80.78a.44.44 0 1 0-.62-.62.44.44 0 0 0 .62.62ZM27.02 84.06a.4.4 0 1 0-.58-.58.4.4 0 0 0 .58.58ZM30.3 87.33a.38.38 0 1 0-.54-.53.38.38 0 0 0 .53.53ZM33.57 90.61a.35.35 0 1 0-.5-.5.35.35 0 0 0 .5.5ZM.6 51.04a.35.35 0 1 0-.5-.49.35.35 0 0 0 .5.5ZM3.92 54.37a.4.4 0 1 0-.55-.55.4.4 0 0 0 .55.55ZM7.25 57.7a.44.44 0 1 0-.62-.62.44.44 0 0 0 .62.62ZM10.58 61.03a.48.48 0 1 0-.68-.68.48.48 0 0 0 .68.68ZM13.91 64.36a.53.53 0 1 0-.74-.75.53.53 0 0 0 .74.75ZM17.24 67.69a.57.57 0 1 0-.8-.81.57.57 0 0 0 .8.8ZM20.57 71.02a.61.61 0 1 0-.87-.87.61.61 0 0 0 .87.87ZM23.86 74.31a.61.61 0 1 0-.87-.87.61.61 0 0 0 .87.87ZM27.13 77.58a.57.57 0 1 0-.8-.8.57.57 0 0 0 .8.8ZM30.4 80.84a.53.53 0 1 0-.75-.74.53.53 0 0 0 .75.74ZM33.66 84.1a.48.48 0 1 0-.68-.67.48.48 0 0 0 .68.68ZM36.93 87.38a.44.44 0 1 0-.62-.62.44.44 0 0 0 .62.62ZM40.2 90.64a.4.4 0 1 0-.56-.55.4.4 0 0 0 .56.55ZM43.46 93.9a.35.35 0 1 0-.5-.48.35.35 0 0 0 .5.49ZM.6 44.45a.35.35 0 1 0-.5-.5.35.35 0 0 0 .5.5ZM3.93 47.79a.4.4 0 1 0-.57-.58.4.4 0 0 0 .57.58ZM7.27 51.13a.47.47 0 1 0-.66-.66.47.47 0 0 0 .66.66ZM10.61 54.47a.53.53 0 1 0-.74-.75.53.53 0 0 0 .74.75ZM13.95 57.8a.58.58 0 1 0-.83-.82.58.58 0 0 0 .83.83ZM17.3 61.14a.64.64 0 1 0-.92-.9.64.64 0 0 0 .91.9ZM20.63 64.48a.7.7 0 1 0-1-1 .7.7 0 0 0 1 1ZM23.97 67.82a.76.76 0 1 0-1.08-1.08.76.76 0 0 0 1.08 1.08ZM27.27 71.12a.76.76 0 1 0-1.08-1.08.76.76 0 0 0 1.08 1.08ZM30.52 74.38a.7.7 0 1 0-1-1 .7.7 0 0 0 1 1ZM33.78 77.63a.64.64 0 1 0-.91-.91.64.64 0 0 0 .9.91ZM37.03 80.89a.59.59 0 1 0-.82-.83.59.59 0 0 0 .82.83ZM40.29 84.14a.53.53 0 1 0-.75-.74.53.53 0 0 0 .75.74ZM43.54 87.4a.47.47 0 1 0-.66-.66.47.47 0 0 0 .66.66ZM46.8 90.65a.4.4 0 1 0-.58-.57.4.4 0 0 0 .58.57ZM50.05 93.9a.35.35 0 1 0-.49-.48.35.35 0 0 0 .5.49ZM3.92 41.18a.4.4 0 1 0-.55-.55.4.4 0 0 0 .55.55ZM7.27 44.53a.47.47 0 1 0-.66-.66.47.47 0 0 0 .66.66ZM10.62 47.88a.54.54 0 1 0-.76-.76.54.54 0 0 0 .76.76ZM13.97 51.23a.61.61 0 1 0-.87-.87.61.61 0 0 0 .87.87ZM17.32 54.58a.7.7 0 1 0-.97-.97.7.7 0 0 0 .97.97ZM20.67 57.93a.76.76 0 1 0-1.08-1.08.76.76 0 0 0 1.08 1.08ZM24.02 61.28a.84.84 0 1 0-1.18-1.18.84.84 0 0 0 1.18 1.18ZM27.37 64.63a.91.91 0 1 0-1.29-1.29.91.91 0 0 0 1.3 1.3ZM30.67 67.93a.91.91 0 1 0-1.29-1.3.91.91 0 0 0 1.29 1.3ZM33.92 71.17a.84.84 0 1 0-1.2-1.18.84.84 0 0 0 1.2 1.18ZM37.16 74.42a.76.76 0 1 0-1.08-1.08.76.76 0 0 0 1.08 1.08ZM40.4 77.66a.7.7 0 1 0-.97-.97.7.7 0 0 0 .98.97ZM43.65 80.9a.61.61 0 1 0-.87-.86.61.61 0 0 0 .87.87ZM46.9 84.15a.54.54 0 1 0-.77-.76.54.54 0 0 0 .76.76ZM50.14 87.4a.47.47 0 1 0-.66-.66.47.47 0 0 0 .66.66ZM53.39 90.64a.4.4 0 1 0-.56-.55.4.4 0 0 0 .56.55ZM3.9 34.56a.35.35 0 1 0-.5-.5.35.35 0 0 0 .5.5ZM7.25 37.92a.44.44 0 1 0-.62-.62.44.44 0 0 0 .62.62ZM10.61 41.28a.53.53 0 1 0-.74-.75.53.53 0 0 0 .74.75ZM13.97 44.64a.61.61 0 1 0-.87-.87.61.61 0 0 0 .87.87ZM17.33 48a.7.7 0 1 0-1-1 .7.7 0 0 0 1 1ZM20.7 51.36a.8.8 0 1 0-1.13-1.12.8.8 0 0 0 1.12 1.12ZM24.05 54.72a.88.88 0 1 0-1.24-1.25.88.88 0 0 0 1.24 1.25ZM27.41 58.08a.97.97 0 1 0-1.37-1.37.97.97 0 0 0 1.37 1.37ZM30.77 61.44a1.06 1.06 0 1 0-1.5-1.5 1.06 1.06 0 0 0 1.5 1.5ZM34.07 64.74a1.06 1.06 0 1 0-1.5-1.5 1.06 1.06 0 0 0 1.5 1.5ZM37.3 67.97a.97.97 0 1 0-1.37-1.37.97.97 0 0 0 1.38 1.37ZM40.54 71.2a.88.88 0 1 0-1.25-1.24.88.88 0 0 0 1.25 1.24ZM43.77 74.44a.8.8 0 1 0-1.12-1.12.8.8 0 0 0 1.12 1.12ZM47 77.67a.7.7 0 1 0-.99-1 .7.7 0 0 0 1 1ZM50.24 80.9a.61.61 0 1 0-.87-.86.61.61 0 0 0 .87.87ZM53.48 84.14a.53.53 0 1 0-.75-.74.53.53 0 0 0 .75.74ZM56.71 87.38a.44.44 0 1 0-.62-.62.44.44 0 0 0 .62.62ZM59.95 90.61a.35.35 0 1 0-.5-.5.35.35 0 0 0 .5.5ZM7.21 31.28a.38.38 0 1 0-.53-.53.38.38 0 0 0 .53.53ZM10.58 34.65a.48.48 0 1 0-.68-.68.48.48 0 0 0 .68.68ZM13.95 38.02a.58.58 0 1 0-.83-.83.58.58 0 0 0 .83.83ZM17.32 41.4a.7.7 0 1 0-.97-.98.7.7 0 0 0 .97.97ZM20.7 44.76a.8.8 0 1 0-1.13-1.12.8.8 0 0 0 1.12 1.12ZM24.06 48.13a.9.9 0 1 0-1.26-1.26.9.9 0 0 0 1.26 1.26ZM27.43 51.5a1 1 0 1 0-1.41-1.41 1 1 0 0 0 1.41 1.41ZM30.8 54.88a1.1 1.1 0 1 0-1.56-1.57 1.1 1.1 0 0 0 1.57 1.57ZM34.18 58.25a1.2 1.2 0 1 0-1.71-1.71 1.2 1.2 0 0 0 1.7 1.7ZM37.47 61.54a1.2 1.2 0 1 0-1.7-1.7 1.2 1.2 0 0 0 1.7 1.7ZM40.7 64.77a1.1 1.1 0 1 0-1.57-1.57 1.1 1.1 0 0 0 1.57 1.57ZM43.92 68a1 1 0 1 0-1.41-1.42 1 1 0 0 0 1.41 1.41ZM47.14 71.21a.9.9 0 1 0-1.26-1.26.9.9 0 0 0 1.26 1.26ZM50.37 74.44a.8.8 0 1 0-1.12-1.12.8.8 0 0 0 1.12 1.12ZM53.6 77.66a.7.7 0 1 0-.98-.97.7.7 0 0 0 .98.97ZM56.82 80.89a.59.59 0 1 0-.83-.83.59.59 0 0 0 .83.83ZM60.04 84.1a.48.48 0 1 0-.68-.67.48.48 0 0 0 .68.68ZM63.27 87.33a.38.38 0 1 0-.54-.53.38.38 0 0 0 .54.53ZM7.15 24.62a.29.29 0 1 0-.41-.4.29.29 0 0 0 .4.4ZM10.53 28a.4.4 0 1 0-.58-.57.4.4 0 0 0 .58.57ZM13.91 31.38a.53.53 0 1 0-.74-.74.53.53 0 0 0 .74.74ZM17.3 34.77a.64.64 0 1 0-.92-.92.64.64 0 0 0 .91.92ZM20.67 38.15a.76.76 0 1 0-1.08-1.08.76.76 0 0 0 1.08 1.08ZM24.05 41.53a.88.88 0 1 0-1.24-1.25.88.88 0 0 0 1.24 1.25ZM27.43 44.91a1 1 0 1 0-1.41-1.42 1 1 0 0 0 1.41 1.42ZM30.82 48.3a1.12 1.12 0 1 0-1.59-1.6 1.12 1.12 0 0 0 1.59 1.6ZM34.2 51.67a1.24 1.24 0 1 0-1.75-1.75 1.24 1.24 0 0 0 1.75 1.75ZM37.58 55.05a1.36 1.36 0 1 0-1.92-1.91 1.36 1.36 0 0 0 1.92 1.91ZM40.88 58.35a1.36 1.36 0 1 0-1.92-1.92 1.36 1.36 0 0 0 1.92 1.92ZM44.09 61.56a1.24 1.24 0 1 0-1.75-1.75 1.24 1.24 0 0 0 1.75 1.75ZM47.3 64.78a1.12 1.12 0 1 0-1.58-1.59 1.12 1.12 0 0 0 1.58 1.59ZM50.52 68a1 1 0 1 0-1.42-1.42 1 1 0 0 0 1.42 1.41ZM53.73 71.2a.88.88 0 1 0-1.25-1.24.88.88 0 0 0 1.25 1.24ZM56.94 74.42a.76.76 0 1 0-1.08-1.08.76.76 0 0 0 1.08 1.08ZM60.16 77.63a.64.64 0 1 0-.91-.91.64.64 0 0 0 .9.91ZM63.37 80.84a.53.53 0 1 0-.74-.74.53.53 0 0 0 .74.74ZM66.58 84.06a.4.4 0 1 0-.57-.58.4.4 0 0 0 .57.58ZM69.8 87.27a.29.29 0 1 0-.41-.4.29.29 0 0 0 .4.4ZM10.46 21.34a.3.3 0 1 0-.44-.43.3.3 0 0 0 .44.43ZM13.85 24.73a.44.44 0 1 0-.62-.62.44.44 0 0 0 .62.62ZM17.24 28.12a.57.57 0 1 0-.8-.8.57.57 0 0 0 .8.8ZM20.63 31.51a.7.7 0 1 0-1-1 .7.7 0 0 0 1 1ZM24.02 34.9a.84.84 0 1 0-1.18-1.18.84.84 0 0 0 1.18 1.18ZM27.41 38.3a.97.97 0 1 0-1.37-1.38.97.97 0 0 0 1.37 1.37ZM30.8 41.68a1.1 1.1 0 1 0-1.55-1.55 1.1 1.1 0 0 0 1.55 1.55ZM34.2 45.08a1.24 1.24 0 1 0-1.75-1.75 1.24 1.24 0 0 0 1.75 1.75ZM37.6 48.47a1.37 1.37 0 1 0-1.95-1.94 1.37 1.37 0 0 0 1.94 1.94ZM40.98 51.86a1.5 1.5 0 1 0-2.13-2.13 1.5 1.5 0 0 0 2.13 2.13ZM44.28 55.16a1.5 1.5 0 1 0-2.13-2.13 1.5 1.5 0 0 0 2.13 2.13ZM47.48 58.36a1.37 1.37 0 1 0-1.94-1.94 1.37 1.37 0 0 0 1.94 1.94ZM50.68 61.56a1.24 1.24 0 1 0-1.75-1.75 1.24 1.24 0 0 0 1.75 1.75ZM53.89 64.77a1.1 1.1 0 1 0-1.56-1.56 1.1 1.1 0 0 0 1.56 1.56ZM57.09 67.97a.97.97 0 1 0-1.37-1.37.97.97 0 0 0 1.37 1.37ZM60.3 71.17A.84.84 0 1 0 59.1 70a.84.84 0 0 0 1.2 1.18ZM63.5 74.38a.7.7 0 1 0-1-1 .7.7 0 0 0 1 1ZM66.7 77.58a.57.57 0 1 0-.8-.8.57.57 0 0 0 .8.8ZM69.9 80.78a.44.44 0 1 0-.62-.62.44.44 0 0 0 .62.62ZM73.1 83.99a.3.3 0 1 0-.43-.44.3.3 0 0 0 .44.44ZM13.76 18.05a.32.32 0 1 0-.45-.45.32.32 0 0 0 .45.45ZM17.17 21.45a.47.47 0 1 0-.66-.66.47.47 0 0 0 .66.66ZM20.57 24.85a.61.61 0 1 0-.87-.87.61.61 0 0 0 .87.87ZM23.97 28.26a.76.76 0 1 0-1.08-1.08.76.76 0 0 0 1.08 1.08ZM27.37 31.66a.91.91 0 1 0-1.29-1.3.91.91 0 0 0 1.3 1.3ZM30.77 35.06a1.06 1.06 0 1 0-1.5-1.5 1.06 1.06 0 0 0 1.5 1.5ZM34.18 38.46a1.2 1.2 0 1 0-1.71-1.7 1.2 1.2 0 0 0 1.7 1.7ZM37.58 41.86a1.36 1.36 0 1 0-1.92-1.91 1.36 1.36 0 0 0 1.92 1.91ZM40.98 45.27a1.5 1.5 0 1 0-2.13-2.13 1.5 1.5 0 0 0 2.13 2.13ZM44.38 48.67a1.65 1.65 0 1 0-2.33-2.34 1.65 1.65 0 0 0 2.33 2.34ZM47.68 51.97a1.65 1.65 0 1 0-2.34-2.34 1.65 1.65 0 0 0 2.34 2.34ZM50.87 55.16a1.5 1.5 0 1 0-2.13-2.13 1.5 1.5 0 0 0 2.13 2.13ZM54.07 58.35a1.36 1.36 0 1 0-1.92-1.92 1.36 1.36 0 0 0 1.92 1.92ZM57.26 61.54a1.2 1.2 0 1 0-1.71-1.7 1.2 1.2 0 0 0 1.7 1.7ZM60.45 64.74a1.06 1.06 0 1 0-1.5-1.5 1.06 1.06 0 0 0 1.5 1.5ZM63.64 67.93a.91.91 0 1 0-1.29-1.3.91.91 0 0 0 1.3 1.3ZM66.84 71.12a.76.76 0 1 0-1.08-1.08.76.76 0 0 0 1.08 1.08ZM70.03 74.31a.61.61 0 1 0-.87-.87.61.61 0 0 0 .87.87ZM73.22 77.5a.47.47 0 1 0-.66-.65.47.47 0 0 0 .66.66ZM76.41 80.7a.32.32 0 1 0-.45-.45.32.32 0 0 0 .45.45ZM17.06 14.75a.32.32 0 1 0-.45-.45.32.32 0 0 0 .45.45ZM20.46 18.15a.47.47 0 1 0-.66-.66.47.47 0 0 0 .66.66ZM23.86 21.56a.61.61 0 1 0-.86-.87.61.61 0 0 0 .86.87ZM27.27 24.96a.76.76 0 1 0-1.08-1.08.76.76 0 0 0 1.08 1.08ZM30.67 28.36a.91.91 0 1 0-1.29-1.29.91.91 0 0 0 1.29 1.29ZM34.07 31.76a1.06 1.06 0 1 0-1.5-1.5 1.06 1.06 0 0 0 1.5 1.5ZM37.47 35.16a1.2 1.2 0 1 0-1.7-1.7 1.2 1.2 0 0 0 1.7 1.7ZM40.88 38.57a1.36 1.36 0 1 0-1.92-1.92 1.36 1.36 0 0 0 1.92 1.92ZM44.28 41.97a1.5 1.5 0 1 0-2.13-2.13 1.5 1.5 0 0 0 2.13 2.13ZM47.68 45.37a1.65 1.65 0 1 0-2.34-2.34 1.65 1.65 0 0 0 2.34 2.34ZM50.98 48.67a1.65 1.65 0 1 0-2.34-2.34 1.65 1.65 0 0 0 2.34 2.34ZM54.17 51.86a1.5 1.5 0 1 0-2.13-2.13 1.5 1.5 0 0 0 2.13 2.13ZM57.36 55.05a1.36 1.36 0 1 0-1.92-1.91 1.36 1.36 0 0 0 1.92 1.91ZM60.56 58.25a1.2 1.2 0 1 0-1.71-1.71 1.2 1.2 0 0 0 1.7 1.7ZM63.75 61.44a1.06 1.06 0 1 0-1.5-1.5 1.06 1.06 0 0 0 1.5 1.5ZM66.94 64.63a.91.91 0 1 0-1.29-1.29.91.91 0 0 0 1.29 1.3ZM70.13 67.82a.76.76 0 1 0-1.08-1.08.76.76 0 0 0 1.08 1.08ZM73.33 71.02a.61.61 0 1 0-.87-.87.61.61 0 0 0 .87.87ZM76.52 74.2a.47.47 0 1 0-.66-.65.47.47 0 0 0 .66.66ZM79.71 77.4a.32.32 0 1 0-.45-.45.32.32 0 0 0 .45.45ZM20.35 11.44a.3.3 0 1 0-.43-.43.3.3 0 0 0 .43.43ZM23.74 14.83a.44.44 0 1 0-.62-.61.44.44 0 0 0 .62.61ZM27.13 18.23a.57.57 0 1 0-.8-.81.57.57 0 0 0 .8.8ZM30.52 21.62a.7.7 0 1 0-1-1 .7.7 0 0 0 1 1ZM33.92 25.01a.84.84 0 1 0-1.2-1.19.84.84 0 0 0 1.2 1.2ZM37.3 28.4a.97.97 0 1 0-1.37-1.37.97.97 0 0 0 1.38 1.37ZM40.7 31.8a1.1 1.1 0 1 0-1.56-1.57 1.1 1.1 0 0 0 1.56 1.56ZM44.09 35.19a1.24 1.24 0 1 0-1.75-1.76 1.24 1.24 0 0 0 1.75 1.76ZM47.48 38.58a1.37 1.37 0 1 0-1.94-1.94 1.37 1.37 0 0 0 1.94 1.94ZM50.87 41.97a1.5 1.5 0 1 0-2.13-2.13 1.5 1.5 0 0 0 2.13 2.13ZM54.17 45.27a1.5 1.5 0 1 0-2.13-2.13 1.5 1.5 0 0 0 2.13 2.13ZM57.38 48.47a1.37 1.37 0 1 0-1.95-1.94 1.37 1.37 0 0 0 1.95 1.94ZM60.58 51.67a1.24 1.24 0 1 0-1.75-1.75 1.24 1.24 0 0 0 1.75 1.75ZM63.78 54.87a1.1 1.1 0 1 0-1.56-1.56 1.1 1.1 0 0 0 1.56 1.56ZM66.98 58.08a.97.97 0 1 0-1.37-1.37.97.97 0 0 0 1.37 1.37ZM70.19 61.28a.84.84 0 1 0-1.2-1.18.84.84 0 0 0 1.2 1.18ZM73.39 64.48a.7.7 0 1 0-1-1 .7.7 0 0 0 1 1ZM76.6 67.69a.57.57 0 1 0-.82-.81.57.57 0 0 0 .81.8ZM79.8 70.89a.44.44 0 1 0-.62-.62.44.44 0 0 0 .61.62ZM83 74.1a.3.3 0 1 0-.43-.44.3.3 0 0 0 .43.43ZM23.63 8.14a.29.29 0 1 0-.4-.41.29.29 0 0 0 .4.4ZM27.02 11.52a.4.4 0 1 0-.58-.58.4.4 0 0 0 .58.58ZM30.4 14.9a.53.53 0 1 0-.75-.75.53.53 0 0 0 .75.75ZM33.78 18.28a.64.64 0 1 0-.91-.91.64.64 0 0 0 .9.9ZM37.16 21.66a.76.76 0 1 0-1.08-1.08.76.76 0 0 0 1.08 1.08ZM40.54 25.04a.88.88 0 1 0-1.25-1.25.88.88 0 0 0 1.25 1.25ZM43.92 28.42a1 1 0 1 0-1.41-1.41 1 1 0 0 0 1.41 1.41ZM47.3 31.8a1.12 1.12 0 1 0-1.58-1.58 1.12 1.12 0 0 0 1.58 1.58ZM50.68 35.19a1.24 1.24 0 1 0-1.75-1.76 1.24 1.24 0 0 0 1.75 1.76ZM54.07 38.57a1.36 1.36 0 1 0-1.92-1.92 1.36 1.36 0 0 0 1.92 1.92ZM57.36 41.86a1.36 1.36 0 1 0-1.92-1.91 1.36 1.36 0 0 0 1.92 1.91ZM60.58 45.08a1.24 1.24 0 1 0-1.75-1.75 1.24 1.24 0 0 0 1.75 1.75ZM63.79 48.3a1.12 1.12 0 1 0-1.58-1.6 1.12 1.12 0 0 0 1.58 1.6ZM67 51.5a1 1 0 1 0-1.41-1.41A1 1 0 0 0 67 51.5ZM70.22 54.72a.88.88 0 1 0-1.25-1.25.88.88 0 0 0 1.25 1.25ZM73.43 57.93a.76.76 0 1 0-1.08-1.08.76.76 0 0 0 1.08 1.08ZM76.64 61.14a.64.64 0 1 0-.9-.9.64.64 0 0 0 .9.9ZM79.86 64.36a.53.53 0 1 0-.75-.75.53.53 0 0 0 .75.75ZM83.07 67.57a.4.4 0 1 0-.57-.57.4.4 0 0 0 .57.57ZM86.28 70.78a.29.29 0 1 0-.4-.4.29.29 0 0 0 .4.4ZM30.3 8.2a.38.38 0 1 0-.54-.54.38.38 0 0 0 .53.54ZM33.66 11.57a.48.48 0 1 0-.68-.68.48.48 0 0 0 .68.68ZM37.03 14.94a.59.59 0 1 0-.82-.83.59.59 0 0 0 .82.83ZM40.4 18.31a.7.7 0 1 0-.97-.98.7.7 0 0 0 .98.98ZM43.77 21.68a.8.8 0 1 0-1.12-1.12.8.8 0 0 0 1.12 1.12ZM47.14 25.05a.9.9 0 1 0-1.26-1.26.9.9 0 0 0 1.26 1.26ZM50.52 28.42a1 1 0 1 0-1.42-1.41 1 1 0 0 0 1.42 1.41ZM53.89 31.8a1.1 1.1 0 1 0-1.57-1.57 1.1 1.1 0 0 0 1.57 1.57ZM57.26 35.16a1.2 1.2 0 1 0-1.71-1.7 1.2 1.2 0 0 0 1.7 1.7ZM60.56 38.46a1.2 1.2 0 1 0-1.71-1.7 1.2 1.2 0 0 0 1.7 1.7ZM63.78 41.69a1.1 1.1 0 1 0-1.56-1.57 1.1 1.1 0 0 0 1.56 1.57ZM67 44.91a1 1 0 1 0-1.41-1.42A1 1 0 0 0 67 44.91ZM70.23 48.13a.9.9 0 1 0-1.27-1.26.9.9 0 0 0 1.27 1.26ZM73.45 51.36a.8.8 0 1 0-1.12-1.12.8.8 0 0 0 1.12 1.12ZM76.68 54.58a.7.7 0 1 0-.98-.97.7.7 0 0 0 .98.97ZM79.9 57.8a.59.59 0 1 0-.83-.82.59.59 0 0 0 .83.83ZM83.12 61.03a.48.48 0 1 0-.68-.68.48.48 0 0 0 .68.68ZM86.35 64.25a.38.38 0 1 0-.54-.53.38.38 0 0 0 .54.53ZM33.57 4.88a.35.35 0 1 0-.5-.5.35.35 0 0 0 .5.5ZM36.93 8.24a.44.44 0 1 0-.62-.62.44.44 0 0 0 .62.62ZM40.29 11.6a.53.53 0 1 0-.75-.74.53.53 0 0 0 .75.74ZM43.65 14.96a.61.61 0 1 0-.87-.87.61.61 0 0 0 .87.87ZM47 18.32a.7.7 0 1 0-.99-1 .7.7 0 0 0 1 1ZM50.37 21.68a.8.8 0 1 0-1.12-1.12.8.8 0 0 0 1.12 1.12ZM53.73 25.04a.88.88 0 1 0-1.25-1.25.88.88 0 0 0 1.25 1.25ZM57.09 28.4a.97.97 0 1 0-1.37-1.37.97.97 0 0 0 1.37 1.37ZM60.45 31.76a1.06 1.06 0 1 0-1.5-1.5 1.06 1.06 0 0 0 1.5 1.5ZM63.75 35.06a1.06 1.06 0 1 0-1.5-1.5 1.06 1.06 0 0 0 1.5 1.5ZM66.98 38.3a.97.97 0 1 0-1.37-1.38.97.97 0 0 0 1.37 1.37ZM70.22 41.53a.88.88 0 1 0-1.25-1.25.88.88 0 0 0 1.25 1.25ZM73.45 44.76a.8.8 0 1 0-1.12-1.12.8.8 0 0 0 1.12 1.12ZM76.69 48a.7.7 0 1 0-1-1 .7.7 0 0 0 1 1ZM79.92 51.23a.61.61 0 1 0-.87-.87.61.61 0 0 0 .87.87ZM83.15 54.47a.53.53 0 1 0-.74-.75.53.53 0 0 0 .74.75ZM86.39 57.7a.44.44 0 1 0-.62-.62.44.44 0 0 0 .62.62ZM89.62 60.93a.35.35 0 1 0-.49-.49.35.35 0 0 0 .5.5ZM40.2 4.91a.4.4 0 1 0-.56-.55.4.4 0 0 0 .56.55ZM43.54 8.26a.47.47 0 1 0-.66-.66.47.47 0 0 0 .66.66ZM46.9 11.61a.54.54 0 1 0-.77-.76.54.54 0 0 0 .76.76ZM50.24 14.96a.61.61 0 1 0-.87-.87.61.61 0 0 0 .87.87ZM53.6 18.31a.7.7 0 1 0-.98-.98.7.7 0 0 0 .98.98ZM56.94 21.66a.76.76 0 1 0-1.08-1.08.76.76 0 0 0 1.08 1.08ZM60.3 25.01a.84.84 0 1 0-1.2-1.19.84.84 0 0 0 1.2 1.2ZM63.64 28.36a.91.91 0 1 0-1.29-1.29.91.91 0 0 0 1.3 1.29ZM66.94 31.66a.91.91 0 1 0-1.29-1.3.91.91 0 0 0 1.29 1.3ZM70.19 34.9a.84.84 0 1 0-1.2-1.18.84.84 0 0 0 1.2 1.18ZM73.43 38.15a.76.76 0 1 0-1.08-1.08.76.76 0 0 0 1.08 1.08ZM76.68 41.4a.7.7 0 1 0-.98-.98.7.7 0 0 0 .98.97ZM79.92 44.64a.61.61 0 1 0-.87-.87.61.61 0 0 0 .87.87ZM83.16 47.88a.54.54 0 1 0-.76-.76.54.54 0 0 0 .76.76ZM86.41 51.13a.47.47 0 1 0-.66-.66.47.47 0 0 0 .66.66ZM89.66 54.37a.4.4 0 1 0-.56-.55.4.4 0 0 0 .56.55ZM43.46 1.58a.35.35 0 1 0-.5-.49.35.35 0 0 0 .5.5ZM46.8 4.92a.4.4 0 1 0-.58-.57.4.4 0 0 0 .58.57ZM50.14 8.26a.47.47 0 1 0-.66-.66.47.47 0 0 0 .66.66ZM53.48 11.6a.53.53 0 1 0-.75-.74.53.53 0 0 0 .75.74ZM56.82 14.94a.58.58 0 1 0-.83-.83.58.58 0 0 0 .83.83ZM60.16 18.28a.64.64 0 1 0-.91-.91.64.64 0 0 0 .9.9ZM63.5 21.62a.7.7 0 1 0-1-1 .7.7 0 0 0 1 1ZM66.84 24.96a.76.76 0 1 0-1.08-1.08.76.76 0 0 0 1.08 1.08ZM70.13 28.26a.76.76 0 1 0-1.08-1.08.76.76 0 0 0 1.08 1.08ZM73.39 31.51a.7.7 0 1 0-1-1 .7.7 0 0 0 1 1ZM76.64 34.77a.64.64 0 1 0-.9-.92.64.64 0 0 0 .9.92ZM79.9 38.02a.59.59 0 1 0-.83-.83.59.59 0 0 0 .83.83ZM83.15 41.28a.53.53 0 1 0-.74-.75.53.53 0 0 0 .74.75ZM86.41 44.53a.47.47 0 1 0-.66-.66.47.47 0 0 0 .66.66ZM89.67 47.79a.4.4 0 1 0-.58-.58.4.4 0 0 0 .58.58ZM92.92 51.04a.35.35 0 1 0-.5-.49.35.35 0 0 0 .5.5ZM50.05 1.58a.35.35 0 1 0-.49-.49.35.35 0 0 0 .5.5ZM53.39 4.91a.4.4 0 1 0-.56-.55.4.4 0 0 0 .56.55ZM56.71 8.24a.44.44 0 1 0-.62-.62.44.44 0 0 0 .62.62ZM60.04 11.57a.48.48 0 1 0-.68-.68.48.48 0 0 0 .68.68ZM63.37 14.9a.53.53 0 1 0-.74-.75.53.53 0 0 0 .74.75ZM66.7 18.23a.57.57 0 1 0-.8-.81.57.57 0 0 0 .8.8ZM70.03 21.56a.61.61 0 1 0-.87-.87.61.61 0 0 0 .87.87ZM73.33 24.85a.61.61 0 1 0-.87-.87.61.61 0 0 0 .87.87ZM76.6 28.12a.57.57 0 1 0-.82-.8.57.57 0 0 0 .81.8ZM79.86 31.38a.53.53 0 1 0-.75-.74.53.53 0 0 0 .75.74ZM83.12 34.65a.48.48 0 1 0-.68-.68.48.48 0 0 0 .68.68ZM86.39 37.92a.44.44 0 1 0-.62-.62.44.44 0 0 0 .62.62ZM89.66 41.18a.4.4 0 1 0-.56-.55.4.4 0 0 0 .56.55ZM92.92 44.45a.35.35 0 1 0-.5-.5.35.35 0 0 0 .5.5ZM59.95 4.88a.35.35 0 1 0-.5-.5.35.35 0 0 0 .5.5ZM63.27 8.2a.38.38 0 1 0-.54-.54.38.38 0 0 0 .54.54ZM66.58 11.52a.4.4 0 1 0-.57-.58.4.4 0 0 0 .57.58ZM69.9 14.83a.44.44 0 1 0-.62-.61.44.44 0 0 0 .62.61ZM73.22 18.15a.47.47 0 1 0-.66-.66.47.47 0 0 0 .66.66ZM76.52 21.45a.47.47 0 1 0-.66-.66.47.47 0 0 0 .66.66ZM79.8 24.73a.44.44 0 1 0-.62-.62.44.44 0 0 0 .61.62ZM83.07 28a.4.4 0 1 0-.57-.57.4.4 0 0 0 .57.57ZM86.35 31.28a.38.38 0 1 0-.54-.53.38.38 0 0 0 .54.53ZM89.62 34.56a.35.35 0 1 0-.49-.5.35.35 0 0 0 .5.5ZM69.8 8.14a.29.29 0 1 0-.41-.41.29.29 0 0 0 .4.4ZM73.1 11.44a.3.3 0 1 0-.43-.43.3.3 0 0 0 .44.43ZM76.41 14.75a.32.32 0 1 0-.45-.45.32.32 0 0 0 .45.45ZM79.71 18.05a.32.32 0 1 0-.45-.45.32.32 0 0 0 .45.45ZM83 21.34a.3.3 0 1 0-.43-.43.3.3 0 0 0 .43.43ZM86.28 24.62a.29.29 0 1 0-.4-.4.29.29 0 0 0 .4.4ZM15.69 81.29a.29.29 0 1 0-.51-.27.29.29 0 0 0 .5.27ZM19.82 83.48a.3.3 0 1 0-.54-.28.3.3 0 0 0 .54.28ZM23.95 85.68a.32.32 0 1 0-.56-.3.32.32 0 0 0 .56.3ZM28.07 87.87a.32.32 0 1 0-.56-.3.32.32 0 0 0 .56.3ZM32.17 90.05a.3.3 0 1 0-.53-.29.3.3 0 0 0 .53.29ZM36.28 92.23a.29.29 0 1 0-.51-.27.29.29 0 0 0 .5.27ZM9.7 72.82a.35.35 0 1 0-.62-.32.35.35 0 0 0 .61.32ZM13.84 75.02a.38.38 0 1 0-.67-.35.38.38 0 0 0 .67.35ZM17.98 77.23a.4.4 0 1 0-.72-.39.4.4 0 0 0 .72.39ZM22.12 79.43a.44.44 0 1 0-.77-.41.44.44 0 0 0 .77.4ZM26.27 81.63a.47.47 0 1 0-.83-.44.47.47 0 0 0 .83.44ZM30.39 83.82a.47.47 0 1 0-.83-.44.47.47 0 0 0 .83.44ZM34.48 85.99a.44.44 0 1 0-.77-.4.44.44 0 0 0 .77.4ZM38.57 88.16a.4.4 0 1 0-.72-.38.4.4 0 0 0 .72.38ZM42.66 90.34a.38.38 0 1 0-.66-.36.38.38 0 0 0 .66.36ZM46.75 92.51a.35.35 0 1 0-.61-.32.35.35 0 0 0 .61.32ZM3.64 64.33a.35.35 0 1 0-.61-.33.35.35 0 0 0 .61.33ZM7.8 66.54a.4.4 0 1 0-.7-.37.4.4 0 0 0 .7.37ZM11.96 68.75a.44.44 0 1 0-.77-.41.44.44 0 0 0 .77.4ZM16.11 70.95a.48.48 0 1 0-.84-.45.48.48 0 0 0 .84.45ZM20.27 73.16a.53.53 0 1 0-.93-.49.53.53 0 0 0 .93.5ZM24.43 75.37a.57.57 0 1 0-1-.53.57.57 0 0 0 1 .53ZM28.59 77.58A.61.61 0 1 0 27.5 77a.61.61 0 0 0 1.09.58ZM32.7 79.77a.61.61 0 1 0-1.08-.58.61.61 0 0 0 1.09.58ZM36.79 81.94a.57.57 0 1 0-1.01-.54.57.57 0 0 0 1 .54Z"/><path d="M40.86 84.1a.53.53 0 1 0-.93-.5.53.53 0 0 0 .93.5ZM44.94 86.27a.48.48 0 1 0-.85-.45.48.48 0 0 0 .85.45ZM49.02 88.44a.44.44 0 1 0-.77-.41.44.44 0 0 0 .77.4ZM53.1 90.6a.4.4 0 1 0-.7-.37.4.4 0 0 0 .7.37ZM57.18 92.77a.35.35 0 1 0-.62-.33.35.35 0 0 0 .62.33ZM1.71 58.02a.35.35 0 1 0-.61-.32.35.35 0 0 0 .61.32ZM5.88 60.24a.4.4 0 1 0-.72-.38.4.4 0 0 0 .72.38ZM10.05 62.45a.47.47 0 1 0-.82-.43.47.47 0 0 0 .82.43ZM14.22 64.67a.53.53 0 1 0-.92-.5.53.53 0 0 0 .92.5ZM18.4 66.89a.59.59 0 1 0-1.04-.55.59.59 0 0 0 1.03.55ZM22.57 69.1a.64.64 0 1 0-1.14-.6.64.64 0 0 0 1.14.6ZM26.74 71.32a.7.7 0 1 0-1.25-.66.7.7 0 0 0 1.25.66ZM30.9 73.53a.76.76 0 1 0-1.34-.71.76.76 0 0 0 1.35.71ZM35.02 75.72a.76.76 0 1 0-1.34-.72.76.76 0 0 0 1.34.72ZM39.09 77.88a.7.7 0 1 0-1.24-.66.7.7 0 0 0 1.24.66ZM43.16 80.04a.64.64 0 1 0-1.14-.6.64.64 0 0 0 1.14.6ZM47.22 82.2a.58.58 0 1 0-1.03-.55.58.58 0 0 0 1.03.55ZM51.29 84.36a.53.53 0 1 0-.93-.5.53.53 0 0 0 .93.5ZM55.35 86.52a.47.47 0 1 0-.82-.44.47.47 0 0 0 .82.44ZM59.42 88.68a.4.4 0 1 0-.72-.38.4.4 0 0 0 .72.38ZM63.48 90.84a.35.35 0 1 0-.61-.33.35.35 0 0 0 .61.33ZM3.94 53.93a.4.4 0 1 0-.7-.37.4.4 0 0 0 .7.37ZM8.12 56.15a.47.47 0 1 0-.82-.44.47.47 0 0 0 .82.44ZM12.3 58.37a.54.54 0 1 0-.95-.5.54.54 0 0 0 .95.5ZM16.49 60.6a.61.61 0 1 0-1.09-.58.61.61 0 0 0 1.09.57ZM20.68 62.82a.7.7 0 1 0-1.22-.65.7.7 0 0 0 1.22.65ZM24.86 65.04a.76.76 0 1 0-1.35-.72.76.76 0 0 0 1.35.72ZM29.04 67.26a.84.84 0 1 0-1.48-.79.84.84 0 0 0 1.48.8ZM33.22 69.48a.91.91 0 1 0-1.6-.85.91.91 0 0 0 1.6.85ZM37.34 71.67a.91.91 0 1 0-1.6-.85.91.91 0 0 0 1.6.85ZM41.4 73.83a.84.84 0 1 0-1.48-.8.84.84 0 0 0 1.48.8ZM45.45 75.98a.76.76 0 1 0-1.35-.72.76.76 0 0 0 1.35.72ZM49.5 78.13a.7.7 0 1 0-1.22-.65.7.7 0 0 0 1.22.65ZM53.55 80.28a.61.61 0 1 0-1.08-.57.61.61 0 0 0 1.08.57ZM57.6 82.43a.54.54 0 1 0-.95-.5.54.54 0 0 0 .95.5ZM61.66 84.59a.47.47 0 1 0-.83-.44.47.47 0 0 0 .83.44ZM65.71 86.74a.4.4 0 1 0-.7-.37.4.4 0 0 0 .7.37ZM1.97 47.6a.35.35 0 1 0-.61-.33.35.35 0 0 0 .61.33ZM6.17 49.83a.44.44 0 1 0-.77-.41.44.44 0 0 0 .77.4ZM10.36 52.06a.53.53 0 1 0-.93-.5.53.53 0 0 0 .93.5ZM14.56 54.29a.61.61 0 1 0-1.09-.58.61.61 0 0 0 1.09.58ZM18.76 56.52a.7.7 0 1 0-1.25-.66.7.7 0 0 0 1.25.66ZM22.95 58.75a.8.8 0 1 0-1.4-.75.8.8 0 0 0 1.4.75ZM27.15 60.98a.88.88 0 1 0-1.56-.83.88.88 0 0 0 1.56.83ZM31.35 63.2a.97.97 0 1 0-1.72-.9.97.97 0 0 0 1.72.9ZM35.54 65.43a1.06 1.06 0 1 0-1.87-.99 1.06 1.06 0 0 0 1.87 1ZM39.66 67.62a1.06 1.06 0 1 0-1.87-1 1.06 1.06 0 0 0 1.87 1ZM43.7 69.77a.97.97 0 1 0-1.71-.91.97.97 0 0 0 1.71.9ZM47.74 71.91a.88.88 0 1 0-1.56-.82.88.88 0 0 0 1.56.82ZM51.78 74.06a.8.8 0 1 0-1.4-.74.8.8 0 0 0 1.4.74ZM55.82 76.2a.7.7 0 1 0-1.24-.65.7.7 0 0 0 1.24.66ZM59.86 78.35a.61.61 0 1 0-1.09-.57.61.61 0 0 0 1.09.57ZM63.9 80.5a.53.53 0 1 0-.93-.5.53.53 0 0 0 .93.5ZM67.94 82.64a.44.44 0 1 0-.77-.4.44.44 0 0 0 .77.4ZM71.98 84.79a.35.35 0 1 0-.62-.33.35.35 0 0 0 .62.33ZM4.18 43.5a.38.38 0 1 0-.66-.36.38.38 0 0 0 .66.35ZM8.4 45.73a.48.48 0 1 0-.85-.45.48.48 0 0 0 .84.45ZM12.6 47.97a.58.58 0 1 0-1.03-.55.58.58 0 0 0 1.03.55ZM16.82 50.2a.7.7 0 1 0-1.23-.64.7.7 0 0 0 1.23.65ZM21.02 52.44a.8.8 0 1 0-1.4-.74.8.8 0 0 0 1.4.74ZM25.23 54.68a.9.9 0 1 0-1.58-.84.9.9 0 0 0 1.58.84ZM29.44 56.91a1 1 0 1 0-1.76-.94 1 1 0 0 0 1.76.94ZM33.65 59.15a1.1 1.1 0 1 0-1.95-1.04 1.1 1.1 0 0 0 1.95 1.04ZM37.86 61.39a1.2 1.2 0 1 0-2.13-1.14 1.2 1.2 0 0 0 2.13 1.14ZM41.98 63.57a1.2 1.2 0 1 0-2.13-1.13 1.2 1.2 0 0 0 2.13 1.13ZM46 65.71a1.1 1.1 0 1 0-1.95-1.03 1.1 1.1 0 0 0 1.96 1.03ZM50.03 67.85a1 1 0 1 0-1.76-.94 1 1 0 0 0 1.76.94ZM54.06 69.99a.9.9 0 1 0-1.58-.84.9.9 0 0 0 1.58.84ZM58.09 72.13a.8.8 0 1 0-1.4-.74.8.8 0 0 0 1.4.74ZM62.11 74.27a.7.7 0 1 0-1.22-.65.7.7 0 0 0 1.22.65ZM66.14 76.4a.59.59 0 1 0-1.03-.54.59.59 0 0 0 1.03.55ZM70.16 78.55a.48.48 0 1 0-.84-.45.48.48 0 0 0 .84.45ZM74.2 80.69a.38.38 0 1 0-.67-.36.38.38 0 0 0 .66.36ZM2.17 37.15a.29.29 0 1 0-.5-.27.29.29 0 0 0 .5.27ZM6.4 39.4a.4.4 0 1 0-.72-.4.4.4 0 0 0 .72.4ZM10.62 41.63a.53.53 0 1 0-.93-.49.53.53 0 0 0 .93.5ZM14.84 43.88a.64.64 0 1 0-1.13-.6.64.64 0 0 0 1.13.6ZM19.07 46.12a.76.76 0 1 0-1.35-.72.76.76 0 0 0 1.35.72ZM23.29 48.36a.88.88 0 1 0-1.56-.82.88.88 0 0 0 1.56.82ZM27.51 50.6a1 1 0 1 0-1.76-.93 1 1 0 0 0 1.76.94ZM31.74 52.85a1.12 1.12 0 1 0-1.98-1.05 1.12 1.12 0 0 0 1.98 1.05ZM35.96 55.1a1.24 1.24 0 1 0-2.19-1.17 1.24 1.24 0 0 0 2.19 1.16ZM40.18 57.34a1.36 1.36 0 1 0-2.4-1.27 1.36 1.36 0 0 0 2.4 1.27ZM44.3 59.53a1.36 1.36 0 1 0-2.4-1.28 1.36 1.36 0 0 0 2.4 1.28ZM48.31 61.66a1.24 1.24 0 1 0-2.18-1.16 1.24 1.24 0 0 0 2.18 1.16ZM52.33 63.79a1.12 1.12 0 1 0-1.98-1.05 1.12 1.12 0 0 0 1.98 1.05ZM56.34 65.92a1 1 0 1 0-1.77-.94 1 1 0 0 0 1.77.94ZM60.35 68.05a.88.88 0 1 0-1.55-.82.88.88 0 0 0 1.55.82ZM64.37 70.19a.76.76 0 1 0-1.35-.72.76.76 0 0 0 1.35.72ZM68.38 72.32a.64.64 0 1 0-1.14-.6.64.64 0 0 0 1.14.6ZM72.4 74.45a.53.53 0 1 0-.94-.5.53.53 0 0 0 .93.5ZM76.4 76.58a.4.4 0 1 0-.71-.38.4.4 0 0 0 .72.38ZM80.42 78.71a.29.29 0 1 0-.51-.27.29.29 0 0 0 .5.27ZM4.38 33.04a.3.3 0 1 0-.54-.29.3.3 0 0 0 .54.29ZM8.61 35.29a.44.44 0 1 0-.77-.41.44.44 0 0 0 .77.4ZM12.85 37.54a.57.57 0 1 0-1.01-.54.57.57 0 0 0 1.01.54ZM17.08 39.79a.7.7 0 1 0-1.24-.66.7.7 0 0 0 1.24.66ZM21.32 42.04a.84.84 0 1 0-1.48-.79.84.84 0 0 0 1.48.79ZM25.56 44.29a.97.97 0 1 0-1.72-.91.97.97 0 0 0 1.72.9ZM29.79 46.54a1.1 1.1 0 1 0-1.95-1.04 1.1 1.1 0 0 0 1.95 1.04ZM34.03 48.79a1.24 1.24 0 1 0-2.19-1.16 1.24 1.24 0 0 0 2.19 1.16ZM38.27 51.04a1.37 1.37 0 1 0-2.43-1.29 1.37 1.37 0 0 0 2.43 1.29ZM42.5 53.29a1.5 1.5 0 1 0-2.66-1.41 1.5 1.5 0 0 0 2.66 1.4ZM46.62 55.48a1.5 1.5 0 1 0-2.66-1.42 1.5 1.5 0 0 0 2.66 1.42ZM50.62 57.6a1.37 1.37 0 1 0-2.43-1.29 1.37 1.37 0 0 0 2.43 1.3ZM54.62 59.73a1.24 1.24 0 1 0-2.19-1.16 1.24 1.24 0 0 0 2.19 1.16ZM58.62 61.85a1.1 1.1 0 1 0-1.95-1.03 1.1 1.1 0 0 0 1.95 1.03ZM62.62 63.98a.97.97 0 1 0-1.72-.91.97.97 0 0 0 1.72.9ZM66.62 66.1a.84.84 0 1 0-1.48-.78.84.84 0 0 0 1.48.78ZM70.62 68.23a.7.7 0 1 0-1.24-.66.7.7 0 0 0 1.24.66ZM74.62 70.35a.57.57 0 1 0-1.01-.53.57.57 0 0 0 1.01.53ZM78.62 72.48a.44.44 0 1 0-.77-.41.44.44 0 0 0 .77.4ZM82.62 74.6a.3.3 0 1 0-.54-.28.3.3 0 0 0 .54.28ZM6.58 28.92a.32.32 0 1 0-.57-.3.32.32 0 0 0 .57.3ZM10.83 31.18a.47.47 0 1 0-.83-.44.47.47 0 0 0 .83.44ZM15.07 33.44a.61.61 0 1 0-1.08-.58.61.61 0 0 0 1.08.58ZM19.32 35.7a.76.76 0 1 0-1.34-.72.76.76 0 0 0 1.34.72ZM23.57 37.95a.91.91 0 1 0-1.6-.85.91.91 0 0 0 1.6.85ZM27.82 40.21a1.06 1.06 0 1 0-1.87-1 1.06 1.06 0 0 0 1.87 1ZM32.07 42.47a1.2 1.2 0 1 0-2.13-1.13 1.2 1.2 0 0 0 2.13 1.13ZM36.32 44.73a1.36 1.36 0 1 0-2.4-1.28 1.36 1.36 0 0 0 2.4 1.28ZM40.57 46.98a1.5 1.5 0 1 0-2.66-1.4 1.5 1.5 0 0 0 2.66 1.4ZM44.82 49.24a1.65 1.65 0 1 0-2.92-1.55 1.65 1.65 0 0 0 2.92 1.55ZM48.94 51.43a1.65 1.65 0 1 0-2.92-1.55 1.65 1.65 0 0 0 2.92 1.55ZM52.92 53.55a1.5 1.5 0 1 0-2.65-1.42 1.5 1.5 0 0 0 2.65 1.42ZM56.91 55.66a1.36 1.36 0 1 0-2.4-1.27 1.36 1.36 0 0 0 2.4 1.27ZM60.9 57.78a1.2 1.2 0 1 0-2.14-1.13 1.2 1.2 0 0 0 2.14 1.13ZM64.89 59.9a1.06 1.06 0 1 0-1.88-1 1.06 1.06 0 0 0 1.88 1ZM68.87 62.02a.91.91 0 1 0-1.6-.86.91.91 0 0 0 1.6.86ZM72.86 64.14a.76.76 0 1 0-1.35-.72.76.76 0 0 0 1.35.72ZM76.85 66.26a.61.61 0 1 0-1.09-.58.61.61 0 0 0 1.09.58ZM80.83 68.37a.47.47 0 1 0-.82-.43.47.47 0 0 0 .82.43ZM84.82 70.5a.32.32 0 1 0-.56-.3.32.32 0 0 0 .56.3ZM8.76 24.8a.32.32 0 1 0-.56-.3.32.32 0 0 0 .56.3ZM13.01 27.06a.47.47 0 1 0-.82-.43.47.47 0 0 0 .82.43ZM17.26 29.32a.61.61 0 1 0-1.08-.58.61.61 0 0 0 1.08.58ZM21.51 31.58a.76.76 0 1 0-1.35-.72.76.76 0 0 0 1.35.72ZM25.76 33.84a.91.91 0 1 0-1.6-.86.91.91 0 0 0 1.6.86ZM30.01 36.1a1.06 1.06 0 1 0-1.87-1 1.06 1.06 0 0 0 1.87 1ZM34.26 38.35a1.2 1.2 0 1 0-2.13-1.13 1.2 1.2 0 0 0 2.13 1.13ZM38.5 40.6a1.36 1.36 0 1 0-2.39-1.26 1.36 1.36 0 0 0 2.4 1.27ZM42.76 42.87a1.5 1.5 0 1 0-2.66-1.42 1.5 1.5 0 0 0 2.66 1.42ZM47 45.12a1.65 1.65 0 1 0-2.91-1.55A1.65 1.65 0 0 0 47 45.12ZM51.12 47.31a1.65 1.65 0 1 0-2.92-1.55 1.65 1.65 0 0 0 2.92 1.55ZM55.11 49.43a1.5 1.5 0 1 0-2.66-1.41 1.5 1.5 0 0 0 2.66 1.4ZM59.1 51.55a1.36 1.36 0 1 0-2.4-1.28 1.36 1.36 0 0 0 2.4 1.28ZM63.09 53.66a1.2 1.2 0 1 0-2.14-1.13 1.2 1.2 0 0 0 2.14 1.13ZM67.07 55.78a1.06 1.06 0 1 0-1.87-1 1.06 1.06 0 0 0 1.87 1ZM71.06 57.9a.91.91 0 1 0-1.61-.85.91.91 0 0 0 1.61.85ZM75.05 60.02a.76.76 0 1 0-1.35-.72.76.76 0 0 0 1.35.72ZM79.03 62.14a.61.61 0 1 0-1.08-.58.61.61 0 0 0 1.08.58ZM83.02 64.26a.47.47 0 1 0-.82-.44.47.47 0 0 0 .82.44ZM87 66.37a.32.32 0 1 0-.55-.3.32.32 0 0 0 .56.3ZM10.94 20.68a.3.3 0 1 0-.54-.28.3.3 0 0 0 .54.28ZM15.17 22.93a.44.44 0 1 0-.77-.4.44.44 0 0 0 .77.4ZM19.41 25.18a.57.57 0 1 0-1-.53.57.57 0 0 0 1 .53ZM23.65 27.43a.7.7 0 1 0-1.25-.66.7.7 0 0 0 1.25.66ZM27.88 29.68a.84.84 0 1 0-1.48-.78.84.84 0 0 0 1.48.78ZM32.12 31.93a.97.97 0 1 0-1.72-.9.97.97 0 0 0 1.72.9ZM36.35 34.18a1.1 1.1 0 1 0-1.94-1.03 1.1 1.1 0 0 0 1.94 1.03ZM40.6 36.43a1.24 1.24 0 1 0-2.2-1.16 1.24 1.24 0 0 0 2.2 1.16ZM44.83 38.69a1.37 1.37 0 1 0-2.43-1.3 1.37 1.37 0 0 0 2.43 1.3ZM49.06 40.94a1.5 1.5 0 1 0-2.65-1.42 1.5 1.5 0 0 0 2.65 1.41ZM53.18 43.12a1.5 1.5 0 1 0-2.66-1.4 1.5 1.5 0 0 0 2.66 1.4ZM57.18 45.25a1.37 1.37 0 1 0-2.42-1.29 1.37 1.37 0 0 0 2.42 1.29ZM61.18 47.37A1.24 1.24 0 1 0 59 46.21a1.24 1.24 0 0 0 2.18 1.16ZM65.18 49.5a1.1 1.1 0 1 0-1.95-1.04 1.1 1.1 0 0 0 1.95 1.04ZM69.18 51.62a.97.97 0 1 0-1.71-.9.97.97 0 0 0 1.71.9ZM73.18 53.75a.84.84 0 1 0-1.48-.79.84.84 0 0 0 1.48.79ZM77.18 55.87a.7.7 0 1 0-1.24-.66.7.7 0 0 0 1.24.66ZM81.18 58a.57.57 0 1 0-1-.54.57.57 0 0 0 1 .54ZM85.18 60.12a.44.44 0 1 0-.77-.4.44.44 0 0 0 .77.4ZM89.19 62.25a.3.3 0 1 0-.54-.29.3.3 0 0 0 .53.29ZM13.11 16.56a.29.29 0 1 0-.5-.27.29.29 0 0 0 .5.27ZM17.34 18.8a.4.4 0 1 0-.72-.38.4.4 0 0 0 .72.38ZM21.56 21.04a.53.53 0 1 0-.93-.49.53.53 0 0 0 .93.5ZM25.78 23.29a.64.64 0 1 0-1.14-.6.64.64 0 0 0 1.14.6ZM30 25.53a.76.76 0 1 0-1.34-.72.76.76 0 0 0 1.35.72ZM34.23 27.77a.88.88 0 1 0-1.56-.82.88.88 0 0 0 1.56.82ZM38.45 30.02a1 1 0 1 0-1.77-.94 1 1 0 0 0 1.77.94ZM42.67 32.26a1.12 1.12 0 1 0-1.97-1.05 1.12 1.12 0 0 0 1.97 1.05ZM46.9 34.5a1.24 1.24 0 1 0-2.19-1.16 1.24 1.24 0 0 0 2.19 1.16ZM51.12 36.75a1.36 1.36 0 1 0-2.4-1.28 1.36 1.36 0 0 0 2.4 1.28ZM55.24 38.94a1.36 1.36 0 1 0-2.4-1.28 1.36 1.36 0 0 0 2.4 1.28ZM59.25 41.07a1.24 1.24 0 1 0-2.18-1.16 1.24 1.24 0 0 0 2.18 1.16ZM63.26 43.2a1.12 1.12 0 1 0-1.97-1.05 1.12 1.12 0 0 0 1.97 1.05ZM67.28 45.33a1 1 0 1 0-1.77-.94 1 1 0 0 0 1.77.94ZM71.3 47.46a.88.88 0 1 0-1.57-.82.88.88 0 0 0 1.56.82ZM75.3 49.6a.76.76 0 1 0-1.34-.72.76.76 0 0 0 1.34.72ZM79.32 51.73a.64.64 0 1 0-1.14-.6.64.64 0 0 0 1.14.6ZM83.33 53.86a.53.53 0 1 0-.93-.5.53.53 0 0 0 .93.5ZM87.34 56a.4.4 0 1 0-.71-.39.4.4 0 0 0 .71.38ZM91.36 58.12a.29.29 0 1 0-.51-.27.29.29 0 0 0 .5.27ZM19.5 14.67a.38.38 0 1 0-.67-.36.38.38 0 0 0 .67.36ZM23.7 16.9a.48.48 0 1 0-.84-.45.48.48 0 0 0 .85.45ZM27.92 19.14a.59.59 0 1 0-1.04-.55.59.59 0 0 0 1.04.55ZM32.13 21.38a.7.7 0 1 0-1.22-.65.7.7 0 0 0 1.22.65ZM36.34 23.61a.8.8 0 1 0-1.4-.74.8.8 0 0 0 1.4.74ZM40.55 25.85a.9.9 0 1 0-1.58-.84.9.9 0 0 0 1.58.84ZM44.76 28.09a1 1 0 1 0-1.77-.94 1 1 0 0 0 1.77.94ZM48.97 30.32A1.1 1.1 0 1 0 47 29.3a1.1 1.1 0 0 0 1.96 1.03ZM53.18 32.56a1.2 1.2 0 1 0-2.14-1.13 1.2 1.2 0 0 0 2.14 1.13ZM57.3 34.75a1.2 1.2 0 1 0-2.14-1.14 1.2 1.2 0 0 0 2.13 1.14ZM61.32 36.89a1.1 1.1 0 1 0-1.95-1.04 1.1 1.1 0 0 0 1.95 1.04ZM65.35 39.03a1 1 0 1 0-1.77-.94 1 1 0 0 0 1.77.94ZM69.37 41.16a.9.9 0 1 0-1.58-.84.9.9 0 0 0 1.58.84ZM73.4 43.3a.8.8 0 1 0-1.4-.74.8.8 0 0 0 1.4.74ZM77.43 45.44a.7.7 0 1 0-1.22-.65.7.7 0 0 0 1.22.65ZM81.45 47.58a.58.58 0 1 0-1.03-.55.58.58 0 0 0 1.03.55ZM85.48 49.72a.48.48 0 1 0-.85-.45.48.48 0 0 0 .85.45ZM89.5 51.86a.38.38 0 1 0-.66-.35.38.38 0 0 0 .67.35ZM21.66 10.54a.35.35 0 1 0-.61-.33.35.35 0 0 0 .61.33ZM25.86 12.77a.44.44 0 1 0-.77-.41.44.44 0 0 0 .77.4ZM30.05 15a.53.53 0 1 0-.93-.5.53.53 0 0 0 .93.5ZM34.25 17.22a.61.61 0 1 0-1.09-.57.61.61 0 0 0 1.09.57ZM38.45 19.45a.7.7 0 1 0-1.25-.66.7.7 0 0 0 1.25.66ZM42.64 21.68a.8.8 0 1 0-1.4-.74.8.8 0 0 0 1.4.74ZM46.84 23.91a.88.88 0 1 0-1.56-.82.88.88 0 0 0 1.56.82ZM51.04 26.14a.97.97 0 1 0-1.72-.9.97.97 0 0 0 1.72.9ZM55.23 28.37a1.06 1.06 0 1 0-1.87-1 1.06 1.06 0 0 0 1.87 1ZM59.35 30.56a1.06 1.06 0 1 0-1.87-1 1.06 1.06 0 0 0 1.87 1ZM63.4 32.7a.97.97 0 1 0-1.72-.9.97.97 0 0 0 1.71.9ZM67.43 34.85a.88.88 0 1 0-1.56-.83.88.88 0 0 0 1.56.83ZM71.47 37a.8.8 0 1 0-1.4-.75.8.8 0 0 0 1.4.75ZM75.51 39.14a.7.7 0 1 0-1.24-.66.7.7 0 0 0 1.24.66ZM79.55 41.29a.61.61 0 1 0-1.09-.58.61.61 0 0 0 1.09.58ZM83.59 43.44a.53.53 0 1 0-.93-.5.53.53 0 0 0 .93.5ZM87.63 45.58a.44.44 0 1 0-.77-.4.44.44 0 0 0 .77.4ZM91.67 47.73a.35.35 0 1 0-.62-.33.35.35 0 0 0 .62.33ZM28 8.63a.4.4 0 1 0-.69-.37.4.4 0 0 0 .7.37ZM32.19 10.85a.47.47 0 1 0-.83-.44.47.47 0 0 0 .83.44ZM36.37 13.07a.54.54 0 1 0-.95-.5.54.54 0 0 0 .95.5ZM40.56 15.3a.61.61 0 1 0-1.09-.58.61.61 0 0 0 1.09.57ZM44.74 17.52a.7.7 0 1 0-1.22-.65.7.7 0 0 0 1.22.65ZM48.92 19.74a.76.76 0 1 0-1.34-.72.76.76 0 0 0 1.34.72ZM53.1 21.96a.84.84 0 1 0-1.47-.78.84.84 0 0 0 1.48.78ZM57.29 24.18a.91.91 0 1 0-1.6-.85.91.91 0 0 0 1.6.85ZM61.4 26.37a.91.91 0 1 0-1.6-.85.91.91 0 0 0 1.6.85ZM65.46 28.53a.84.84 0 1 0-1.48-.8.84.84 0 0 0 1.48.8ZM69.51 30.68a.76.76 0 1 0-1.34-.72.76.76 0 0 0 1.34.72ZM73.57 32.83a.7.7 0 1 0-1.22-.65.7.7 0 0 0 1.22.65ZM77.62 34.98a.61.61 0 1 0-1.09-.57.61.61 0 0 0 1.09.57ZM81.67 37.14a.54.54 0 1 0-.95-.51.54.54 0 0 0 .95.5ZM85.72 39.29a.47.47 0 1 0-.82-.44.47.47 0 0 0 .82.44ZM89.78 41.44a.4.4 0 1 0-.7-.37.4.4 0 0 0 .7.37ZM30.15 4.49a.35.35 0 1 0-.61-.33.35.35 0 0 0 .61.33ZM34.32 6.7a.4.4 0 1 0-.72-.38.4.4 0 0 0 .72.38ZM38.5 8.92a.47.47 0 1 0-.83-.44.47.47 0 0 0 .82.44ZM42.66 11.13a.53.53 0 1 0-.92-.49.53.53 0 0 0 .92.5ZM46.84 13.35a.59.59 0 1 0-1.04-.55.59.59 0 0 0 1.04.55ZM51 15.57a.64.64 0 1 0-1.13-.6.64.64 0 0 0 1.14.6ZM55.18 17.78a.7.7 0 1 0-1.25-.66.7.7 0 0 0 1.25.66ZM59.35 20a.76.76 0 1 0-1.35-.72.76.76 0 0 0 1.35.72ZM63.47 22.18a.76.76 0 1 0-1.35-.71.76.76 0 0 0 1.35.71ZM67.53 24.34a.7.7 0 1 0-1.24-.66.7.7 0 0 0 1.24.66ZM71.6 26.5a.64.64 0 1 0-1.14-.6.64.64 0 0 0 1.14.6ZM75.66 28.66a.58.58 0 1 0-1.03-.55.58.58 0 0 0 1.03.55ZM79.73 30.82a.53.53 0 1 0-.93-.49.53.53 0 0 0 .93.5ZM83.8 32.98a.47.47 0 1 0-.83-.43.47.47 0 0 0 .82.43ZM87.86 35.14a.4.4 0 1 0-.72-.38.4.4 0 0 0 .72.38ZM91.92 37.3a.35.35 0 1 0-.6-.32.35.35 0 0 0 .6.32ZM36.46 2.56a.35.35 0 1 0-.61-.33.35.35 0 0 0 .6.33ZM40.62 4.77a.4.4 0 1 0-.7-.37.4.4 0 0 0 .7.37ZM44.77 6.97a.44.44 0 1 0-.77-.4.44.44 0 0 0 .77.4ZM48.93 9.18a.48.48 0 1 0-.85-.45.48.48 0 0 0 .85.45ZM53.09 11.4a.53.53 0 1 0-.93-.5.53.53 0 0 0 .93.5ZM57.25 13.6a.57.57 0 1 0-1.01-.54.57.57 0 0 0 1 .54ZM61.4 15.8a.61.61 0 1 0-1.08-.57.61.61 0 0 0 1.08.58ZM65.52 18a.61.61 0 1 0-1.08-.58.61.61 0 0 0 1.08.58ZM69.6 20.16a.57.57 0 1 0-1-.53.57.57 0 0 0 1 .53ZM73.68 22.33a.53.53 0 1 0-.93-.5.53.53 0 0 0 .93.5ZM77.76 24.5a.48.48 0 1 0-.85-.45.48.48 0 0 0 .85.45ZM81.84 26.66a.44.44 0 1 0-.77-.4.44.44 0 0 0 .77.4ZM85.92 28.83a.4.4 0 1 0-.7-.37.4.4 0 0 0 .7.37ZM90 31a.35.35 0 1 0-.62-.33.35.35 0 0 0 .61.33ZM46.88 2.81a.35.35 0 1 0-.61-.32.35.35 0 0 0 .61.32ZM51.03 5.02a.38.38 0 1 0-.67-.36.38.38 0 0 0 .67.36ZM55.17 7.22a.4.4 0 1 0-.72-.38.4.4 0 0 0 .72.38ZM59.32 9.42a.44.44 0 1 0-.78-.41.44.44 0 0 0 .78.4ZM63.46 11.62a.47.47 0 1 0-.82-.44.47.47 0 0 0 .82.44ZM67.58 13.8a.47.47 0 1 0-.83-.43.47.47 0 0 0 .83.44ZM71.67 15.98a.44.44 0 1 0-.77-.4.44.44 0 0 0 .77.4ZM75.76 18.16a.4.4 0 1 0-.72-.39.4.4 0 0 0 .72.39ZM79.85 20.33a.38.38 0 1 0-.66-.35.38.38 0 0 0 .66.35ZM83.95 22.5a.35.35 0 1 0-.62-.32.35.35 0 0 0 .62.32ZM57.25 3.04a.29.29 0 1 0-.5-.27.29.29 0 0 0 .5.27ZM61.39 5.24a.3.3 0 1 0-.54-.29.3.3 0 0 0 .54.29ZM65.52 7.43a.32.32 0 1 0-.56-.3.32.32 0 0 0 .56.3ZM69.64 9.62a.32.32 0 1 0-.57-.3.32.32 0 0 0 .57.3ZM73.74 11.8a.3.3 0 1 0-.54-.28.3.3 0 0 0 .54.28ZM77.85 13.98a.29.29 0 1 0-.51-.27.29.29 0 0 0 .5.27Z"/></g><defs><clipPath id="a"><path fill="#fff" d="M0 0h93.02v95H0z"/></clipPath></defs></svg>