<svg xmlns="http://www.w3.org/2000/svg" width="32" height="31" fill="none"><path fill="#000" d="M16.3 5.086c0 1.502-.24 4.043.36 5.43.24.578.48.693.72.693.12 0 .599-.231 1.198-.808 1.319-1.387 2.038-3.467 3.117-4.853.12-.231 1.678-2.08 3.835-2.08 1.678 0 3.117 1.387 3.117 3.004 0 1.618-1.318 3.12-2.877 4.044-1.678.924-5.753 2.08-5.753 3.697 0 .578 1.199.925 3.356.925 1.678 0 3.476-.347 5.154 0 1.798.346 3.477 1.617 3.477 3.466 0 1.04-.6 3.004-3.356 3.004-2.278 0-4.675-1.849-5.034-2.08-.36-.115-2.518-1.386-3.836-1.386-.839 0-.839.577-.839.808.12 1.503 1.439 3.236 1.678 3.697.84 1.271 1.918 2.773 1.918 4.275 0 .578-.36 3.697-3.356 3.697-.72 0-1.439-.23-1.918-.577-1.439-.924-1.678-3.004-1.678-4.506 0-1.04.12-2.08 0-3.236 0-.462-.12-3.003-.959-3.003s-2.157 2.195-2.876 3.466c-1.08 1.964-2.158 4.852-5.155 4.852-1.678 0-3.236-1.386-3.236-3.12 0-.346.24-1.27.958-2.195 1.44-1.964 3.117-2.31 5.035-3.35.24-.232 2.397-1.618 2.397-2.658 0 0-.12-.346-.48-.462-1.558-.809-4.674-.231-6.472-.231-.6 0-1.199 0-1.439-.116C2.876 15.368 0 14.56 0 12.017c0-1.156.72-3.12 3.716-3.12 2.637 0 4.075 1.617 6.233 3.004 1.079.693 2.037.809 2.397.809.48 0 .84-.231.84-.809 0-.462-.12-.809-.36-1.387-1.319-2.888-3.117-4.16-3.117-7.163C9.709.809 11.746 0 12.825 0c2.277.001 3.476 1.735 3.476 5.086Z"/></svg>