<svg width="152" height="32" viewBox="0 0 152 32" fill="none" xmlns="http://www.w3.org/2000/svg">
<g clip-path="url(#clip0_1900_43)">
<path d="M37.5703 0.209961H44.7803V2.6499H40.2102V5.85986H44.2102V8.31995H40.2102V11.6499H44.8604V14.1099H37.5703V0.249878V0.209961Z" fill="black"/>
<path d="M46.5703 0.209961H50.0002C53.6202 0.209961 55.7803 2.72986 55.7803 6.97986V7.29993C55.7803 11.5399 53.6202 14.0699 50.0002 14.0699H46.5703V0.209961ZM49.2202 2.62988V11.6299H49.9502C51.7902 11.6299 53.0403 10.3 53.0403 7.20996V7.00989C53.0403 3.91989 51.7902 2.58984 49.9502 2.58984H49.2202V2.62988Z" fill="black"/>
<path d="M57.4199 9.31995V0.209961H60.0698V9.45996C60.0698 11.06 60.7598 11.8199 61.8298 11.8199C62.8998 11.8199 63.5898 11.0899 63.5898 9.47986V0.209961H66.2197V9.29993C66.2197 12.6899 64.4398 14.2999 61.7998 14.2999C59.1598 14.2999 57.4199 12.6499 57.4199 9.31995Z" fill="black"/>
<path d="M67.8896 7.29993V6.97986C67.8896 2.46986 70.1096 0.0499302 73.0996 0.0499302C73.7144 0.0363059 74.3254 0.149129 74.8948 0.381351C75.4642 0.613574 75.9798 0.960222 76.4097 1.39991L74.8997 3.5199C74.6733 3.2517 74.3958 3.03127 74.0833 2.87159C73.7708 2.7119 73.4295 2.61612 73.0796 2.58985C71.7096 2.58985 70.5996 4.10996 70.5996 7.07996V7.17993C70.5996 10.3499 71.7896 11.7 73.0396 11.7C73.4246 11.6839 73.802 11.5864 74.1467 11.4141C74.4914 11.2417 74.7957 10.9984 75.0396 10.7L76.4495 12.7599C75.9979 13.231 75.4565 13.6066 74.8569 13.8643C74.2574 14.1219 73.612 14.2564 72.9595 14.2599C69.8495 14.2299 67.8896 11.8199 67.8896 7.29993Z" fill="black"/>
<path d="M80.8301 0.159912H83.5L87.3601 14.08H84.6501L83.9001 11.1899H80.3401L79.6101 14.08H77L80.8301 0.159912ZM83.27 8.82996L82.1401 4.27991L80.97 8.82996H83.27Z" fill="black"/>
<path d="M89.5703 2.70996H86.9404V0.209961H94.8604V2.70996H92.2302V14.08H89.5703V2.70996Z" fill="black"/>
<path d="M96.4502 0.209961H99.0803V14.0699H96.4502V0.209961Z" fill="black"/>
<path d="M100.92 7.38V6.92004C100.92 2.54004 102.98 -0.0100098 105.92 -0.0100098C108.86 -0.0100098 110.92 2.54002 110.92 6.90002V7.35999C110.92 11.72 108.86 14.29 105.92 14.29C102.98 14.29 100.92 11.74 100.92 7.38ZM108.29 7.28003V7.02002C108.29 3.89002 107.29 2.43005 105.95 2.43005C104.61 2.43005 103.63 3.88 103.63 7V7.26001C103.63 10.39 104.63 11.85 105.97 11.85C107.31 11.85 108.29 10.41 108.29 7.28003Z" fill="black"/>
<path d="M112.76 0.209961H115.22L119.16 7.7699V0.209961H121.75V14.0699H119.45L115.35 6.18994V14.0699H112.76V0.209961Z" fill="black"/>
<path d="M126.85 0.159912H129.57L133.43 14.08H130.72L129.97 11.1899H126.41L125.68 14.08H123.07L126.85 0.159912ZM129.29 8.82996L128.16 4.27991L126.99 8.82996H129.29Z" fill="black"/>
<path d="M134.63 0.209961H137.28V11.6499H141.44V14.1299H134.63V0.269897V0.209961Z" fill="black"/>
<path d="M37.4502 26.41V17.3H40.1003V26.55C40.1003 28.15 40.7904 28.91 41.8604 28.91C42.9304 28.91 43.6204 28.1801 43.6204 26.5701V17.3H46.2502V26.39C46.2502 29.78 44.4703 31.39 41.8303 31.39C39.1903 31.39 37.4502 29.75 37.4502 26.41Z" fill="black"/>
<path d="M47.2197 29.4501L48.7998 27.3901C49.4597 28.2012 50.4108 28.7216 51.4497 28.84C51.6469 28.8567 51.8454 28.8321 52.0325 28.7676C52.2195 28.7032 52.3911 28.6004 52.5361 28.4657C52.6811 28.3311 52.7964 28.1677 52.8745 27.9859C52.9526 27.8041 52.9918 27.6079 52.9897 27.4101C52.9897 26.8001 52.6699 26.3201 51.1099 25.4101C49.0099 24.1601 47.7798 23.07 47.7798 21.13C47.7695 20.59 47.8728 20.054 48.0828 19.5563C48.2927 19.0587 48.6048 18.6106 48.9988 18.2411C49.3928 17.8717 49.8598 17.589 50.3699 17.4114C50.8799 17.2338 51.4215 17.1653 51.9597 17.2101C52.6588 17.2106 53.3507 17.3526 53.9934 17.6276C54.6362 17.9026 55.2165 18.3048 55.6997 18.8101L54.0798 20.8101C53.8073 20.4696 53.468 20.1883 53.0828 19.9837C52.6976 19.779 52.2746 19.6553 51.8398 19.62C51.6676 19.6006 51.4933 19.6171 51.3279 19.6686C51.1624 19.7201 51.0094 19.8056 50.8787 19.9194C50.748 20.0331 50.6424 20.1728 50.5686 20.3296C50.4948 20.4864 50.4542 20.6569 50.4497 20.8301C50.4497 21.4801 50.7699 21.9601 52.6899 23.1501C54.6099 24.3401 55.6899 25.4301 55.6899 27.2701C55.6905 27.8108 55.5813 28.3461 55.3691 28.8435C55.157 29.341 54.846 29.7902 54.4553 30.1641C54.0646 30.538 53.6022 30.8287 53.0959 31.0188C52.5897 31.2089 52.05 31.2944 51.5098 31.2701C50.7088 31.2727 49.9156 31.1128 49.1782 30.8C48.4408 30.4871 47.7745 30.0279 47.2197 29.4501Z" fill="black"/>
<path d="M57.1602 17.3H64.3701V19.76H59.8V22.97H63.8V25.4301H59.8V28.72H64.45V31.1801H57.1602V17.3201V17.3Z" fill="black"/>
<path d="M69.8301 17.3H73.28C76.17 17.3 78.0701 18.92 78.0701 22.01C78.0701 25.18 76.0701 26.72 73.3601 26.84H72.49V31.12H69.8401V17.26L69.8301 17.3ZM73.1802 24.47C73.4892 24.4901 73.7986 24.4418 74.0867 24.3282C74.3747 24.2147 74.6343 24.0389 74.8464 23.8134C75.0586 23.5878 75.2182 23.3182 75.314 23.0237C75.4097 22.7292 75.4391 22.4172 75.4001 22.11C75.4001 20.59 74.71 19.73 73.2 19.73H72.49V24.4601H73.1802V24.47Z" fill="black"/>
<path d="M79.5703 17.3H86.7803V19.76H82.2102V22.97H86.2102V25.4301H82.2102V28.72H86.8604V31.1801H79.5703V17.3201V17.3Z" fill="black"/>
<path d="M88.5703 17.3001H92.4902C93.1196 17.2669 93.7492 17.3584 94.343 17.5695C94.9368 17.7806 95.483 18.1071 95.9502 18.5301C96.3494 18.9674 96.657 19.4804 96.8545 20.0386C97.052 20.5968 97.1356 21.189 97.1003 21.7801V21.9001C97.1501 22.6838 96.9773 23.4656 96.6023 24.1556C96.2272 24.8455 95.665 25.4156 94.9802 25.8001L97.4204 31.1701H94.4204L92.3403 26.48H91.1704V31.1701H88.5703V17.3101V17.3001ZM92.2703 24.11C92.5653 24.1383 92.8631 24.1008 93.1418 23.9999C93.4206 23.8991 93.6732 23.7374 93.8818 23.5269C94.0905 23.3164 94.2498 23.0622 94.3481 22.7825C94.4464 22.5029 94.4812 22.2049 94.4502 21.9101C94.4796 21.6113 94.4415 21.3097 94.3384 21.0278C94.2353 20.7458 94.0699 20.4906 93.8547 20.2812C93.6396 20.0718 93.3801 19.9134 93.0955 19.818C92.8108 19.7226 92.5081 19.6926 92.2102 19.73H91.2102V24.11H92.2102H92.2703Z" fill="black"/>
<path d="M98.7998 17.3H101.51L103.95 22.67L106.37 17.3H109.1V31.16H106.51V22.53L103.96 28.04L101.41 22.5701V31.16H98.8599V17.3H98.7998Z" fill="black"/>
<path d="M111.29 17.3H113.92V31.16H111.29V17.3Z" fill="black"/>
<path d="M118.14 19.79H115.51V17.3H123.43V19.79H120.8V31.16H118.15V19.79H118.14Z" fill="black"/>
<path d="M126.93 19.79H124.3V17.3H132.22V19.79H129.57V31.16H126.92V19.79H126.93Z" fill="black"/>
<path d="M133.72 17.3H140.93V19.76H136.36V22.97H140.36V25.4301H136.36V28.72H141.01V31.1801H133.72V17.3201V17.3Z" fill="black"/>
<path d="M142.74 17.3H146.17C149.79 17.3 151.95 19.8101 151.95 24.0701V24.39C151.95 28.63 149.79 31.16 146.17 31.16H142.74V17.3ZM145.39 19.72V28.72H146.12C147.96 28.72 149.21 27.39 149.21 24.3V24.1C149.21 21.01 147.96 19.6801 146.12 19.6801H145.39V19.72Z" fill="black"/>
<path d="M15.5 0.219971C11.3891 0.219971 7.44661 1.85307 4.53979 4.75989C1.63298 7.6667 0 11.6091 0 15.72V31.22H15.5C19.6109 31.22 23.5534 29.587 26.4602 26.6802C29.367 23.7734 31 19.8308 31 15.72V0.219971H15.5ZM15.5 28.39C12.9941 28.39 10.5445 27.647 8.46094 26.2548C6.37737 24.8626 4.7534 22.8837 3.79443 20.5686C2.83547 18.2535 2.58461 15.706 3.07349 13.2483C3.56236 10.7906 4.76908 8.53292 6.54102 6.76099C8.31295 4.98906 10.5706 3.78233 13.0283 3.29346C15.4861 2.80458 18.0335 3.05556 20.3486 4.01453C22.6638 4.97349 24.6425 6.59734 26.0347 8.68091C27.4269 10.7645 28.1702 13.2141 28.1702 15.72C28.1702 19.0785 26.8366 22.2997 24.4626 24.6755C22.0887 27.0513 18.8686 28.3874 15.51 28.39H15.5Z" fill="black"/>
<path d="M12.0803 19.4699C12.5111 19.9125 13.0277 20.2624 13.5986 20.498C14.1696 20.7336 14.7828 20.8499 15.4004 20.8399C16.2444 20.8564 17.0803 20.673 17.8398 20.3045C18.5994 19.9361 19.2608 19.393 19.7703 18.7199L22.0903 21.1099C21.3225 22.0209 20.377 22.7659 19.3118 23.2994C18.2465 23.8329 17.0839 24.1437 15.8945 24.213C14.7052 24.2822 13.514 24.1084 12.394 23.7021C11.2741 23.2958 10.2487 22.6656 9.38037 21.8499C7.81425 20.2454 6.9375 18.0921 6.9375 15.8499C6.9375 13.6078 7.81425 11.4545 9.38037 9.84992C10.1759 9.05992 11.1226 8.43845 12.1638 8.02265C13.205 7.60685 14.3195 7.40533 15.4404 7.43C16.7095 7.40396 17.9685 7.65944 19.127 8.17817C20.2854 8.6969 21.3146 9.46599 22.1404 10.43L19.8904 12.9899C19.3953 12.322 18.7497 11.7802 18.0061 11.4084C17.2625 11.0366 16.4417 10.8452 15.6104 10.8499C14.3141 10.8259 13.0592 11.3065 12.1104 12.19C11.6242 12.6506 11.2429 13.2106 10.9927 13.8319C10.7425 14.4531 10.6292 15.121 10.6604 15.79C10.6304 16.4682 10.741 17.1452 10.9854 17.7785C11.2297 18.4118 11.6026 18.9877 12.0803 19.4699Z" fill="black"/>
</g>
<defs>
<clipPath id="clip0_1900_43">
<rect width="151.95" height="31.36" fill="white"/>
</clipPath>
</defs>
</svg>
