<svg width="124" height="32" viewBox="0 0 124 32" fill="none" xmlns="http://www.w3.org/2000/svg">
<g clip-path="url(#clip0_1900_98)">
<path d="M37.7607 0.219971H44.9707V2.69995H40.4006V5.90991H44.4006V8.37H40.4006V11.6599H45.0508V14.12H37.7607V0.26001V0.219971Z" fill="black"/>
<path d="M46.6602 9.32996V0.219971H49.3103V9.46997C49.3103 11.07 50.0003 11.83 51.0703 11.83C52.1403 11.83 52.8303 11.1 52.8303 9.48999V0.219971H55.4602V9.30994C55.4602 12.6999 53.6803 14.3099 51.0403 14.3099C48.4003 14.3099 46.6602 12.7 46.6602 9.32996Z" fill="black"/>
<path d="M60.7607 7.38989V6.92993C60.7607 2.54993 62.8207 0 65.7607 0C68.7007 0 70.7607 2.54991 70.7607 6.90991V7.37C70.7607 11.73 68.7007 14.2999 65.7607 14.2999C62.8207 14.2999 60.7607 11.6999 60.7607 7.38989ZM68.1309 7.28992V7.02991C68.1309 3.89991 67.1308 2.43994 65.7908 2.43994C64.4508 2.43994 63.4707 3.89001 63.4707 7.01001V7.2699C63.4707 10.3999 64.4708 11.86 65.8108 11.86C67.1508 11.86 68.1406 10.4199 68.1406 7.28992H68.1309Z" fill="black"/>
<path d="M72.6104 0.220035H76.5303C77.1613 0.185507 77.7928 0.276365 78.3884 0.487491C78.984 0.698617 79.5319 1.0258 80.0002 1.45002C80.3994 1.88739 80.7068 2.40034 80.9043 2.95856C81.1018 3.51678 81.1854 4.10893 81.1501 4.70002V4.82001C81.1999 5.60374 81.0274 6.38555 80.6523 7.0755C80.2773 7.76546 79.715 8.33555 79.0303 8.72004L81.4702 14.09H78.4702L76.3901 9.39997H75.2202V14.09H72.5703V0.230045L72.6104 0.220035ZM76.3103 7.02997C76.6054 7.05827 76.9029 7.02071 77.1816 6.91986C77.4604 6.81902 77.7132 6.65739 77.9219 6.44684C78.1305 6.23629 78.2896 5.98209 78.3879 5.70246C78.4862 5.42282 78.5212 5.1248 78.4902 4.83002C78.5196 4.53122 78.4813 4.22968 78.3782 3.9477C78.2751 3.66571 78.1099 3.41052 77.8948 3.20111C77.6796 2.99171 77.4199 2.83338 77.1353 2.73798C76.8506 2.64258 76.5481 2.6125 76.2502 2.64997H75.2502V7.02997H76.2502H76.3103Z" fill="black"/>
<path d="M82.8604 0.219971H86.3103C89.2003 0.219971 91.1003 1.83993 91.1003 4.92993C91.1003 8.09993 89.1001 9.64001 86.3901 9.76001H85.5203V14.0399H82.8704V0.179932L82.8604 0.219971ZM86.2102 7.38989C86.5192 7.41005 86.8289 7.3617 87.1169 7.24817C87.405 7.13464 87.6643 6.95881 87.8765 6.73328C88.0886 6.50774 88.2483 6.23808 88.344 5.9436C88.4397 5.64913 88.4692 5.33708 88.4302 5.02991C88.4302 3.50991 87.7402 2.6499 86.2302 2.6499H85.5203V7.38H86.2102V7.38989Z" fill="black"/>
<path d="M92.5605 0.219971H95.2104V5.85999H98.6006V0.219971H101.25V14.08H98.6006V8.35999H95.2104V14.08H92.5605V0.219971Z" fill="black"/>
<path d="M106.36 0.159912H109.03L112.89 14.08H110.18L109.43 11.1899H105.87L105.14 14.08H102.53L106.36 0.159912ZM108.8 8.82996L107.67 4.27991L106.5 8.82996H108.8Z" fill="black"/>
<path d="M114.141 0.219971H116.601L120.541 7.77991V0.219971H123.131V14.08H120.831L116.731 6.19995V14.08H114.141V0.219971Z" fill="black"/>
<path d="M36.9404 17.3H39.7605L41.4604 26.1301L43.3606 17.28H45.7405L47.6404 26.1301L49.3406 17.3H52.0505L48.9805 31.2201H46.3904L44.5105 22.6901L42.6306 31.2201H40.0605L36.9404 17.3Z" fill="black"/>
<path d="M52.5605 24.4701V24.0101C52.5605 19.6301 54.6205 17.0801 57.5605 17.0801C60.5005 17.0801 62.5605 19.6301 62.5605 23.9901V24.4501C62.5605 28.8101 60.5005 31.3801 57.5605 31.3801C54.6205 31.3801 52.5605 28.8201 52.5605 24.4701ZM59.9304 24.3701V24.1101C59.9304 20.9801 58.9306 19.52 57.5906 19.52C56.2506 19.52 55.2705 20.9701 55.2705 24.0901V24.3501C55.2705 27.4801 56.2706 28.9401 57.6106 28.9401C58.9506 28.9401 59.9304 27.5001 59.9304 24.3701Z" fill="black"/>
<path d="M64.4001 17.3001H68.3203C68.9513 17.2656 69.5829 17.3566 70.1785 17.5677C70.7741 17.7788 71.3219 18.1059 71.7903 18.5301C72.1894 18.9675 72.4968 19.4804 72.6943 20.0386C72.8919 20.5969 72.9754 21.189 72.9402 21.7801V21.9001C72.9899 22.6838 72.8174 23.4657 72.4424 24.1557C72.0673 24.8457 71.5051 25.4156 70.8203 25.8001L73.2603 31.1701H70.2603L68.1802 26.4802H67.0103V31.1701H64.3604V17.3001H64.4001ZM68.1003 24.1102C68.3954 24.1385 68.693 24.1008 68.9717 23.9999C69.2504 23.8991 69.5033 23.7376 69.7119 23.527C69.9205 23.3165 70.0797 23.0622 70.178 22.7825C70.2763 22.5029 70.3113 22.2049 70.2803 21.9101C70.3096 21.6113 70.2713 21.3098 70.1682 21.0278C70.0651 20.7458 69.9 20.4906 69.6848 20.2812C69.4696 20.0718 69.21 19.9136 68.9253 19.8182C68.6406 19.7228 68.3382 19.6927 68.0403 19.7302H67.0403V24.1102H68.0403H68.1003Z" fill="black"/>
<path d="M74.6504 17.3H77.3005V23.2001L80.6106 17.3H83.7004L80.1404 23.16L83.8206 31.16H80.8206L78.2905 25.67L77.3606 27.2301V31.15H74.7104V17.3H74.6504Z" fill="black"/>
<path d="M15.6904 0.219971C11.5796 0.219971 7.63704 1.85295 4.73022 4.75977C1.82341 7.66658 0.19043 11.6091 0.19043 15.72V31.22H15.6904C19.8013 31.22 23.7438 29.5869 26.6506 26.6801C29.5574 23.7732 31.1904 19.8308 31.1904 15.72V0.219971H15.6904ZM15.6904 28.3899C13.1845 28.3899 10.7349 27.6468 8.65137 26.2546C6.5678 24.8624 4.94383 22.8837 3.98486 20.5686C3.0259 18.2535 2.77504 15.7059 3.26392 13.2482C3.75279 10.7904 4.95951 8.5328 6.73145 6.76086C8.50338 4.98893 10.761 3.78233 13.2188 3.29346C15.6765 2.80458 18.2239 3.05544 20.5391 4.0144C22.8542 4.97337 24.8329 6.59734 26.2251 8.68091C27.6173 10.7645 28.3606 13.2141 28.3606 15.72C28.3619 17.3838 28.0354 19.0316 27.3999 20.5693C26.7644 22.107 25.8321 23.5044 24.6565 24.6819C23.4809 25.8593 22.085 26.7937 20.5483 27.4316C19.0116 28.0696 17.3643 28.3986 15.7004 28.3999L15.6904 28.3899Z" fill="black"/>
<path d="M12.2708 19.48C12.7015 19.9227 13.2181 20.2725 13.7891 20.5081C14.36 20.7437 14.9733 20.8601 15.5908 20.85C16.4348 20.8665 17.2708 20.683 18.0303 20.3145C18.7898 19.9461 19.4512 19.4031 19.9607 18.73L22.2808 21.1201C21.5129 22.031 20.5675 22.7759 19.5022 23.3094C18.4369 23.8429 17.2743 24.1537 16.085 24.223C14.8956 24.2922 13.7044 24.1184 12.5845 23.7121C11.4645 23.3058 10.4392 22.6757 9.5708 21.8601C8.00468 20.2555 7.12793 18.1022 7.12793 15.8601C7.12793 13.6179 8.00468 11.4646 9.5708 9.86005C10.3664 9.07005 11.313 8.44858 12.3542 8.03278C13.3955 7.61698 14.51 7.41534 15.6309 7.44001C16.8999 7.41397 18.1589 7.66957 19.3174 8.1883C20.4759 8.70703 21.5051 9.476 22.3308 10.44L20.0808 13.0001C19.5858 12.3321 18.9402 11.7902 18.1965 11.4184C17.4529 11.0466 16.6322 10.8553 15.8008 10.8601C14.5045 10.8361 13.2496 11.3165 12.3008 12.2C11.8146 12.6606 11.4333 13.2206 11.1831 13.8419C10.9329 14.4631 10.8196 15.131 10.8508 15.8C10.8208 16.4782 10.9314 17.1552 11.1758 17.7885C11.4202 18.4218 11.793 18.9978 12.2708 19.48Z" fill="black"/>
</g>
<defs>
<clipPath id="clip0_1900_98">
<rect width="122.93" height="31.38" fill="white" transform="translate(0.19043)"/>
</clipPath>
</defs>
</svg>
