<svg width="123" height="32" viewBox="0 0 123 32" fill="none" xmlns="http://www.w3.org/2000/svg">
<g clip-path="url(#clip0_1900_135)">
<path d="M37.5801 24.2301V23.9102C37.5801 19.4002 39.8002 16.9801 42.7902 16.9801C43.4049 16.9665 44.0158 17.0793 44.5852 17.3115C45.1546 17.5437 45.6702 17.8904 46.1001 18.3301L44.5901 20.4501C44.3638 20.1819 44.0863 19.9616 43.7738 19.8019C43.4613 19.6422 43.1201 19.5464 42.7701 19.5201C41.4001 19.5201 40.2902 21.0401 40.2902 24.0101V24.1101C40.2902 27.2801 41.4801 28.6201 42.7301 28.6201C43.1152 28.6041 43.4924 28.5066 43.8372 28.3342C44.1819 28.1619 44.4862 27.9185 44.7301 27.6201L46.1401 29.6802C45.6897 30.1501 45.1497 30.5248 44.552 30.7825C43.9543 31.0401 43.311 31.1754 42.6602 31.1802C39.5402 31.1202 37.5801 28.7401 37.5801 24.2301Z" fill="black"/>
<path d="M46.7207 24.3101V23.8501C46.7207 19.4701 48.7807 16.9202 51.7207 16.9202C54.6607 16.9202 56.7207 19.4701 56.7207 23.8301V24.2902C56.7207 28.6502 54.6607 31.2201 51.7207 31.2201C48.7807 31.2201 46.7207 28.6601 46.7207 24.3101ZM54.0907 24.2101V23.9501C54.0907 20.8201 53.0907 19.3601 51.7507 19.3601C50.4107 19.3601 49.4307 20.8102 49.4307 23.9302V24.1901C49.4307 27.3201 50.4308 28.7802 51.7708 28.7802C53.1108 28.7802 54.0907 27.3401 54.0907 24.2101Z" fill="black"/>
<path d="M58.5605 17.1201H62.0106C64.9006 17.1201 66.8005 18.7401 66.8005 21.8301C66.8005 25.0001 64.8006 26.5402 62.0906 26.6602H61.2206V30.9401H58.5706V17.1201H58.5605ZM61.9106 24.2902C62.2196 24.3103 62.5292 24.2618 62.8173 24.1483C63.1053 24.0348 63.3647 23.859 63.5769 23.6334C63.7891 23.4079 63.9487 23.1382 64.0444 22.8438C64.1402 22.5493 64.1696 22.2374 64.1306 21.9302C64.1306 20.4102 63.4405 19.5502 61.9305 19.5502H61.2206V24.2802H61.9106V24.2902Z" fill="black"/>
<path d="M70.6703 25.5402L67.0703 17.1401H69.9603L72.0204 22.4701L74.1003 17.1401H76.9104L73.3303 25.5201V31.0101H70.6803V25.5402H70.6703Z" fill="black"/>
<path d="M78.0802 17.1202H82.0002C82.6296 17.087 83.2592 17.1786 83.853 17.3897C84.4468 17.6008 84.993 17.9272 85.4602 18.3501C85.8594 18.7875 86.1669 19.3005 86.3644 19.8587C86.5619 20.4169 86.6455 21.0091 86.6102 21.6001V21.7201C86.6599 22.5039 86.4874 23.2857 86.1123 23.9756C85.7373 24.6656 85.175 25.2357 84.4902 25.6202L86.9302 30.9902H83.9302L81.8502 26.3002H80.6802V30.9902H78.0303V17.1202H78.0802ZM81.7803 23.9302C82.0753 23.9585 82.3729 23.9208 82.6516 23.82C82.9303 23.7191 83.1832 23.5576 83.3918 23.3471C83.6005 23.1365 83.7597 22.8822 83.858 22.6026C83.9563 22.3229 83.9912 22.0249 83.9602 21.7301C83.9896 21.4313 83.9514 21.1298 83.8483 20.8478C83.7452 20.5658 83.5799 20.3106 83.3647 20.1012C83.1496 19.8918 82.89 19.7336 82.6053 19.6382C82.3207 19.5428 82.0181 19.5127 81.7202 19.5502H80.7202V23.9302H81.7202H81.7803Z" fill="black"/>
<path d="M88.4102 17.1201H91.0402V30.9801H88.4102V17.1201Z" fill="black"/>
<path d="M92.8809 24.2301V23.9101C92.8809 19.6301 95.2208 16.9801 98.4808 16.9801C99.7747 16.9724 101.027 17.4384 102.001 18.2901L100.541 20.4701C100.302 20.1656 99.9992 19.918 99.6533 19.7451C99.3074 19.5721 98.9275 19.4782 98.5409 19.4701C96.8409 19.4701 95.6309 21.1101 95.6309 23.8901V24.1701C95.6309 27.3801 97.0008 28.7 98.5608 28.7C98.9558 28.7099 99.3461 28.6132 99.6908 28.4201V25.4201H97.8108V23.1201H102.171V29.9901C101.055 30.75 99.7405 31.164 98.3909 31.1801C95.2809 31.1201 92.8809 28.8401 92.8809 24.2301Z" fill="black"/>
<path d="M104.051 17.1201H106.701V22.7601H110.091V17.1201H112.741V30.9801H110.091V25.2601H106.701V30.9801H104.051V17.1201Z" fill="black"/>
<path d="M116.87 19.6301H114.24V17.1201H122.16V19.6101H119.48V30.9801H116.83V19.6101L116.87 19.6301Z" fill="black"/>
<path d="M37.5801 0H40.2101V13.86H37.5801V0Z" fill="black"/>
<path d="M42.4299 0H44.88L48.8199 7.55994V0H51.41V13.86H49.11L45.01 5.97998V13.86H42.4199V0H42.4299Z" fill="black"/>
<path d="M15.9004 0.120117C11.7895 0.120117 7.847 1.7531 4.94019 4.65991C2.03337 7.56673 0.400391 11.5093 0.400391 15.6201V31.1201H15.9004C20.0112 31.1201 23.9537 29.4871 26.8605 26.5803C29.7673 23.6735 31.4004 19.731 31.4004 15.6201V0.120117H15.9004ZM15.9004 28.2902C13.3945 28.2902 10.9449 27.547 8.86133 26.1548C6.77776 24.7626 5.15379 22.7839 4.19482 20.4688C3.23586 18.1536 2.98488 15.6061 3.47375 13.1483C3.96263 10.6906 5.16935 8.43306 6.94128 6.66113C8.71322 4.8892 10.9708 3.68248 13.4286 3.1936C15.8863 2.70473 18.4338 2.95559 20.7489 3.91455C23.064 4.87351 25.0429 6.49748 26.4351 8.58105C27.8273 10.6646 28.5703 13.1142 28.5703 15.6201C28.5597 18.9735 27.2203 22.1859 24.8453 24.5533C22.4704 26.9208 19.2538 28.2501 15.9004 28.2501V28.2902Z" fill="black"/>
<path d="M12.4807 19.33C12.9115 19.7726 13.4282 20.1225 13.9991 20.3581C14.5701 20.5937 15.1831 20.7101 15.8007 20.7C16.6447 20.7165 17.4806 20.5331 18.2401 20.1646C18.9996 19.7962 19.6612 19.2531 20.1707 18.58L22.4907 20.97C21.7229 21.881 20.7775 22.626 19.7123 23.1595C18.647 23.693 17.4842 24.0038 16.2948 24.0731C15.1054 24.1423 13.9145 23.9685 12.7946 23.5622C11.6746 23.1559 10.6491 22.5257 9.78076 21.71C8.21464 20.1055 7.33789 17.9522 7.33789 15.71C7.33789 13.4679 8.21464 11.3146 9.78076 9.71003C10.5763 8.92003 11.523 8.29856 12.5642 7.88276C13.6054 7.46695 14.7198 7.26544 15.8407 7.29011C17.1098 7.26407 18.3688 7.51955 19.5273 8.03827C20.6858 8.557 21.715 9.32609 22.5408 10.2901L20.2908 12.85C19.7957 12.1821 19.1501 11.6403 18.4065 11.2685C17.6629 10.8967 16.8421 10.7053 16.0107 10.71C14.7145 10.686 13.4596 11.1666 12.5107 12.0501C12.0245 12.5107 11.6433 13.0707 11.3931 13.692C11.1428 14.3132 11.0295 14.9811 11.0607 15.6501C11.0307 16.3283 11.1414 17.0053 11.3857 17.6386C11.6301 18.2719 12.003 18.8478 12.4807 19.33Z" fill="black"/>
</g>
<defs>
<clipPath id="clip0_1900_135">
<rect width="121.76" height="31.21" fill="white" transform="translate(0.400391)"/>
</clipPath>
</defs>
</svg>
