<svg width="177" height="32" viewBox="0 0 177 32" fill="none" xmlns="http://www.w3.org/2000/svg">
<g clip-path="url(#clip0_1900_69)">
<path d="M38.5205 0.219971H40.9705L44.9104 7.78003V0.219971H47.5205V14.08H45.2205L41.1206 6.19995V14.08H38.5205V0.219971Z" fill="black"/>
<path d="M49.2598 7.39001V6.93005C49.2598 2.55005 51.3198 0 54.2598 0C57.1998 0 59.2598 2.55003 59.2598 6.91003V7.37C59.2598 11.73 57.1998 14.3 54.2598 14.3C51.3198 14.3 49.2598 11.74 49.2598 7.39001ZM56.6299 7.29004V7.03003C56.6299 3.90003 55.6298 2.44006 54.2898 2.44006C52.9498 2.44006 51.9697 3.89001 51.9697 7.01001V7.27002C51.9697 10.4 52.9698 11.86 54.3098 11.86C55.6498 11.86 56.6299 10.42 56.6299 7.29004Z" fill="black"/>
<path d="M61.1006 0.219971H63.5205L67.4604 7.78003V0.219971H70.0505V14.08H67.7505L63.6504 6.19995V14.08H61.0605V0.219971H61.1006Z" fill="black"/>
<path d="M72 6.6499H77.52V9.21985H72.03V6.6499H72Z" fill="black"/>
<path d="M79.0303 7.30994V6.98987C79.0303 2.47987 81.2502 0.059941 84.2402 0.059941C84.855 0.0463167 85.466 0.159017 86.0354 0.39124C86.6048 0.623462 87.1204 0.970232 87.5503 1.40992L86.0403 3.52991C85.814 3.26171 85.5364 3.04128 85.2239 2.8816C84.9114 2.72191 84.5702 2.62613 84.2202 2.59986C82.8502 2.59986 81.7402 4.11985 81.7402 7.08985V7.18995C81.7402 10.3599 82.9302 11.7098 84.1802 11.7098C84.5652 11.6938 84.9426 11.5964 85.2874 11.4241C85.6321 11.2517 85.9363 11.0083 86.1802 10.7098L87.5903 12.7699C87.1399 13.2398 86.5999 13.6146 86.0022 13.8722C85.4045 14.1298 84.7612 14.2651 84.1104 14.2699C80.9904 14.2399 79.0303 11.8199 79.0303 7.30994Z" fill="black"/>
<path d="M88.1699 7.39001V6.93005C88.1699 2.55005 90.2299 0 93.1699 0C96.1099 0 98.1699 2.55003 98.1699 6.91003V7.37C98.1699 11.73 96.1099 14.3 93.1699 14.3C90.2299 14.3 88.1699 11.74 88.1699 7.39001ZM95.54 7.29004V7.03003C95.54 3.90003 94.54 2.44006 93.2 2.44006C91.86 2.44006 90.8801 3.89001 90.8801 7.01001V7.27002C90.8801 10.4 91.88 11.86 93.22 11.86C94.56 11.86 95.52 10.42 95.52 7.29004H95.54Z" fill="black"/>
<path d="M100.01 0.219971H102.72L105.16 5.58997L107.58 0.219971H110.31V14.08H107.72V5.44995L105.17 10.95L102.62 5.47998V14.0699H100.07V0.209961L100.01 0.219971Z" fill="black"/>
<path d="M112.42 0.219971H115.13L117.57 5.58997L119.99 0.219971H122.72V14.08H120.13V5.44995L117.58 10.95L115.03 5.47998V14.0699H112.48V0.209961L112.42 0.219971Z" fill="black"/>
<path d="M124.83 0.219971H132.04V2.68005H127.47V5.89001H131.47V8.34998H127.47V11.64H132.12V14.1H124.83V0.23999V0.219971Z" fill="black"/>
<path d="M133.86 0.220029H137.78C138.411 0.185501 139.043 0.276481 139.638 0.487607C140.234 0.698733 140.782 1.02579 141.25 1.45001C141.649 1.88738 141.957 2.40034 142.154 2.95855C142.352 3.51677 142.435 4.10892 142.4 4.70001V4.82C142.45 5.60374 142.277 6.38566 141.902 7.07562C141.527 7.76558 140.965 8.33554 140.28 8.72003L142.72 14.09H139.72L137.64 9.40008H136.52V14.09H133.87V0.230039L133.86 0.220029ZM137.56 7.03009C137.855 7.05839 138.153 7.02071 138.432 6.91986C138.71 6.81901 138.963 6.65751 139.172 6.44696C139.381 6.23641 139.54 5.98209 139.638 5.70245C139.736 5.42282 139.771 5.1248 139.74 4.83001C139.77 4.53121 139.731 4.22968 139.628 3.94769C139.525 3.6657 139.36 3.41051 139.145 3.20111C138.93 2.99171 138.67 2.8335 138.385 2.7381C138.101 2.64269 137.798 2.61261 137.5 2.65008H136.5V7.03009H137.5H137.56Z" fill="black"/>
<path d="M143.73 7.30994V6.98987C143.73 2.47987 145.95 0.059941 148.94 0.059941C149.555 0.0463167 150.166 0.159017 150.736 0.39124C151.305 0.623462 151.821 0.970232 152.25 1.40992L150.74 3.52991C150.514 3.26213 150.236 3.04197 149.924 2.88233C149.611 2.72268 149.27 2.62667 148.92 2.59986C147.55 2.59986 146.44 4.11985 146.44 7.08985V7.18995C146.44 10.3599 147.631 11.7098 148.881 11.7098C149.266 11.6938 149.643 11.5964 149.988 11.4241C150.332 11.2517 150.637 11.0083 150.881 10.7098L152.291 12.7699C151.839 13.241 151.297 13.6165 150.698 13.8742C150.098 14.1318 149.453 14.2665 148.801 14.2699C145.691 14.2399 143.73 11.8199 143.73 7.30994Z" fill="black"/>
<path d="M153.79 0.219971H156.42V14.08H153.79V0.219971Z" fill="black"/>
<path d="M161.61 0.129883H164.28L168.14 14.0499H165.43L164.68 11.1599H161.12L160.39 14.0499H157.78L161.61 0.129883ZM164.05 8.79993L162.92 4.24988L161.75 8.79993H164.05Z" fill="black"/>
<path d="M169.391 0.219971H172.041V11.61H176.2V14.09H169.391V0.22998V0.219971Z" fill="black"/>
<path d="M38.4004 26.41V17.3H41.0505V26.55C41.0505 28.15 41.7405 28.91 42.8105 28.91C43.8805 28.91 44.5706 28.1799 44.5706 26.5699V17.3H47.2004V26.39C47.2004 29.78 45.4205 31.39 42.7805 31.39C40.1405 31.39 38.4004 29.76 38.4004 26.41Z" fill="black"/>
<path d="M48.1699 29.4599L49.75 27.3999C50.4099 28.2111 51.361 28.7315 52.3999 28.8499C52.5971 28.8666 52.7956 28.842 52.9827 28.7775C53.1697 28.713 53.3413 28.6103 53.4863 28.4756C53.6313 28.341 53.7466 28.1774 53.8247 27.9956C53.9028 27.8139 53.942 27.6178 53.9399 27.42C53.9399 26.81 53.6201 26.33 52.0601 25.42C49.9601 24.17 48.73 23.0799 48.73 21.1399C48.7197 20.5999 48.823 20.0637 49.033 19.5661C49.2429 19.0684 49.555 18.6205 49.949 18.251C50.3429 17.8816 50.81 17.5988 51.3201 17.4212C51.8301 17.2436 52.3717 17.175 52.9099 17.2199C53.609 17.2204 54.3008 17.3625 54.9436 17.6375C55.5864 17.9125 56.1667 18.3146 56.6499 18.8199L55.03 20.8199C54.7575 20.4793 54.4182 20.1981 54.033 19.9935C53.6478 19.7888 53.2248 19.6651 52.79 19.6299C52.6178 19.6105 52.4435 19.627 52.2781 19.6785C52.1126 19.73 51.9596 19.8155 51.8289 19.9292C51.6981 20.043 51.5926 20.1827 51.5188 20.3395C51.445 20.4963 51.4044 20.6666 51.3999 20.8399C51.3999 21.4899 51.7201 21.97 53.6401 23.16C55.5601 24.35 56.6401 25.4399 56.6401 27.2799C56.6407 27.8207 56.5315 28.356 56.3193 28.8534C56.1072 29.3509 55.7962 29.8001 55.4055 30.174C55.0148 30.5479 54.5524 30.8386 54.0461 31.0287C53.5399 31.2188 53.0002 31.3043 52.46 31.2799C51.659 31.2826 50.8658 31.1227 50.1284 30.8099C49.391 30.497 48.7247 30.0377 48.1699 29.4599Z" fill="black"/>
<path d="M58.1104 17.3H65.3203V19.76H60.7502V22.97H64.7502V25.4301H60.7502V28.72H65.4001V31.13H58.1104V17.27V17.3Z" fill="black"/>
<path d="M70.7803 17.3H74.2302C77.1202 17.3 79.0203 18.92 79.0203 22.01C79.0203 25.18 77.0203 26.72 74.3103 26.84H73.4402V31.13H70.7903V17.27L70.7803 17.3ZM74.1304 24.47C74.4394 24.4901 74.7488 24.4418 75.0369 24.3282C75.3249 24.2147 75.5845 24.0389 75.7966 23.8134C76.0088 23.5878 76.1684 23.3182 76.2642 23.0237C76.3599 22.7292 76.3893 22.4172 76.3503 22.11C76.3503 20.59 75.6601 19.73 74.1501 19.73H73.4402V24.46H74.1304V24.47Z" fill="black"/>
<path d="M80.5205 17.3H87.7305V19.76H83.1604V22.97H87.1604V25.4301H83.1604V28.72H87.8105V31.13H80.5205V17.27V17.3Z" fill="black"/>
<path d="M89.5205 17.3H93.4404C94.0698 17.2669 94.6994 17.3584 95.2932 17.5695C95.887 17.7806 96.4332 18.107 96.9004 18.53C97.2996 18.9674 97.6072 19.4804 97.8047 20.0386C98.0022 20.5968 98.0858 21.1889 98.0505 21.78V21.9C98.1003 22.6838 97.9275 23.4656 97.5525 24.1555C97.1774 24.8455 96.6152 25.4156 95.9304 25.8L98.3706 31.17H95.3706L93.2905 26.48H92.1206V31.13H89.5205V17.27V17.3ZM93.2205 24.11C93.5155 24.1383 93.8133 24.1007 94.092 23.9999C94.3708 23.899 94.6234 23.7374 94.832 23.5269C95.0407 23.3163 95.2 23.0621 95.2983 22.7825C95.3966 22.5028 95.4314 22.2048 95.4004 21.91C95.4298 21.6112 95.3917 21.3096 95.2886 21.0276C95.1855 20.7456 95.0201 20.4905 94.8049 20.2811C94.5898 20.0717 94.3303 19.9134 94.0457 19.818C93.761 19.7226 93.4583 19.6925 93.1604 19.73H92.1604V24.13H93.1604L93.2205 24.11Z" fill="black"/>
<path d="M99.75 17.3H102.46L104.9 22.67L107.32 17.3H110.05V31.13H107.46V22.5L104.91 28.01L102.36 22.54V31.13H99.8101V17.27L99.75 17.3Z" fill="black"/>
<path d="M112.24 17.3H114.87V31.13H112.24V17.27V17.3Z" fill="black"/>
<path d="M119.09 19.79H116.46V17.3H124.38V19.79H121.75V31.13H119.1V19.76L119.09 19.79Z" fill="black"/>
<path d="M127.88 19.79H125.25V17.3H133.17V19.79H130.52V31.13H127.87V19.76L127.88 19.79Z" fill="black"/>
<path d="M134.67 17.3H141.88V19.76H137.31V22.97H141.31V25.4301H137.31V28.72H141.96V31.13H134.67V17.27V17.3Z" fill="black"/>
<path d="M143.69 17.3H147.121C150.741 17.3 152.9 19.8099 152.9 24.0699V24.39C152.9 28.63 150.741 31.16 147.121 31.16H143.69V17.3ZM146.341 19.72V28.72H147.071C148.911 28.72 150.16 27.39 150.16 24.3V24.13C150.16 21.04 148.911 19.71 147.071 19.71H146.341V19.72Z" fill="black"/>
<path d="M16.4502 0.219971C12.3393 0.219971 8.3968 1.85307 5.48999 4.75989C2.58318 7.6667 0.950195 11.6091 0.950195 15.72V31.22H16.4502C20.5611 31.22 24.5036 29.587 27.4104 26.6802C30.3172 23.7734 31.9502 19.8308 31.9502 15.72V0.219971H16.4502ZM16.4502 28.39C13.9443 28.39 11.4947 27.647 9.41113 26.2548C7.32756 24.8626 5.70359 22.8837 4.74463 20.5686C3.78567 18.2535 3.53481 15.7059 4.02368 13.2482C4.51256 10.7904 5.71928 8.53292 7.49121 6.76099C9.26314 4.98906 11.5208 3.78233 13.9785 3.29346C16.4363 2.80458 18.9837 3.05544 21.2988 4.0144C23.614 4.97337 25.5927 6.59734 26.9849 8.68091C28.3771 10.7645 29.1204 13.2141 29.1204 15.72C29.1217 17.3838 28.7952 19.0316 28.1597 20.5693C27.5242 22.107 26.5919 23.5046 25.4163 24.682C24.2407 25.8595 22.8448 26.7938 21.3081 27.4318C19.7714 28.0697 18.1241 28.3987 16.4602 28.4L16.4502 28.39Z" fill="black"/>
<path d="M13.0305 19.4799C13.4613 19.9225 13.9779 20.2724 14.5488 20.508C15.1198 20.7436 15.733 20.86 16.3506 20.8499C17.1946 20.8664 18.0305 20.6829 18.79 20.3144C19.5496 19.9459 20.211 19.403 20.7205 18.7299L23.0405 21.1199C22.2727 22.0309 21.3272 22.7758 20.262 23.3093C19.1967 23.8428 18.0341 24.1537 16.8447 24.223C15.6554 24.2922 14.4642 24.1184 13.3442 23.7121C12.2243 23.3058 11.1989 22.6756 10.3306 21.8599C8.76445 20.2554 7.8877 18.1021 7.8877 15.8599C7.8877 13.6178 8.76445 11.4645 10.3306 9.85993C11.1261 9.06993 12.0728 8.44846 13.114 8.03266C14.1552 7.61686 15.2697 7.41534 16.3906 7.44001C17.6597 7.41397 18.9187 7.66945 20.0771 8.18818C21.2356 8.70691 22.2648 9.476 23.0906 10.44L20.8406 12.9999C20.3455 12.332 19.6999 11.7902 18.9563 11.4184C18.2127 11.0466 17.3919 10.8552 16.5605 10.8599C15.2643 10.8359 14.0094 11.3163 13.0605 12.1999C12.5744 12.6605 12.1931 13.2206 11.9429 13.8419C11.6926 14.4631 11.5794 15.131 11.6106 15.8C11.5806 16.4782 11.6912 17.1552 11.9355 17.7885C12.1799 18.4218 12.5528 18.9977 13.0305 19.4799Z" fill="black"/>
</g>
<defs>
<clipPath id="clip0_1900_69">
<rect width="175.24" height="31.36" fill="white" transform="translate(0.950195)"/>
</clipPath>
</defs>
</svg>
