<svg width="160" height="40" viewBox="0 0 160 40" fill="none" xmlns="http://www.w3.org/2000/svg">
<g clip-path="url(#clip0_1900_113)" filter="url(#filter0_d_1900_113)">
<path d="M41.5703 9.32996V0.179932H44.2205V9.42993C44.2205 11.0299 44.9105 11.7899 45.9805 11.7899C47.0505 11.7899 47.7405 11.06 47.7405 9.44995V0.179932H50.3704V9.2699C50.3704 12.6599 48.5904 14.2699 45.9504 14.2699C43.3104 14.2699 41.5703 12.68 41.5703 9.32996Z" fill="black"/>
<path d="M52.4104 0.179932H54.8604L58.8005 7.73999V0.179932H61.3904V14.0399H59.0903L54.9905 6.15991V14.0399H52.4004V0.179932H52.4104Z" fill="black"/>
<path d="M63.54 0.179932H66.1899V6.07996L69.5 0.179932H72.5898L69.03 6.03992L72.71 14.0399H69.71L67.1799 8.54993L66.25 10.11V14.0299H63.5999V0.179932H63.54Z" fill="black"/>
<path d="M73.9104 0.179932H76.3604L80.3005 7.73999V0.179932H82.8904V14.0399H80.5903L76.4905 6.15991V14.0399H73.9004V0.179932H73.9104Z" fill="black"/>
<path d="M84.6904 7.39001V6.93005C84.6904 2.55005 86.7504 0 89.6904 0C92.6304 0 94.6904 2.55003 94.6904 6.91003V7.37C94.6904 11.73 92.6304 14.3 89.6904 14.3C86.7504 14.3 84.6904 11.75 84.6904 7.39001ZM92.0605 7.29004V7.03003C92.0605 3.90003 91.0605 2.44006 89.7205 2.44006C88.3805 2.44006 87.4004 3.89001 87.4004 7.01001V7.27002C87.4004 10.4 88.4005 11.8601 89.7405 11.8601C91.0805 11.8601 92.0205 10.42 92.0205 7.29004H92.0605Z" fill="black"/>
<path d="M95.2598 0.179932H98.0298L99.7297 9.00989L101.63 0.159912H104.01L105.91 9.00989L107.61 0.179932H110.32L107.25 14.1H104.69L102.81 5.56995L100.93 14.1H98.3596L95.2598 0.179932Z" fill="black"/>
<path d="M111.69 0.179932H114.15L118.09 7.73999V0.179932H120.69V14.0399H118.39L114.291 6.15991V14.0399H111.69V0.179932Z" fill="black"/>
<path d="M41.6904 17.3001H45.6104C46.2397 17.2669 46.8693 17.3585 47.4631 17.5696C48.0569 17.7807 48.6031 18.1071 49.0703 18.5301C49.4695 18.9674 49.7771 19.4804 49.9746 20.0386C50.1721 20.5968 50.2557 21.189 50.2205 21.7801V21.9001C50.2702 22.6838 50.0975 23.4657 49.7224 24.1557C49.3474 24.8456 48.7851 25.4156 48.1003 25.8001L50.5405 31.1701H47.5405L45.4604 26.4801H44.2905V31.1801H41.6904V17.3201V17.3001ZM45.3904 24.1101C45.6854 24.1384 45.9832 24.1008 46.262 23.9999C46.5407 23.8991 46.7933 23.7376 47.002 23.527C47.2106 23.3165 47.37 23.0621 47.4683 22.7825C47.5666 22.5029 47.6013 22.2049 47.5703 21.9101C47.5997 21.6113 47.5616 21.3097 47.4585 21.0277C47.3554 20.7458 47.19 20.4906 46.9749 20.2812C46.7597 20.0718 46.5003 19.9136 46.2156 19.8182C45.9309 19.7228 45.6282 19.6927 45.3303 19.7301H44.3303V24.1101H45.3303H45.3904Z" fill="black"/>
<path d="M52.0205 17.3H54.6904V31.1801H52.0605V17.3201L52.0205 17.3Z" fill="black"/>
<path d="M56.4902 24.39V24.07C56.4902 19.79 58.8301 17.14 62.0901 17.14C63.384 17.1323 64.636 17.5983 65.6101 18.45L64.1501 20.63C63.9117 20.3255 63.6086 20.0779 63.2627 19.905C62.9168 19.7321 62.5368 19.6381 62.1501 19.63C60.4501 19.63 59.2402 21.27 59.2402 24.05V24.33C59.2402 27.54 60.6102 28.8601 62.1702 28.8601C62.5651 28.8699 62.9556 28.7732 63.3003 28.58V25.58H61.4202V23.2401H65.6902V30.18C64.5747 30.9399 63.2598 31.3538 61.9102 31.37C58.8802 31.32 56.4902 29.01 56.4902 24.39Z" fill="black"/>
<path d="M67.6904 17.3H70.3403V22.9401H73.6904V17.3H76.3403V31.1801H73.6904V25.4601H70.3005V31.1801H67.6904V17.3201V17.3Z" fill="black"/>
<path d="M80.4797 19.8H77.8496V17.3101H85.7698V19.8H83.1396V31.1801H80.4897V19.8101L80.4797 19.8Z" fill="black"/>
<path d="M86.0801 29.4601L87.6602 27.4001C88.32 28.2112 89.2714 28.7317 90.3103 28.8501C90.5075 28.8669 90.7057 28.8422 90.8928 28.7778C91.0799 28.7133 91.2515 28.6104 91.3965 28.4757C91.5415 28.3411 91.6567 28.1777 91.7349 27.9959C91.813 27.8141 91.8522 27.6179 91.8501 27.4201C91.8501 26.8101 91.5302 26.3301 89.9702 25.4201C87.8702 24.1701 86.6401 23.0801 86.6401 21.1401C86.6299 20.6 86.7332 20.064 86.9431 19.5663C87.1531 19.0687 87.4652 18.6206 87.8591 18.2511C88.2531 17.8817 88.7202 17.599 89.2302 17.4214C89.7403 17.2438 90.2818 17.1753 90.8201 17.2201C91.5191 17.2212 92.2108 17.3634 92.8535 17.6383C93.4962 17.9133 94.0768 18.3153 94.5603 18.8201L92.9402 20.8201C92.6676 20.4796 92.3283 20.1983 91.9431 19.9937C91.5579 19.7891 91.135 19.6653 90.7002 19.63C90.528 19.6106 90.3537 19.6272 90.1882 19.6788C90.0228 19.7303 89.8697 19.8156 89.739 19.9294C89.6083 20.0431 89.5028 20.1829 89.429 20.3396C89.3551 20.4964 89.3148 20.6669 89.3103 20.8401C89.3103 21.4901 89.6303 21.9701 91.5503 23.1601C93.4703 24.3501 94.5503 25.4401 94.5503 27.2801C94.5508 27.8209 94.4417 28.3561 94.2295 28.8536C94.0173 29.351 93.7064 29.8002 93.3157 30.1741C92.925 30.548 92.4626 30.8388 91.9563 31.0289C91.45 31.2189 90.9104 31.3044 90.3701 31.2801C89.5691 31.2827 88.776 31.1228 88.0386 30.81C87.3012 30.4971 86.6348 30.0379 86.0801 29.4601Z" fill="black"/>
<path d="M96.0205 17.3H98.6904V22.9401H102.08V17.3H104.69V31.1801H102.041V25.4601H98.6904V31.1801H96.0405V17.3201L96.0205 17.3Z" fill="black"/>
<path d="M106.47 24.4701V24.01C106.47 19.63 108.53 17.0801 111.47 17.0801C114.41 17.0801 116.47 19.6301 116.47 23.9901V24.4501C116.47 28.8101 114.41 31.38 111.47 31.38C108.53 31.38 106.47 28.8301 106.47 24.4701ZM113.84 24.37V24.1101C113.84 20.9801 112.84 19.52 111.5 19.52C110.16 19.52 109.18 20.9701 109.18 24.0901V24.3501C109.18 27.4801 110.18 28.9401 111.52 28.9401C112.86 28.9401 113.83 27.5 113.83 24.37H113.84Z" fill="black"/>
<path d="M118.3 17.3H120.95V28.6901H125.11V31.1801H118.3V17.3201V17.3Z" fill="black"/>
<path d="M126.58 17.3H130.01C133.63 17.3 135.79 19.8101 135.79 24.0701V24.39C135.79 28.63 133.63 31.16 130.01 31.16H126.58V17.3ZM129.23 19.7201V28.7201H129.96C131.8 28.7201 133.05 27.39 133.05 24.3V24.1801C133.05 21.0901 131.8 19.76 129.96 19.76H129.23V19.7201Z" fill="black"/>
<path d="M137.521 17.3H144.69V19.76H140.12V22.9701H144.12V25.4301H140.12V28.7201H144.771V31.1801H137.48V17.3201L137.521 17.3Z" fill="black"/>
<path d="M146.55 17.3001H150.47C151.099 17.2669 151.729 17.3585 152.323 17.5696C152.917 17.7807 153.463 18.1071 153.93 18.5301C154.329 18.9674 154.636 19.4804 154.834 20.0386C155.032 20.5968 155.115 21.189 155.08 21.7801V21.9001C155.13 22.6838 154.957 23.4657 154.582 24.1557C154.207 24.8456 153.645 25.4156 152.96 25.8001L155.4 31.1701H152.4L150.32 26.4801H149.15V31.1801H146.5V17.3201L146.55 17.3001ZM150.25 24.1101C150.545 24.1384 150.843 24.1008 151.121 23.9999C151.4 23.8991 151.653 23.7376 151.862 23.527C152.07 23.3165 152.229 23.0621 152.328 22.7825C152.426 22.5029 152.461 22.2049 152.43 21.9101C152.459 21.6113 152.421 21.3097 152.318 21.0277C152.215 20.7458 152.05 20.4906 151.834 20.2812C151.619 20.0718 151.36 19.9136 151.075 19.8182C150.79 19.7228 150.488 19.6927 150.19 19.7301H149.19V24.1101H150.19H150.25Z" fill="black"/>
<path d="M19.6201 0.179932C15.5093 0.179932 11.5667 1.81291 8.65991 4.71973C5.7531 7.62654 4.12012 11.5691 4.12012 15.6799V31.1799H19.6201C23.731 31.1799 27.6735 29.547 30.5803 26.6401C33.4871 23.7333 35.1201 19.7908 35.1201 15.6799V0.179932H19.6201ZM19.6201 28.35C17.1142 28.35 14.6646 27.6068 12.5811 26.2146C10.4975 24.8224 8.87351 22.8437 7.91455 20.5286C6.95559 18.2134 6.70473 15.6659 7.1936 13.2081C7.68248 10.7504 8.8892 8.49288 10.6611 6.72095C12.4331 4.94902 14.6907 3.74229 17.1484 3.25342C19.6062 2.76454 22.1536 3.0154 24.4688 3.97437C26.7839 4.93333 28.7626 6.5573 30.1548 8.64087C31.547 10.7244 32.2903 13.174 32.2903 15.6799C32.2969 17.3471 31.9742 18.9993 31.3411 20.5416C30.7079 22.0839 29.7767 23.486 28.6006 24.6677C27.4245 25.8494 26.0266 26.7874 24.4873 27.4279C22.948 28.0683 21.2973 28.3986 19.6301 28.3999L19.6201 28.35Z" fill="black"/>
<path d="M16.2004 19.48C16.6312 19.9227 17.1478 20.2725 17.7188 20.5081C18.2897 20.7437 18.903 20.8601 19.5205 20.85C20.3645 20.8665 21.2004 20.683 21.96 20.3145C22.7195 19.9461 23.3809 19.4031 23.8904 18.73L26.2104 21.1199C25.4426 22.0309 24.4971 22.7759 23.4319 23.3094C22.3666 23.8429 21.204 24.1537 20.0146 24.223C18.8253 24.2922 17.6341 24.1184 16.5142 23.7121C15.3942 23.3058 14.3689 22.6757 13.5005 21.8601C11.9344 20.2555 11.0576 18.1022 11.0576 15.8601C11.0576 13.6179 11.9344 11.4646 13.5005 9.86005C14.2961 9.07005 15.2427 8.44858 16.2839 8.03278C17.3252 7.61698 18.4396 7.41534 19.5605 7.44001C20.8296 7.41397 22.0886 7.66945 23.2471 8.18818C24.4056 8.70691 25.4347 9.476 26.2605 10.44L24.0105 12.9999C23.5154 12.332 22.8698 11.7902 22.1262 11.4184C21.3826 11.0466 20.5619 10.8553 19.7305 10.8601C18.4342 10.8361 17.1793 11.3165 16.2305 12.2C15.7443 12.6606 15.363 13.2206 15.1128 13.8419C14.8626 14.4631 14.7493 15.131 14.7805 15.8C14.7505 16.4782 14.8611 17.1552 15.1055 17.7885C15.3498 18.4218 15.7227 18.9978 16.2004 19.48Z" fill="black"/>
</g>
<defs>
<filter id="filter0_d_1900_113" x="0.120117" y="0" width="159.28" height="39.3799" filterUnits="userSpaceOnUse" color-interpolation-filters="sRGB">
<feFlood flood-opacity="0" result="BackgroundImageFix"/>
<feColorMatrix in="SourceAlpha" type="matrix" values="0 0 0 0 0 0 0 0 0 0 0 0 0 0 0 0 0 0 127 0" result="hardAlpha"/>
<feOffset dy="4"/>
<feGaussianBlur stdDeviation="2"/>
<feComposite in2="hardAlpha" operator="out"/>
<feColorMatrix type="matrix" values="0 0 0 0 0 0 0 0 0 0 0 0 0 0 0 0 0 0 0.25 0"/>
<feBlend mode="normal" in2="BackgroundImageFix" result="effect1_dropShadow_1900_113"/>
<feBlend mode="normal" in="SourceGraphic" in2="effect1_dropShadow_1900_113" result="shape"/>
</filter>
<clipPath id="clip0_1900_113">
<rect width="151.28" height="31.38" fill="white" transform="translate(4.12012)"/>
</clipPath>
</defs>
</svg>
