<svg width="32" height="33" viewBox="0 0 32 33" fill="none" xmlns="http://www.w3.org/2000/svg">
<path d="M5.77695 16.6307C7.27926 16.6307 9.82086 16.8706 11.2076 16.271C11.785 16.031 11.9006 15.7916 11.9006 15.5517C11.9006 15.432 11.6694 14.9526 11.092 14.353C9.70526 13.0346 7.6255 12.3153 6.23938 11.2363C6.00816 11.1166 4.15962 9.5582 4.15962 7.40078C4.15962 5.72273 5.54632 4.28406 7.16365 4.28406C8.78098 4.28406 10.2833 5.60245 11.2076 7.16081C12.1318 8.83887 13.2873 12.9143 14.9047 12.9143C15.4821 12.9143 15.8289 11.7156 15.8289 9.5582C15.8289 7.88015 15.4821 6.08181 15.8289 4.40375C16.1758 2.60601 17.4463 0.927367 19.2954 0.927367C20.3353 0.927367 22.2994 1.52642 22.2994 4.28348C22.2994 6.56117 20.4509 8.95856 20.2197 9.31764C20.1041 9.67731 18.833 11.8347 18.833 13.1531C18.833 13.9921 19.4104 13.9921 19.6416 13.9921C21.1439 13.8724 22.8769 12.5535 23.3387 12.3141C24.6098 11.4751 26.1115 10.3961 27.6139 10.3961C28.1913 10.3961 31.3109 10.7557 31.3109 13.7522C31.3109 14.4715 31.0797 15.1908 30.7335 15.6702C29.8092 17.1089 27.7295 17.3482 26.2271 17.3482C25.1873 17.3482 24.1474 17.2286 22.9919 17.3482C22.5295 17.3482 19.9879 17.4679 19.9879 18.307C19.9879 19.146 22.1832 20.4644 23.4543 21.1837C25.4185 22.2627 28.3069 23.3411 28.3069 26.3382C28.3069 28.0162 26.9202 29.5746 25.1873 29.5746C24.8404 29.5746 23.9162 29.3346 22.9919 28.6159C21.0277 27.1772 20.6809 25.4991 19.641 23.5817C19.4098 23.3417 18.0237 21.1843 16.9838 21.1843C16.9838 21.1843 16.637 21.304 16.5214 21.6637C15.7127 23.222 16.2902 26.3387 16.2902 28.1365C16.2902 28.7356 16.2902 29.3352 16.1746 29.5752C16.059 30.0545 15.2503 32.9313 12.7081 32.9313C11.5526 32.9313 9.58848 32.2119 9.58848 29.2155C9.58848 26.5781 11.2058 25.1401 12.5925 22.9826C13.2856 21.9036 13.4012 20.9449 13.4012 20.5852C13.4012 20.1059 13.17 19.7462 12.5925 19.7462C12.1301 19.7462 11.7838 19.8659 11.2058 20.1059C8.31739 21.4243 7.04629 23.2226 4.04226 23.2226C1.50007 23.2226 0.691406 21.1849 0.691406 20.1059C0.692573 17.8294 2.4261 16.6307 5.77695 16.6307Z" fill="currentColor"/>
</svg>
