<svg width="32" height="31" viewBox="0 0 32 31" fill="none" xmlns="http://www.w3.org/2000/svg">
<path d="M16.3006 5.08555C16.3006 6.58785 16.0606 9.12946 16.6603 10.5162C16.9002 11.0936 17.1396 11.2092 17.3796 11.2092C17.4993 11.2092 17.9787 10.978 18.5783 10.4006C19.8967 9.01385 20.616 6.93409 21.695 5.54797C21.8147 5.31676 23.3731 3.46821 25.5305 3.46821C27.2085 3.46821 28.6472 4.85491 28.6472 6.47225C28.6472 8.08958 27.3288 9.59189 25.7705 10.5162C24.0924 11.4404 20.017 12.5959 20.017 14.2133C20.017 14.7907 21.2157 15.1375 23.3731 15.1375C25.0511 15.1375 26.8495 14.7907 28.5275 15.1375C30.3253 15.4843 32.0039 16.7549 32.0039 18.604C32.0039 19.6439 31.4049 21.608 28.6478 21.608C26.3701 21.608 23.9727 19.7595 23.6136 19.5283C23.254 19.4127 21.0965 18.1416 19.7782 18.1416C18.9391 18.1416 18.9391 18.719 18.9391 18.9502C19.0588 20.4525 20.3778 22.1855 20.6172 22.6473C21.4562 23.9184 22.5352 25.4201 22.5352 26.9224C22.5352 27.4999 22.1755 30.6195 19.1791 30.6195C18.4598 30.6195 17.7404 30.3883 17.2611 30.0421C15.8224 29.1178 15.583 27.0381 15.583 25.5357C15.583 24.4959 15.7027 23.456 15.583 22.3005C15.583 21.8381 15.4633 19.2965 14.6243 19.2965C13.7853 19.2965 12.4669 21.4918 11.7476 22.7629C10.6686 24.7271 9.59014 27.6155 6.59311 27.6155C4.91505 27.6155 3.35669 26.2288 3.35669 24.4959C3.35669 24.149 3.59667 23.2248 4.31542 22.3005C5.75408 20.3363 7.43214 19.9895 9.34958 18.9496C9.58955 18.7184 11.747 17.3323 11.747 16.2924C11.747 16.2924 11.6273 15.9456 11.2676 15.83C9.70925 15.0213 6.59253 15.5988 4.79478 15.5988C4.19572 15.5988 3.59608 15.5988 3.35611 15.4832C2.87675 15.3676 0 14.5589 0 12.0167C0 10.8612 0.719333 8.89708 3.71578 8.89708C6.35314 8.89708 7.79122 10.5144 9.94864 11.9011C11.0276 12.5942 11.9864 12.7098 12.346 12.7098C12.8254 12.7098 13.1851 12.4786 13.1851 11.9011C13.1851 11.4387 13.0654 11.0924 12.8254 10.5144C11.507 7.62598 9.70866 6.35489 9.70866 3.35085C9.70866 0.808666 11.7464 0 12.8254 0C15.1019 0.00116775 16.3006 1.73469 16.3006 5.08555Z" fill="black"/>
</svg>
