<svg width="32" height="31" viewBox="0 0 32 31" fill="none" xmlns="http://www.w3.org/2000/svg">
<path d="M15.7033 25.7731C15.7033 24.2708 15.9433 21.7292 15.3436 20.3425C15.1037 19.765 14.8643 19.6494 14.6243 19.6494C14.5046 19.6494 14.0252 19.8806 13.4256 20.4581C12.1072 21.8448 11.3879 23.9246 10.3089 25.3107C10.1892 25.5419 8.63083 27.3904 6.47342 27.3904C4.79536 27.3904 3.35669 26.0037 3.35669 24.3864C3.35669 22.7691 4.67508 21.2668 6.23344 20.3425C7.9115 19.4182 11.9869 18.2627 11.9869 16.6454C11.9869 16.0679 10.7882 15.7211 8.63083 15.7211C6.95278 15.7211 5.15444 16.0679 3.47639 15.7211C1.67864 15.3743 -1.46476e-06 14.1038 -1.62641e-06 12.2547C-1.71732e-06 11.2148 0.599052 9.25062 3.35611 9.25062C5.6338 9.25062 8.03119 11.0992 8.39027 11.3304C8.74994 11.446 10.9074 12.7171 12.2257 12.7171C13.0648 12.7171 13.0648 12.1396 13.0648 11.9084C12.9451 10.4061 11.6261 8.67317 11.3867 8.21133C10.5477 6.94023 9.46869 5.43851 9.46869 3.9362C9.46869 3.35875 9.82836 0.239109 12.8248 0.239109C13.5441 0.239109 14.2635 0.470319 14.7428 0.816557C16.1815 1.74083 16.4209 3.82059 16.4209 5.3229C16.4209 6.36278 16.3012 7.40266 16.4209 8.55815C16.4209 9.02058 16.5406 11.5622 17.3796 11.5622C18.2186 11.5622 19.537 9.36681 20.2564 8.09572C21.3354 6.13156 22.4138 3.24314 25.4108 3.24314C27.0888 3.24314 28.6472 4.62984 28.6472 6.36278C28.6472 6.7096 28.4072 7.63388 27.6885 8.55815C26.2498 10.5223 24.5718 10.8691 22.6543 11.909C22.4144 12.1402 20.2569 13.5263 20.2569 14.5662C20.2569 14.5662 20.3766 14.913 20.7363 15.0286C22.2947 15.8373 25.4114 15.2599 27.2091 15.2599C27.8082 15.2599 28.4078 15.2599 28.6478 15.3755C29.1272 15.4911 32.0039 16.2997 32.0039 18.8419C32.0039 19.9974 31.2846 21.9616 28.2881 21.9616C25.6508 21.9616 24.2127 20.3442 22.0553 18.9575C20.9763 18.2645 20.0175 18.1489 19.6579 18.1489C19.1785 18.1489 18.8189 18.3801 18.8189 18.9575C18.8189 19.42 18.9385 19.7662 19.1785 20.3442C20.4969 23.2327 22.2952 24.5038 22.2952 27.5078C22.2952 30.05 20.2575 30.8586 19.1785 30.8586C16.902 30.8575 15.7033 29.124 15.7033 25.7731Z" fill="black"/>
</svg>
