<svg width="21" height="20" viewBox="0 0 21 20" fill="none" xmlns="http://www.w3.org/2000/svg">
<path d="M19 10C19 11.1162 18.7801 12.2215 18.353 13.2528C17.9258 14.2841 17.2997 15.2211 16.5104 16.0104C15.7211 16.7997 14.7841 17.4258 13.7528 17.853C12.7215 18.2801 11.6162 18.5 10.5 18.5C9.38376 18.5 8.27846 18.2801 7.24719 17.853C6.21592 17.4258 5.27889 16.7997 4.48959 16.0104C3.70029 15.2211 3.07419 14.2841 2.64702 13.2528C2.21986 12.2215 2 11.1162 2 10C2 8.88376 2.21986 7.77846 2.64702 6.74719C3.07419 5.71592 3.70029 4.77889 4.48959 3.98959C5.27889 3.20029 6.21592 2.57419 7.24719 2.14702C8.27846 1.71986 9.38377 1.5 10.5 1.5C11.6162 1.5 12.7215 1.71986 13.7528 2.14702C14.7841 2.57419 15.7211 3.2003 16.5104 3.98959C17.2997 4.77889 17.9258 5.71592 18.353 6.74719C18.7801 7.77846 19 8.88377 19 10L19 10Z" stroke="#0051FF" stroke-opacity="0.25" stroke-linecap="round"/>
<path d="M10.5 18.5C8.81886 18.5 7.17547 18.0015 5.77765 17.0675C4.37984 16.1335 3.29037 14.806 2.64702 13.2528C2.00368 11.6996 1.83535 9.99057 2.16333 8.34173C2.4913 6.69289 3.30085 5.17834 4.48959 3.98959C5.67834 2.80085 7.19289 1.9913 8.84173 1.66333C10.4906 1.33535 12.1996 1.50368 13.7528 2.14702C15.306 2.79037 16.6335 3.87984 17.5675 5.27765C18.5015 6.67547 19 8.31886 19 10" stroke="#0051FF" stroke-linecap="round"/>
</svg>
