<svg width="20" height="20" viewBox="0 0 20 20" fill="none" xmlns="http://www.w3.org/2000/svg">
<path fill-rule="evenodd" clip-rule="evenodd" d="M8.52152 1C3.80044 1 0 4.9086 0 9.69687C0 14.4851 3.80044 18.3937 8.52152 18.3937C11.0642 18.3937 13.3398 17.26 14.8985 15.4656L19.3496 19L20 18.1941L15.53 14.6448C16.4846 13.2384 17.043 11.5323 17.043 9.69687C17.043 4.9086 13.2426 1 8.52152 1ZM1.04073 9.69687C1.04073 5.44896 4.40476 2.03228 8.52152 2.03228C12.6383 2.03228 16.0023 5.44896 16.0023 9.69687C16.0023 13.9448 12.6383 17.3615 8.52152 17.3615C4.40476 17.3615 1.04073 13.9448 1.04073 9.69687Z" fill="currentColor"/>
</svg>
